<?xml version="1.0" standalone="no"?>
<!DOCTYPE svg PUBLIC "-//W3C//DTD SVG 1.1//EN" "http://www.w3.org/Graphics/SVG/1.1/DTD/svg11.dtd" >
<svg xmlns="http://www.w3.org/2000/svg" xmlns:xlink="http://www.w3.org/1999/xlink" version="1.1">
<metadata>
Created by FontForge 20150318 at Wed Apr 22 08:24:06 2015
 By uniteet7
Copyright (c) 2010 by Process Type Foundry. All rights reserved.
</metadata>
<defs>
<font id="KlavikaWebBasicRegular1" horiz-adv-x="622" >
  <font-face 
    font-family="KlavikaWebBasicRegular1"
    font-weight="400"
    font-stretch="normal"
    units-per-em="1000"
    panose-1="2 11 5 6 4 0 0 2 0 4"
    ascent="750"
    descent="-250"
    x-height="487"
    cap-height="666"
    bbox="-15 -259 1157 985"
    underline-thickness="50"
    underline-position="-50"
    unicode-range="U+0020-FB04"
  />
<missing-glyph horiz-adv-x="656" 
d="M95 666h466v-666h-466v666zM172 616l340 -527v527h-340zM144 49h339l-339 527v-527z" />
    <glyph glyph-name=".notdef" horiz-adv-x="656" 
d="M95 666h466v-666h-466v666zM172 616l340 -527v527h-340zM144 49h339l-339 527v-527z" />
    <glyph glyph-name=".null" horiz-adv-x="0" 
 />
    <glyph glyph-name="nonmarkingreturn" horiz-adv-x="215" 
 />
    <glyph glyph-name="space" unicode=" " horiz-adv-x="215" 
 />
    <glyph glyph-name="exclam" unicode="!" horiz-adv-x="266" 
d="M107 190l-16 170v326h84v-326l-16 -170h-52zM90 115h86v-115h-86v115z" />
    <glyph glyph-name="quotedbl" unicode="&#x22;" horiz-adv-x="375" 
d="M70 441v245h69v-245h-69zM236 441v245h69v-245h-69z" />
    <glyph glyph-name="numbersign" unicode="#" horiz-adv-x="707" 
d="M506 173l-8 -173h-68l8 173h-181l-11 -173h-68l11 173h-129l4 63h130l10 186h-132l3 63h133l9 161h68l-9 -161h179l9 161h68l-9 -161h129l-4 -63h-129l-10 -186h131l-4 -63h-130zM262 236h179l10 186h-179z" />
    <glyph glyph-name="dollar" unicode="$" horiz-adv-x="518" 
d="M219 -113v104q-38 2 -80 10.5t-79 22.5l11 68q45 -14 93 -21t86 -7q40 0 63.5 5t36 17t16 31.5t3.5 48.5q0 28 -2.5 46t-15 31t-38.5 23.5t-72 25.5q-56 18 -89.5 34t-51.5 36.5t-23.5 49t-5.5 72.5q0 42 8 73t27.5 52t52 32t81.5 14v104h74v-105q34 -2 67 -5.5t62 -11.5
l-8 -71q-16 3 -37 6t-42.5 5t-43 3.5t-39.5 1.5q-35 0 -57.5 -3.5t-36 -14t-19 -30t-5.5 -52.5q0 -27 3 -44t14.5 -29.5t34.5 -22.5t62 -23q61 -20 97.5 -36.5t56 -37t25 -49.5t5.5 -73t-8 -75.5t-27 -52.5t-49.5 -32t-75.5 -15v-105h-74z" />
    <glyph glyph-name="percent" unicode="%" horiz-adv-x="841" 
d="M311 -10l-59 26l269 660l60 -25zM344 448q0 -31 -7 -56t-24.5 -43t-45.5 -27.5t-70 -9.5t-70 9.5t-45.5 27.5t-24.5 43t-7 56v92q0 31 7 56t24.5 43t45.5 27.5t70 9.5t70 -9.5t45.5 -27.5t24.5 -43t7 -56v-92zM118 445q0 -36 17 -54.5t62 -18.5t62 18.5t17 54.5v98
q0 36 -17 54.5t-62 18.5t-62 -18.5t-17 -54.5v-98zM786 126q0 -31 -7 -56t-24.5 -43t-45.5 -27.5t-70 -9.5t-70 9.5t-45.5 27.5t-24.5 43t-7 56v92q0 31 7 56t24.5 43t45.5 27.5t70 9.5t70 -9.5t45.5 -27.5t24.5 -43t7 -56v-92zM560 123q0 -36 17 -54.5t62 -18.5t62 18.5
t17 54.5v98q0 36 -17 54.5t-62 18.5t-62 -18.5t-17 -54.5v-98z" />
    <glyph glyph-name="ampersand" unicode="&#x26;" horiz-adv-x="616" 
d="M488 298v-280q-51 -14 -102 -21t-102 -7q-114 0 -161.5 40t-47.5 120v61q0 49 22 82.5t66 45.5q-42 17 -58 48t-16 70v69q0 36 10.5 63.5t34 47t61.5 29.5t94 10q46 0 96 -5t87 -13l-8 -69q-38 6 -85 10t-89 4q-66 0 -91.5 -19.5t-25.5 -67.5v-67q0 -35 20.5 -57
t69.5 -22h323v-72h-98zM284 63q33 0 62.5 2.5t61.5 9.5v223h-142q-57 0 -82 -21t-25 -70v-48q0 -26 6 -44t20 -29.5t38.5 -17t60.5 -5.5z" />
    <glyph glyph-name="quotesingle" unicode="'" horiz-adv-x="209" 
d="M70 441v245h69v-245h-69z" />
    <glyph glyph-name="parenleft" unicode="(" horiz-adv-x="304" 
d="M284 722q-36 -56 -60.5 -107.5t-40 -102.5t-22.5 -102t-7 -106t7 -106t22.5 -102t40 -103t60.5 -107l-60 -40q-75 100 -114.5 212.5t-39.5 245.5t39.5 245.5t114.5 212.5z" />
    <glyph glyph-name="parenright" unicode=")" horiz-adv-x="304" 
d="M80 762q75 -100 114.5 -212.5t39.5 -245.5t-39.5 -245.5t-114.5 -212.5l-60 40q36 55 60.5 107t40 103t22.5 102t7 106t-7 106t-22.5 102t-40 102.5t-60.5 107.5z" />
    <glyph glyph-name="asterisk" unicode="*" horiz-adv-x="473" 
d="M193 503h-143v47h145l-79 122l38 25l82 -127l82 127l38 -25l-79 -122h146v-47h-144l78 -120l-39 -24l-82 127l-82 -127l-39 24z" />
    <glyph glyph-name="plus" unicode="+" horiz-adv-x="526" 
d="M60 278h166v169h74v-169h166v-70h-166v-169h-74v169h-166v70z" />
    <glyph glyph-name="comma" unicode="," horiz-adv-x="254" 
d="M83 115h86v-115l-60 -120l-39 19l42 101h-29v115z" />
    <glyph glyph-name="hyphen" unicode="-" horiz-adv-x="370" 
d="M60 313h250v-69h-250v69z" />
    <glyph glyph-name="period" unicode="." horiz-adv-x="256" 
d="M85 115h86v-115h-86v115z" />
    <glyph glyph-name="slash" unicode="/" horiz-adv-x="446" 
d="M139 -117h-79l246 793h80z" />
    <glyph glyph-name="zero" unicode="0" horiz-adv-x="552" 
d="M482 163q0 -38 -10.5 -69.5t-34.5 -54.5t-63.5 -36t-97.5 -13t-97.5 13t-63.5 36t-34.5 54.5t-10.5 69.5v320q0 37 10.5 69t34.5 55t63.5 36t97.5 13t97.5 -13t63.5 -36t34.5 -55t10.5 -69v-320zM398 474q0 55 -26.5 81.5t-95.5 26.5t-95.5 -26.5t-26.5 -81.5v-302
q0 -55 26.5 -81.5t95.5 -26.5t95.5 26.5t26.5 81.5v302z" />
    <glyph glyph-name="one" unicode="1" horiz-adv-x="350" 
d="M47 478l-37 67l175 101h75v-646h-84v550z" />
    <glyph glyph-name="two" unicode="2" horiz-adv-x="486" 
d="M50 77q28 31 47 53t37 43t38 44.5t50 58.5q38 45 60 74.5t33 50t13.5 36t2.5 33.5v29q0 24 -4 39.5t-17 25t-36 13.5t-61 4q-18 0 -38 -2t-39.5 -5t-38 -7t-32.5 -8l-12 72q32 10 77.5 17.5t89.5 7.5q58 0 95.5 -10t59.5 -29.5t31 -49t9 -67.5v-22q0 -30 -4 -53t-16 -48
t-34.5 -55.5t-59.5 -75.5q-27 -32 -44 -53t-32 -38t-31 -35.5t-40 -45.5h267v-74h-371v77z" />
    <glyph glyph-name="three" unicode="3" horiz-adv-x="487" 
d="M59 80q70 -16 146 -16q71 0 99.5 19t28.5 67v50q0 49 -26 68t-75 19h-137v74h126q58 0 79 21.5t21 61.5v58q0 45 -24 62.5t-84 17.5q-34 0 -70 -4t-71 -11l-9 71q32 8 72.5 13t79.5 5q53 0 89 -9t58.5 -27t32.5 -44.5t10 -61.5v-59q0 -23 -3 -41.5t-11.5 -34.5t-23.5 -29
t-38 -24q42 -12 65 -38.5t23 -80.5v-65q0 -78 -49.5 -115t-162.5 -37q-36 0 -79.5 4.5t-75.5 15.5z" />
    <glyph glyph-name="four" unicode="4" horiz-adv-x="537" 
d="M414 159v-159h-84v159h-308v83l279 404h113v-415h93v-72h-93zM330 231v330l-225 -330h225z" />
    <glyph glyph-name="five" unicode="5" horiz-adv-x="496" 
d="M83 646h340v-74h-256v-205q16 0 28 -0.5t24 -0.5t25 -0.5t30 -1.5q45 -2 75 -13.5t48 -31t26 -46t8 -59.5v-58q0 -40 -9.5 -71t-33 -52t-63 -32t-99.5 -11q-38 0 -84 5t-84 18l9 68q38 -9 80 -13t78 -4q37 0 61 5t37.5 16.5t18.5 30t5 45.5v44q0 22 -4.5 38.5t-16 27
t-31.5 15.5t-51 6q-51 2 -87 2t-74 1v351z" />
    <glyph glyph-name="six" unicode="6" horiz-adv-x="512" 
d="M153 347q25 9 62.5 16t70.5 7q95 0 133 -40t38 -119v-32q0 -44 -7.5 -79t-28.5 -59.5t-58.5 -37.5t-97.5 -13q-54 0 -91 11t-60.5 31t-33.5 48.5t-10 63.5v286q0 62 14.5 105t46 70t81 39t120.5 12q23 0 54.5 -3t55.5 -9l-9 -70q-18 4 -44 6.5t-44 2.5q-58 0 -95.5 -7
t-59 -24.5t-29.5 -47.5t-8 -75v-82zM278 297q-33 0 -66.5 -8t-58.5 -19v-114q0 -53 27.5 -72.5t84.5 -19.5q32 0 53 5t33.5 16t17.5 28.5t5 42.5v55q0 46 -20.5 66t-75.5 20z" />
    <glyph glyph-name="seven" unicode="7" horiz-adv-x="440" 
d="M25 646h397v-71l-266 -575h-85l265 572h-311v74z" />
    <glyph glyph-name="eight" unicode="8" horiz-adv-x="544" 
d="M462 473q0 -47 -21.5 -80.5t-82.5 -62.5q34 -16 57 -32t37.5 -34t20.5 -39.5t6 -46.5v-29q0 -84 -48.5 -121.5t-158.5 -37.5q-111 0 -159 37.5t-48 121.5v29q0 25 6 46.5t19.5 39.5t36.5 34t56 32q-60 29 -80.5 62.5t-20.5 80.5v26q0 34 9.5 63t31.5 50t58.5 32.5
t90.5 11.5t90.5 -11.5t58.5 -32.5t31.5 -50t9.5 -63v-26zM397 175q0 21 -5.5 36.5t-19.5 28t-38.5 25t-61.5 27.5q-38 -15 -62 -27.5t-38 -25t-19.5 -28t-5.5 -36.5v-23q0 -51 27.5 -70.5t97.5 -19.5q69 0 97 19.5t28 70.5v23zM164 471q0 -19 5 -33.5t17 -26.5t33 -23
t53 -24q32 13 53 24t33 23t17 26.5t5 33.5v32q0 39 -23 60.5t-85 21.5q-63 0 -85.5 -21.5t-22.5 -60.5v-32z" />
    <glyph glyph-name="nine" unicode="9" horiz-adv-x="512" 
d="M359 299q-25 -9 -62.5 -16t-70.5 -7q-95 0 -133 39.5t-38 119.5v32q0 44 8 79t29 59.5t58.5 37.5t96.5 13q54 0 91 -11.5t60.5 -32t33.5 -49.5t10 -64v-283q0 -62 -14.5 -105t-46 -70t-81.5 -39t-120 -12q-23 0 -54.5 3t-55.5 9l8 70q18 -4 44.5 -6.5t44.5 -2.5
q58 0 95.5 7t59 24.5t29.5 47.5t8 75v82zM234 349q33 0 66.5 8t58.5 19v114q0 53 -27.5 72.5t-84.5 19.5q-32 0 -53 -5t-33.5 -16t-17.5 -28.5t-5 -42.5v-55q0 -46 20.5 -66t75.5 -20z" />
    <glyph glyph-name="colon" unicode=":" horiz-adv-x="256" 
d="M85 421h86v-115h-86v115zM85 115h86v-115h-86v115z" />
    <glyph glyph-name="semicolon" unicode=";" horiz-adv-x="254" 
d="M83 115h86v-115l-60 -120l-39 19l42 101h-29v115zM83 421h86v-115h-86v115z" />
    <glyph glyph-name="less" unicode="&#x3c;" horiz-adv-x="558" 
d="M463 498l30 -55l-365 -199l365 -199l-30 -55l-413 228v52z" />
    <glyph glyph-name="equal" unicode="=" horiz-adv-x="509" 
d="M70 361h369v-62h-369v62zM70 183h369v-62h-369v62z" />
    <glyph glyph-name="greater" unicode="&#x3e;" horiz-adv-x="558" 
d="M508 270v-52l-413 -228l-30 55l365 199l-365 199l30 55z" />
    <glyph glyph-name="question" unicode="?" horiz-adv-x="476" 
d="M152 288q29 23 54.5 41t56.5 43q23 19 36 32.5t19 27.5t7.5 32.5t1.5 47.5q0 31 -3.5 52t-15.5 34t-35 18t-62 5q-15 0 -33.5 -1t-38 -3t-38.5 -4.5t-35 -6.5l-11 72q14 4 34 7t42 5.5t44.5 4t41.5 1.5q61 0 99 -11t59 -33.5t28.5 -56t7.5 -79.5q0 -41 -2.5 -68
t-11.5 -48t-27 -40t-49 -44q-32 -25 -60.5 -46t-60.5 -46zM151 115h86v-115h-86v115z" />
    <glyph glyph-name="at" unicode="@" horiz-adv-x="744" 
d="M446 433q-14 5 -30.5 8t-33.5 3q-46 0 -53 -41l-19 -108q-4 -20 3 -27t30 -7q17 0 39.5 6t37.5 17zM271 404q9 50 37 70t83 20q28 0 60 -8t59 -20l-37 -210q6 -2 15.5 -4t23.5 -2q33 0 55 12.5t35.5 33.5t19 48t5.5 55q0 100 -62 160t-179 60q-56 0 -103.5 -20.5t-83 -58
t-55.5 -90.5t-20 -117t18 -117t55 -90.5t91.5 -58t128.5 -20.5q49 0 91 10t87 28l18 -50q-43 -23 -95 -34t-103 -11q-86 0 -152 25t-111 70t-68.5 108t-23.5 140q0 75 23.5 138t66.5 108.5t103 71t133 25.5q74 0 130.5 -20t95 -56t58 -87t19.5 -112q0 -43 -11 -80t-33 -64
t-56 -42.5t-79 -15.5q-30 0 -52 9t-33 27q-25 -14 -50 -21t-53 -7q-42 0 -60 22t-11 60z" />
    <glyph glyph-name="A" unicode="A" 
d="M594 0h-87l-55 160h-283l-54 -160h-87l225 666h116zM311 604l-119 -369h238z" />
    <glyph glyph-name="B" unicode="B" horiz-adv-x="571" 
d="M85 0v666h257q79 0 118 -34.5t39 -100.5v-77q0 -38 -15.5 -66t-60.5 -45q44 -8 71 -37t27 -83v-80q0 -70 -45 -106.5t-120 -36.5h-271zM435 220q0 40 -23 61t-73 21h-168v-228h173q91 0 91 76v70zM413 529q0 63 -76 63h-166v-216h152q49 0 69.5 21t20.5 57v75z" />
    <glyph glyph-name="C" unicode="C" horiz-adv-x="516" 
d="M156 191q0 -35 7.5 -58.5t24.5 -38t44.5 -20.5t68.5 -6q15 0 34 1t40 2.5t42 4.5t40 6l9 -74q-18 -4 -39.5 -7.5t-44 -5.5t-44 -3.5t-40.5 -1.5q-122 0 -175 50.5t-53 145.5v294q0 94 53 145t175 51q19 0 40.5 -1.5t44 -3.5t44 -5.5t39.5 -7.5l-9 -74q-19 3 -40 6
t-42 4.5t-40 2.5t-34 1q-41 0 -68.5 -6t-44.5 -20.5t-24.5 -38t-7.5 -58.5v-284z" />
    <glyph glyph-name="D" unicode="D" horiz-adv-x="597" 
d="M318 666q61 0 102 -15t66 -41t35.5 -60.5t10.5 -74.5v-284q0 -40 -10.5 -74.5t-35.5 -60.5t-66 -41t-102 -15h-233v666h233zM171 77h144q38 0 63 8t40 23t21.5 37.5t6.5 51.5v272q0 29 -6.5 51.5t-21.5 37.5t-40 23t-63 8h-144v-512z" />
    <glyph glyph-name="E" unicode="E" horiz-adv-x="540" 
d="M85 666h392v-77h-306v-209h284v-77h-284v-226h307v-77h-393v666z" />
    <glyph glyph-name="F" unicode="F" horiz-adv-x="521" 
d="M85 0v666h396v-77h-310v-222h289v-77h-289v-290h-86z" />
    <glyph glyph-name="G" unicode="G" horiz-adv-x="578" 
d="M156 191q0 -32 5.5 -55t21 -38t42.5 -22.5t70 -7.5q26 0 58 2.5t67 9.5v226h83v-287q-49 -14 -104 -21.5t-107 -7.5q-64 0 -106.5 13.5t-68 38.5t-36.5 61.5t-11 82.5v293q0 102 54 149.5t179 47.5q43 0 90.5 -5t94.5 -16l-10 -74q-48 8 -92.5 12.5t-86.5 4.5
q-41 0 -68.5 -6.5t-44 -21t-23.5 -38t-7 -57.5v-284z" />
    <glyph glyph-name="H" unicode="H" horiz-adv-x="637" 
d="M466 0v302h-295v-302h-86v666h86v-287h295v287h86v-666h-86z" />
    <glyph glyph-name="I" unicode="I" horiz-adv-x="266" 
d="M176 0h-86v666h86v-666z" />
    <glyph glyph-name="J" unicode="J" horiz-adv-x="256" 
d="M171 666v-669q0 -30 -3.5 -49t-16.5 -38t-38 -43.5t-68 -64.5l-54 61q34 33 53 52t28 32t11 24.5t2 28.5v666h86z" />
    <glyph glyph-name="K" unicode="K" horiz-adv-x="588" 
d="M171 0h-86v666h86v-666zM289 339l264 -339h-103l-258 339l240 327h101z" />
    <glyph glyph-name="L" unicode="L" horiz-adv-x="500" 
d="M171 77h289v-77h-375v666h86v-589z" />
    <glyph glyph-name="M" unicode="M" horiz-adv-x="798" 
d="M171 540l-13 -540h-83l23 666h109l192 -515l192 515h109l23 -666h-83l-13 540l-170 -454h-116z" />
    <glyph glyph-name="N" unicode="N" horiz-adv-x="660" 
d="M167 567v-567h-82v666h118l290 -570v570h82v-666h-118z" />
    <glyph glyph-name="O" unicode="O" 
d="M552 192q0 -42 -13.5 -78.5t-42.5 -64t-75 -43.5t-110 -16q-65 0 -110.5 16t-74.5 43.5t-42.5 64t-13.5 78.5v282q0 42 13.5 78.5t42.5 64t74.5 43.5t110.5 16q64 0 110 -16t75 -43.5t42.5 -64t13.5 -78.5v-282zM156 194q0 -62 38 -95t117 -33t117 33t38 95v278
q0 62 -38 95t-117 33t-117 -33t-38 -95v-278z" />
    <glyph glyph-name="P" unicode="P" horiz-adv-x="557" 
d="M85 666h241q54 0 90.5 -11.5t59.5 -32.5t33 -51.5t10 -68.5v-99q0 -39 -10 -69.5t-33 -51.5t-59.5 -32.5t-90.5 -11.5h-155v-238h-86v666zM433 501q0 50 -24 69t-86 19h-152v-274h152q62 0 86 19.5t24 68.5v98z" />
    <glyph glyph-name="Q" unicode="Q" 
d="M552 192q0 -36 -10 -68t-31 -58t-54 -44.5t-79 -25.5l56 -127l-77 -35l-69 157q-58 3 -99.5 20t-67.5 44t-38.5 62t-12.5 75v282q0 42 13.5 78.5t42.5 64t74.5 43.5t110.5 16q64 0 110 -16t75 -43.5t42.5 -64t13.5 -78.5v-282zM156 194q0 -62 38 -95t117 -33t117 33
t38 95v278q0 62 -38 95t-117 33t-117 -33t-38 -95v-278z" />
    <glyph glyph-name="R" unicode="R" horiz-adv-x="632" 
d="M334 241h-163v-241h-86v666h254q54 0 90.5 -11.5t59.5 -32.5t33 -51.5t10 -68.5v-96q0 -60 -24 -99t-82 -56l173 -251h-99zM446 501q0 50 -24 69t-86 19h-165v-272h165q62 0 86 19.5t24 68.5v96z" />
    <glyph glyph-name="S" unicode="S" horiz-adv-x="540" 
d="M475 172q0 -44 -8 -77.5t-31.5 -57t-66 -35.5t-111.5 -12q-48 0 -101.5 9t-96.5 26l14 70q93 -29 186 -29q40 0 65 5.5t39.5 18t19.5 32t5 48.5q0 34 -2.5 54t-15.5 32.5t-41 21.5t-79 21q-60 13 -96 27.5t-54.5 36.5t-24 55.5t-5.5 85.5q0 43 10 75.5t34.5 54t65.5 32
t103 10.5q44 0 92 -5.5t88 -16.5l-7 -73q-40 9 -84.5 14t-86.5 5q-41 0 -66 -4.5t-39 -16t-19 -30.5t-5 -48q0 -35 2 -54.5t14.5 -32t39 -21.5t76.5 -21q66 -17 103.5 -32t56 -36t22.5 -52t4 -80z" />
    <glyph glyph-name="T" unicode="T" horiz-adv-x="524" 
d="M219 589h-199v77h484v-77h-199v-589h-86v589z" />
    <glyph glyph-name="U" unicode="U" horiz-adv-x="632" 
d="M552 666v-479q0 -41 -12.5 -77t-40.5 -62.5t-73 -42t-110 -15.5t-110 15.5t-73 42t-40.5 62.5t-12.5 77v479h86v-474q0 -62 35.5 -93.5t114.5 -31.5t114.5 31.5t35.5 93.5v474h86z" />
    <glyph glyph-name="V" unicode="V" horiz-adv-x="592" 
d="M18 666h83l195 -591l195 591h83l-220 -666h-116z" />
    <glyph glyph-name="W" unicode="W" horiz-adv-x="908" 
d="M652 82l152 584h84l-175 -666h-121l-138 595l-138 -595h-121l-175 666h84l152 -584l138 584h120z" />
    <glyph glyph-name="X" unicode="X" horiz-adv-x="589" 
d="M246 338l-209 328h92l165 -260l166 260h92l-210 -328l217 -338h-92l-173 270l-172 -270h-92z" />
    <glyph glyph-name="Y" unicode="Y" horiz-adv-x="548" 
d="M448 666h90l-221 -465v-201h-86v201l-221 465h90l174 -372z" />
    <glyph glyph-name="Z" unicode="Z" horiz-adv-x="580" 
d="M164 74h351v-74h-445v74l343 518h-337v74h432v-74z" />
    <glyph glyph-name="bracketleft" unicode="[" horiz-adv-x="309" 
d="M95 -126v916h194v-72h-110v-772h110v-72h-194z" />
    <glyph glyph-name="backslash" unicode="\" horiz-adv-x="441" 
d="M60 676h80l246 -793h-79z" />
    <glyph glyph-name="bracketright" unicode="]" horiz-adv-x="309" 
d="M20 -126v72h110v772h-110v72h194v-916h-194z" />
    <glyph glyph-name="asciicircum" unicode="^" horiz-adv-x="460" 
d="M355 377l-125 236l-125 -236l-60 31l149 278h72l149 -278z" />
    <glyph glyph-name="underscore" unicode="_" horiz-adv-x="430" 
d="M-1 -125v50h446v-50h-446z" />
    <glyph glyph-name="grave" unicode="`" horiz-adv-x="313" 
d="M209 546q-38 20 -71 40.5t-68 46.5l36 56q26 -22 62.5 -45.5t74.5 -45.5z" />
    <glyph glyph-name="a" unicode="a" horiz-adv-x="493" 
d="M425 0h-71l-5 36q-32 -23 -72.5 -34.5t-85.5 -11.5q-69 0 -99 37.5t-30 102.5q0 76 37.5 106.5t111.5 30.5h130v76q0 46 -23.5 64t-82.5 18q-18 0 -37.5 -1.5t-39 -3.5t-37.5 -5t-32 -6l-9 67q35 9 78 15t82 6q52 0 87.5 -10t57 -30t31 -49.5t9.5 -68.5v-339zM341 197
h-124q-39 0 -55 -14t-16 -51q0 -19 2.5 -32t9.5 -21.5t20.5 -12.5t36.5 -4q32 0 65 11t61 29v95z" />
    <glyph glyph-name="b" unicode="b" horiz-adv-x="519" 
d="M461 172q0 -42 -9 -75.5t-32 -57t-63 -36.5t-103 -13q-17 0 -38.5 1t-44.5 3.5t-46.5 6t-44.5 8.5v677l84 12v-235q26 14 66.5 24t87.5 10q76 0 109.5 -41t33.5 -111v-173zM164 71q25 -4 49 -5.5t47 -1.5q37 0 60 7.5t35.5 21t17 33t4.5 43.5v179q0 38 -18 56.5t-61 18.5
q-16 0 -34.5 -3.5t-36.5 -9t-34.5 -12t-28.5 -12.5v-315z" />
    <glyph glyph-name="c" unicode="c" horiz-adv-x="409" 
d="M244 -10q-59 0 -96.5 12t-59 34.5t-30 55.5t-8.5 75v153q0 42 9 75t31 55.5t59.5 34.5t94.5 12q32 0 64.5 -4.5t51.5 -10.5l-7 -70q-29 6 -55 8.5t-52 2.5q-63 0 -87.5 -21.5t-24.5 -78.5v-159q0 -57 24.5 -78.5t87.5 -21.5q26 0 52 2.5t55 8.5l8 -70q-19 -6 -52 -10.5
t-65 -4.5z" />
    <glyph glyph-name="d" unicode="d" horiz-adv-x="523" 
d="M62 338q0 36 8.5 65.5t27.5 50.5t49 32t73 11q32 0 71 -4.5t68 -10.5v204l84 12v-698h-71l-7 44q-30 -24 -71.5 -39t-89.5 -15q-142 0 -142 149v199zM359 408q-34 7 -71 11t-63 4q-42 0 -60.5 -20t-18.5 -65v-199q0 -38 15 -56.5t60 -18.5q36 0 73.5 17t64.5 41v286z" />
    <glyph glyph-name="e" unicode="e" horiz-adv-x="481" 
d="M139 170q0 -29 5 -49.5t17.5 -33.5t35 -19t58.5 -6t75 6t79 17l11 -67q-35 -13 -80.5 -20.5t-91.5 -7.5q-54 0 -91 12.5t-59.5 35.5t-32.5 56.5t-10 74.5v146q0 38 9.5 71t31.5 58t59 39t91 14t89.5 -14.5t56 -39.5t29 -58.5t8.5 -71.5v-102h-290v-41zM139 281h209v40
q0 51 -21.5 78.5t-80.5 27.5q-60 0 -83.5 -27.5t-23.5 -78.5v-40z" />
    <glyph glyph-name="f" unicode="f" horiz-adv-x="353" 
d="M346 627q-20 4 -42.5 6.5t-38.5 2.5q-39 0 -52 -15t-13 -52v-82h139l-7 -70h-132v-417h-84v417h-86v70h86v90q0 65 35 97t103 32q24 0 49 -3t50 -11z" />
    <glyph glyph-name="g" unicode="g" horiz-adv-x="490" 
d="M457 438l-58 -11q14 -19 20 -43.5t7 -53.5v-22q0 -79 -47.5 -122.5t-143.5 -43.5q-28 0 -50 3q-13 -11 -24 -23.5t-11 -28.5q0 -14 7.5 -20t24.5 -8q19 -2 34.5 -3.5l31 -3t32.5 -3.5t40 -4q66 -7 94 -34t28 -83q0 -40 -8.5 -67t-32 -43.5t-65 -23.5t-107.5 -7
q-17 0 -39 1.5t-46 4.5t-47.5 7t-44.5 10l12 66q38 -9 82 -14.5t81 -5.5q46 0 73.5 3.5t41 11.5t17.5 21t4 32q0 15 -3 24.5t-11.5 15.5t-22.5 8.5t-35 4.5l-35 3.5t-28.5 2.5t-29 2.5t-36.5 3.5q-54 5 -74.5 30t-20.5 59q0 27 13 49t33 37q-35 20 -51.5 55t-16.5 83v22
q0 40 10 71t32.5 52.5t59 32.5t88.5 11q19 0 42 -2.5t40 -7.5h140v-49zM346 329q0 54 -25 76.5t-86 22.5t-86 -22.5t-25 -76.5v-21q0 -56 25.5 -76.5t85.5 -20.5t85.5 24.5t25.5 72.5v21z" />
    <glyph glyph-name="h" unicode="h" horiz-adv-x="533" 
d="M374 0v372q0 24 -12 34.5t-35 10.5q-14 0 -33.5 -4t-42 -11t-45.5 -16t-42 -19v-367h-84v686l84 12v-252q20 10 44 19t49 16t49.5 11.5t45.5 4.5q59 0 82.5 -33.5t23.5 -90.5v-373h-84z" />
    <glyph glyph-name="i" unicode="i" horiz-adv-x="244" 
d="M80 0v487h84v-487h-84zM80 565v121h84v-121h-84z" />
    <glyph glyph-name="j" unicode="j" horiz-adv-x="239" 
d="M164 487v-518q0 -26 -3 -43t-14 -33.5t-33.5 -38t-62.5 -56.5l-51 59q30 27 46 42.5t23.5 27t9 22t1.5 25.5v513h84zM80 565v121h84v-121h-84z" />
    <glyph glyph-name="k" unicode="k" horiz-adv-x="484" 
d="M80 0v686l84 12v-698h-84zM454 487l-174 -241l182 -246h-99l-178 246l172 241h97z" />
    <glyph glyph-name="l" unicode="l" horiz-adv-x="244" 
d="M80 0v686l84 12v-698h-84z" />
    <glyph glyph-name="m" unicode="m" horiz-adv-x="827" 
d="M668 0v372q0 24 -12 34.5t-35 10.5q-15 0 -35 -4t-42 -10.5t-44.5 -15.5t-41.5 -19v-368h-84v372q0 24 -12 34.5t-35 10.5q-14 0 -33.5 -4t-42 -10.5t-45.5 -15.5t-42 -19v-368h-84v487h68l8 -42q20 10 45 19t51.5 16.5t52 12t47.5 4.5q38 0 60 -13.5t33 -38.5
q22 10 47.5 19.5t52 17t52.5 11.5t49 4q59 0 82.5 -33.5t23.5 -90.5v-373h-84z" />
    <glyph glyph-name="n" unicode="n" horiz-adv-x="533" 
d="M374 0v372q0 24 -12 34.5t-35 10.5q-14 0 -33.5 -4t-42 -10.5t-45.5 -15.5t-42 -19v-368h-84v487h68l8 -42q20 10 45 19t51.5 16.5t52 12t47.5 4.5q59 0 82.5 -33.5t23.5 -90.5v-373h-84z" />
    <glyph glyph-name="o" unicode="o" horiz-adv-x="506" 
d="M451 173q0 -38 -11 -71.5t-35 -58.5t-61.5 -39t-90.5 -14t-90.5 14t-61.5 39t-35 58.5t-11 71.5v141q0 38 11 71.5t35 58t61.5 39t90.5 14.5t90.5 -14.5t61.5 -39t35 -58t11 -71.5v-141zM367 317q0 107 -114 107t-114 -107v-147q0 -107 114 -107t114 107v147z" />
    <glyph glyph-name="p" unicode="p" horiz-adv-x="523" 
d="M461 149q0 -73 -36.5 -116t-121.5 -43q-32 0 -71 4.5t-68 10.5v-202l-84 -12v696h71l7 -44q30 24 71.5 39t89.5 15q142 0 142 -149v-199zM164 79q34 -7 71 -11t63 -4q42 0 60.5 20t18.5 65v199q0 38 -15 56.5t-60 18.5q-36 0 -73.5 -17t-64.5 -41v-286z" />
    <glyph glyph-name="q" unicode="q" horiz-adv-x="519" 
d="M58 315q0 42 9 75.5t32 57t63 36.5t103 13q17 0 38.5 -1t44.5 -3.5t46.5 -6t44.5 -8.5v-675l-84 -12v233q-26 -14 -66.5 -24t-87.5 -10q-76 0 -109.5 41t-33.5 111v173zM355 416q-25 4 -49 5.5t-47 1.5q-37 0 -60 -7.5t-35.5 -21t-17 -33t-4.5 -43.5v-179q0 -38 18 -56.5
t61 -18.5q16 0 34.5 3.5t36.5 9t34.5 12t28.5 12.5v315z" />
    <glyph glyph-name="r" unicode="r" horiz-adv-x="308" 
d="M303 420q-35 -17 -72 -40t-67 -44v-336h-84v487h73l5 -68q27 21 62.5 42t71.5 36z" />
    <glyph glyph-name="s" unicode="s" horiz-adv-x="439" 
d="M383 131q0 -36 -6.5 -62.5t-25 -44t-51.5 -26t-85 -8.5q-19 0 -40 2t-41.5 5.5t-39.5 8t-34 10.5l11 66q32 -9 69.5 -14.5t69.5 -5.5q29 0 46.5 3t27.5 10.5t13 20t3 32.5q0 19 -2 31t-12 20.5t-30.5 15t-57.5 15.5q-45 11 -71.5 22.5t-40 28.5t-17 42t-3.5 63
q0 34 8 58.5t27.5 40.5t52 24t80.5 8q35 0 71.5 -4.5t66.5 -12.5l-6 -69q-31 6 -68 10t-67 4q-27 0 -43 -3.5t-25 -10.5t-11.5 -19t-2.5 -28q0 -20 1.5 -33t9.5 -22t24.5 -15.5t47.5 -13.5q52 -13 82.5 -24.5t45.5 -27t19 -38.5t4 -59z" />
    <glyph glyph-name="t" unicode="t" horiz-adv-x="369" 
d="M334 8q-23 -8 -49 -13t-53 -5q-62 0 -91.5 25t-29.5 86v316h-86v70h86v120l84 12v-132h138l-7 -70h-131v-302q0 -27 8 -40.5t42 -13.5q17 0 36 3t42 9z" />
    <glyph glyph-name="u" unicode="u" horiz-adv-x="533" 
d="M159 487v-372q0 -24 12 -34.5t35 -10.5q13 0 33 4t42.5 10.5t45 15.5t42.5 19v368h84v-487h-68l-8 42q-20 -10 -45 -19t-51.5 -16.5t-52 -12t-47.5 -4.5q-59 0 -82.5 33.5t-23.5 90.5v373h84z" />
    <glyph glyph-name="v" unicode="v" horiz-adv-x="450" 
d="M359 487h83l-161 -487h-112l-161 487h83l134 -418z" />
    <glyph glyph-name="w" unicode="w" horiz-adv-x="696" 
d="M466 0l-118 413l-118 -413h-108l-104 487h80l81 -404l118 404h102l118 -404l81 404h80l-104 -487h-108z" />
    <glyph glyph-name="x" unicode="x" horiz-adv-x="448" 
d="M18 0l160 245l-157 242h87l116 -179l116 179h87l-158 -242l161 -245h-88l-118 181l-117 -181h-89z" />
    <glyph glyph-name="y" unicode="y" horiz-adv-x="448" 
d="M201 0h-35l-158 487h83l133 -420l135 420h83l-161 -487l-69 -197h-79z" />
    <glyph glyph-name="z" unicode="z" horiz-adv-x="459" 
d="M65 487h336l-1 -68l-248 -351h252v-68h-344v68l248 351h-243v68z" />
    <glyph glyph-name="braceleft" unicode="{" horiz-adv-x="313" 
d="M55 290v68h23q25 0 33.5 11t8.5 31v258q0 70 25 101t93 31h65v-71h-60q-21 0 -30 -9t-9 -31v-241q0 -11 -0.5 -30t-6 -37t-19.5 -32t-41 -15q27 -2 41 -15.5t19.5 -31.5t6 -37t0.5 -30v-241q0 -22 9 -31t30 -9h60v-71h-65q-68 0 -93 31t-25 101v258q0 20 -8.5 31
t-33.5 11h-23z" />
    <glyph glyph-name="bar" unicode="|" horiz-adv-x="257" 
d="M157 -210h-57v1000h57v-1000z" />
    <glyph glyph-name="braceright" unicode="}" horiz-adv-x="313" 
d="M235 290q-25 0 -33.5 -11t-8.5 -31v-258q0 -70 -25 -101t-93 -31h-65v71h60q21 0 30 9t9 31v241q0 11 0.5 30t6 37t19.5 31.5t41 15.5q-27 1 -41 15t-19.5 32t-6 37t-0.5 30v241q0 22 -9 31t-30 9h-60v71h65q68 0 93 -31t25 -101v-258q0 -20 8.5 -31t33.5 -11h23v-68h-23
z" />
    <glyph glyph-name="asciitilde" unicode="~" horiz-adv-x="500" 
d="M455 321q-8 -23 -18.5 -44t-25.5 -37.5t-35.5 -26.5t-47.5 -10t-48 11.5t-39 25t-34.5 25t-34.5 11.5q-30 0 -45 -21t-29 -55l-53 26q20 52 49 84.5t79 32.5q25 0 45.5 -11.5t39 -25.5t35.5 -25.5t36 -11.5q16 0 27.5 6.5t20 17t14 24.5t11.5 28z" />
    <glyph glyph-name="uni00A0" unicode="&#xa0;" horiz-adv-x="215" 
 />
    <glyph glyph-name="exclamdown" unicode="&#xa1;" horiz-adv-x="266" 
d="M159 297l16 -170v-324h-84v324l16 170h52zM90 487h86v-115h-86v115z" />
    <glyph glyph-name="cent" unicode="&#xa2;" horiz-adv-x="424" 
d="M201 81q-44 5 -72 19t-44.5 36t-23 52t-6.5 68v153q0 37 7 67t23.5 52t45 36t70.5 19v93h67v-90q26 -2 51 -5t44 -8l-5 -70q-29 5 -55 7t-52 2q-63 0 -87.5 -21.5t-24.5 -78.5v-159q0 -57 24.5 -78.5t87.5 -21.5q22 0 48.5 2t58.5 7l6 -70q-45 -12 -96 -13v-89h-67v91z
" />
    <glyph glyph-name="sterling" unicode="&#xa3;" horiz-adv-x="533" 
d="M70 365h87q-21 35 -30.5 72.5t-9.5 66.5q0 79 43.5 115.5t147.5 36.5q38 0 81.5 -6t77.5 -15l-10 -69q-15 4 -34 7t-39.5 5.5t-40 4t-35.5 1.5q-30 0 -50.5 -4t-33 -14t-18 -26t-5.5 -41q0 -35 11.5 -67t31.5 -67h192l-3 -66h-171q4 -9 6 -22t2 -24q0 -45 -20 -89
t-65 -91h283v-73h-385v73q48 38 75.5 83.5t27.5 96.5q0 26 -9 46h-107v66z" />
    <glyph glyph-name="currency" unicode="&#xa4;" horiz-adv-x="556" 
d="M422 475q9 -15 13 -32.5t4 -36.5v-141q0 -43 -17 -70l64 -64l-52 -52l-69 69q-35 -15 -87 -15q-53 0 -87 14l-69 -68l-52 52l64 64q-17 27 -17 70v141q0 41 17 69l-64 64l52 52l69 -69q33 15 87 15q26 0 48 -4t39 -11l69 69l52 -52zM192 278q0 -41 17 -59t69 -18
q50 0 68 18t18 59v114q0 40 -18 58.5t-68 18.5q-52 0 -69 -18t-17 -59v-114z" />
    <glyph glyph-name="yen" unicode="&#xa5;" horiz-adv-x="550" 
d="M58 201h174l-45 93h-129v59h101l-139 293h90l165 -352l165 352h90l-140 -293h103v-59h-131l-44 -93h175v-59h-175v-142h-86v142h-174v59z" />
    <glyph glyph-name="brokenbar" unicode="&#xa6;" horiz-adv-x="257" 
d="M157 373h-57v417h57v-417zM100 -210v417h57v-417h-57z" />
    <glyph glyph-name="section" unicode="&#xa7;" horiz-adv-x="551" 
d="M196 0q-26 75 -49 151t-40 149t-27 140t-10 123q0 60 32 86.5t110 26.5q35 0 76.5 -7t71.5 -18l-11 -60q-36 8 -73 14t-66 6q-39 0 -51 -12.5t-12 -44.5q0 -53 9.5 -115.5t26 -131.5t38 -141t45.5 -144zM360 490q26 -75 49 -151.5t40 -149t27 -139.5t10 -123
q0 -60 -32 -86.5t-110 -26.5q-35 0 -76.5 7t-71.5 18l11 60q36 -8 73 -14t66 -6q39 0 51 12.5t12 44.5q0 52 -9.5 115t-26 132t-38 141t-45.5 144z" />
    <glyph glyph-name="dieresis" unicode="&#xa8;" horiz-adv-x="391" 
d="M70 644h78v-83h-78v83zM243 644h78v-83h-78v83z" />
    <glyph glyph-name="copyright" unicode="&#xa9;" horiz-adv-x="805" 
d="M60 333q0 71 24.5 133.5t69.5 109t108 73.5t140 27q78 0 141.5 -27t108 -73.5t69 -109t24.5 -133.5t-24.5 -133.5t-69 -109t-108 -73.5t-141.5 -27q-77 0 -140 27t-108 73.5t-69.5 109t-24.5 133.5zM122 333q0 -59 19.5 -111t56 -90.5t88 -60.5t116.5 -22t117 22
t88.5 60.5t56 90.5t19.5 111t-19.5 111t-56 90.5t-88.5 60.5t-117 22t-116.5 -22t-88 -60.5t-56 -90.5t-19.5 -111zM413 159q-72 0 -101 26t-29 82v138q0 56 29 82t101 26q23 0 49 -3.5t47 -9.5l-6 -53q-20 5 -43.5 7.5t-44.5 2.5q-23 0 -36.5 -2.5t-21 -9.5t-10 -18
t-2.5 -28v-126q0 -17 2.5 -28t10 -18t21 -9.5t36.5 -2.5q21 0 44.5 2.5t43.5 7.5l6 -53q-21 -6 -47 -9.5t-49 -3.5z" />
    <glyph glyph-name="ordfeminine" unicode="&#xaa;" horiz-adv-x="379" 
d="M299 389h-44l-3 22q-20 -14 -45 -21t-52 -7q-43 0 -61.5 23t-18.5 63q0 48 23 66.5t69 18.5h80v47q0 29 -14 40t-51 11q-22 0 -47.5 -3.5t-42.5 -7.5l-6 42q19 5 47 9t52 4q65 0 89.5 -24.5t24.5 -73.5v-209zM247 511h-76q-24 0 -34 -8.5t-10 -31.5t7 -33.5t35 -10.5
q20 0 40.5 7t37.5 18v59z" />
    <glyph glyph-name="guillemotleft" unicode="&#xab;" horiz-adv-x="484" 
d="M40 244l127 193l58 -38l-102 -155l102 -155l-58 -38zM234 244l127 193l58 -38l-102 -155l102 -155l-58 -38z" />
    <glyph glyph-name="logicalnot" unicode="&#xac;" horiz-adv-x="551" 
d="M60 299h406v-239h-74v169h-332v70z" />
    <glyph glyph-name="registered" unicode="&#xae;" horiz-adv-x="471" 
d="M55 515q0 37 12.5 70t36 58t57 39t75.5 14t75 -14t56.5 -39t36 -58t12.5 -70q0 -38 -12.5 -70.5t-36 -57.5t-56.5 -39t-75 -14t-75.5 14t-57 39t-36 57.5t-12.5 70.5zM97 515q0 -29 9 -54.5t26 -45t43 -30.5t61 -11q34 0 60 11t43 30.5t26 45t9 54.5t-9 54.5t-26 45
t-43 30.5t-60 11q-35 0 -61 -11t-43 -30.5t-26 -45t-9 -54.5zM242 491h-34v-55h-28v166h65q28 0 40 -11.5t12 -32.5v-23q0 -12 -5 -21.5t-19 -17.5l44 -60h-34zM268 556q0 12 -5.5 16t-18.5 4h-36v-59h36q14 0 19 5t5 14v20z" />
    <glyph glyph-name="macron" unicode="&#xaf;" horiz-adv-x="371" 
d="M65 615h241v-59h-241v59z" />
    <glyph glyph-name="degree" unicode="&#xb0;" horiz-adv-x="348" 
d="M288 542q0 -47 -29.5 -80.5t-84.5 -33.5q-28 0 -49 9t-35.5 24.5t-22 36t-7.5 44.5t7.5 44.5t22 36t35.5 24.5t49 9q55 0 84.5 -33.5t29.5 -80.5zM237 542q0 29 -15.5 49t-47.5 20t-47.5 -20t-15.5 -49t15.5 -49t47.5 -20t47.5 20t15.5 49z" />
    <glyph glyph-name="plusminus" unicode="&#xb1;" horiz-adv-x="546" 
d="M476 0h-406v66h406v-66zM70 370h166v169h74v-169h166v-70h-166v-169h-74v169h-166v70z" />
    <glyph glyph-name="twosuperior" unicode="&#xb2;" horiz-adv-x="388" 
d="M70 458q12 15 21.5 25.5t19.5 22.5t23.5 28t34.5 42q26 31 40.5 50t21 31t8 20t1.5 18v15q0 28 -12.5 38t-51.5 10q-25 0 -50 -4t-43 -9l-10 57q20 7 50.5 12t57.5 5q68 0 97 -25t29 -78v-19q0 -17 -2 -30t-9 -26.5t-19 -31t-33 -43.5q-19 -24 -31 -38.5t-20 -24.5
t-15 -18.5t-16 -19.5h146v-59h-238v52z" />
    <glyph glyph-name="threesuperior" unicode="&#xb3;" horiz-adv-x="386" 
d="M82 464q52 -9 101 -9q40 0 51.5 11.5t11.5 36.5v33q0 45 -56 45h-92v57h93q29 0 38 12t9 29v40q0 25 -13.5 34t-47.5 9q-23 0 -47 -1.5t-44 -5.5l-5 53q18 5 45.5 8t53.5 3q68 0 95.5 -22t27.5 -73v-42q0 -22 -8.5 -40t-34.5 -31q24 -8 37.5 -25t13.5 -49v-35
q0 -26 -6 -45.5t-21 -32.5t-40 -19.5t-64 -6.5q-26 0 -54 3.5t-51 9.5z" />
    <glyph glyph-name="acute" unicode="&#xb4;" horiz-adv-x="313" 
d="M70 598q38 22 74.5 45.5t62.5 45.5l36 -56q-35 -26 -68 -46.5t-71 -40.5z" />
    <glyph glyph-name="mu" unicode="&#xb5;" horiz-adv-x="533" 
d="M75 487h84v-377q1 -40 47 -40q13 0 33 4t42.5 10.5t45 15.5t42.5 19v368h84v-487h-68l-8 42q-20 -10 -45 -19t-51.5 -16.5t-52 -12t-47.5 -4.5q-6 0 -11.5 0.5t-10.5 1.5v-189h-84v684z" />
    <glyph glyph-name="paragraph" unicode="&#xb6;" horiz-adv-x="514" 
d="M419 666v-705q0 -18 -2.5 -30t-15 -28t-38 -41t-71.5 -69l-44 50q36 34 56 53.5t29.5 31.5t11.5 19.5t2 16.5v702h72zM65 457q0 45 16 83t44 66t66 44t82 16v-417q-44 0 -82 16t-66 44t-44 66t-16 82z" />
    <glyph glyph-name="periodcentered" unicode="&#xb7;" horiz-adv-x="256" 
d="M85 380h86v-115h-86v115z" />
    <glyph glyph-name="cedilla" unicode="&#xb8;" horiz-adv-x="310" 
d="M245 -119q0 -34 -24.5 -56t-75.5 -22q-20 0 -41.5 4t-38.5 11l10 41q13 -4 30.5 -7t31.5 -3q29 0 41.5 8.5t12.5 22.5q0 29 -42 29q-9 0 -15.5 -1.5t-14.5 -3.5l-29 13l21 96h48l-14 -69q13 3 27 3q33 0 53 -16t20 -50z" />
    <glyph glyph-name="onesuperior" unicode="&#xb9;" horiz-adv-x="333" 
d="M55 743l119 68h54v-405h-67v327l-81 -41z" />
    <glyph glyph-name="ordmasculine" unicode="&#xba;" horiz-adv-x="394" 
d="M319 496q0 -24 -7 -44.5t-21.5 -35.5t-37.5 -24t-56 -9t-56 9t-38 24t-21.5 35.5t-6.5 44.5v87q0 24 6.5 44.5t21.5 35.5t38 24t56 9t56 -9t37.5 -24t21.5 -35.5t7 -44.5v-87zM267 585q0 66 -70 66q-71 0 -71 -66v-91q0 -66 71 -66q70 0 70 66v91z" />
    <glyph glyph-name="guillemotright" unicode="&#xbb;" horiz-adv-x="484" 
d="M317 51l-58 38l102 155l-102 155l58 38l127 -193zM123 51l-58 38l102 155l-102 155l58 38l127 -193z" />
    <glyph glyph-name="onequarter" unicode="&#xbc;" horiz-adv-x="835" 
d="M706 87v-87h-64v87h-186v55l158 263h92v-263h59v-55h-59zM642 142v203l-116 -203h116zM279 -33l-56 23l278 689l55 -23zM60 578l119 68h54v-405h-67v327l-81 -41z" />
    <glyph glyph-name="onehalf" unicode="&#xbd;" horiz-adv-x="851" 
d="M278 -33l-56 23l278 689l55 -23zM60 578l119 68h54v-405h-67v327l-81 -41zM533 52q12 15 21.5 25.5t19.5 22.5t23.5 28t34.5 42q26 31 40.5 50t21 31t8 20t1.5 18v15q0 28 -12.5 38t-51.5 10q-25 0 -50 -4t-43 -9l-10 57q20 7 50.5 12t57.5 5q68 0 97 -25t29 -78v-19
q0 -17 -2 -30t-9 -26.5t-19 -31t-33 -43.5q-19 -24 -31 -38.5t-20 -24.5t-15 -18.5t-16 -19.5h146v-59h-238v52z" />
    <glyph glyph-name="threequarters" unicode="&#xbe;" horiz-adv-x="870" 
d="M82 301q52 -9 101 -9q40 0 51.5 11.5t11.5 36.5v33q0 45 -56 45h-92v57h93q29 0 38 12t9 29v40q0 25 -13.5 34t-47.5 9q-23 0 -47 -1.5t-44 -5.5l-5 53q18 5 45.5 8t53.5 3q68 0 95.5 -22t27.5 -73v-42q0 -22 -8.5 -40t-34.5 -31q24 -8 37.5 -25t13.5 -49v-35
q0 -26 -6 -45.5t-21 -32.5t-40 -19.5t-64 -6.5q-26 0 -54 3.5t-51 9.5zM741 87v-87h-64v87h-186v55l158 263h92v-263h59v-55h-59zM677 142v203l-116 -203h116zM316 -33l-56 23l278 689l55 -23z" />
    <glyph glyph-name="questiondown" unicode="&#xbf;" horiz-adv-x="476" 
d="M324 201q-29 -23 -54.5 -41t-56.5 -43q-23 -19 -36 -32.5t-19 -27.5t-7.5 -32.5t-1.5 -47.5q0 -32 3.5 -52.5t15.5 -33.5t35 -18t62 -5q15 0 33 1t37.5 3t39 4.5t35.5 6.5l11 -72q-14 -4 -34 -7t-42 -5.5t-44.5 -4t-41.5 -1.5q-61 0 -99 11t-59 33.5t-28.5 56t-7.5 79.5
q0 40 2 67.5t11 48.5t27 40t50 44t60.5 46t60.5 46zM325 372h-86v115h86v-115z" />
    <glyph glyph-name="Agrave" unicode="&#xc0;" 
d="M594 0h-87l-55 160h-283l-54 -160h-87l225 666h116zM311 604l-119 -369h238zM322 711q-35 17 -66.5 36.5t-62.5 42.5l38 58q31 -23 61 -42.5t64 -39.5z" />
    <glyph glyph-name="Aacute" unicode="&#xc1;" 
d="M594 0h-87l-55 160h-283l-54 -160h-87l225 666h116zM311 604l-119 -369h238zM274 766q34 20 64 39.5t61 42.5l38 -58q-31 -23 -62.5 -42.5t-66.5 -36.5z" />
    <glyph glyph-name="Acircumflex" unicode="&#xc2;" 
d="M594 0h-87l-55 160h-283l-54 -160h-87l225 666h116zM311 604l-119 -369h238zM410 711q-29 14 -51.5 27t-47.5 29q-25 -16 -47.5 -29t-51.5 -27l-26 47q32 20 61 39t64 46q35 -27 64 -46t61 -39z" />
    <glyph glyph-name="Atilde" unicode="&#xc3;" 
d="M594 0h-87l-55 160h-283l-54 -160h-87l225 666h116zM311 604l-119 -369h238zM314 740q-15 8 -27 13.5t-26 5.5q-17 0 -29 -10t-23 -23l-36 34q15 24 38.5 42t50.5 18q15 0 27.5 -4.5t29.5 -12.5q20 -10 32 -15t23 -5q26 0 45 30l41 -28q-13 -28 -34 -45.5t-52 -17.5
q-15 0 -28 4t-32 14z" />
    <glyph glyph-name="Adieresis" unicode="&#xc4;" 
d="M594 0h-87l-55 160h-283l-54 -160h-87l225 666h116zM311 604l-119 -369h238zM183 802h80v-78h-80v78zM360 802h80v-78h-80v78z" />
    <glyph glyph-name="Aring" unicode="&#xc5;" 
d="M594 0h-87l-55 160h-283l-54 -160h-87l225 666h116zM311 604l-119 -369h238zM381 765q0 -28 -17.5 -48t-52.5 -20t-52 20t-17 48q0 29 17 49t52 20t52.5 -20t17.5 -49zM341 765q0 15 -7.5 24t-22.5 9q-14 0 -22 -9t-8 -24q0 -14 8 -23t22 -9q15 0 22.5 9t7.5 23z" />
    <glyph glyph-name="AE" unicode="&#xc6;" horiz-adv-x="839" 
d="M452 160h-283l-54 -160h-87l225 666h520v-77h-378l70 -209h286v-77h-260l77 -226h206v-77h-267zM311 604l-119 -369h238z" />
    <glyph glyph-name="Ccedilla" unicode="&#xc7;" horiz-adv-x="516" 
d="M396 -126q0 -34 -24.5 -56t-75.5 -22q-20 0 -41.5 4t-38.5 11l10 41q13 -4 30.5 -7t31.5 -3q29 0 41.5 8.5t12.5 22.5q0 29 -42 29q-9 0 -15.5 -1.5t-14.5 -3.5l-29 13l18 82q-101 7 -145 57t-44 137v294q0 94 53 145t175 51q19 0 40.5 -1.5t44 -3.5t44 -5.5t39.5 -7.5
l-9 -74q-19 3 -40 6t-42 4.5t-40 2.5t-34 1q-41 0 -68.5 -6t-44.5 -20.5t-24.5 -38t-7.5 -58.5v-284q0 -35 7.5 -58.5t24.5 -38t44.5 -20.5t68.5 -6q15 0 34 1t40 2.5t42 4.5t40 6l9 -74q-34 -8 -78 -12.5t-81 -5.5l-11 -53q13 3 27 3q33 0 53 -16t20 -50z" />
    <glyph glyph-name="Egrave" unicode="&#xc8;" horiz-adv-x="540" 
d="M85 666h392v-77h-306v-209h284v-77h-284v-226h307v-77h-393v666zM303 711q-35 17 -66.5 36.5t-62.5 42.5l38 58q31 -23 61 -42.5t64 -39.5z" />
    <glyph glyph-name="Eacute" unicode="&#xc9;" horiz-adv-x="540" 
d="M85 666h392v-77h-306v-209h284v-77h-284v-226h307v-77h-393v666zM229 766q34 20 64 39.5t61 42.5l38 -58q-31 -23 -62.5 -42.5t-66.5 -36.5z" />
    <glyph glyph-name="Ecircumflex" unicode="&#xca;" horiz-adv-x="540" 
d="M85 666h392v-77h-306v-209h284v-77h-284v-226h307v-77h-393v666zM389 711q-29 14 -51.5 27t-47.5 29q-25 -16 -47.5 -29t-51.5 -27l-26 47q32 20 61 39t64 46q35 -27 64 -46t61 -39z" />
    <glyph glyph-name="Edieresis" unicode="&#xcb;" horiz-adv-x="540" 
d="M85 666h392v-77h-306v-209h284v-77h-284v-226h307v-77h-393v666zM152 802h80v-78h-80v78zM329 802h80v-78h-80v78z" />
    <glyph glyph-name="Igrave" unicode="&#xcc;" horiz-adv-x="266" 
d="M176 0h-86v666h86v-666zM141 711q-35 17 -66.5 36.5t-62.5 42.5l38 58q31 -23 61 -42.5t64 -39.5z" />
    <glyph glyph-name="Iacute" unicode="&#xcd;" horiz-adv-x="266" 
d="M176 0h-86v666h86v-666zM96 766q34 20 64 39.5t61 42.5l38 -58q-31 -23 -62.5 -42.5t-66.5 -36.5z" />
    <glyph glyph-name="Icircumflex" unicode="&#xce;" horiz-adv-x="266" 
d="M176 0h-86v666h86v-666zM233 711q-29 14 -51.5 27t-47.5 29q-25 -16 -47.5 -29t-51.5 -27l-26 47q32 20 61 39t64 46q35 -27 64 -46t61 -39z" />
    <glyph glyph-name="Idieresis" unicode="&#xcf;" horiz-adv-x="266" 
d="M176 0h-86v666h86v-666zM6 802h80v-78h-80v78zM183 802h80v-78h-80v78z" />
    <glyph glyph-name="Eth" unicode="&#xd0;" horiz-adv-x="631" 
d="M40 373h79v293h233q61 0 102 -15t66 -41t35.5 -60.5t10.5 -74.5v-284q0 -40 -10.5 -74.5t-35.5 -60.5t-66 -41t-102 -15h-233v303h-79v70zM205 373h132v-70h-132v-226h144q38 0 63 8t40 23t21.5 37.5t6.5 51.5v272q0 29 -6.5 51.5t-21.5 37.5t-40 23t-63 8h-144v-216z
" />
    <glyph glyph-name="Ntilde" unicode="&#xd1;" horiz-adv-x="660" 
d="M167 567v-567h-82v666h118l290 -570v570h82v-666h-118zM336 740q-15 8 -27 13.5t-26 5.5q-17 0 -29 -10t-23 -23l-36 34q15 24 38.5 42t50.5 18q15 0 27.5 -4.5t29.5 -12.5q20 -10 32 -15t23 -5q26 0 45 30l41 -28q-13 -28 -34 -45.5t-52 -17.5q-15 0 -28 4t-32 14z" />
    <glyph glyph-name="Ograve" unicode="&#xd2;" 
d="M552 192q0 -42 -13.5 -78.5t-42.5 -64t-75 -43.5t-110 -16q-65 0 -110.5 16t-74.5 43.5t-42.5 64t-13.5 78.5v282q0 42 13.5 78.5t42.5 64t74.5 43.5t110.5 16q64 0 110 -16t75 -43.5t42.5 -64t13.5 -78.5v-282zM156 194q0 -62 38 -95t117 -33t117 33t38 95v278
q0 62 -38 95t-117 33t-117 -33t-38 -95v-278zM324 711q-35 17 -66.5 36.5t-62.5 42.5l38 58q31 -23 61 -42.5t64 -39.5z" />
    <glyph glyph-name="Oacute" unicode="&#xd3;" 
d="M552 192q0 -42 -13.5 -78.5t-42.5 -64t-75 -43.5t-110 -16q-65 0 -110.5 16t-74.5 43.5t-42.5 64t-13.5 78.5v282q0 42 13.5 78.5t42.5 64t74.5 43.5t110.5 16q64 0 110 -16t75 -43.5t42.5 -64t13.5 -78.5v-282zM156 194q0 -62 38 -95t117 -33t117 33t38 95v278
q0 62 -38 95t-117 33t-117 -33t-38 -95v-278zM265 766q34 20 64 39.5t61 42.5l38 -58q-31 -23 -62.5 -42.5t-66.5 -36.5z" />
    <glyph glyph-name="Ocircumflex" unicode="&#xd4;" 
d="M552 192q0 -42 -13.5 -78.5t-42.5 -64t-75 -43.5t-110 -16q-65 0 -110.5 16t-74.5 43.5t-42.5 64t-13.5 78.5v282q0 42 13.5 78.5t42.5 64t74.5 43.5t110.5 16q64 0 110 -16t75 -43.5t42.5 -64t13.5 -78.5v-282zM156 194q0 -62 38 -95t117 -33t117 33t38 95v278
q0 62 -38 95t-117 33t-117 -33t-38 -95v-278zM410 711q-29 14 -51.5 27t-47.5 29q-25 -16 -47.5 -29t-51.5 -27l-26 47q32 20 61 39t64 46q35 -27 64 -46t61 -39z" />
    <glyph glyph-name="Otilde" unicode="&#xd5;" 
d="M552 192q0 -42 -13.5 -78.5t-42.5 -64t-75 -43.5t-110 -16q-65 0 -110.5 16t-74.5 43.5t-42.5 64t-13.5 78.5v282q0 42 13.5 78.5t42.5 64t74.5 43.5t110.5 16q64 0 110 -16t75 -43.5t42.5 -64t13.5 -78.5v-282zM156 194q0 -62 38 -95t117 -33t117 33t38 95v278
q0 62 -38 95t-117 33t-117 -33t-38 -95v-278zM309 740q-15 8 -27 13.5t-26 5.5q-17 0 -29 -10t-23 -23l-36 34q15 24 38.5 42t50.5 18q15 0 27.5 -4.5t29.5 -12.5q20 -10 32 -15t23 -5q26 0 45 30l41 -28q-13 -28 -34 -45.5t-52 -17.5q-15 0 -28 4t-32 14z" />
    <glyph glyph-name="Odieresis" unicode="&#xd6;" 
d="M552 192q0 -42 -13.5 -78.5t-42.5 -64t-75 -43.5t-110 -16q-65 0 -110.5 16t-74.5 43.5t-42.5 64t-13.5 78.5v282q0 42 13.5 78.5t42.5 64t74.5 43.5t110.5 16q64 0 110 -16t75 -43.5t42.5 -64t13.5 -78.5v-282zM156 194q0 -62 38 -95t117 -33t117 33t38 95v278
q0 62 -38 95t-117 33t-117 -33t-38 -95v-278zM183 802h80v-78h-80v78zM360 802h80v-78h-80v78z" />
    <glyph glyph-name="multiply" unicode="&#xd7;" horiz-adv-x="523" 
d="M453 384l-141 -142l141 -141l-50 -50l-142 141l-141 -141l-50 50l141 141l-141 142l50 49l141 -140l142 140z" />
    <glyph glyph-name="Oslash" unicode="&#xd8;" 
d="M121 54q-26 27 -38.5 62.5t-12.5 75.5v282q0 42 13.5 78.5t42.5 64t74.5 43.5t110.5 16q48 0 84.5 -8.5t64.5 -24.5l48 83l44 -26l-51 -89q26 -27 38.5 -62t12.5 -75v-282q0 -42 -13.5 -78.5t-42.5 -64t-75 -43.5t-110 -16q-48 0 -84.5 8.5t-64.5 24.5l-48 -83l-44 26z
M156 194q0 -32 11 -59l253 438q-41 27 -109 27q-79 0 -117 -33t-38 -95v-278zM466 472q0 33 -12 59l-252 -438q37 -27 109 -27q79 0 117 33t38 95v278z" />
    <glyph glyph-name="Ugrave" unicode="&#xd9;" horiz-adv-x="632" 
d="M552 666v-479q0 -41 -12.5 -77t-40.5 -62.5t-73 -42t-110 -15.5t-110 15.5t-73 42t-40.5 62.5t-12.5 77v479h86v-474q0 -62 35.5 -93.5t114.5 -31.5t114.5 31.5t35.5 93.5v474h86zM339 711q-35 17 -66.5 36.5t-62.5 42.5l38 58q31 -23 61 -42.5t64 -39.5z" />
    <glyph glyph-name="Uacute" unicode="&#xda;" horiz-adv-x="632" 
d="M552 666v-479q0 -41 -12.5 -77t-40.5 -62.5t-73 -42t-110 -15.5t-110 15.5t-73 42t-40.5 62.5t-12.5 77v479h86v-474q0 -62 35.5 -93.5t114.5 -31.5t114.5 31.5t35.5 93.5v474h86zM265 766q34 20 64 39.5t61 42.5l38 -58q-31 -23 -62.5 -42.5t-66.5 -36.5z" />
    <glyph glyph-name="Ucircumflex" unicode="&#xdb;" horiz-adv-x="632" 
d="M552 666v-479q0 -41 -12.5 -77t-40.5 -62.5t-73 -42t-110 -15.5t-110 15.5t-73 42t-40.5 62.5t-12.5 77v479h86v-474q0 -62 35.5 -93.5t114.5 -31.5t114.5 31.5t35.5 93.5v474h86zM415 711q-29 14 -51.5 27t-47.5 29q-25 -16 -47.5 -29t-51.5 -27l-26 47q32 20 61 39
t64 46q35 -27 64 -46t61 -39z" />
    <glyph glyph-name="Udieresis" unicode="&#xdc;" horiz-adv-x="632" 
d="M552 666v-479q0 -41 -12.5 -77t-40.5 -62.5t-73 -42t-110 -15.5t-110 15.5t-73 42t-40.5 62.5t-12.5 77v479h86v-474q0 -62 35.5 -93.5t114.5 -31.5t114.5 31.5t35.5 93.5v474h86zM188 802h80v-78h-80v78zM365 802h80v-78h-80v78z" />
    <glyph glyph-name="Yacute" unicode="&#xdd;" horiz-adv-x="548" 
d="M448 666h90l-221 -465v-201h-86v201l-221 465h90l174 -372zM235 766q34 20 64 39.5t61 42.5l38 -58q-31 -23 -62.5 -42.5t-66.5 -36.5z" />
    <glyph glyph-name="Thorn" unicode="&#xde;" horiz-adv-x="554" 
d="M85 666h86v-115h155q54 0 90.5 -11.5t59.5 -32.5t33 -51.5t10 -68.5v-99q0 -39 -10 -69.5t-33 -51.5t-59.5 -32.5t-90.5 -11.5h-155v-123h-86v666zM433 386q0 50 -24 69t-86 19h-152v-274h152q62 0 86 19.5t24 68.5v98z" />
    <glyph glyph-name="germandbls" unicode="&#xdf;" horiz-adv-x="594" 
d="M303 332q0 26 7.5 47.5t24.5 50.5q14 25 22.5 42t13 30.5t5.5 24.5t1 25q0 38 -23.5 60.5t-77.5 22.5q-53 0 -80 -24.5t-27 -87.5v-523h-84v523q0 87 49 135t142 48q48 0 83 -12t57.5 -33t33.5 -49t11 -60q0 -28 -8.5 -59t-31.5 -71q-20 -36 -27 -53.5t-7 -35.5
q0 -6 1.5 -12.5t8 -15.5t20 -21t38.5 -30q30 -22 48 -37t27 -29t11.5 -30t2.5 -41q0 -30 -6 -54t-22 -40t-44.5 -24.5t-74.5 -8.5q-22 0 -54 4t-59 13l10 65q22 -5 50.5 -8t45.5 -3q45 0 58.5 13t13.5 39q0 16 -1.5 26t-9 19.5t-23.5 21.5t-44 32q-27 18 -43 33t-24.5 29
t-11 27.5t-2.5 30.5z" />
    <glyph glyph-name="agrave" unicode="&#xe0;" horiz-adv-x="493" 
d="M425 0h-71l-5 36q-32 -23 -72.5 -34.5t-85.5 -11.5q-69 0 -99 37.5t-30 102.5q0 76 37.5 106.5t111.5 30.5h130v76q0 46 -23.5 64t-82.5 18q-18 0 -37.5 -1.5t-39 -3.5t-37.5 -5t-32 -6l-9 67q35 9 78 15t82 6q52 0 87.5 -10t57 -30t31 -49.5t9.5 -68.5v-339zM341 197
h-124q-39 0 -55 -14t-16 -51q0 -19 2.5 -32t9.5 -21.5t20.5 -12.5t36.5 -4q32 0 65 11t61 29v95zM282 546q-38 20 -71 40.5t-68 46.5l36 56q26 -22 62.5 -45.5t74.5 -45.5z" />
    <glyph glyph-name="aacute" unicode="&#xe1;" horiz-adv-x="493" 
d="M425 0h-71l-5 36q-32 -23 -72.5 -34.5t-85.5 -11.5q-69 0 -99 37.5t-30 102.5q0 76 37.5 106.5t111.5 30.5h130v76q0 46 -23.5 64t-82.5 18q-18 0 -37.5 -1.5t-39 -3.5t-37.5 -5t-32 -6l-9 67q35 9 78 15t82 6q52 0 87.5 -10t57 -30t31 -49.5t9.5 -68.5v-339zM341 197
h-124q-39 0 -55 -14t-16 -51q0 -19 2.5 -32t9.5 -21.5t20.5 -12.5t36.5 -4q32 0 65 11t61 29v95zM181 598q38 22 74.5 45.5t62.5 45.5l36 -56q-35 -26 -68 -46.5t-71 -40.5z" />
    <glyph glyph-name="acircumflex" unicode="&#xe2;" horiz-adv-x="493" 
d="M425 0h-71l-5 36q-32 -23 -72.5 -34.5t-85.5 -11.5q-69 0 -99 37.5t-30 102.5q0 76 37.5 106.5t111.5 30.5h130v76q0 46 -23.5 64t-82.5 18q-18 0 -37.5 -1.5t-39 -3.5t-37.5 -5t-32 -6l-9 67q35 9 78 15t82 6q52 0 87.5 -10t57 -30t31 -49.5t9.5 -68.5v-339zM341 197
h-124q-39 0 -55 -14t-16 -51q0 -19 2.5 -32t9.5 -21.5t20.5 -12.5t36.5 -4q32 0 65 11t61 29v95zM351 539q-17 9 -30.5 17t-25.5 15.5t-23.5 16t-23.5 18.5q-25 -20 -47 -34t-56 -33l-30 47q35 21 65.5 42.5t67.5 51.5q37 -30 67.5 -51.5t65.5 -42.5z" />
    <glyph glyph-name="atilde" unicode="&#xe3;" horiz-adv-x="493" 
d="M425 0h-71l-5 36q-32 -23 -72.5 -34.5t-85.5 -11.5q-69 0 -99 37.5t-30 102.5q0 76 37.5 106.5t111.5 30.5h130v76q0 46 -23.5 64t-82.5 18q-18 0 -37.5 -1.5t-39 -3.5t-37.5 -5t-32 -6l-9 67q35 9 78 15t82 6q52 0 87.5 -10t57 -30t31 -49.5t9.5 -68.5v-339zM341 197
h-124q-39 0 -55 -14t-16 -51q0 -19 2.5 -32t9.5 -21.5t20.5 -12.5t36.5 -4q32 0 65 11t61 29v95zM255 568q-15 8 -27 13.5t-26 5.5q-17 0 -29 -10t-23 -23l-36 34q15 24 38.5 42t50.5 18q15 0 27.5 -4.5t29.5 -12.5q20 -10 32 -15t23 -5q26 0 45 30l41 -28
q-13 -28 -34 -45.5t-52 -17.5q-15 0 -28 4t-32 14z" />
    <glyph glyph-name="adieresis" unicode="&#xe4;" horiz-adv-x="493" 
d="M425 0h-71l-5 36q-32 -23 -72.5 -34.5t-85.5 -11.5q-69 0 -99 37.5t-30 102.5q0 76 37.5 106.5t111.5 30.5h130v76q0 46 -23.5 64t-82.5 18q-18 0 -37.5 -1.5t-39 -3.5t-37.5 -5t-32 -6l-9 67q35 9 78 15t82 6q52 0 87.5 -10t57 -30t31 -49.5t9.5 -68.5v-339zM341 197
h-124q-39 0 -55 -14t-16 -51q0 -19 2.5 -32t9.5 -21.5t20.5 -12.5t36.5 -4q32 0 65 11t61 29v95zM130 644h78v-83h-78v83zM303 644h78v-83h-78v83z" />
    <glyph glyph-name="aring" unicode="&#xe5;" horiz-adv-x="493" 
d="M425 0h-71l-5 36q-32 -23 -72.5 -34.5t-85.5 -11.5q-69 0 -99 37.5t-30 102.5q0 76 37.5 106.5t111.5 30.5h130v76q0 46 -23.5 64t-82.5 18q-18 0 -37.5 -1.5t-39 -3.5t-37.5 -5t-32 -6l-9 67q35 9 78 15t82 6q52 0 87.5 -10t57 -30t31 -49.5t9.5 -68.5v-339zM341 197
h-124q-39 0 -55 -14t-16 -51q0 -19 2.5 -32t9.5 -21.5t20.5 -12.5t36.5 -4q32 0 65 11t61 29v95zM322 611q0 -30 -18.5 -51.5t-55.5 -21.5t-55.5 21.5t-18.5 51.5t18.5 51.5t55.5 21.5t55.5 -21.5t18.5 -51.5zM281 611q0 16 -8.5 26t-24.5 10t-24.5 -10t-8.5 -26t8.5 -26
t24.5 -10t24.5 10t8.5 26z" />
    <glyph glyph-name="ae" unicode="&#xe6;" horiz-adv-x="767" 
d="M425 159q1 -26 6.5 -44.5t18.5 -30t35 -17t56 -5.5q36 0 75 6t79 17l11 -67q-35 -13 -80.5 -20.5t-91.5 -7.5q-60 0 -98 14.5t-60 42.5q-36 -26 -81.5 -41.5t-98.5 -15.5q-39 0 -65 10t-41 28t-21.5 44t-6.5 58q0 76 37.5 106.5t111.5 30.5h130v76q0 46 -23.5 64
t-82.5 18q-18 0 -37.5 -1.5t-39 -3.5t-37.5 -5t-32 -6l-9 67q35 9 78 15t82 6q56 0 89 -12t59 -37q26 24 59.5 36.5t84.5 12.5q54 0 89.5 -14.5t56 -39.5t29 -58.5t8.5 -71.5v-102h-290v-52zM425 281h209v40q0 51 -21.5 78.5t-80.5 27.5q-60 0 -83.5 -27.5t-23.5 -78.5v-40z
M215 62q35 0 67 9t67 29q-8 32 -8 69v28h-124q-39 0 -55 -14t-16 -51q0 -19 2.5 -32t9.5 -21.5t20.5 -12.5t36.5 -4z" />
    <glyph glyph-name="ccedilla" unicode="&#xe7;" horiz-adv-x="409" 
d="M233 -63q13 3 27 3q33 0 53 -16t20 -50t-24.5 -56t-75.5 -22q-20 0 -41.5 4t-38.5 11l10 41q13 -4 30.5 -7t31.5 -3q29 0 41.5 8.5t12.5 22.5q0 29 -42 29q-9 0 -15.5 -1.5t-14.5 -3.5l-29 13l18 83q-44 4 -72 18t-44.5 36t-23 52t-6.5 68v153q0 42 9 75t31 55.5
t59.5 34.5t94.5 12q32 0 64.5 -4.5t51.5 -10.5l-7 -70q-29 6 -55 8.5t-52 2.5q-63 0 -87.5 -21.5t-24.5 -78.5v-159q0 -57 24.5 -78.5t87.5 -21.5q26 0 52 2.5t55 8.5l8 -70q-19 -6 -52 -10.5t-65 -4.5z" />
    <glyph glyph-name="egrave" unicode="&#xe8;" horiz-adv-x="481" 
d="M139 170q0 -29 5 -49.5t17.5 -33.5t35 -19t58.5 -6t75 6t79 17l11 -67q-35 -13 -80.5 -20.5t-91.5 -7.5q-54 0 -91 12.5t-59.5 35.5t-32.5 56.5t-10 74.5v146q0 38 9.5 71t31.5 58t59 39t91 14t89.5 -14.5t56 -39.5t29 -58.5t8.5 -71.5v-102h-290v-41zM139 281h209v40
q0 51 -21.5 78.5t-80.5 27.5q-60 0 -83.5 -27.5t-23.5 -78.5v-40zM275 546q-38 20 -71 40.5t-68 46.5l36 56q26 -22 62.5 -45.5t74.5 -45.5z" />
    <glyph glyph-name="eacute" unicode="&#xe9;" horiz-adv-x="481" 
d="M139 170q0 -29 5 -49.5t17.5 -33.5t35 -19t58.5 -6t75 6t79 17l11 -67q-35 -13 -80.5 -20.5t-91.5 -7.5q-54 0 -91 12.5t-59.5 35.5t-32.5 56.5t-10 74.5v146q0 38 9.5 71t31.5 58t59 39t91 14t89.5 -14.5t56 -39.5t29 -58.5t8.5 -71.5v-102h-290v-41zM139 281h209v40
q0 51 -21.5 78.5t-80.5 27.5q-60 0 -83.5 -27.5t-23.5 -78.5v-40zM183 598q38 22 74.5 45.5t62.5 45.5l36 -56q-35 -26 -68 -46.5t-71 -40.5z" />
    <glyph glyph-name="ecircumflex" unicode="&#xea;" horiz-adv-x="481" 
d="M139 170q0 -29 5 -49.5t17.5 -33.5t35 -19t58.5 -6t75 6t79 17l11 -67q-35 -13 -80.5 -20.5t-91.5 -7.5q-54 0 -91 12.5t-59.5 35.5t-32.5 56.5t-10 74.5v146q0 38 9.5 71t31.5 58t59 39t91 14t89.5 -14.5t56 -39.5t29 -58.5t8.5 -71.5v-102h-290v-41zM139 281h209v40
q0 51 -21.5 78.5t-80.5 27.5q-60 0 -83.5 -27.5t-23.5 -78.5v-40zM356 539q-17 9 -30.5 17t-25.5 15.5t-23.5 16t-23.5 18.5q-25 -20 -47 -34t-56 -33l-30 47q35 21 65.5 42.5t67.5 51.5q37 -30 67.5 -51.5t65.5 -42.5z" />
    <glyph glyph-name="edieresis" unicode="&#xeb;" horiz-adv-x="481" 
d="M139 170q0 -29 5 -49.5t17.5 -33.5t35 -19t58.5 -6t75 6t79 17l11 -67q-35 -13 -80.5 -20.5t-91.5 -7.5q-54 0 -91 12.5t-59.5 35.5t-32.5 56.5t-10 74.5v146q0 38 9.5 71t31.5 58t59 39t91 14t89.5 -14.5t56 -39.5t29 -58.5t8.5 -71.5v-102h-290v-41zM139 281h209v40
q0 51 -21.5 78.5t-80.5 27.5q-60 0 -83.5 -27.5t-23.5 -78.5v-40zM126 644h78v-83h-78v83zM299 644h78v-83h-78v83z" />
    <glyph glyph-name="igrave" unicode="&#xec;" horiz-adv-x="244" 
d="M80 0v487h84v-487h-84zM142 546q-38 20 -71 40.5t-68 46.5l36 56q26 -22 62.5 -45.5t74.5 -45.5z" />
    <glyph glyph-name="iacute" unicode="&#xed;" horiz-adv-x="244" 
d="M80 0v487h84v-487h-84zM81 598q38 22 74.5 45.5t62.5 45.5l36 -56q-35 -26 -68 -46.5t-71 -40.5z" />
    <glyph glyph-name="icircumflex" unicode="&#xee;" horiz-adv-x="244" 
d="M80 0v487h84v-487h-84zM226 539q-17 9 -30.5 17t-25.5 15.5t-23.5 16t-23.5 18.5q-25 -20 -47 -34t-56 -33l-30 47q35 21 65.5 42.5t67.5 51.5q37 -30 67.5 -51.5t65.5 -42.5z" />
    <glyph glyph-name="idieresis" unicode="&#xef;" horiz-adv-x="244" 
d="M80 0v487h84v-487h-84zM-2 644h78v-83h-78v83zM171 644h78v-83h-78v83z" />
    <glyph glyph-name="eth" unicode="&#xf0;" horiz-adv-x="518" 
d="M247 594q-23 12 -48.5 22t-54.5 20l21 65q38 -11 74 -26.5t70 -35.5l66 47l29 -38l-53 -38q46 -38 74 -95.5t28 -145.5v-205q0 -38 -10.5 -69.5t-33.5 -55t-60 -36.5t-90 -13q-56 0 -93 13t-59.5 36.5t-32 55t-9.5 69.5v112q0 46 8 81t28.5 58t54.5 35t86 12
q31 0 65.5 -8.5t61.5 -24.5q-4 45 -24 78t-55 59l-86 -62l-29 38zM259 63q37 0 59 8t33 23t14.5 36t3.5 47v174q-56 39 -120 39q-54 0 -77 -24.5t-23 -77.5v-111q0 -26 3.5 -47t14.5 -36t33 -23t59 -8z" />
    <glyph glyph-name="ntilde" unicode="&#xf1;" horiz-adv-x="533" 
d="M374 0v372q0 24 -12 34.5t-35 10.5q-14 0 -33.5 -4t-42 -10.5t-45.5 -15.5t-42 -19v-368h-84v487h68l8 -42q20 10 45 19t51.5 16.5t52 12t47.5 4.5q59 0 82.5 -33.5t23.5 -90.5v-373h-84zM269 568q-15 8 -27 13.5t-26 5.5q-17 0 -29 -10t-23 -23l-36 34q15 24 38.5 42
t50.5 18q15 0 27.5 -4.5t29.5 -12.5q20 -10 32 -15t23 -5q26 0 45 30l41 -28q-13 -28 -34 -45.5t-52 -17.5q-15 0 -28 4t-32 14z" />
    <glyph glyph-name="ograve" unicode="&#xf2;" horiz-adv-x="506" 
d="M451 173q0 -38 -11 -71.5t-35 -58.5t-61.5 -39t-90.5 -14t-90.5 14t-61.5 39t-35 58.5t-11 71.5v141q0 38 11 71.5t35 58t61.5 39t90.5 14.5t90.5 -14.5t61.5 -39t35 -58t11 -71.5v-141zM367 317q0 107 -114 107t-114 -107v-147q0 -107 114 -107t114 107v147zM266 546
q-38 20 -71 40.5t-68 46.5l36 56q26 -22 62.5 -45.5t74.5 -45.5z" />
    <glyph glyph-name="oacute" unicode="&#xf3;" horiz-adv-x="506" 
d="M451 173q0 -38 -11 -71.5t-35 -58.5t-61.5 -39t-90.5 -14t-90.5 14t-61.5 39t-35 58.5t-11 71.5v141q0 38 11 71.5t35 58t61.5 39t90.5 14.5t90.5 -14.5t61.5 -39t35 -58t11 -71.5v-141zM367 317q0 107 -114 107t-114 -107v-147q0 -107 114 -107t114 107v147zM190 598
q38 22 74.5 45.5t62.5 45.5l36 -56q-35 -26 -68 -46.5t-71 -40.5z" />
    <glyph glyph-name="ocircumflex" unicode="&#xf4;" horiz-adv-x="506" 
d="M451 173q0 -38 -11 -71.5t-35 -58.5t-61.5 -39t-90.5 -14t-90.5 14t-61.5 39t-35 58.5t-11 71.5v141q0 38 11 71.5t35 58t61.5 39t90.5 14.5t90.5 -14.5t61.5 -39t35 -58t11 -71.5v-141zM367 317q0 107 -114 107t-114 -107v-147q0 -107 114 -107t114 107v147zM356 539
q-17 9 -30.5 17t-25.5 15.5t-23.5 16t-23.5 18.5q-25 -20 -47 -34t-56 -33l-30 47q35 21 65.5 42.5t67.5 51.5q37 -30 67.5 -51.5t65.5 -42.5z" />
    <glyph glyph-name="otilde" unicode="&#xf5;" horiz-adv-x="506" 
d="M451 173q0 -38 -11 -71.5t-35 -58.5t-61.5 -39t-90.5 -14t-90.5 14t-61.5 39t-35 58.5t-11 71.5v141q0 38 11 71.5t35 58t61.5 39t90.5 14.5t90.5 -14.5t61.5 -39t35 -58t11 -71.5v-141zM367 317q0 107 -114 107t-114 -107v-147q0 -107 114 -107t114 107v147zM256 568
q-15 8 -27 13.5t-26 5.5q-17 0 -29 -10t-23 -23l-36 34q15 24 38.5 42t50.5 18q15 0 27.5 -4.5t29.5 -12.5q20 -10 32 -15t23 -5q26 0 45 30l41 -28q-13 -28 -34 -45.5t-52 -17.5q-15 0 -28 4t-32 14z" />
    <glyph glyph-name="odieresis" unicode="&#xf6;" horiz-adv-x="506" 
d="M451 173q0 -38 -11 -71.5t-35 -58.5t-61.5 -39t-90.5 -14t-90.5 14t-61.5 39t-35 58.5t-11 71.5v141q0 38 11 71.5t35 58t61.5 39t90.5 14.5t90.5 -14.5t61.5 -39t35 -58t11 -71.5v-141zM367 317q0 107 -114 107t-114 -107v-147q0 -107 114 -107t114 107v147zM128 644h78
v-83h-78v83zM301 644h78v-83h-78v83z" />
    <glyph glyph-name="divide" unicode="&#xf7;" horiz-adv-x="538" 
d="M473 209h-408v68h408v-68zM227 125h84v-94h-84v94zM227 455h84v-94h-84v94z" />
    <glyph glyph-name="oslash" unicode="&#xf8;" horiz-adv-x="506" 
d="M100 44q-24 25 -34.5 58t-10.5 71v141q0 38 11 71.5t35 58t61.5 39t90.5 14.5q37 0 66 -7t52 -20l43 67l37 -23l-45 -71q23 -25 34 -58t11 -71v-141q0 -38 -11 -71.5t-35 -58.5t-61.5 -39t-90.5 -14q-38 0 -67 7t-52 20l-42 -67l-37 23zM367 317q0 28 -9 51l-182 -286
q28 -19 77 -19q114 0 114 107v147zM139 170q0 -32 8 -51l182 285q-28 20 -76 20q-114 0 -114 -107v-147z" />
    <glyph glyph-name="ugrave" unicode="&#xf9;" horiz-adv-x="533" 
d="M159 487v-372q0 -24 12 -34.5t35 -10.5q13 0 33 4t42.5 10.5t45 15.5t42.5 19v368h84v-487h-68l-8 42q-20 -10 -45 -19t-51.5 -16.5t-52 -12t-47.5 -4.5q-59 0 -82.5 33.5t-23.5 90.5v373h84zM294 546q-38 20 -71 40.5t-68 46.5l36 56q26 -22 62.5 -45.5t74.5 -45.5z" />
    <glyph glyph-name="uacute" unicode="&#xfa;" horiz-adv-x="533" 
d="M159 487v-372q0 -24 12 -34.5t35 -10.5q13 0 33 4t42.5 10.5t45 15.5t42.5 19v368h84v-487h-68l-8 42q-20 -10 -45 -19t-51.5 -16.5t-52 -12t-47.5 -4.5q-59 0 -82.5 33.5t-23.5 90.5v373h84zM201 598q38 22 74.5 45.5t62.5 45.5l36 -56q-35 -26 -68 -46.5t-71 -40.5z
" />
    <glyph glyph-name="ucircumflex" unicode="&#xfb;" horiz-adv-x="533" 
d="M159 487v-372q0 -24 12 -34.5t35 -10.5q13 0 33 4t42.5 10.5t45 15.5t42.5 19v368h84v-487h-68l-8 42q-20 -10 -45 -19t-51.5 -16.5t-52 -12t-47.5 -4.5q-59 0 -82.5 33.5t-23.5 90.5v373h84zM369 539q-17 9 -30.5 17t-25.5 15.5t-23.5 16t-23.5 18.5q-25 -20 -47 -34
t-56 -33l-30 47q35 21 65.5 42.5t67.5 51.5q37 -30 67.5 -51.5t65.5 -42.5z" />
    <glyph glyph-name="udieresis" unicode="&#xfc;" horiz-adv-x="533" 
d="M159 487v-372q0 -24 12 -34.5t35 -10.5q13 0 33 4t42.5 10.5t45 15.5t42.5 19v368h84v-487h-68l-8 42q-20 -10 -45 -19t-51.5 -16.5t-52 -12t-47.5 -4.5q-59 0 -82.5 33.5t-23.5 90.5v373h84zM143 644h78v-83h-78v83zM316 644h78v-83h-78v83z" />
    <glyph glyph-name="yacute" unicode="&#xfd;" horiz-adv-x="448" 
d="M201 0h-35l-158 487h83l133 -420l135 420h83l-161 -487l-69 -197h-79zM162 598q38 22 74.5 45.5t62.5 45.5l36 -56q-35 -26 -68 -46.5t-71 -40.5z" />
    <glyph glyph-name="thorn" unicode="&#xfe;" horiz-adv-x="523" 
d="M461 149q0 -73 -36.5 -116t-121.5 -43q-32 0 -71 4.5t-68 10.5v-202l-84 -12v895l84 12v-251q29 23 69 36.5t86 13.5q142 0 142 -149v-199zM164 79q34 -7 71 -11t63 -4q42 0 60.5 20t18.5 65v199q0 38 -15 56.5t-60 18.5q-36 0 -73.5 -17t-64.5 -41v-286z" />
    <glyph glyph-name="ydieresis" unicode="&#xff;" horiz-adv-x="448" 
d="M201 0h-35l-158 487h83l133 -420l135 420h83l-161 -487l-69 -197h-79zM103 644h78v-83h-78v83zM276 644h78v-83h-78v83z" />
    <glyph glyph-name="Amacron" unicode="&#x100;" 
d="M594 0h-87l-55 160h-283l-54 -160h-87l225 666h116zM311 604l-119 -369h238zM191 794h241v-59h-241v59z" />
    <glyph glyph-name="amacron" unicode="&#x101;" horiz-adv-x="493" 
d="M425 0h-71l-5 36q-32 -23 -72.5 -34.5t-85.5 -11.5q-69 0 -99 37.5t-30 102.5q0 76 37.5 106.5t111.5 30.5h130v76q0 46 -23.5 64t-82.5 18q-18 0 -37.5 -1.5t-39 -3.5t-37.5 -5t-32 -6l-9 67q35 9 78 15t82 6q52 0 87.5 -10t57 -30t31 -49.5t9.5 -68.5v-339zM341 197
h-124q-39 0 -55 -14t-16 -51q0 -19 2.5 -32t9.5 -21.5t20.5 -12.5t36.5 -4q32 0 65 11t61 29v95zM137 615h241v-59h-241v59z" />
    <glyph glyph-name="Abreve" unicode="&#x102;" 
d="M594 0h-87l-55 160h-283l-54 -160h-87l225 666h116zM311 604l-119 -369h238zM438 796q-14 -30 -44.5 -52.5t-82.5 -22.5t-82.5 22.5t-44.5 52.5l43 30q14 -25 34.5 -37.5t49.5 -12.5t49.5 12.5t34.5 37.5z" />
    <glyph glyph-name="abreve" unicode="&#x103;" horiz-adv-x="493" 
d="M425 0h-71l-5 36q-32 -23 -72.5 -34.5t-85.5 -11.5q-69 0 -99 37.5t-30 102.5q0 76 37.5 106.5t111.5 30.5h130v76q0 46 -23.5 64t-82.5 18q-18 0 -37.5 -1.5t-39 -3.5t-37.5 -5t-32 -6l-9 67q35 9 78 15t82 6q52 0 87.5 -10t57 -30t31 -49.5t9.5 -68.5v-339zM341 197
h-124q-39 0 -55 -14t-16 -51q0 -19 2.5 -32t9.5 -21.5t20.5 -12.5t36.5 -4q32 0 65 11t61 29v95zM384 622q-6 -15 -16.5 -30t-26 -27.5t-36.5 -20t-49 -7.5t-49 7.5t-36.5 20t-26 27.5t-16.5 30l43 30q12 -23 31 -41t54 -18t54 18t31 41z" />
    <glyph glyph-name="Aogonek" unicode="&#x104;" 
d="M594 -194q-23 -13 -61 -13q-48 0 -77 22.5t-29 67.5q0 40 25 68.5t55 48.5l-55 160h-283l-54 -160h-87l225 666h116l225 -666q-45 -28 -71 -53.5t-26 -59.5q0 -18 11 -28.5t36 -10.5q12 0 20.5 1.5t16.5 4.5zM311 604l-119 -369h238z" />
    <glyph glyph-name="aogonek" unicode="&#x105;" horiz-adv-x="493" 
d="M425 -194q-23 -13 -61 -13q-48 0 -77 22.5t-29 67.5q0 21 9 39t22.5 32t30.5 25.5t34 20.5l-5 36q-32 -23 -72.5 -34.5t-85.5 -11.5q-69 0 -99 37.5t-30 102.5q0 76 37.5 106.5t111.5 30.5h130v76q0 46 -23.5 64t-82.5 18q-18 0 -37.5 -1.5t-39 -3.5t-37.5 -5t-32 -6
l-9 67q35 9 78 15t82 6q52 0 87.5 -10t57 -30t31 -49.5t9.5 -68.5v-339q-45 -28 -72 -53.5t-27 -59.5q0 -18 12 -28.5t37 -10.5q12 0 20.5 1.5t16.5 4.5zM341 197h-124q-39 0 -55 -14t-16 -51q0 -19 2.5 -32t9.5 -21.5t20.5 -12.5t36.5 -4q32 0 65 11t61 29v95z" />
    <glyph glyph-name="Cacute" unicode="&#x106;" horiz-adv-x="516" 
d="M156 191q0 -35 7.5 -58.5t24.5 -38t44.5 -20.5t68.5 -6q15 0 34 1t40 2.5t42 4.5t40 6l9 -74q-18 -4 -39.5 -7.5t-44 -5.5t-44 -3.5t-40.5 -1.5q-122 0 -175 50.5t-53 145.5v294q0 94 53 145t175 51q19 0 40.5 -1.5t44 -3.5t44 -5.5t39.5 -7.5l-9 -74q-19 3 -40 6
t-42 4.5t-40 2.5t-34 1q-41 0 -68.5 -6t-44.5 -20.5t-24.5 -38t-7.5 -58.5v-284zM227 766q34 20 64 39.5t61 42.5l38 -58q-31 -23 -62.5 -42.5t-66.5 -36.5z" />
    <glyph glyph-name="cacute" unicode="&#x107;" horiz-adv-x="409" 
d="M244 -10q-59 0 -96.5 12t-59 34.5t-30 55.5t-8.5 75v153q0 42 9 75t31 55.5t59.5 34.5t94.5 12q32 0 64.5 -4.5t51.5 -10.5l-7 -70q-29 6 -55 8.5t-52 2.5q-63 0 -87.5 -21.5t-24.5 -78.5v-159q0 -57 24.5 -78.5t87.5 -21.5q26 0 52 2.5t55 8.5l8 -70q-19 -6 -52 -10.5
t-65 -4.5zM150 598q38 22 74.5 45.5t62.5 45.5l36 -56q-35 -26 -68 -46.5t-71 -40.5z" />
    <glyph glyph-name="Ccircumflex" unicode="&#x108;" horiz-adv-x="516" 
d="M156 191q0 -35 7.5 -58.5t24.5 -38t44.5 -20.5t68.5 -6q15 0 34 1t40 2.5t42 4.5t40 6l9 -74q-18 -4 -39.5 -7.5t-44 -5.5t-44 -3.5t-40.5 -1.5q-122 0 -175 50.5t-53 145.5v294q0 94 53 145t175 51q19 0 40.5 -1.5t44 -3.5t44 -5.5t39.5 -7.5l-9 -74q-19 3 -40 6
t-42 4.5t-40 2.5t-34 1q-41 0 -68.5 -6t-44.5 -20.5t-24.5 -38t-7.5 -58.5v-284zM405 711q-29 14 -51.5 27t-47.5 29q-25 -16 -47.5 -29t-51.5 -27l-26 47q32 20 61 39t64 46q35 -27 64 -46t61 -39z" />
    <glyph glyph-name="ccircumflex" unicode="&#x109;" horiz-adv-x="409" 
d="M244 -10q-59 0 -96.5 12t-59 34.5t-30 55.5t-8.5 75v153q0 42 9 75t31 55.5t59.5 34.5t94.5 12q32 0 64.5 -4.5t51.5 -10.5l-7 -70q-29 6 -55 8.5t-52 2.5q-63 0 -87.5 -21.5t-24.5 -78.5v-159q0 -57 24.5 -78.5t87.5 -21.5q26 0 52 2.5t55 8.5l8 -70q-19 -6 -52 -10.5
t-65 -4.5zM337 539q-17 9 -30.5 17t-25.5 15.5t-23.5 16t-23.5 18.5q-25 -20 -47 -34t-56 -33l-30 47q35 21 65.5 42.5t67.5 51.5q37 -30 67.5 -51.5t65.5 -42.5z" />
    <glyph glyph-name="Cdotaccent" unicode="&#x10a;" horiz-adv-x="516" 
d="M156 191q0 -35 7.5 -58.5t24.5 -38t44.5 -20.5t68.5 -6q15 0 34 1t40 2.5t42 4.5t40 6l9 -74q-18 -4 -39.5 -7.5t-44 -5.5t-44 -3.5t-40.5 -1.5q-122 0 -175 50.5t-53 145.5v294q0 94 53 145t175 51q19 0 40.5 -1.5t44 -3.5t44 -5.5t39.5 -7.5l-9 -74q-19 3 -40 6
t-42 4.5t-40 2.5t-34 1q-41 0 -68.5 -6t-44.5 -20.5t-24.5 -38t-7.5 -58.5v-284zM259 725v121h84v-121h-84z" />
    <glyph glyph-name="cdotaccent" unicode="&#x10b;" horiz-adv-x="409" 
d="M244 -10q-59 0 -96.5 12t-59 34.5t-30 55.5t-8.5 75v153q0 42 9 75t31 55.5t59.5 34.5t94.5 12q32 0 64.5 -4.5t51.5 -10.5l-7 -70q-29 6 -55 8.5t-52 2.5q-63 0 -87.5 -21.5t-24.5 -78.5v-159q0 -57 24.5 -78.5t87.5 -21.5q26 0 52 2.5t55 8.5l8 -70q-19 -6 -52 -10.5
t-65 -4.5zM181 565v121h84v-121h-84z" />
    <glyph glyph-name="Ccaron" unicode="&#x10c;" horiz-adv-x="516" 
d="M156 191q0 -35 7.5 -58.5t24.5 -38t44.5 -20.5t68.5 -6q15 0 34 1t40 2.5t42 4.5t40 6l9 -74q-18 -4 -39.5 -7.5t-44 -5.5t-44 -3.5t-40.5 -1.5q-122 0 -175 50.5t-53 145.5v294q0 94 53 145t175 51q19 0 40.5 -1.5t44 -3.5t44 -5.5t39.5 -7.5l-9 -74q-19 3 -40 6
t-42 4.5t-40 2.5t-34 1q-41 0 -68.5 -6t-44.5 -20.5t-24.5 -38t-7.5 -58.5v-284zM426 795q-32 -20 -61 -39t-64 -46q-35 27 -64 46t-61 39l26 47q29 -14 51.5 -27t47.5 -29q25 16 47.5 29t51.5 27z" />
    <glyph glyph-name="ccaron" unicode="&#x10d;" horiz-adv-x="409" 
d="M244 -10q-59 0 -96.5 12t-59 34.5t-30 55.5t-8.5 75v153q0 42 9 75t31 55.5t59.5 34.5t94.5 12q32 0 64.5 -4.5t51.5 -10.5l-7 -70q-29 6 -55 8.5t-52 2.5q-63 0 -87.5 -21.5t-24.5 -78.5v-159q0 -57 24.5 -78.5t87.5 -21.5q26 0 52 2.5t55 8.5l8 -70q-19 -6 -52 -10.5
t-65 -4.5zM364 627q-35 -21 -65.5 -42.5t-67.5 -51.5q-37 30 -67.5 51.5t-65.5 42.5l30 47q34 -19 56 -33t47 -34q12 10 23.5 18.5t23.5 16t25.5 15.5t30.5 17z" />
    <glyph glyph-name="Dcaron" unicode="&#x10e;" horiz-adv-x="597" 
d="M318 666q61 0 102 -15t66 -41t35.5 -60.5t10.5 -74.5v-284q0 -40 -10.5 -74.5t-35.5 -60.5t-66 -41t-102 -15h-233v666h233zM171 77h144q38 0 63 8t40 23t21.5 37.5t6.5 51.5v272q0 29 -6.5 51.5t-21.5 37.5t-40 23t-63 8h-144v-512zM423 795q-32 -20 -61 -39t-64 -46
q-35 27 -64 46t-61 39l26 47q29 -14 51.5 -27t47.5 -29q25 16 47.5 29t51.5 27z" />
    <glyph glyph-name="dcaron" unicode="&#x10f;" horiz-adv-x="616" 
d="M62 338q0 36 8.5 65.5t27.5 50.5t49 32t73 11q32 0 71 -4.5t68 -10.5v204l84 12v-698h-71l-7 44q-30 -24 -71.5 -39t-89.5 -15q-142 0 -142 149v199zM359 408q-34 7 -71 11t-63 4q-42 0 -60.5 -20t-18.5 -65v-199q0 -38 15 -56.5t60 -18.5q36 0 73.5 17t64.5 41v286z
M539 686h84v-113l-55 -108l-38 18l37 90h-28v113z" />
    <glyph glyph-name="Dcroat" unicode="&#x110;" horiz-adv-x="631" 
d="M40 373h79v293h233q61 0 102 -15t66 -41t35.5 -60.5t10.5 -74.5v-284q0 -40 -10.5 -74.5t-35.5 -60.5t-66 -41t-102 -15h-233v303h-79v70zM205 373h132v-70h-132v-226h144q38 0 63 8t40 23t21.5 37.5t6.5 51.5v272q0 29 -6.5 51.5t-21.5 37.5t-40 23t-63 8h-144v-216z
" />
    <glyph glyph-name="dcroat" unicode="&#x111;" horiz-adv-x="528" 
d="M253 611h106v75l84 12v-87h73v-55h-73v-556h-71l-7 44q-30 -24 -71.5 -39t-89.5 -15q-142 0 -142 149v199q0 36 8.5 65.5t27.5 50.5t49 32t73 11q32 0 71 -4.5t68 -10.5v74h-106v55zM359 408q-34 7 -71 11t-63 4q-42 0 -60.5 -20t-18.5 -65v-199q0 -38 15 -56.5t60 -18.5
q36 0 73.5 17t64.5 41v286z" />
    <glyph glyph-name="Emacron" unicode="&#x112;" horiz-adv-x="540" 
d="M85 666h392v-77h-306v-209h284v-77h-284v-226h307v-77h-393v666zM169 794h241v-59h-241v59z" />
    <glyph glyph-name="emacron" unicode="&#x113;" horiz-adv-x="481" 
d="M139 170q0 -29 5 -49.5t17.5 -33.5t35 -19t58.5 -6t75 6t79 17l11 -67q-35 -13 -80.5 -20.5t-91.5 -7.5q-54 0 -91 12.5t-59.5 35.5t-32.5 56.5t-10 74.5v146q0 38 9.5 71t31.5 58t59 39t91 14t89.5 -14.5t56 -39.5t29 -58.5t8.5 -71.5v-102h-290v-41zM139 281h209v40
q0 51 -21.5 78.5t-80.5 27.5q-60 0 -83.5 -27.5t-23.5 -78.5v-40zM129 615h241v-59h-241v59z" />
    <glyph glyph-name="Ebreve" unicode="&#x114;" horiz-adv-x="540" 
d="M85 666h392v-77h-306v-209h284v-77h-284v-226h307v-77h-393v666zM425 796q-14 -30 -44.5 -52.5t-82.5 -22.5t-82.5 22.5t-44.5 52.5l43 30q14 -25 34.5 -37.5t49.5 -12.5t49.5 12.5t34.5 37.5z" />
    <glyph glyph-name="ebreve" unicode="&#x115;" horiz-adv-x="481" 
d="M139 170q0 -29 5 -49.5t17.5 -33.5t35 -19t58.5 -6t75 6t79 17l11 -67q-35 -13 -80.5 -20.5t-91.5 -7.5q-54 0 -91 12.5t-59.5 35.5t-32.5 56.5t-10 74.5v146q0 38 9.5 71t31.5 58t59 39t91 14t89.5 -14.5t56 -39.5t29 -58.5t8.5 -71.5v-102h-290v-41zM139 281h209v40
q0 51 -21.5 78.5t-80.5 27.5q-60 0 -83.5 -27.5t-23.5 -78.5v-40zM382 622q-6 -15 -16.5 -30t-26 -27.5t-36.5 -20t-49 -7.5t-49 7.5t-36.5 20t-26 27.5t-16.5 30l43 30q12 -23 31 -41t54 -18t54 18t31 41z" />
    <glyph glyph-name="Edotaccent" unicode="&#x116;" horiz-adv-x="540" 
d="M85 666h392v-77h-306v-209h284v-77h-284v-226h307v-77h-393v666zM256 725v121h84v-121h-84z" />
    <glyph glyph-name="edotaccent" unicode="&#x117;" horiz-adv-x="481" 
d="M139 170q0 -29 5 -49.5t17.5 -33.5t35 -19t58.5 -6t75 6t79 17l11 -67q-35 -13 -80.5 -20.5t-91.5 -7.5q-54 0 -91 12.5t-59.5 35.5t-32.5 56.5t-10 74.5v146q0 38 9.5 71t31.5 58t59 39t91 14t89.5 -14.5t56 -39.5t29 -58.5t8.5 -71.5v-102h-290v-41zM139 281h209v40
q0 51 -21.5 78.5t-80.5 27.5q-60 0 -83.5 -27.5t-23.5 -78.5v-40zM205 565v121h84v-121h-84z" />
    <glyph glyph-name="Eogonek" unicode="&#x118;" horiz-adv-x="540" 
d="M85 666h392v-77h-306v-209h284v-77h-284v-226h307v-77h-57q-43 -29 -70 -55.5t-27 -57.5q0 -18 11 -28.5t36 -10.5q12 0 20.5 1.5t16.5 4.5l13 -48q-23 -13 -61 -13q-48 0 -77 22.5t-29 67.5q0 40 30 68.5t70 48.5h-269v666z" />
    <glyph glyph-name="eogonek" unicode="&#x119;" horiz-adv-x="481" 
d="M372 -194q-23 -13 -61 -13q-52 0 -79 23t-27 61t28.5 67.5t65.5 48.5q-26 -3 -51 -3q-54 0 -91 12.5t-59.5 35.5t-32.5 56.5t-10 74.5v146q0 38 9.5 71t31.5 58t59 39t91 14t89.5 -14.5t56 -39.5t29 -58.5t8.5 -71.5v-102h-290v-41q0 -29 5 -49.5t17.5 -33.5t35 -19
t58.5 -6t75 6t79 17l11 -67q-69 -32 -107 -66t-38 -69t47 -35q12 0 20.5 1.5t16.5 4.5zM139 281h209v40q0 51 -21.5 78.5t-80.5 27.5q-60 0 -83.5 -27.5t-23.5 -78.5v-40z" />
    <glyph glyph-name="Ecaron" unicode="&#x11a;" horiz-adv-x="540" 
d="M85 666h392v-77h-306v-209h284v-77h-284v-226h307v-77h-393v666zM422 795q-32 -20 -61 -39t-64 -46q-35 27 -64 46t-61 39l26 47q29 -14 51.5 -27t47.5 -29q25 16 47.5 29t51.5 27z" />
    <glyph glyph-name="ecaron" unicode="&#x11b;" horiz-adv-x="481" 
d="M139 170q0 -29 5 -49.5t17.5 -33.5t35 -19t58.5 -6t75 6t79 17l11 -67q-35 -13 -80.5 -20.5t-91.5 -7.5q-54 0 -91 12.5t-59.5 35.5t-32.5 56.5t-10 74.5v146q0 38 9.5 71t31.5 58t59 39t91 14t89.5 -14.5t56 -39.5t29 -58.5t8.5 -71.5v-102h-290v-41zM139 281h209v40
q0 51 -21.5 78.5t-80.5 27.5q-60 0 -83.5 -27.5t-23.5 -78.5v-40zM383 627q-35 -21 -65.5 -42.5t-67.5 -51.5q-37 30 -67.5 51.5t-65.5 42.5l30 47q34 -19 56 -33t47 -34q12 10 23.5 18.5t23.5 16t25.5 15.5t30.5 17z" />
    <glyph glyph-name="Gcircumflex" unicode="&#x11c;" horiz-adv-x="578" 
d="M156 191q0 -32 5.5 -55t21 -38t42.5 -22.5t70 -7.5q26 0 58 2.5t67 9.5v226h83v-287q-49 -14 -104 -21.5t-107 -7.5q-64 0 -106.5 13.5t-68 38.5t-36.5 61.5t-11 82.5v293q0 102 54 149.5t179 47.5q43 0 90.5 -5t94.5 -16l-10 -74q-48 8 -92.5 12.5t-86.5 4.5
q-41 0 -68.5 -6.5t-44 -21t-23.5 -38t-7 -57.5v-284zM406 711q-29 14 -51.5 27t-47.5 29q-25 -16 -47.5 -29t-51.5 -27l-26 47q32 20 61 39t64 46q35 -27 64 -46t61 -39z" />
    <glyph glyph-name="gcircumflex" unicode="&#x11d;" horiz-adv-x="490" 
d="M457 438l-58 -11q14 -19 20 -43.5t7 -53.5v-22q0 -79 -47.5 -122.5t-143.5 -43.5q-28 0 -50 3q-13 -11 -24 -23.5t-11 -28.5q0 -14 7.5 -20t24.5 -8q19 -2 34.5 -3.5l31 -3t32.5 -3.5t40 -4q66 -7 94 -34t28 -83q0 -40 -8.5 -67t-32 -43.5t-65 -23.5t-107.5 -7
q-17 0 -39 1.5t-46 4.5t-47.5 7t-44.5 10l12 66q38 -9 82 -14.5t81 -5.5q46 0 73.5 3.5t41 11.5t17.5 21t4 32q0 15 -3 24.5t-11.5 15.5t-22.5 8.5t-35 4.5l-35 3.5t-28.5 2.5t-29 2.5t-36.5 3.5q-54 5 -74.5 30t-20.5 59q0 27 13 49t33 37q-35 20 -51.5 55t-16.5 83v22
q0 40 10 71t32.5 52.5t59 32.5t88.5 11q19 0 42 -2.5t40 -7.5h140v-49zM346 329q0 54 -25 76.5t-86 22.5t-86 -22.5t-25 -76.5v-21q0 -56 25.5 -76.5t85.5 -20.5t85.5 24.5t25.5 72.5v21zM348 539q-17 9 -30.5 17t-25.5 15.5t-23.5 16t-23.5 18.5q-25 -20 -47 -34t-56 -33
l-30 47q35 21 65.5 42.5t67.5 51.5q37 -30 67.5 -51.5t65.5 -42.5z" />
    <glyph glyph-name="Gbreve" unicode="&#x11e;" horiz-adv-x="578" 
d="M156 191q0 -32 5.5 -55t21 -38t42.5 -22.5t70 -7.5q26 0 58 2.5t67 9.5v226h83v-287q-49 -14 -104 -21.5t-107 -7.5q-64 0 -106.5 13.5t-68 38.5t-36.5 61.5t-11 82.5v293q0 102 54 149.5t179 47.5q43 0 90.5 -5t94.5 -16l-10 -74q-48 8 -92.5 12.5t-86.5 4.5
q-41 0 -68.5 -6.5t-44 -21t-23.5 -38t-7 -57.5v-284zM436 796q-14 -30 -44.5 -52.5t-82.5 -22.5t-82.5 22.5t-44.5 52.5l43 30q14 -25 34.5 -37.5t49.5 -12.5t49.5 12.5t34.5 37.5z" />
    <glyph glyph-name="gbreve" unicode="&#x11f;" horiz-adv-x="490" 
d="M457 438l-58 -11q14 -19 20 -43.5t7 -53.5v-22q0 -79 -47.5 -122.5t-143.5 -43.5q-28 0 -50 3q-13 -11 -24 -23.5t-11 -28.5q0 -14 7.5 -20t24.5 -8q19 -2 34.5 -3.5l31 -3t32.5 -3.5t40 -4q66 -7 94 -34t28 -83q0 -40 -8.5 -67t-32 -43.5t-65 -23.5t-107.5 -7
q-17 0 -39 1.5t-46 4.5t-47.5 7t-44.5 10l12 66q38 -9 82 -14.5t81 -5.5q46 0 73.5 3.5t41 11.5t17.5 21t4 32q0 15 -3 24.5t-11.5 15.5t-22.5 8.5t-35 4.5l-35 3.5t-28.5 2.5t-29 2.5t-36.5 3.5q-54 5 -74.5 30t-20.5 59q0 27 13 49t33 37q-35 20 -51.5 55t-16.5 83v22
q0 40 10 71t32.5 52.5t59 32.5t88.5 11q19 0 42 -2.5t40 -7.5h140v-49zM346 329q0 54 -25 76.5t-86 22.5t-86 -22.5t-25 -76.5v-21q0 -56 25.5 -76.5t85.5 -20.5t85.5 24.5t25.5 72.5v21zM368 622q-6 -15 -16.5 -30t-26 -27.5t-36.5 -20t-49 -7.5t-49 7.5t-36.5 20t-26 27.5
t-16.5 30l43 30q12 -23 31 -41t54 -18t54 18t31 41z" />
    <glyph glyph-name="Gdotaccent" unicode="&#x120;" horiz-adv-x="578" 
d="M156 191q0 -32 5.5 -55t21 -38t42.5 -22.5t70 -7.5q26 0 58 2.5t67 9.5v226h83v-287q-49 -14 -104 -21.5t-107 -7.5q-64 0 -106.5 13.5t-68 38.5t-36.5 61.5t-11 82.5v293q0 102 54 149.5t179 47.5q43 0 90.5 -5t94.5 -16l-10 -74q-48 8 -92.5 12.5t-86.5 4.5
q-41 0 -68.5 -6.5t-44 -21t-23.5 -38t-7 -57.5v-284zM258 725v121h84v-121h-84z" />
    <glyph glyph-name="gdotaccent" unicode="&#x121;" horiz-adv-x="490" 
d="M457 438l-58 -11q14 -19 20 -43.5t7 -53.5v-22q0 -79 -47.5 -122.5t-143.5 -43.5q-28 0 -50 3q-13 -11 -24 -23.5t-11 -28.5q0 -14 7.5 -20t24.5 -8q19 -2 34.5 -3.5l31 -3t32.5 -3.5t40 -4q66 -7 94 -34t28 -83q0 -40 -8.5 -67t-32 -43.5t-65 -23.5t-107.5 -7
q-17 0 -39 1.5t-46 4.5t-47.5 7t-44.5 10l12 66q38 -9 82 -14.5t81 -5.5q46 0 73.5 3.5t41 11.5t17.5 21t4 32q0 15 -3 24.5t-11.5 15.5t-22.5 8.5t-35 4.5l-35 3.5t-28.5 2.5t-29 2.5t-36.5 3.5q-54 5 -74.5 30t-20.5 59q0 27 13 49t33 37q-35 20 -51.5 55t-16.5 83v22
q0 40 10 71t32.5 52.5t59 32.5t88.5 11q19 0 42 -2.5t40 -7.5h140v-49zM346 329q0 54 -25 76.5t-86 22.5t-86 -22.5t-25 -76.5v-21q0 -56 25.5 -76.5t85.5 -20.5t85.5 24.5t25.5 72.5v21zM193 565v121h84v-121h-84z" />
    <glyph glyph-name="Gcommaaccent" unicode="&#x122;" horiz-adv-x="578" 
d="M156 191q0 -32 5.5 -55t21 -38t42.5 -22.5t70 -7.5q26 0 58 2.5t67 9.5v226h83v-287q-49 -14 -104 -21.5t-107 -7.5q-64 0 -106.5 13.5t-68 38.5t-36.5 61.5t-11 82.5v293q0 102 54 149.5t179 47.5q43 0 90.5 -5t94.5 -16l-10 -74q-48 8 -92.5 12.5t-86.5 4.5
q-41 0 -68.5 -6.5t-44 -21t-23.5 -38t-7 -57.5v-284zM263 -51h84v-107l-49 -101l-39 17l33 84h-29v107z" />
    <glyph glyph-name="gcommaaccent" unicode="&#x123;" horiz-adv-x="490" 
d="M275 543h-84v107l49 101l39 -17l-33 -84h29v-107zM457 438l-58 -11q14 -19 20 -43.5t7 -53.5v-22q0 -79 -47.5 -122.5t-143.5 -43.5q-28 0 -50 3q-13 -11 -24 -23.5t-11 -28.5q0 -14 7.5 -20t24.5 -8q19 -2 34.5 -3.5l31 -3t32.5 -3.5t40 -4q66 -7 94 -34t28 -83
q0 -40 -8.5 -67t-32 -43.5t-65 -23.5t-107.5 -7q-17 0 -39 1.5t-46 4.5t-47.5 7t-44.5 10l12 66q38 -9 82 -14.5t81 -5.5q46 0 73.5 3.5t41 11.5t17.5 21t4 32q0 15 -3 24.5t-11.5 15.5t-22.5 8.5t-35 4.5l-35 3.5t-28.5 2.5t-29 2.5t-36.5 3.5q-54 5 -74.5 30t-20.5 59
q0 27 13 49t33 37q-35 20 -51.5 55t-16.5 83v22q0 40 10 71t32.5 52.5t59 32.5t88.5 11q19 0 42 -2.5t40 -7.5h140v-49zM346 329q0 54 -25 76.5t-86 22.5t-86 -22.5t-25 -76.5v-21q0 -56 25.5 -76.5t85.5 -20.5t85.5 24.5t25.5 72.5v21z" />
    <glyph glyph-name="Hcircumflex" unicode="&#x124;" horiz-adv-x="637" 
d="M466 0v302h-295v-302h-86v666h86v-287h295v287h86v-666h-86zM417 711q-29 14 -51.5 27t-47.5 29q-25 -16 -47.5 -29t-51.5 -27l-26 47q32 20 61 39t64 46q35 -27 64 -46t61 -39z" />
    <glyph glyph-name="hcircumflex" unicode="&#x125;" horiz-adv-x="533" 
d="M374 0v372q0 24 -12 34.5t-35 10.5q-14 0 -33.5 -4t-42 -11t-45.5 -16t-42 -19v-367h-84v686l84 12v-252q20 10 44 19t49 16t49.5 11.5t45.5 4.5q59 0 82.5 -33.5t23.5 -90.5v-373h-84zM229 741q-29 14 -51.5 27t-47.5 29q-25 -16 -47.5 -29t-51.5 -27l-26 47
q32 20 61 39t64 46q35 -27 64 -46t61 -39z" />
    <glyph glyph-name="Hbar" unicode="&#x126;" horiz-adv-x="647" 
d="M13 565h77v101h86v-101h295v101h86v-101h77v-57h-77v-508h-86v302h-295v-302h-86v508h-77v57zM471 379v129h-295v-129h295z" />
    <glyph glyph-name="hbar" unicode="&#x127;" horiz-adv-x="533" 
d="M23 606h57v80l84 12v-92h121v-54h-121v-106q20 10 44 19t49 16t49.5 11.5t45.5 4.5q59 0 82.5 -33.5t23.5 -90.5v-373h-84v372q0 24 -12 34.5t-35 10.5q-14 0 -33.5 -4t-42 -11t-45.5 -16t-42 -19v-367h-84v552h-57v54z" />
    <glyph glyph-name="Itilde" unicode="&#x128;" horiz-adv-x="266" 
d="M176 0h-86v666h86v-666zM139 740q-15 8 -27 13.5t-26 5.5q-17 0 -29 -10t-23 -23l-36 34q15 24 38.5 42t50.5 18q15 0 27.5 -4.5t29.5 -12.5q20 -10 32 -15t23 -5q26 0 45 30l41 -28q-13 -28 -34 -45.5t-52 -17.5q-15 0 -28 4t-32 14z" />
    <glyph glyph-name="itilde" unicode="&#x129;" horiz-adv-x="244" 
d="M80 0v487h84v-487h-84zM126 568q-15 8 -27 13.5t-26 5.5q-17 0 -29 -10t-23 -23l-36 34q15 24 38.5 42t50.5 18q15 0 27.5 -4.5t29.5 -12.5q20 -10 32 -15t23 -5q26 0 45 30l41 -28q-13 -28 -34 -45.5t-52 -17.5q-15 0 -28 4t-32 14z" />
    <glyph glyph-name="Imacron" unicode="&#x12a;" horiz-adv-x="266" 
d="M176 0h-86v666h86v-666zM14 794h241v-59h-241v59z" />
    <glyph glyph-name="imacron" unicode="&#x12b;" horiz-adv-x="244" 
d="M80 0v487h84v-487h-84zM3 615h241v-59h-241v59z" />
    <glyph glyph-name="Ibreve" unicode="&#x12c;" horiz-adv-x="266" 
d="M176 0h-86v666h86v-666zM261 796q-14 -30 -44.5 -52.5t-82.5 -22.5t-82.5 22.5t-44.5 52.5l43 30q14 -25 34.5 -37.5t49.5 -12.5t49.5 12.5t34.5 37.5z" />
    <glyph glyph-name="ibreve" unicode="&#x12d;" horiz-adv-x="244" 
d="M80 0v487h84v-487h-84zM251 622q-6 -15 -16.5 -30t-26 -27.5t-36.5 -20t-49 -7.5t-49 7.5t-36.5 20t-26 27.5t-16.5 30l43 30q12 -23 31 -41t54 -18t54 18t31 41z" />
    <glyph glyph-name="Iogonek" unicode="&#x12e;" horiz-adv-x="266" 
d="M196 -194q-23 -13 -61 -13q-48 0 -77 22.5t-29 67.5q0 32 15.5 60t45.5 57v666h86v-666q-44 -31 -60.5 -60.5t-16.5 -52.5q0 -18 9.5 -28.5t34.5 -10.5q23 0 40 6l13 -48v0z" />
    <glyph glyph-name="iogonek" unicode="&#x12f;" horiz-adv-x="244" 
d="M184 -194q-23 -13 -61 -13q-48 0 -77 22.5t-29 67.5q0 32 16.5 61.5t46.5 55.5v487h84v-487q-42 -31 -59.5 -60.5t-17.5 -52.5q0 -18 9.5 -28.5t34.5 -10.5q23 0 40 6zM80 565v121h84v-121h-84z" />
    <glyph glyph-name="Idotaccent" unicode="&#x130;" horiz-adv-x="266" 
d="M176 0h-86v666h86v-666zM91 725v121h84v-121h-84z" />
    <glyph glyph-name="dotlessi" unicode="&#x131;" horiz-adv-x="244" 
d="M80 0v487h84v-487h-84z" />
    <glyph glyph-name="IJ" unicode="&#x132;" horiz-adv-x="522" 
d="M176 0h-86v666h86v-666zM437 666v-669q0 -30 -3.5 -49t-16.5 -38t-38 -43.5t-68 -64.5l-54 61q34 33 53 52t28 32t11 24.5t2 28.5v666h86z" />
    <glyph glyph-name="ij" unicode="&#x133;" horiz-adv-x="483" 
d="M80 0v487h84v-487h-84zM80 565v121h84v-121h-84zM408 487v-518q0 -26 -3 -43t-14 -33.5t-33.5 -38t-62.5 -56.5l-51 59q30 27 46 42.5t23.5 27t9 22t1.5 25.5v513h84zM324 565v121h84v-121h-84z" />
    <glyph glyph-name="Jcircumflex" unicode="&#x134;" horiz-adv-x="256" 
d="M171 666v-669q0 -30 -3.5 -49t-16.5 -38t-38 -43.5t-68 -64.5l-54 61q34 33 53 52t28 32t11 24.5t2 28.5v666h86zM231 711q-29 14 -51.5 27t-47.5 29q-25 -16 -47.5 -29t-51.5 -27l-26 47q32 20 61 39t64 46q35 -27 64 -46t61 -39z" />
    <glyph glyph-name="jcircumflex" unicode="&#x135;" horiz-adv-x="239" 
d="M164 487v-518q0 -26 -3 -43t-14 -33.5t-33.5 -38t-62.5 -56.5l-51 59q30 27 46 42.5t23.5 27t9 22t1.5 25.5v513h84zM228 539q-17 9 -30.5 17t-25.5 15.5t-23.5 16t-23.5 18.5q-25 -20 -47 -34t-56 -33l-30 47q35 21 65.5 42.5t67.5 51.5q37 -30 67.5 -51.5t65.5 -42.5z
" />
    <glyph glyph-name="Kcommaaccent" unicode="&#x136;" horiz-adv-x="588" 
d="M171 0h-86v666h86v-666zM289 339l264 -339h-103l-258 339l240 327h101zM255 -51h84v-107l-49 -101l-39 17l33 84h-29v107z" />
    <glyph glyph-name="kcommaaccent" unicode="&#x137;" horiz-adv-x="484" 
d="M80 0v686l84 12v-698h-84zM454 487l-174 -241l182 -246h-99l-178 246l172 241h97zM213 -51h84v-107l-49 -101l-39 17l33 84h-29v107z" />
    <glyph glyph-name="kgreenlandic" unicode="&#x138;" horiz-adv-x="484" 
d="M80 0v487h84v-487h-84zM454 487l-174 -241l182 -246h-99l-178 246l172 241h97z" />
    <glyph glyph-name="Lacute" unicode="&#x139;" horiz-adv-x="500" 
d="M171 77h289v-77h-375v666h86v-589zM99 766q34 20 64 39.5t61 42.5l38 -58q-31 -23 -62.5 -42.5t-66.5 -36.5z" />
    <glyph glyph-name="lacute" unicode="&#x13a;" horiz-adv-x="244" 
d="M80 0v686l84 12v-698h-84zM74 806q34 20 64 39.5t61 42.5l38 -58q-31 -23 -62.5 -42.5t-66.5 -36.5z" />
    <glyph glyph-name="Lcommaaccent" unicode="&#x13b;" horiz-adv-x="500" 
d="M171 77h289v-77h-375v666h86v-589zM248 -51h84v-107l-49 -101l-39 17l33 84h-29v107z" />
    <glyph glyph-name="lcommaaccent" unicode="&#x13c;" horiz-adv-x="244" 
d="M80 0v686l84 12v-698h-84zM81 -51h84v-107l-49 -101l-39 17l33 84h-29v107z" />
    <glyph glyph-name="Lcaron" unicode="&#x13d;" horiz-adv-x="500" 
d="M171 77h289v-77h-375v666h86v-589zM324 686h84v-113l-55 -108l-38 18l37 90h-28v113z" />
    <glyph glyph-name="lcaron" unicode="&#x13e;" horiz-adv-x="339" 
d="M80 0v686l84 12v-698h-84zM260 686h84v-113l-55 -108l-38 18l37 90h-28v113z" />
    <glyph glyph-name="Ldot" unicode="&#x13f;" horiz-adv-x="500" 
d="M171 77h289v-77h-375v666h86v-589zM301 426h86v-115h-86v115z" />
    <glyph glyph-name="ldot" unicode="&#x140;" horiz-adv-x="348" 
d="M80 0v686l84 12v-698h-84zM247 340h86v-115h-86v115z" />
    <glyph glyph-name="Lslash" unicode="&#x141;" horiz-adv-x="534" 
d="M119 347v319h86v-277l144 71l28 -57l-172 -85v-241h289v-77h-375v276l-61 -30l-28 57z" />
    <glyph glyph-name="lslash" unicode="&#x142;" horiz-adv-x="364" 
d="M142 346v340l84 12v-311l80 40l28 -57l-108 -53v-317h-84v276l-59 -29l-28 57z" />
    <glyph glyph-name="Nacute" unicode="&#x143;" horiz-adv-x="660" 
d="M167 567v-567h-82v666h118l290 -570v570h82v-666h-118zM284 766q34 20 64 39.5t61 42.5l38 -58q-31 -23 -62.5 -42.5t-66.5 -36.5z" />
    <glyph glyph-name="nacute" unicode="&#x144;" horiz-adv-x="533" 
d="M374 0v372q0 24 -12 34.5t-35 10.5q-14 0 -33.5 -4t-42 -10.5t-45.5 -15.5t-42 -19v-368h-84v487h68l8 -42q20 10 45 19t51.5 16.5t52 12t47.5 4.5q59 0 82.5 -33.5t23.5 -90.5v-373h-84zM195 598q38 22 74.5 45.5t62.5 45.5l36 -56q-35 -26 -68 -46.5t-71 -40.5z" />
    <glyph glyph-name="Ncommaaccent" unicode="&#x145;" horiz-adv-x="660" 
d="M167 567v-567h-82v666h118l290 -570v570h82v-666h-118zM276 -51h84v-107l-49 -101l-39 17l33 84h-29v107z" />
    <glyph glyph-name="ncommaaccent" unicode="&#x146;" horiz-adv-x="533" 
d="M374 0v372q0 24 -12 34.5t-35 10.5q-14 0 -33.5 -4t-42 -10.5t-45.5 -15.5t-42 -19v-368h-84v487h68l8 -42q20 10 45 19t51.5 16.5t52 12t47.5 4.5q59 0 82.5 -33.5t23.5 -90.5v-373h-84zM236 -51h84v-107l-49 -101l-39 17l33 84h-29v107z" />
    <glyph glyph-name="Ncaron" unicode="&#x147;" horiz-adv-x="660" 
d="M167 567v-567h-82v666h118l290 -570v570h82v-666h-118zM470 795q-32 -20 -61 -39t-64 -46q-35 27 -64 46t-61 39l26 47q29 -14 51.5 -27t47.5 -29q25 16 47.5 29t51.5 27z" />
    <glyph glyph-name="ncaron" unicode="&#x148;" horiz-adv-x="533" 
d="M374 0v372q0 24 -12 34.5t-35 10.5q-14 0 -33.5 -4t-42 -10.5t-45.5 -15.5t-42 -19v-368h-84v487h68l8 -42q20 10 45 19t51.5 16.5t52 12t47.5 4.5q59 0 82.5 -33.5t23.5 -90.5v-373h-84zM411 627q-35 -21 -65.5 -42.5t-67.5 -51.5q-37 30 -67.5 51.5t-65.5 42.5l30 47
q34 -19 56 -33t47 -34q12 10 23.5 18.5t23.5 16t25.5 15.5t30.5 17z" />
    <glyph glyph-name="Eng" unicode="&#x14a;" horiz-adv-x="660" 
d="M167 567v-567h-82v666h118l290 -570v570h82v-697q0 -26 -3 -43t-14 -33.5t-33.5 -38t-62.5 -56.5l-51 59q30 27 46 42.5t23.5 27t9 22t1.5 25.5v26h-34z" />
    <glyph glyph-name="eng" unicode="&#x14b;" horiz-adv-x="533" 
d="M374 372q0 24 -12 34.5t-35 10.5q-14 0 -33.5 -4t-42 -10.5t-45.5 -15.5t-42 -19v-368h-84v487h68l8 -42q20 10 45 19t51.5 16.5t52 12t47.5 4.5q59 0 82.5 -33.5t23.5 -90.5v-404q0 -26 -3 -43t-14 -33.5t-33.5 -38t-62.5 -56.5l-51 59q30 27 46 42.5t23.5 27t9 22
t1.5 25.5v398v0z" />
    <glyph glyph-name="Omacron" unicode="&#x14c;" 
d="M552 192q0 -42 -13.5 -78.5t-42.5 -64t-75 -43.5t-110 -16q-65 0 -110.5 16t-74.5 43.5t-42.5 64t-13.5 78.5v282q0 42 13.5 78.5t42.5 64t74.5 43.5t110.5 16q64 0 110 -16t75 -43.5t42.5 -64t13.5 -78.5v-282zM156 194q0 -62 38 -95t117 -33t117 33t38 95v278
q0 62 -38 95t-117 33t-117 -33t-38 -95v-278zM191 794h241v-59h-241v59z" />
    <glyph glyph-name="omacron" unicode="&#x14d;" horiz-adv-x="506" 
d="M451 173q0 -38 -11 -71.5t-35 -58.5t-61.5 -39t-90.5 -14t-90.5 14t-61.5 39t-35 58.5t-11 71.5v141q0 38 11 71.5t35 58t61.5 39t90.5 14.5t90.5 -14.5t61.5 -39t35 -58t11 -71.5v-141zM367 317q0 107 -114 107t-114 -107v-147q0 -107 114 -107t114 107v147zM133 615
h241v-59h-241v59z" />
    <glyph glyph-name="Obreve" unicode="&#x14e;" 
d="M552 192q0 -42 -13.5 -78.5t-42.5 -64t-75 -43.5t-110 -16q-65 0 -110.5 16t-74.5 43.5t-42.5 64t-13.5 78.5v282q0 42 13.5 78.5t42.5 64t74.5 43.5t110.5 16q64 0 110 -16t75 -43.5t42.5 -64t13.5 -78.5v-282zM156 194q0 -62 38 -95t117 -33t117 33t38 95v278
q0 62 -38 95t-117 33t-117 -33t-38 -95v-278zM438 796q-14 -30 -44.5 -52.5t-82.5 -22.5t-82.5 22.5t-44.5 52.5l43 30q14 -25 34.5 -37.5t49.5 -12.5t49.5 12.5t34.5 37.5z" />
    <glyph glyph-name="obreve" unicode="&#x14f;" horiz-adv-x="506" 
d="M451 173q0 -38 -11 -71.5t-35 -58.5t-61.5 -39t-90.5 -14t-90.5 14t-61.5 39t-35 58.5t-11 71.5v141q0 38 11 71.5t35 58t61.5 39t90.5 14.5t90.5 -14.5t61.5 -39t35 -58t11 -71.5v-141zM367 317q0 107 -114 107t-114 -107v-147q0 -107 114 -107t114 107v147zM381 622
q-6 -15 -16.5 -30t-26 -27.5t-36.5 -20t-49 -7.5t-49 7.5t-36.5 20t-26 27.5t-16.5 30l43 30q12 -23 31 -41t54 -18t54 18t31 41z" />
    <glyph glyph-name="Ohungarumlaut" unicode="&#x150;" 
d="M552 192q0 -42 -13.5 -78.5t-42.5 -64t-75 -43.5t-110 -16q-65 0 -110.5 16t-74.5 43.5t-42.5 64t-13.5 78.5v282q0 42 13.5 78.5t42.5 64t74.5 43.5t110.5 16q64 0 110 -16t75 -43.5t42.5 -64t13.5 -78.5v-282zM156 194q0 -62 38 -95t117 -33t117 33t38 95v278
q0 62 -38 95t-117 33t-117 -33t-38 -95v-278zM194 753q29 24 50.5 43t48.5 47l43 -48q-25 -25 -49 -45t-55 -42zM352 753q29 24 50.5 43t48.5 47l43 -48q-25 -25 -49 -45t-55 -42z" />
    <glyph glyph-name="ohungarumlaut" unicode="&#x151;" horiz-adv-x="506" 
d="M451 173q0 -38 -11 -71.5t-35 -58.5t-61.5 -39t-90.5 -14t-90.5 14t-61.5 39t-35 58.5t-11 71.5v141q0 38 11 71.5t35 58t61.5 39t90.5 14.5t90.5 -14.5t61.5 -39t35 -58t11 -71.5v-141zM367 317q0 107 -114 107t-114 -107v-147q0 -107 114 -107t114 107v147zM141 578
q15 12 28.5 23t26 22.5t25.5 24t28 28.5l43 -47q-28 -30 -55 -51.5t-60 -45.5zM298 578q15 12 28.5 23t26 22.5t25.5 24t28 28.5l43 -47q-28 -30 -55 -51.5t-60 -45.5z" />
    <glyph glyph-name="OE" unicode="&#x152;" horiz-adv-x="910" 
d="M311 0q-65 0 -110.5 16t-74.5 43.5t-42.5 64t-13.5 78.5v262q0 42 13.5 78.5t42.5 64t74.5 43.5t110.5 16h533v-77h-306v-209h284v-77h-284v-226h307v-77h-534zM311 590q-79 0 -117 -33t-38 -95v-258q0 -62 38 -95t117 -33h141v514h-141z" />
    <glyph glyph-name="oe" unicode="&#x153;" horiz-adv-x="793" 
d="M451 165q0 -27 5 -46.5t18 -32t35.5 -18.5t57.5 -6q36 0 75 6t79 17l11 -67q-35 -13 -80.5 -20.5t-91.5 -7.5q-57 0 -94.5 13.5t-60.5 39.5q-24 -25 -61.5 -39t-90.5 -14t-90.5 14t-61.5 39t-35 58.5t-11 71.5v141q0 38 11 71.5t35 58t61.5 39t90.5 14.5q54 0 92 -14.5
t62 -40.5q22 26 58.5 40.5t92.5 14.5q54 0 89.5 -14.5t56 -39.5t29 -58.5t8.5 -71.5v-102h-290v-46zM367 317q0 107 -114 107t-114 -107v-147q0 -107 114 -107q56 0 85 25t29 76v153zM451 281h209v40q0 51 -21.5 78.5t-80.5 27.5q-60 0 -83.5 -27.5t-23.5 -78.5v-40z" />
    <glyph glyph-name="Racute" unicode="&#x154;" horiz-adv-x="632" 
d="M334 241h-163v-241h-86v666h254q54 0 90.5 -11.5t59.5 -32.5t33 -51.5t10 -68.5v-96q0 -60 -24 -99t-82 -56l173 -251h-99zM446 501q0 50 -24 69t-86 19h-165v-272h165q62 0 86 19.5t24 68.5v96zM246 766q34 20 64 39.5t61 42.5l38 -58q-31 -23 -62.5 -42.5t-66.5 -36.5z
" />
    <glyph glyph-name="racute" unicode="&#x155;" horiz-adv-x="308" 
d="M303 420q-35 -17 -72 -40t-67 -44v-336h-84v487h73l5 -68q27 21 62.5 42t71.5 36zM101 598q38 22 74.5 45.5t62.5 45.5l36 -56q-35 -26 -68 -46.5t-71 -40.5z" />
    <glyph glyph-name="Rcommaaccent" unicode="&#x156;" horiz-adv-x="632" 
d="M334 241h-163v-241h-86v666h254q54 0 90.5 -11.5t59.5 -32.5t33 -51.5t10 -68.5v-96q0 -60 -24 -99t-82 -56l173 -251h-99zM446 501q0 50 -24 69t-86 19h-165v-272h165q62 0 86 19.5t24 68.5v96zM288 -51h84v-107l-49 -101l-39 17l33 84h-29v107z" />
    <glyph glyph-name="rcommaaccent" unicode="&#x157;" horiz-adv-x="308" 
d="M303 420q-35 -17 -72 -40t-67 -44v-336h-84v487h73l5 -68q27 21 62.5 42t71.5 36zM80 -51h84v-107l-49 -101l-39 17l33 84h-29v107z" />
    <glyph glyph-name="Rcaron" unicode="&#x158;" horiz-adv-x="632" 
d="M334 241h-163v-241h-86v666h254q54 0 90.5 -11.5t59.5 -32.5t33 -51.5t10 -68.5v-96q0 -60 -24 -99t-82 -56l173 -251h-99zM446 501q0 50 -24 69t-86 19h-165v-272h165q62 0 86 19.5t24 68.5v96zM430 795q-32 -20 -61 -39t-64 -46q-35 27 -64 46t-61 39l26 47
q29 -14 51.5 -27t47.5 -29q25 16 47.5 29t51.5 27z" />
    <glyph glyph-name="rcaron" unicode="&#x159;" horiz-adv-x="308" 
d="M303 420q-35 -17 -72 -40t-67 -44v-336h-84v487h73l5 -68q27 21 62.5 42t71.5 36zM317 627q-35 -21 -65.5 -42.5t-67.5 -51.5q-37 30 -67.5 51.5t-65.5 42.5l30 47q34 -19 56 -33t47 -34q12 10 23.5 18.5t23.5 16t25.5 15.5t30.5 17z" />
    <glyph glyph-name="Sacute" unicode="&#x15a;" horiz-adv-x="540" 
d="M475 172q0 -44 -8 -77.5t-31.5 -57t-66 -35.5t-111.5 -12q-48 0 -101.5 9t-96.5 26l14 70q93 -29 186 -29q40 0 65 5.5t39.5 18t19.5 32t5 48.5q0 34 -2.5 54t-15.5 32.5t-41 21.5t-79 21q-60 13 -96 27.5t-54.5 36.5t-24 55.5t-5.5 85.5q0 43 10 75.5t34.5 54t65.5 32
t103 10.5q44 0 92 -5.5t88 -16.5l-7 -73q-40 9 -84.5 14t-86.5 5q-41 0 -66 -4.5t-39 -16t-19 -30.5t-5 -48q0 -35 2 -54.5t14.5 -32t39 -21.5t76.5 -21q66 -17 103.5 -32t56 -36t22.5 -52t4 -80zM227 766q34 20 64 39.5t61 42.5l38 -58q-31 -23 -62.5 -42.5t-66.5 -36.5z
" />
    <glyph glyph-name="sacute" unicode="&#x15b;" horiz-adv-x="439" 
d="M383 131q0 -36 -6.5 -62.5t-25 -44t-51.5 -26t-85 -8.5q-19 0 -40 2t-41.5 5.5t-39.5 8t-34 10.5l11 66q32 -9 69.5 -14.5t69.5 -5.5q29 0 46.5 3t27.5 10.5t13 20t3 32.5q0 19 -2 31t-12 20.5t-30.5 15t-57.5 15.5q-45 11 -71.5 22.5t-40 28.5t-17 42t-3.5 63
q0 34 8 58.5t27.5 40.5t52 24t80.5 8q35 0 71.5 -4.5t66.5 -12.5l-6 -69q-31 6 -68 10t-67 4q-27 0 -43 -3.5t-25 -10.5t-11.5 -19t-2.5 -28q0 -20 1.5 -33t9.5 -22t24.5 -15.5t47.5 -13.5q52 -13 82.5 -24.5t45.5 -27t19 -38.5t4 -59zM159 598q38 22 74.5 45.5t62.5 45.5
l36 -56q-35 -26 -68 -46.5t-71 -40.5z" />
    <glyph glyph-name="Scircumflex" unicode="&#x15c;" horiz-adv-x="540" 
d="M475 172q0 -44 -8 -77.5t-31.5 -57t-66 -35.5t-111.5 -12q-48 0 -101.5 9t-96.5 26l14 70q93 -29 186 -29q40 0 65 5.5t39.5 18t19.5 32t5 48.5q0 34 -2.5 54t-15.5 32.5t-41 21.5t-79 21q-60 13 -96 27.5t-54.5 36.5t-24 55.5t-5.5 85.5q0 43 10 75.5t34.5 54t65.5 32
t103 10.5q44 0 92 -5.5t88 -16.5l-7 -73q-40 9 -84.5 14t-86.5 5q-41 0 -66 -4.5t-39 -16t-19 -30.5t-5 -48q0 -35 2 -54.5t14.5 -32t39 -21.5t76.5 -21q66 -17 103.5 -32t56 -36t22.5 -52t4 -80zM385 711q-29 14 -51.5 27t-47.5 29q-25 -16 -47.5 -29t-51.5 -27l-26 47
q32 20 61 39t64 46q35 -27 64 -46t61 -39z" />
    <glyph glyph-name="scircumflex" unicode="&#x15d;" horiz-adv-x="439" 
d="M383 131q0 -36 -6.5 -62.5t-25 -44t-51.5 -26t-85 -8.5q-19 0 -40 2t-41.5 5.5t-39.5 8t-34 10.5l11 66q32 -9 69.5 -14.5t69.5 -5.5q29 0 46.5 3t27.5 10.5t13 20t3 32.5q0 19 -2 31t-12 20.5t-30.5 15t-57.5 15.5q-45 11 -71.5 22.5t-40 28.5t-17 42t-3.5 63
q0 34 8 58.5t27.5 40.5t52 24t80.5 8q35 0 71.5 -4.5t66.5 -12.5l-6 -69q-31 6 -68 10t-67 4q-27 0 -43 -3.5t-25 -10.5t-11.5 -19t-2.5 -28q0 -20 1.5 -33t9.5 -22t24.5 -15.5t47.5 -13.5q52 -13 82.5 -24.5t45.5 -27t19 -38.5t4 -59zM338 539q-17 9 -30.5 17t-25.5 15.5
t-23.5 16t-23.5 18.5q-25 -20 -47 -34t-56 -33l-30 47q35 21 65.5 42.5t67.5 51.5q37 -30 67.5 -51.5t65.5 -42.5z" />
    <glyph glyph-name="Scedilla" unicode="&#x15e;" horiz-adv-x="540" 
d="M373 -119q0 -34 -24.5 -56t-75.5 -22q-20 0 -41.5 4t-38.5 11l10 41q13 -4 30.5 -7t31.5 -3q29 0 41.5 8.5t12.5 22.5q0 29 -42 29q-9 0 -15.5 -1.5t-14.5 -3.5l-29 13l16 74q-45 2 -90.5 10.5t-83.5 23.5l14 70q93 -29 186 -29q40 0 65 5.5t39.5 18t19.5 32t5 48.5
q0 34 -2.5 54t-15.5 32.5t-41 21.5t-79 21q-60 13 -96 27.5t-54.5 36.5t-24 55.5t-5.5 85.5q0 43 10 75.5t34.5 54t65.5 32t103 10.5q44 0 92 -5.5t88 -16.5l-7 -73q-40 9 -84.5 14t-86.5 5q-41 0 -66 -4.5t-39 -16t-19 -30.5t-5 -48q0 -35 2 -54.5t14.5 -32t39 -21.5
t76.5 -21q66 -17 103.5 -32t56 -36t22.5 -52t4 -80q0 -42 -7.5 -74.5t-28.5 -55.5t-58.5 -36t-98.5 -15l-9 -47q13 3 27 3q33 0 53 -16t20 -50z" />
    <glyph glyph-name="Scedilla" unicode="&#xf6c1;" horiz-adv-x="540" 
d="M373 -119q0 -34 -24.5 -56t-75.5 -22q-20 0 -41.5 4t-38.5 11l10 41q13 -4 30.5 -7t31.5 -3q29 0 41.5 8.5t12.5 22.5q0 29 -42 29q-9 0 -15.5 -1.5t-14.5 -3.5l-29 13l16 74q-45 2 -90.5 10.5t-83.5 23.5l14 70q93 -29 186 -29q40 0 65 5.5t39.5 18t19.5 32t5 48.5
q0 34 -2.5 54t-15.5 32.5t-41 21.5t-79 21q-60 13 -96 27.5t-54.5 36.5t-24 55.5t-5.5 85.5q0 43 10 75.5t34.5 54t65.5 32t103 10.5q44 0 92 -5.5t88 -16.5l-7 -73q-40 9 -84.5 14t-86.5 5q-41 0 -66 -4.5t-39 -16t-19 -30.5t-5 -48q0 -35 2 -54.5t14.5 -32t39 -21.5
t76.5 -21q66 -17 103.5 -32t56 -36t22.5 -52t4 -80q0 -42 -7.5 -74.5t-28.5 -55.5t-58.5 -36t-98.5 -15l-9 -47q13 3 27 3q33 0 53 -16t20 -50z" />
    <glyph glyph-name="scedilla" unicode="&#x15f;" horiz-adv-x="439" 
d="M319 -119q0 -34 -24.5 -56t-75.5 -22q-20 0 -41.5 4t-38.5 11l10 41q13 -4 30.5 -7t31.5 -3q29 0 41.5 8.5t12.5 22.5q0 29 -42 29q-9 0 -15.5 -1.5t-14.5 -3.5l-29 13l16 75q-32 2 -64.5 8.5t-55.5 15.5l11 66q32 -9 69.5 -14.5t69.5 -5.5q29 0 46.5 3t27.5 10.5t13 20
t3 32.5q0 19 -2 31t-12 20.5t-30.5 15t-57.5 15.5q-45 11 -71.5 22.5t-40 28.5t-17 42t-3.5 63q0 34 8 58.5t27.5 40.5t52 24t80.5 8q35 0 71.5 -4.5t66.5 -12.5l-6 -69q-31 6 -68 10t-67 4q-27 0 -43 -3.5t-25 -10.5t-11.5 -19t-2.5 -28q0 -20 1.5 -33t9.5 -22t24.5 -15.5
t47.5 -13.5q52 -13 82.5 -24.5t45.5 -27t19 -38.5t4 -59q0 -35 -6.5 -60.5t-23.5 -43t-47 -27t-78 -10.5l-9 -46q13 3 27 3q33 0 53 -16t20 -50z" />
    <glyph glyph-name="scedilla" unicode="&#xf6c2;" horiz-adv-x="439" 
d="M319 -119q0 -34 -24.5 -56t-75.5 -22q-20 0 -41.5 4t-38.5 11l10 41q13 -4 30.5 -7t31.5 -3q29 0 41.5 8.5t12.5 22.5q0 29 -42 29q-9 0 -15.5 -1.5t-14.5 -3.5l-29 13l16 75q-32 2 -64.5 8.5t-55.5 15.5l11 66q32 -9 69.5 -14.5t69.5 -5.5q29 0 46.5 3t27.5 10.5t13 20
t3 32.5q0 19 -2 31t-12 20.5t-30.5 15t-57.5 15.5q-45 11 -71.5 22.5t-40 28.5t-17 42t-3.5 63q0 34 8 58.5t27.5 40.5t52 24t80.5 8q35 0 71.5 -4.5t66.5 -12.5l-6 -69q-31 6 -68 10t-67 4q-27 0 -43 -3.5t-25 -10.5t-11.5 -19t-2.5 -28q0 -20 1.5 -33t9.5 -22t24.5 -15.5
t47.5 -13.5q52 -13 82.5 -24.5t45.5 -27t19 -38.5t4 -59q0 -35 -6.5 -60.5t-23.5 -43t-47 -27t-78 -10.5l-9 -46q13 3 27 3q33 0 53 -16t20 -50z" />
    <glyph glyph-name="Scaron" unicode="&#x160;" horiz-adv-x="540" 
d="M475 172q0 -44 -8 -77.5t-31.5 -57t-66 -35.5t-111.5 -12q-48 0 -101.5 9t-96.5 26l14 70q93 -29 186 -29q40 0 65 5.5t39.5 18t19.5 32t5 48.5q0 34 -2.5 54t-15.5 32.5t-41 21.5t-79 21q-60 13 -96 27.5t-54.5 36.5t-24 55.5t-5.5 85.5q0 43 10 75.5t34.5 54t65.5 32
t103 10.5q44 0 92 -5.5t88 -16.5l-7 -73q-40 9 -84.5 14t-86.5 5q-41 0 -66 -4.5t-39 -16t-19 -30.5t-5 -48q0 -35 2 -54.5t14.5 -32t39 -21.5t76.5 -21q66 -17 103.5 -32t56 -36t22.5 -52t4 -80zM409 795q-32 -20 -61 -39t-64 -46q-35 27 -64 46t-61 39l26 47
q29 -14 51.5 -27t47.5 -29q25 16 47.5 29t51.5 27z" />
    <glyph glyph-name="scaron" unicode="&#x161;" horiz-adv-x="439" 
d="M383 131q0 -36 -6.5 -62.5t-25 -44t-51.5 -26t-85 -8.5q-19 0 -40 2t-41.5 5.5t-39.5 8t-34 10.5l11 66q32 -9 69.5 -14.5t69.5 -5.5q29 0 46.5 3t27.5 10.5t13 20t3 32.5q0 19 -2 31t-12 20.5t-30.5 15t-57.5 15.5q-45 11 -71.5 22.5t-40 28.5t-17 42t-3.5 63
q0 34 8 58.5t27.5 40.5t52 24t80.5 8q35 0 71.5 -4.5t66.5 -12.5l-6 -69q-31 6 -68 10t-67 4q-27 0 -43 -3.5t-25 -10.5t-11.5 -19t-2.5 -28q0 -20 1.5 -33t9.5 -22t24.5 -15.5t47.5 -13.5q52 -13 82.5 -24.5t45.5 -27t19 -38.5t4 -59zM358 627q-35 -21 -65.5 -42.5
t-67.5 -51.5q-37 30 -67.5 51.5t-65.5 42.5l30 47q34 -19 56 -33t47 -34q12 10 23.5 18.5t23.5 16t25.5 15.5t30.5 17z" />
    <glyph glyph-name="Tcommaaccent" unicode="&#x162;" horiz-adv-x="524" 
d="M219 589h-199v77h484v-77h-199v-589h-86v589zM219 -51h84v-107l-49 -101l-39 17l33 84h-29v107z" />
    <glyph glyph-name="Tcommaaccent" unicode="&#x21a;" horiz-adv-x="524" 
d="M219 589h-199v77h484v-77h-199v-589h-86v589zM219 -51h84v-107l-49 -101l-39 17l33 84h-29v107z" />
    <glyph glyph-name="tcommaaccent" unicode="&#x163;" horiz-adv-x="369" 
d="M334 8q-23 -8 -49 -13t-53 -5q-62 0 -91.5 25t-29.5 86v316h-86v70h86v120l84 12v-132h138l-7 -70h-131v-302q0 -27 8 -40.5t42 -13.5q17 0 36 3t42 9zM175 -51h84v-107l-49 -101l-39 17l33 84h-29v107z" />
    <glyph glyph-name="tcommaaccent" unicode="&#x21b;" horiz-adv-x="369" 
d="M334 8q-23 -8 -49 -13t-53 -5q-62 0 -91.5 25t-29.5 86v316h-86v70h86v120l84 12v-132h138l-7 -70h-131v-302q0 -27 8 -40.5t42 -13.5q17 0 36 3t42 9zM175 -51h84v-107l-49 -101l-39 17l33 84h-29v107z" />
    <glyph glyph-name="Tcaron" unicode="&#x164;" horiz-adv-x="524" 
d="M219 589h-199v77h484v-77h-199v-589h-86v589zM387 795q-32 -20 -61 -39t-64 -46q-35 27 -64 46t-61 39l26 47q29 -14 51.5 -27t47.5 -29q25 16 47.5 29t51.5 27z" />
    <glyph glyph-name="tcaron" unicode="&#x165;" horiz-adv-x="379" 
d="M334 8q-23 -8 -49 -13t-53 -5q-62 0 -91.5 25t-29.5 86v316h-86v70h86v120l84 12v-132h138l-7 -70h-131v-302q0 -27 8 -40.5t42 -13.5q17 0 36 3t42 9zM310 696h84v-90l-45 -82l-36 21l30 61h-33v90z" />
    <glyph glyph-name="Tbar" unicode="&#x166;" horiz-adv-x="524" 
d="M55 358h164v231h-199v77h484v-77h-199v-231h164v-60h-164v-298h-86v298h-164v60z" />
    <glyph glyph-name="tbar" unicode="&#x167;" horiz-adv-x="369" 
d="M25 283h86v134h-86v70h86v120l84 12v-132h138l-7 -70h-131v-134h125v-60h-125v-108q0 -27 8 -40.5t42 -13.5q17 0 36 3t42 9l11 -65q-23 -8 -49 -13t-53 -5q-62 0 -91.5 25t-29.5 86v122h-86v60z" />
    <glyph glyph-name="Utilde" unicode="&#x168;" horiz-adv-x="632" 
d="M552 666v-479q0 -41 -12.5 -77t-40.5 -62.5t-73 -42t-110 -15.5t-110 15.5t-73 42t-40.5 62.5t-12.5 77v479h86v-474q0 -62 35.5 -93.5t114.5 -31.5t114.5 31.5t35.5 93.5v474h86zM322 740q-15 8 -27 13.5t-26 5.5q-17 0 -29 -10t-23 -23l-36 34q15 24 38.5 42t50.5 18
q15 0 27.5 -4.5t29.5 -12.5q20 -10 32 -15t23 -5q26 0 45 30l41 -28q-13 -28 -34 -45.5t-52 -17.5q-15 0 -28 4t-32 14z" />
    <glyph glyph-name="utilde" unicode="&#x169;" horiz-adv-x="533" 
d="M159 487v-372q0 -24 12 -34.5t35 -10.5q13 0 33 4t42.5 10.5t45 15.5t42.5 19v368h84v-487h-68l-8 42q-20 -10 -45 -19t-51.5 -16.5t-52 -12t-47.5 -4.5q-59 0 -82.5 33.5t-23.5 90.5v373h84zM275 568q-15 8 -27 13.5t-26 5.5q-17 0 -29 -10t-23 -23l-36 34
q15 24 38.5 42t50.5 18q15 0 27.5 -4.5t29.5 -12.5q20 -10 32 -15t23 -5q26 0 45 30l41 -28q-13 -28 -34 -45.5t-52 -17.5q-15 0 -28 4t-32 14z" />
    <glyph glyph-name="Umacron" unicode="&#x16a;" horiz-adv-x="632" 
d="M552 666v-479q0 -41 -12.5 -77t-40.5 -62.5t-73 -42t-110 -15.5t-110 15.5t-73 42t-40.5 62.5t-12.5 77v479h86v-474q0 -62 35.5 -93.5t114.5 -31.5t114.5 31.5t35.5 93.5v474h86zM198 794h241v-59h-241v59z" />
    <glyph glyph-name="umacron" unicode="&#x16b;" horiz-adv-x="533" 
d="M159 487v-372q0 -24 12 -34.5t35 -10.5q13 0 33 4t42.5 10.5t45 15.5t42.5 19v368h84v-487h-68l-8 42q-20 -10 -45 -19t-51.5 -16.5t-52 -12t-47.5 -4.5q-59 0 -82.5 33.5t-23.5 90.5v373h84zM154 615h241v-59h-241v59z" />
    <glyph glyph-name="Ubreve" unicode="&#x16c;" horiz-adv-x="632" 
d="M552 666v-479q0 -41 -12.5 -77t-40.5 -62.5t-73 -42t-110 -15.5t-110 15.5t-73 42t-40.5 62.5t-12.5 77v479h86v-474q0 -62 35.5 -93.5t114.5 -31.5t114.5 31.5t35.5 93.5v474h86zM443 796q-14 -30 -44.5 -52.5t-82.5 -22.5t-82.5 22.5t-44.5 52.5l43 30
q14 -25 34.5 -37.5t49.5 -12.5t49.5 12.5t34.5 37.5z" />
    <glyph glyph-name="ubreve" unicode="&#x16d;" horiz-adv-x="533" 
d="M159 487v-372q0 -24 12 -34.5t35 -10.5q13 0 33 4t42.5 10.5t45 15.5t42.5 19v368h84v-487h-68l-8 42q-20 -10 -45 -19t-51.5 -16.5t-52 -12t-47.5 -4.5q-59 0 -82.5 33.5t-23.5 90.5v373h84zM402 622q-6 -15 -16.5 -30t-26 -27.5t-36.5 -20t-49 -7.5t-49 7.5t-36.5 20
t-26 27.5t-16.5 30l43 30q12 -23 31 -41t54 -18t54 18t31 41z" />
    <glyph glyph-name="Uring" unicode="&#x16e;" horiz-adv-x="632" 
d="M552 666v-479q0 -41 -12.5 -77t-40.5 -62.5t-73 -42t-110 -15.5t-110 15.5t-73 42t-40.5 62.5t-12.5 77v479h86v-474q0 -62 35.5 -93.5t114.5 -31.5t114.5 31.5t35.5 93.5v474h86zM386 765q0 -28 -17.5 -48t-52.5 -20t-52 20t-17 48q0 29 17 49t52 20t52.5 -20t17.5 -49z
M346 765q0 15 -7.5 24t-22.5 9q-14 0 -22 -9t-8 -24q0 -14 8 -23t22 -9q15 0 22.5 9t7.5 23z" />
    <glyph glyph-name="uring" unicode="&#x16f;" horiz-adv-x="533" 
d="M159 487v-372q0 -24 12 -34.5t35 -10.5q13 0 33 4t42.5 10.5t45 15.5t42.5 19v368h84v-487h-68l-8 42q-20 -10 -45 -19t-51.5 -16.5t-52 -12t-47.5 -4.5q-59 0 -82.5 33.5t-23.5 90.5v373h84zM348 609q0 -30 -18.5 -51.5t-55.5 -21.5t-55.5 21.5t-18.5 51.5t18.5 51.5
t55.5 21.5t55.5 -21.5t18.5 -51.5zM307 609q0 16 -8.5 26t-24.5 10t-24.5 -10t-8.5 -26t8.5 -26t24.5 -10t24.5 10t8.5 26z" />
    <glyph glyph-name="Uhungarumlaut" unicode="&#x170;" horiz-adv-x="632" 
d="M552 666v-479q0 -41 -12.5 -77t-40.5 -62.5t-73 -42t-110 -15.5t-110 15.5t-73 42t-40.5 62.5t-12.5 77v479h86v-474q0 -62 35.5 -93.5t114.5 -31.5t114.5 31.5t35.5 93.5v474h86zM193 753q29 24 50.5 43t48.5 47l43 -48q-25 -25 -49 -45t-55 -42zM351 753q29 24 50.5 43
t48.5 47l43 -48q-25 -25 -49 -45t-55 -42z" />
    <glyph glyph-name="uhungarumlaut" unicode="&#x171;" horiz-adv-x="533" 
d="M159 487v-372q0 -24 12 -34.5t35 -10.5q13 0 33 4t42.5 10.5t45 15.5t42.5 19v368h84v-487h-68l-8 42q-20 -10 -45 -19t-51.5 -16.5t-52 -12t-47.5 -4.5q-59 0 -82.5 33.5t-23.5 90.5v373h84zM144 578q15 12 28.5 23t26 22.5t25.5 24t28 28.5l43 -47q-28 -30 -55 -51.5
t-60 -45.5zM301 578q15 12 28.5 23t26 22.5t25.5 24t28 28.5l43 -47q-28 -30 -55 -51.5t-60 -45.5z" />
    <glyph glyph-name="Uogonek" unicode="&#x172;" horiz-adv-x="632" 
d="M427 -194q-23 -13 -61 -13q-48 0 -77 19.5t-29 64.5q0 35 24.5 63t64.5 51q-8 -1 -16.5 -1h-16.5q-65 0 -110 15.5t-73 42t-40.5 62.5t-12.5 77v479h86v-474q0 -62 35.5 -93.5t114.5 -31.5t114.5 31.5t35.5 93.5v474h86v-479q0 -54 -22.5 -98.5t-73.5 -70.5
q-60 -33 -93 -65.5t-33 -65.5q0 -18 11 -28.5t36 -10.5q12 0 20.5 1.5t16.5 4.5l13 -48v0z" />
    <glyph glyph-name="uogonek" unicode="&#x173;" horiz-adv-x="533" 
d="M159 487v-372q0 -24 12 -34.5t35 -10.5q13 0 33 4t42.5 10.5t45 15.5t42.5 19v368h84v-487q-45 -28 -72 -53.5t-27 -59.5q0 -18 12 -28.5t37 -10.5q12 0 20.5 1.5t16.5 4.5l13 -48q-23 -13 -61 -13q-48 0 -77 20.5t-29 65.5q0 22 9.5 41t24 34t32 26.5t33.5 19.5l-8 42
q-20 -10 -45 -19t-51.5 -16.5t-52 -12t-47.5 -4.5q-59 0 -82.5 33.5t-23.5 90.5v373h84z" />
    <glyph glyph-name="Wcircumflex" unicode="&#x174;" horiz-adv-x="908" 
d="M652 82l152 584h84l-175 -666h-121l-138 595l-138 -595h-121l-175 666h84l152 -584l138 584h120zM553 711q-29 14 -51.5 27t-47.5 29q-25 -16 -47.5 -29t-51.5 -27l-26 47q32 20 61 39t64 46q35 -27 64 -46t61 -39z" />
    <glyph glyph-name="wcircumflex" unicode="&#x175;" horiz-adv-x="696" 
d="M466 0l-118 413l-118 -413h-108l-104 487h80l81 -404l118 404h102l118 -404l81 404h80l-104 -487h-108zM451 539q-17 9 -30.5 17t-25.5 15.5t-23.5 16t-23.5 18.5q-25 -20 -47 -34t-56 -33l-30 47q35 21 65.5 42.5t67.5 51.5q37 -30 67.5 -51.5t65.5 -42.5z" />
    <glyph glyph-name="Ycircumflex" unicode="&#x176;" horiz-adv-x="548" 
d="M448 666h90l-221 -465v-201h-86v201l-221 465h90l174 -372zM373 711q-29 14 -51.5 27t-47.5 29q-25 -16 -47.5 -29t-51.5 -27l-26 47q32 20 61 39t64 46q35 -27 64 -46t61 -39z" />
    <glyph glyph-name="ycircumflex" unicode="&#x177;" horiz-adv-x="448" 
d="M201 0h-35l-158 487h83l133 -420l135 420h83l-161 -487l-69 -197h-79zM335 539q-17 9 -30.5 17t-25.5 15.5t-23.5 16t-23.5 18.5q-25 -20 -47 -34t-56 -33l-30 47q35 21 65.5 42.5t67.5 51.5q37 -30 67.5 -51.5t65.5 -42.5z" />
    <glyph glyph-name="Ydieresis" unicode="&#x178;" horiz-adv-x="548" 
d="M448 666h90l-221 -465v-201h-86v201l-221 465h90l174 -372zM146 802h80v-78h-80v78zM323 802h80v-78h-80v78z" />
    <glyph glyph-name="Zacute" unicode="&#x179;" horiz-adv-x="580" 
d="M164 74h351v-74h-445v74l343 518h-337v74h432v-74zM241 766q34 20 64 39.5t61 42.5l38 -58q-31 -23 -62.5 -42.5t-66.5 -36.5z" />
    <glyph glyph-name="zacute" unicode="&#x17a;" horiz-adv-x="459" 
d="M65 487h336l-1 -68l-248 -351h252v-68h-344v68l248 351h-243v68zM171 598q38 22 74.5 45.5t62.5 45.5l36 -56q-35 -26 -68 -46.5t-71 -40.5z" />
    <glyph glyph-name="Zdotaccent" unicode="&#x17b;" horiz-adv-x="580" 
d="M164 74h351v-74h-445v74l343 518h-337v74h432v-74zM255 725v121h84v-121h-84z" />
    <glyph glyph-name="zdotaccent" unicode="&#x17c;" horiz-adv-x="459" 
d="M65 487h336l-1 -68l-248 -351h252v-68h-344v68l248 351h-243v68zM193 565v121h84v-121h-84z" />
    <glyph glyph-name="Zcaron" unicode="&#x17d;" horiz-adv-x="580" 
d="M164 74h351v-74h-445v74l343 518h-337v74h432v-74zM423 795q-32 -20 -61 -39t-64 -46q-35 27 -64 46t-61 39l26 47q29 -14 51.5 -27t47.5 -29q25 16 47.5 29t51.5 27z" />
    <glyph glyph-name="zcaron" unicode="&#x17e;" horiz-adv-x="459" 
d="M65 487h336l-1 -68l-248 -351h252v-68h-344v68l248 351h-243v68zM377 627q-35 -21 -65.5 -42.5t-67.5 -51.5q-37 30 -67.5 51.5t-65.5 42.5l30 47q34 -19 56 -33t47 -34q12 10 23.5 18.5t23.5 16t25.5 15.5t30.5 17z" />
    <glyph glyph-name="florin" unicode="&#x192;" horiz-adv-x="495" 
d="M101 357l7 70h91l14 155q6 67 42.5 95t105.5 28q50 0 94 -14l-11 -66q-17 4 -40.5 6.5t-37.5 2.5q-39 0 -53.5 -13.5t-17.5 -49.5l-12 -144h132l-6 -70h-133l-36 -425q-3 -32 -10 -56.5t-22.5 -40.5t-41 -24t-64.5 -8q-22 0 -44.5 4t-37.5 8l10 67q14 -3 31.5 -5.5
t31.5 -2.5q40 0 50.5 15t12.5 42l37 426h-92z" />
    <glyph glyph-name="Aringacute" unicode="&#x1fa;" 
d="M594 0h-87l-55 160h-283l-54 -160h-87l225 666h116zM311 604l-119 -369h238zM385 767q0 -30 -18.5 -51.5t-55.5 -21.5t-55.5 21.5t-18.5 51.5t18.5 51.5t55.5 21.5t55.5 -21.5t18.5 -51.5zM344 767q0 16 -8.5 26t-24.5 10t-24.5 -10t-8.5 -26t8.5 -26t24.5 -10t24.5 10
t8.5 26zM280 919q25 15 50 31t51 35l34 -51q-25 -17 -53 -33.5t-52 -29.5z" />
    <glyph glyph-name="aringacute" unicode="&#x1fb;" horiz-adv-x="493" 
d="M425 0h-71l-5 36q-32 -23 -72.5 -34.5t-85.5 -11.5q-69 0 -99 37.5t-30 102.5q0 76 37.5 106.5t111.5 30.5h130v76q0 46 -23.5 64t-82.5 18q-18 0 -37.5 -1.5t-39 -3.5t-37.5 -5t-32 -6l-9 67q35 9 78 15t82 6q52 0 87.5 -10t57 -30t31 -49.5t9.5 -68.5v-339zM341 197
h-124q-39 0 -55 -14t-16 -51q0 -19 2.5 -32t9.5 -21.5t20.5 -12.5t36.5 -4q32 0 65 11t61 29v95zM334 607q0 -30 -18.5 -51.5t-55.5 -21.5t-55.5 21.5t-18.5 51.5t18.5 51.5t55.5 21.5t55.5 -21.5t18.5 -51.5zM293 607q0 16 -8.5 26t-24.5 10t-24.5 -10t-8.5 -26t8.5 -26
t24.5 -10t24.5 10t8.5 26zM224 755q25 15 50 31t51 35l34 -51q-25 -17 -53 -33.5t-52 -29.5z" />
    <glyph glyph-name="AEacute" unicode="&#x1fc;" horiz-adv-x="839" 
d="M452 160h-283l-54 -160h-87l225 666h520v-77h-378l70 -209h286v-77h-260l77 -226h206v-77h-267zM311 604l-119 -369h238zM316 766q34 20 64 39.5t61 42.5l38 -58q-31 -23 -62.5 -42.5t-66.5 -36.5z" />
    <glyph glyph-name="aeacute" unicode="&#x1fd;" horiz-adv-x="767" 
d="M425 159q1 -26 6.5 -44.5t18.5 -30t35 -17t56 -5.5q36 0 75 6t79 17l11 -67q-35 -13 -80.5 -20.5t-91.5 -7.5q-60 0 -98 14.5t-60 42.5q-36 -26 -81.5 -41.5t-98.5 -15.5q-39 0 -65 10t-41 28t-21.5 44t-6.5 58q0 76 37.5 106.5t111.5 30.5h130v76q0 46 -23.5 64
t-82.5 18q-18 0 -37.5 -1.5t-39 -3.5t-37.5 -5t-32 -6l-9 67q35 9 78 15t82 6q56 0 89 -12t59 -37q26 24 59.5 36.5t84.5 12.5q54 0 89.5 -14.5t56 -39.5t29 -58.5t8.5 -71.5v-102h-290v-52zM425 281h209v40q0 51 -21.5 78.5t-80.5 27.5q-60 0 -83.5 -27.5t-23.5 -78.5v-40z
M215 62q35 0 67 9t67 29q-8 32 -8 69v28h-124q-39 0 -55 -14t-16 -51q0 -19 2.5 -32t9.5 -21.5t20.5 -12.5t36.5 -4zM355 598q38 22 74.5 45.5t62.5 45.5l36 -56q-35 -26 -68 -46.5t-71 -40.5z" />
    <glyph glyph-name="Oslashacute" unicode="&#x1fe;" 
d="M121 54q-26 27 -38.5 62.5t-12.5 75.5v282q0 42 13.5 78.5t42.5 64t74.5 43.5t110.5 16q48 0 84.5 -8.5t64.5 -24.5l48 83l44 -26l-51 -89q26 -27 38.5 -62t12.5 -75v-282q0 -42 -13.5 -78.5t-42.5 -64t-75 -43.5t-110 -16q-48 0 -84.5 8.5t-64.5 24.5l-48 -83l-44 26z
M156 194q0 -32 11 -59l253 438q-41 27 -109 27q-79 0 -117 -33t-38 -95v-278zM466 472q0 33 -12 59l-252 -438q37 -27 109 -27q79 0 117 33t38 95v278zM256 766q34 20 64 39.5t61 42.5l38 -58q-31 -23 -62.5 -42.5t-66.5 -36.5z" />
    <glyph glyph-name="oslashacute" unicode="&#x1ff;" horiz-adv-x="506" 
d="M100 44q-24 25 -34.5 58t-10.5 71v141q0 38 11 71.5t35 58t61.5 39t90.5 14.5q37 0 66 -7t52 -20l43 67l37 -23l-45 -71q23 -25 34 -58t11 -71v-141q0 -38 -11 -71.5t-35 -58.5t-61.5 -39t-90.5 -14q-38 0 -67 7t-52 20l-42 -67l-37 23zM367 317q0 28 -9 51l-182 -286
q28 -19 77 -19q114 0 114 107v147zM139 170q0 -32 8 -51l182 285q-28 20 -76 20q-114 0 -114 -107v-147zM201 598q38 22 74.5 45.5t62.5 45.5l36 -56q-35 -26 -68 -46.5t-71 -40.5z" />
    <glyph glyph-name="Scommaaccent" unicode="&#x218;" horiz-adv-x="540" 
d="M475 172q0 -44 -8 -77.5t-31.5 -57t-66 -35.5t-111.5 -12q-48 0 -101.5 9t-96.5 26l14 70q93 -29 186 -29q40 0 65 5.5t39.5 18t19.5 32t5 48.5q0 34 -2.5 54t-15.5 32.5t-41 21.5t-79 21q-60 13 -96 27.5t-54.5 36.5t-24 55.5t-5.5 85.5q0 43 10 75.5t34.5 54t65.5 32
t103 10.5q44 0 92 -5.5t88 -16.5l-7 -73q-40 9 -84.5 14t-86.5 5q-41 0 -66 -4.5t-39 -16t-19 -30.5t-5 -48q0 -35 2 -54.5t14.5 -32t39 -21.5t76.5 -21q66 -17 103.5 -32t56 -36t22.5 -52t4 -80zM222 -51h84v-107l-49 -101l-39 17l33 84h-29v107z" />
    <glyph glyph-name="scommaaccent" unicode="&#x219;" horiz-adv-x="439" 
d="M383 131q0 -36 -6.5 -62.5t-25 -44t-51.5 -26t-85 -8.5q-19 0 -40 2t-41.5 5.5t-39.5 8t-34 10.5l11 66q32 -9 69.5 -14.5t69.5 -5.5q29 0 46.5 3t27.5 10.5t13 20t3 32.5q0 19 -2 31t-12 20.5t-30.5 15t-57.5 15.5q-45 11 -71.5 22.5t-40 28.5t-17 42t-3.5 63
q0 34 8 58.5t27.5 40.5t52 24t80.5 8q35 0 71.5 -4.5t66.5 -12.5l-6 -69q-31 6 -68 10t-67 4q-27 0 -43 -3.5t-25 -10.5t-11.5 -19t-2.5 -28q0 -20 1.5 -33t9.5 -22t24.5 -15.5t47.5 -13.5q52 -13 82.5 -24.5t45.5 -27t19 -38.5t4 -59zM183 -51h84v-107l-49 -101l-39 17
l33 84h-29v107z" />
    <glyph glyph-name="circumflex" unicode="&#x2c6;" horiz-adv-x="396" 
d="M301 539q-17 9 -30.5 17t-25.5 15.5t-23.5 16t-23.5 18.5q-25 -20 -47 -34t-56 -33l-30 47q35 21 65.5 42.5t67.5 51.5q37 -30 67.5 -51.5t65.5 -42.5z" />
    <glyph glyph-name="caron" unicode="&#x2c7;" horiz-adv-x="396" 
d="M331 627q-35 -21 -65.5 -42.5t-67.5 -51.5q-37 30 -67.5 51.5t-65.5 42.5l30 47q34 -19 56 -33t47 -34q12 10 23.5 18.5t23.5 16t25.5 15.5t30.5 17z" />
    <glyph glyph-name="breve" unicode="&#x2d8;" horiz-adv-x="386" 
d="M321 622q-6 -15 -16.5 -30t-26 -27.5t-36.5 -20t-49 -7.5t-49 7.5t-36.5 20t-26 27.5t-16.5 30l43 30q12 -23 31 -41t54 -18t54 18t31 41z" />
    <glyph glyph-name="dotaccent" unicode="&#x2d9;" horiz-adv-x="214" 
d="M65 565v121h84v-121h-84z" />
    <glyph glyph-name="ring" unicode="&#x2da;" horiz-adv-x="278" 
d="M213 609q0 -30 -18.5 -51.5t-55.5 -21.5t-55.5 21.5t-18.5 51.5t18.5 51.5t55.5 21.5t55.5 -21.5t18.5 -51.5zM172 609q0 16 -8.5 26t-24.5 10t-24.5 -10t-8.5 -26t8.5 -26t24.5 -10t24.5 10t8.5 26z" />
    <glyph glyph-name="ogonek" unicode="&#x2db;" horiz-adv-x="297" 
d="M232 -194q-23 -13 -61 -13q-48 0 -77 22.5t-29 67.5q0 40 25 68.5t55 48.5h87q-45 -28 -71 -53.5t-26 -59.5q0 -18 11 -28.5t36 -10.5q12 0 20.5 1.5t16.5 4.5l13 -48v0z" />
    <glyph glyph-name="tilde" unicode="&#x2dc;" horiz-adv-x="417" 
d="M206 568q-15 8 -27 13.5t-26 5.5q-17 0 -29 -10t-23 -23l-36 34q15 24 38.5 42t50.5 18q15 0 27.5 -4.5t29.5 -12.5q20 -10 32 -15t23 -5q26 0 45 30l41 -28q-13 -28 -34 -45.5t-52 -17.5q-15 0 -28 4t-32 14z" />
    <glyph glyph-name="hungarumlaut" unicode="&#x2dd;" horiz-adv-x="438" 
d="M65 578q15 12 28.5 23t26 22.5t25.5 24t28 28.5l43 -47q-28 -30 -55 -51.5t-60 -45.5zM222 578q15 12 28.5 23t26 22.5t25.5 24t28 28.5l43 -47q-28 -30 -55 -51.5t-60 -45.5z" />
    <glyph glyph-name="uni03A9" unicode="&#x3a9;" horiz-adv-x="686" 
d="M606 0h-189v69q48 24 64.5 59.5t16.5 80.5v265q0 62 -38 95t-117 33t-117 -33t-38 -95v-265q0 -45 16.5 -80.5t64.5 -59.5v-69h-189v69h84q-37 26 -49.5 59t-12.5 74v272q0 42 13.5 78.5t42.5 64t74.5 43.5t110.5 16q64 0 110 -16t75 -43.5t42.5 -64t13.5 -78.5v-272
q0 -41 -12.5 -74t-49.5 -59h84v-69z" />
    <glyph glyph-name="pi" unicode="&#x3c0;" horiz-adv-x="687" 
d="M503 415v-307q0 -28 10 -39t38 -11q15 0 27.5 2t27.5 7l13 -62q-17 -7 -36.5 -11t-42.5 -4q-63 0 -91 28.5t-28 86.5v310h-174v-415h-82v415h-120v72h577v-72h-119z" />
    <glyph glyph-name="Wgrave" unicode="&#x1e80;" horiz-adv-x="908" 
d="M652 82l152 584h84l-175 -666h-121l-138 595l-138 -595h-121l-175 666h84l152 -584l138 584h120zM463 711q-35 17 -66.5 36.5t-62.5 42.5l38 58q31 -23 61 -42.5t64 -39.5z" />
    <glyph glyph-name="wgrave" unicode="&#x1e81;" horiz-adv-x="696" 
d="M466 0l-118 413l-118 -413h-108l-104 487h80l81 -404l118 404h102l118 -404l81 404h80l-104 -487h-108zM357 546q-38 20 -71 40.5t-68 46.5l36 56q26 -22 62.5 -45.5t74.5 -45.5z" />
    <glyph glyph-name="Wacute" unicode="&#x1e82;" horiz-adv-x="908" 
d="M652 82l152 584h84l-175 -666h-121l-138 595l-138 -595h-121l-175 666h84l152 -584l138 584h120zM420 766q34 20 64 39.5t61 42.5l38 -58q-31 -23 -62.5 -42.5t-66.5 -36.5z" />
    <glyph glyph-name="wacute" unicode="&#x1e83;" horiz-adv-x="696" 
d="M466 0l-118 413l-118 -413h-108l-104 487h80l81 -404l118 404h102l118 -404l81 404h80l-104 -487h-108zM304 598q38 22 74.5 45.5t62.5 45.5l36 -56q-35 -26 -68 -46.5t-71 -40.5z" />
    <glyph glyph-name="Wdieresis" unicode="&#x1e84;" horiz-adv-x="908" 
d="M652 82l152 584h84l-175 -666h-121l-138 595l-138 -595h-121l-175 666h84l152 -584l138 584h120zM326 802h80v-78h-80v78zM503 802h80v-78h-80v78z" />
    <glyph glyph-name="wdieresis" unicode="&#x1e85;" horiz-adv-x="696" 
d="M466 0l-118 413l-118 -413h-108l-104 487h80l81 -404l118 404h102l118 -404l81 404h80l-104 -487h-108zM222 644h78v-83h-78v83zM395 644h78v-83h-78v83z" />
    <glyph glyph-name="Ygrave" unicode="&#x1ef2;" horiz-adv-x="548" 
d="M448 666h90l-221 -465v-201h-86v201l-221 465h90l174 -372zM289 711q-35 17 -66.5 36.5t-62.5 42.5l38 58q31 -23 61 -42.5t64 -39.5z" />
    <glyph glyph-name="ygrave" unicode="&#x1ef3;" horiz-adv-x="448" 
d="M201 0h-35l-158 487h83l133 -420l135 420h83l-161 -487l-69 -197h-79zM233 546q-38 20 -71 40.5t-68 46.5l36 56q26 -22 62.5 -45.5t74.5 -45.5z" />
    <glyph glyph-name="endash" unicode="&#x2013;" horiz-adv-x="486" 
d="M60 313h366v-69h-366v69z" />
    <glyph glyph-name="emdash" unicode="&#x2014;" horiz-adv-x="612" 
d="M60 313h492v-69h-492v69z" />
    <glyph glyph-name="quoteleft" unicode="&#x2018;" horiz-adv-x="254" 
d="M171 465h-86v115l60 120l39 -19l-42 -101h29v-115z" />
    <glyph glyph-name="quoteright" unicode="&#x2019;" horiz-adv-x="239" 
d="M88 686h86v-115l-60 -120l-39 19l42 101h-29v115z" />
    <glyph glyph-name="quotesinglbase" unicode="&#x201a;" horiz-adv-x="254" 
d="M83 115h86v-115l-60 -120l-39 19l42 101h-29v115z" />
    <glyph glyph-name="quotedblleft" unicode="&#x201c;" horiz-adv-x="433" 
d="M350 465h-86v115l60 120l39 -19l-42 -101h29v-115zM171 465h-86v115l60 120l39 -19l-42 -101h29v-115z" />
    <glyph glyph-name="quotedblright" unicode="&#x201d;" horiz-adv-x="433" 
d="M83 686h86v-115l-60 -120l-39 19l42 101h-29v115zM262 686h86v-115l-60 -120l-39 19l42 101h-29v115z" />
    <glyph glyph-name="quotedblbase" unicode="&#x201e;" horiz-adv-x="433" 
d="M83 115h86v-115l-60 -120l-39 19l42 101h-29v115zM262 115h86v-115l-60 -120l-39 19l42 101h-29v115z" />
    <glyph glyph-name="dagger" unicode="&#x2020;" horiz-adv-x="485" 
d="M50 489h157v177h72v-177h156v-65h-156v-494h-72v494h-157v65z" />
    <glyph glyph-name="daggerdbl" unicode="&#x2021;" horiz-adv-x="485" 
d="M50 172h157v252h-157v65h157v177h72v-177h156v-65h-156v-252h156v-65h-156v-177h-72v177h-157v65z" />
    <glyph glyph-name="bullet" unicode="&#x2022;" horiz-adv-x="373" 
d="M65 323q0 25 9.5 47t26 38.5t38.5 26t47 9.5t47.5 -9.5t39 -26t26 -38.5t9.5 -47t-9.5 -47t-26 -38.5t-39 -26t-47.5 -9.5t-47 9.5t-38.5 26t-26 38.5t-9.5 47z" />
    <glyph glyph-name="ellipsis" unicode="&#x2026;" horiz-adv-x="768" 
d="M85 115h86v-115h-86v115zM341 115h86v-115h-86v115zM597 115h86v-115h-86v115z" />
    <glyph glyph-name="perthousand" unicode="&#x2030;" horiz-adv-x="1212" 
d="M311 -10l-59 26l269 660l60 -25zM344 448q0 -31 -7 -56t-24.5 -43t-45.5 -27.5t-70 -9.5t-70 9.5t-45.5 27.5t-24.5 43t-7 56v92q0 31 7 56t24.5 43t45.5 27.5t70 9.5t70 -9.5t45.5 -27.5t24.5 -43t7 -56v-92zM118 445q0 -36 17 -54.5t62 -18.5t62 18.5t17 54.5v98
q0 36 -17 54.5t-62 18.5t-62 -18.5t-17 -54.5v-98zM786 126q0 -31 -7 -56t-24.5 -43t-45.5 -27.5t-70 -9.5t-70 9.5t-45.5 27.5t-24.5 43t-7 56v92q0 31 7 56t24.5 43t45.5 27.5t70 9.5t70 -9.5t45.5 -27.5t24.5 -43t7 -56v-92zM560 123q0 -36 17 -54.5t62 -18.5t62 18.5
t17 54.5v98q0 36 -17 54.5t-62 18.5t-62 -18.5t-17 -54.5v-98zM1157 126q0 -31 -7 -56t-24.5 -43t-45.5 -27.5t-70 -9.5t-70 9.5t-45.5 27.5t-24.5 43t-7 56v92q0 31 7 56t24.5 43t45.5 27.5t70 9.5t70 -9.5t45.5 -27.5t24.5 -43t7 -56v-92zM931 123q0 -36 17 -54.5
t62 -18.5t62 18.5t17 54.5v98q0 36 -17 54.5t-62 18.5t-62 -18.5t-17 -54.5v-98z" />
    <glyph glyph-name="guilsinglleft" unicode="&#x2039;" horiz-adv-x="290" 
d="M40 244l127 193l58 -38l-102 -155l102 -155l-58 -38z" />
    <glyph glyph-name="guilsinglright" unicode="&#x203a;" horiz-adv-x="290" 
d="M123 51l-58 38l102 155l-102 155l58 38l127 -193z" />
    <glyph glyph-name="fraction" unicode="&#x2044;" horiz-adv-x="343" 
d="M61 -33l-56 23l278 689l55 -23z" />
    <glyph glyph-name="Euro" unicode="&#x20ac;" horiz-adv-x="543" 
d="M35 441h87v19q0 94 53 145t175 51q74 0 148 -17l-9 -72q-39 7 -72.5 10t-63.5 3q-41 0 -69 -6t-45.5 -20.5t-25 -38t-7.5 -58.5v-16h219v-55h-219v-109h219v-55h-219v-33q0 -35 7.5 -58.5t25 -38t45.5 -20.5t69 -6q30 0 64 2.5t72 9.5l9 -72q-36 -8 -73 -12t-75 -4
q-122 0 -175 50.5t-53 145.5v36h-87v55h87v109h-87v55z" />
    <glyph glyph-name="uni2113" unicode="&#x2113;" horiz-adv-x="459" 
d="M281 -10q-56 0 -89 15.5t-50 42t-22 60t-5 69.5v17l-34 -18t-35 -19l-33 60q24 14 48.5 28l52.5 30v250q0 37 7.5 70t25 58t47.5 39t75 14q37 0 64.5 -11t46 -30t27.5 -45t9 -56q0 -50 -13.5 -93t-41 -81.5t-68.5 -74t-96 -71.5v-91q0 -51 20 -72t67 -21q33 0 62 6.5
t64 22.5l20 -65q-35 -17 -70.5 -25.5t-78.5 -8.5zM197 329q30 23 55.5 47.5t44.5 52t29.5 60t10.5 72.5q0 35 -18 54.5t-50 19.5q-72 0 -72 -91v-215z" />
    <glyph glyph-name="uni2116" unicode="&#x2116;" horiz-adv-x="960" 
d="M165 559v-559h-80v666h110l250 -565v565h80v-666h-110zM633 241h277v-57h-277v57zM920 434q0 -61 -34.5 -99t-114.5 -38t-114 38t-34 99v105q0 61 34 99t114 38t114.5 -38t34.5 -99v-105zM852 541q0 37 -18.5 56.5t-62.5 19.5t-62 -19.5t-18 -56.5v-109q0 -37 18 -56.5
t62 -19.5t62.5 19.5t18.5 56.5v109z" />
    <glyph glyph-name="trademark" unicode="&#x2122;" horiz-adv-x="511" 
d="M110 632h-60v34h157v-34h-60v-171h-37v171zM406 666h44l6 -205h-37l-3 137l-42 -112h-46l-42 112l-3 -137h-37l6 205h44l55 -147z" />
    <glyph glyph-name="estimated" unicode="&#x212e;" horiz-adv-x="804" 
d="M187 301v-201q41 -35 95 -55.5t120 -20.5q90 0 157.5 32t133.5 98l24 -24q-29 -30 -61.5 -55.5t-71 -44.5t-83.5 -29.5t-99 -10.5q-76 0 -141 26.5t-113 72t-75.5 106t-27.5 128.5q0 69 28.5 129.5t77 105.5t113.5 71.5t138 26.5t137.5 -26.5t113.5 -71.5t77.5 -105.5
t28.5 -129.5v-22h-572zM402 622q-63 0 -118 -21.5t-97 -58.5v-209h430v209q-42 37 -97 58.5t-118 21.5z" />
    <glyph glyph-name="partialdiff" unicode="&#x2202;" horiz-adv-x="569" 
d="M422 426q17 100 -16 148t-128 48q-34 0 -64 -9t-57 -23l-24 65q30 17 74 29t85 12q65 0 110 -20t71 -58t33 -92.5t-5 -122.5l-43 -246q-7 -39 -19 -70t-36 -52.5t-64 -33t-102 -11.5q-58 0 -95 11.5t-56.5 32.5t-23.5 51t2 68l19 109q7 38 18.5 68.5t33.5 52t57.5 33
t91.5 11.5q30 0 65 -8t67 -26zM285 354q-32 0 -52.5 -4.5t-33.5 -14.5t-20.5 -26.5t-11.5 -41.5l-20 -114q-5 -28 -3 -45.5t13.5 -27.5t34 -13.5t57.5 -3.5q31 0 52.5 4t36 14t23 28t13.5 46l29 164q-27 17 -57.5 26t-60.5 9z" />
    <glyph glyph-name="Delta" unicode="&#x2206;" horiz-adv-x="702" 
d="M652 0h-602l257 666h88zM163 69h375l-187 514z" />
    <glyph glyph-name="product" unicode="&#x220f;" horiz-adv-x="807" 
d="M612 590v-690h-84v690h-249v-690h-84v690h-140v76h697v-76h-140z" />
    <glyph glyph-name="summation" unicode="&#x2211;" horiz-adv-x="546" 
d="M76 -24l230 307l-231 307v76h391v-76h-289l231 -307l-231 -307h294v-76h-395v76z" />
    <glyph glyph-name="minus" unicode="&#x2212;" horiz-adv-x="438" 
d="M60 313h318v-69h-318v69z" />
    <glyph glyph-name="radical" unicode="&#x221a;" horiz-adv-x="676" 
d="M231 0l-166 474l73 23l137 -397l169 630h217v-69h-153l-183 -661h-94z" />
    <glyph glyph-name="infinity" unicode="&#x221e;" horiz-adv-x="884" 
d="M824 276q0 -82 -48.5 -126t-128.5 -44q-35 0 -64.5 10.5t-54 28t-46 39.5t-40.5 46q-20 -24 -41 -46t-46 -39.5t-54 -28t-64 -10.5q-80 0 -128.5 44t-48.5 126t48 127t129 45q35 0 64 -10.5t54 -28t46 -40t41 -46.5q19 24 40.5 46.5t46 40t54 28t64.5 10.5q81 0 129 -45
t48 -127zM134 276q0 -51 29 -76t74 -25q26 0 47.5 8.5t40 22.5t35 32t32.5 38q-15 19 -31.5 38t-35 33.5t-40.5 23.5t-48 9q-43 0 -73 -26.5t-30 -77.5zM750 276q0 51 -30 77.5t-73 26.5q-26 0 -48 -9t-40.5 -23.5t-35 -33.5t-31.5 -38q16 -20 32.5 -38t35 -32t40 -22.5
t47.5 -8.5q45 0 74 25t29 76z" />
    <glyph glyph-name="integral" unicode="&#x222b;" horiz-adv-x="385" 
d="M221 -97q0 -56 -26.5 -83t-83.5 -27q-44 0 -81 16l11 62q14 -5 26 -6.5t29 -1.5q26 0 33.5 10t7.5 29v664q0 56 28.5 83t81.5 27q23 0 47 -5t41 -13l-13 -65q-14 5 -30.5 8t-30.5 3q-22 0 -31 -9.5t-9 -32.5v-659v0z" />
    <glyph glyph-name="approxequal" unicode="&#x2248;" horiz-adv-x="519" 
d="M267 125q-18 11 -38 18.5t-45 7.5t-41.5 -7.5t-35.5 -21.5l-32 52q20 17 51.5 32t62.5 15q21 0 40.5 -6t37.5 -16q22 -12 40 -19t43 -7t41.5 7.5t35.5 21.5l32 -52q-20 -17 -51.5 -32t-62.5 -15q-40 0 -78 22zM267 284q-18 11 -38 18.5t-45 7.5t-41.5 -7.5t-35.5 -21.5
l-32 52q20 17 51.5 32t62.5 15q21 0 40.5 -6t37.5 -16q22 -12 40 -19t43 -7t41.5 7.5t35.5 21.5l32 -52q-20 -17 -51.5 -32t-62.5 -15q-40 0 -78 22z" />
    <glyph glyph-name="notequal" unicode="&#x2260;" horiz-adv-x="509" 
d="M70 368h218l63 120l52 -27l-49 -93h85v-62h-117l-61 -116h178v-62h-210l-62 -119l-52 27l48 92h-93v62h125l61 116h-186v62z" />
    <glyph glyph-name="lessequal" unicode="&#x2264;" horiz-adv-x="540" 
d="M70 65h400v-65h-400v65zM166 332l286 -140l-29 -58l-339 170v55l339 168l29 -58z" />
    <glyph glyph-name="greaterequal" unicode="&#x2265;" horiz-adv-x="540" 
d="M470 0h-400v65h400v-65zM88 469l29 58l339 -168v-55l-339 -170l-29 58l286 140z" />
    <glyph glyph-name="lozenge" unicode="&#x25ca;" horiz-adv-x="572" 
d="M261 666h50l226 -333l-226 -333h-50l-226 333zM114 333l172 -256l172 256l-172 256z" />
    <glyph glyph-name="apple" unicode="&#xf8ff;" horiz-adv-x="866" 
d="M443 333v-333h-333v666h666v-333h-333z" />
    <glyph glyph-name="f_f" unicode="&#xfb00;" horiz-adv-x="696" 
d="M689 627q-20 4 -42.5 6.5t-38.5 2.5q-39 0 -52 -15t-13 -52v-82h139l-6 -69h-133v-418h-84v418h-259v-418h-84v418h-86v69h86v90q0 65 35 97t103 32q29 0 57 -3.5t53 -11.5l-7 -65q-20 4 -44.5 7t-47.5 3q-39 0 -52 -15t-13 -52v-82h259v90q0 65 35 97t103 32q24 0 49 -3
t50 -11z" />
    <glyph glyph-name="fi" unicode="&#xfb01;" horiz-adv-x="597" 
d="M433 0v417h-233v-417h-84v417h-86v70h86v90q0 65 35 97t103 32q46 0 91 -13l-7 -65q-20 4 -38.5 6t-34.5 2q-39 0 -52 -15t-13 -52v-82h317v-487h-84zM433 565v121h84v-121h-84z" />
    <glyph glyph-name="fl" unicode="&#xfb02;" horiz-adv-x="597" 
d="M341 628q-19 4 -39.5 6t-36.5 2q-39 0 -52 -15t-13 -52v-82h134l-7 -70h-127v-417h-84v417h-86v70h86v90q0 65 35 97t103 32q46 0 94 -13zM433 0v686l84 12v-698h-84z" />
    <glyph glyph-name="f_f_i" unicode="&#xfb03;" horiz-adv-x="940" 
d="M776 0v418h-233v-418h-84v418h-259v-418h-84v418h-86v69h86v90q0 65 35 97t103 32q29 0 57 -3.5t53 -11.5l-7 -65q-20 4 -44.5 7t-47.5 3q-39 0 -52 -15t-13 -52v-82h259v90q0 65 35 97t103 32q46 0 91 -13l-7 -65q-20 4 -38.5 6t-34.5 2q-39 0 -52 -15t-13 -52v-82h317
v-487h-84zM776 565v121h84v-121h-84z" />
    <glyph glyph-name="f_f_l" unicode="&#xfb04;" horiz-adv-x="940" 
d="M684 628q-19 4 -39.5 6t-36.5 2q-39 0 -52 -15t-13 -52v-82h134l-7 -69h-127v-418h-84v418h-259v-418h-84v418h-86v69h86v90q0 65 35 97t103 32q29 0 57 -3.5t53 -11.5l-7 -65q-20 4 -44.5 7t-47.5 3q-39 0 -52 -15t-13 -52v-82h259v90q0 65 35 97t103 32q46 0 94 -13z
M776 0v686l84 12v-698h-84z" />
    <glyph glyph-name="Acute" horiz-adv-x="303" 
d="M70 766q34 20 64 39.5t61 42.5l38 -58q-31 -23 -62.5 -42.5t-66.5 -36.5z" />
    <glyph glyph-name="Breve" horiz-adv-x="384" 
d="M319 796q-14 -30 -44.5 -52.5t-82.5 -22.5t-82.5 22.5t-44.5 52.5l43 30q14 -25 34.5 -37.5t49.5 -12.5t49.5 12.5t34.5 37.5z" />
    <glyph glyph-name="Caron" horiz-adv-x="380" 
d="M315 795q-32 -20 -61 -39t-64 -46q-35 27 -64 46t-61 39l26 47q29 -14 51.5 -27t47.5 -29q25 16 47.5 29t51.5 27z" />
    <glyph glyph-name="Cedilla" horiz-adv-x="310" 
d="M245 -119q0 -34 -24.5 -56t-75.5 -22q-20 0 -41.5 4t-38.5 11l10 41q13 -4 30.5 -7t31.5 -3q29 0 41.5 8.5t12.5 22.5q0 29 -42 29q-9 0 -15.5 -1.5t-14.5 -3.5l-29 13l21 96h48l-14 -69q13 3 27 3q33 0 53 -16t20 -50z" />
    <glyph glyph-name="Circumflex" horiz-adv-x="380" 
d="M289 711q-29 14 -51.5 27t-47.5 29q-25 -16 -47.5 -29t-51.5 -27l-26 47q32 20 61 39t64 46q35 -27 64 -46t61 -39z" />
    <glyph glyph-name="commaaccent" horiz-adv-x="327" 
d="M127 -51h84v-107l-49 -101l-39 17l33 84h-29v107z" />
    <glyph glyph-name="Dieresis" horiz-adv-x="397" 
d="M70 802h80v-78h-80v78zM247 802h80v-78h-80v78z" />
    <glyph glyph-name="Dotaccent" horiz-adv-x="214" 
d="M65 725v121h84v-121h-84z" />
    <glyph glyph-name="Grave" horiz-adv-x="303" 
d="M199 711q-35 17 -66.5 36.5t-62.5 42.5l38 58q31 -23 61 -42.5t64 -39.5z" />
    <glyph glyph-name="Hungarumlaut" horiz-adv-x="430" 
d="M65 753q29 24 50.5 43t48.5 47l43 -48q-25 -25 -49 -45t-55 -42zM223 753q29 24 50.5 43t48.5 47l43 -48q-25 -25 -49 -45t-55 -42z" />
    <glyph glyph-name="Macron" horiz-adv-x="371" 
d="M65 794h241v-59h-241v59z" />
    <glyph glyph-name="Ogonek" horiz-adv-x="297" 
d="M232 -194q-23 -13 -61 -13q-48 0 -77 22.5t-29 67.5q0 40 25 68.5t55 48.5h87q-45 -28 -71 -53.5t-26 -59.5q0 -18 11 -28.5t36 -10.5q12 0 20.5 1.5t16.5 4.5l13 -48v0z" />
    <glyph glyph-name="Ring" horiz-adv-x="269" 
d="M204 765q0 -28 -17.5 -48t-52.5 -20t-52 20t-17 48q0 29 17 49t52 20t52.5 -20t17.5 -49zM164 765q0 15 -7.5 24t-22.5 9q-14 0 -22 -9t-8 -24q0 -14 8 -23t22 -9q15 0 22.5 9t7.5 23z" />
    <glyph glyph-name="Tilde" horiz-adv-x="417" 
d="M206 740q-15 8 -27 13.5t-26 5.5q-17 0 -29 -10t-23 -23l-36 34q15 24 38.5 42t50.5 18q15 0 27.5 -4.5t29.5 -12.5q20 -10 32 -15t23 -5q26 0 45 30l41 -28q-13 -28 -34 -45.5t-52 -17.5q-15 0 -28 4t-32 14z" />
    <glyph glyph-name="f_j" horiz-adv-x="592" 
d="M517 487v-518q0 -26 -3 -43t-14 -33.5t-33.5 -38t-62.5 -56.5l-51 59q30 27 46 42.5t23.5 27t9 22t1.5 25.5v443h-233v-417h-84v417h-86v70h86v90q0 65 35 97t103 32q46 0 91 -13l-7 -65q-20 4 -38.5 6t-34.5 2q-39 0 -52 -15t-13 -52v-82h317zM433 565v121h84v-121h-84z
" />
    <glyph glyph-name="f_f_j" horiz-adv-x="935" 
d="M860 -31q0 -26 -3 -43t-14 -33.5t-33.5 -38t-62.5 -56.5l-51 59q30 27 46 42.5t23.5 27t9 22t1.5 25.5v444h-233v-418h-84v418h-259v-418h-84v418h-86v69h86v90q0 65 35 97t103 32q29 0 57 -3.5t53 -11.5l-7 -65q-20 4 -44.5 7t-47.5 3q-39 0 -52 -15t-13 -52v-82h259v90
q0 65 35 97t103 32q46 0 91 -13l-7 -65q-20 4 -38.5 6t-34.5 2q-39 0 -52 -15t-13 -52v-82h317v-518zM776 565v121h84v-121h-84z" />
    <glyph glyph-name="ampersand.salt" horiz-adv-x="664" 
d="M285 268h192q43 0 73.5 8.5t63.5 27.5l30 -57q-26 -20 -63 -32t-80 -14v-42q0 -39 -11.5 -70.5t-37 -53t-67 -33.5t-101.5 -12q-112 0 -160.5 45.5t-48.5 131.5v157q0 91 50.5 132t162.5 41q18 0 39.5 -1.5t43 -4t41 -5.5t34.5 -7l-6 -69q-41 7 -81.5 10.5t-70.5 3.5
q-69 0 -99 -22t-30 -78v-160q0 -56 29.5 -79t95.5 -23q74 0 105.5 21.5t31.5 75.5v41h-136v68z" />
    <glyph glyph-name="g.salt" horiz-adv-x="519" 
d="M58 315q0 42 9 75.5t32 57t63 36.5t103 13q17 0 38.5 -1t44.5 -3.5t46.5 -6t44.5 -8.5v-514q0 -36 -10 -67t-32 -54t-58 -36.5t-88 -13.5q-44 0 -89 7.5t-82 18.5l11 68q45 -11 83.5 -16t71.5 -5q61 0 85 24.5t24 72.5v77q-26 -14 -66.5 -24t-87.5 -10q-76 0 -109.5 41
t-33.5 111v157zM355 416q-25 4 -49 5.5t-47 1.5q-37 0 -60 -7.5t-35.5 -21t-17 -33t-4.5 -43.5v-163q0 -38 18 -56.5t61 -18.5q16 0 34.5 3.5t36.5 9t34.5 12t28.5 12.5v299z" />
    <glyph glyph-name="gcircumflex.salt" horiz-adv-x="519" 
d="M369 539q-17 9 -30.5 17t-25.5 15.5t-23.5 16t-23.5 18.5q-25 -20 -47 -34t-56 -33l-30 47q35 21 65.5 42.5t67.5 51.5q37 -30 67.5 -51.5t65.5 -42.5zM58 315q0 42 9 75.5t32 57t63 36.5t103 13q17 0 38.5 -1t44.5 -3.5t46.5 -6t44.5 -8.5v-514q0 -36 -10 -67t-32 -54
t-58 -36.5t-88 -13.5q-44 0 -89 7.5t-82 18.5l11 68q45 -11 83.5 -16t71.5 -5q61 0 85 24.5t24 72.5v77q-26 -14 -66.5 -24t-87.5 -10q-76 0 -109.5 41t-33.5 111v157zM355 416q-25 4 -49 5.5t-47 1.5q-37 0 -60 -7.5t-35.5 -21t-17 -33t-4.5 -43.5v-163q0 -38 18 -56.5
t61 -18.5q16 0 34.5 3.5t36.5 9t34.5 12t28.5 12.5v299z" />
    <glyph glyph-name="gbreve.salt" horiz-adv-x="519" 
d="M391 622q-6 -15 -16.5 -30t-26 -27.5t-36.5 -20t-49 -7.5t-49 7.5t-36.5 20t-26 27.5t-16.5 30l43 30q12 -23 31 -41t54 -18t54 18t31 41zM58 315q0 42 9 75.5t32 57t63 36.5t103 13q17 0 38.5 -1t44.5 -3.5t46.5 -6t44.5 -8.5v-514q0 -36 -10 -67t-32 -54t-58 -36.5
t-88 -13.5q-44 0 -89 7.5t-82 18.5l11 68q45 -11 83.5 -16t71.5 -5q61 0 85 24.5t24 72.5v77q-26 -14 -66.5 -24t-87.5 -10q-76 0 -109.5 41t-33.5 111v157zM355 416q-25 4 -49 5.5t-47 1.5q-37 0 -60 -7.5t-35.5 -21t-17 -33t-4.5 -43.5v-163q0 -38 18 -56.5t61 -18.5
q16 0 34.5 3.5t36.5 9t34.5 12t28.5 12.5v299z" />
    <glyph glyph-name="gdotaccent.salt" horiz-adv-x="519" 
d="M225 565v121h84v-121h-84zM58 315q0 42 9 75.5t32 57t63 36.5t103 13q17 0 38.5 -1t44.5 -3.5t46.5 -6t44.5 -8.5v-514q0 -36 -10 -67t-32 -54t-58 -36.5t-88 -13.5q-44 0 -89 7.5t-82 18.5l11 68q45 -11 83.5 -16t71.5 -5q61 0 85 24.5t24 72.5v77q-26 -14 -66.5 -24
t-87.5 -10q-76 0 -109.5 41t-33.5 111v157zM355 416q-25 4 -49 5.5t-47 1.5q-37 0 -60 -7.5t-35.5 -21t-17 -33t-4.5 -43.5v-163q0 -38 18 -56.5t61 -18.5q16 0 34.5 3.5t36.5 9t34.5 12t28.5 12.5v299z" />
    <glyph glyph-name="gcommaaccent.salt" horiz-adv-x="519" 
d="M307 543h-84v107l49 101l39 -17l-33 -84h29v-107zM58 315q0 42 9 75.5t32 57t63 36.5t103 13q17 0 38.5 -1t44.5 -3.5t46.5 -6t44.5 -8.5v-514q0 -36 -10 -67t-32 -54t-58 -36.5t-88 -13.5q-44 0 -89 7.5t-82 18.5l11 68q45 -11 83.5 -16t71.5 -5q61 0 85 24.5t24 72.5
v77q-26 -14 -66.5 -24t-87.5 -10q-76 0 -109.5 41t-33.5 111v157zM355 416q-25 4 -49 5.5t-47 1.5q-37 0 -60 -7.5t-35.5 -21t-17 -33t-4.5 -43.5v-163q0 -38 18 -56.5t61 -18.5q16 0 34.5 3.5t36.5 9t34.5 12t28.5 12.5v299z" />
    </font>
</defs>
</svg>
