<?xml version="1.0" standalone="no"?>
<!DOCTYPE svg PUBLIC "-//W3C//DTD SVG 1.1//EN" "http://www.w3.org/Graphics/SVG/1.1/DTD/svg11.dtd" >
<svg xmlns="http://www.w3.org/2000/svg" xmlns:xlink="http://www.w3.org/1999/xlink" version="1.1">
<metadata>
Created by FontForge 20150824 at Tue Aug  2 00:20:22 2016
 By Everything Fonts
Copyright (c) 2010 by Process Type Foundry. All rights reserved.
</metadata>
<defs>
<font id="KlavikaWebBasicMedium" horiz-adv-x="545" >
  <font-face 
    font-family="KlavikaWebBasicMedium"
    font-weight="600"
    font-stretch="normal"
    units-per-em="1000"
    panose-1="2 11 8 3 4 0 0 2 0 4"
    ascent="750"
    descent="-250"
    x-height="487"
    cap-height="666"
    bbox="-19 -295 1203 1008"
    underline-thickness="50"
    underline-position="-200"
    unicode-range="U+0020-FB04"
  />
<missing-glyph horiz-adv-x="636" 
d="M85 666h466v-666h-466v666zM162 616l340 -527v527h-340zM134 49h339l-339 527v-527z" />
    <glyph glyph-name=".notdef" horiz-adv-x="636" 
d="M85 666h466v-666h-466v666zM162 616l340 -527v527h-340zM134 49h339l-339 527v-527z" />
    <glyph glyph-name=".null" horiz-adv-x="0" 
 />
    <glyph glyph-name="nonmarkingreturn" horiz-adv-x="210" 
 />
    <glyph glyph-name="space" unicode=" " horiz-adv-x="210" 
 />
    <glyph glyph-name="exclam" unicode="!" horiz-adv-x="284" 
d="M106 216l-25 173v297h122v-297l-25 -173h-72zM80 140h124v-140h-124v140z" />
    <glyph glyph-name="quotedbl" unicode="&#x22;" horiz-adv-x="387" 
d="M60 439v247h87v-247h-87zM240 439v247h87v-247h-87z" />
    <glyph glyph-name="numbersign" unicode="#" horiz-adv-x="698" 
d="M510 163l-8 -163h-90l8 163h-155l-9 -163h-90l8 163h-124l5 84h123l8 159h-126l5 84h125l8 156h91l-8 -156h155l8 156h91l-9 -156h120l-5 -84h-119l-8 -159h122l-5 -84h-121zM268 247h156l7 159h-155z" />
    <glyph glyph-name="dollar" unicode="$" horiz-adv-x="506" 
d="M198 -118v110q-38 2 -76 10t-72 21l22 100q34 -11 75.5 -19t86.5 -8q31 0 50 4t29.5 14t13.5 25.5t3 39.5t-2.5 38.5t-13 25t-32 18t-59.5 16.5q-57 13 -90.5 28t-51 37t-22.5 54t-5 79q0 43 8.5 75t28 53.5t52 34t79.5 16.5v112h101v-112q28 -2 59.5 -6t58.5 -11
l-13 -105q-36 8 -81 12.5t-82 4.5q-26 0 -43 -3t-27.5 -11t-14.5 -23t-4 -40q0 -24 2 -37.5t12 -22.5t29.5 -15.5t55.5 -16.5q64 -18 99.5 -35t53 -38.5t21 -51.5t3.5 -75q0 -43 -7 -76t-25 -56t-47.5 -36.5t-74.5 -18.5v-111h-100z" />
    <glyph glyph-name="percent" unicode="%" horiz-adv-x="877" 
d="M338 -10l-77 31l269 655l77 -31zM362 454q0 -31 -7.5 -57t-25.5 -45t-48 -29.5t-75 -10.5t-75 10.5t-48 29.5t-25.5 45t-7.5 57v80q0 31 7.5 57t25.5 45t48 29.5t75 10.5t75 -10.5t48 -29.5t25.5 -45t7.5 -57v-80zM266 541q0 27 -12.5 39.5t-47.5 12.5t-47.5 -12.5
t-12.5 -39.5v-94q0 -27 12.5 -39.5t47.5 -12.5t47.5 12.5t12.5 39.5v94zM822 132q0 -31 -7.5 -57t-25.5 -45t-48 -29.5t-75 -10.5t-75 10.5t-48 29.5t-25.5 45t-7.5 57v80q0 31 7.5 57t25.5 45t48 29.5t75 10.5t75 -10.5t48 -29.5t25.5 -45t7.5 -57v-80zM726 219
q0 27 -12.5 39.5t-47.5 12.5t-47.5 -12.5t-12.5 -39.5v-94q0 -27 12.5 -39.5t47.5 -12.5t47.5 12.5t12.5 39.5v94z" />
    <glyph glyph-name="ampersand" unicode="&#x26;" horiz-adv-x="655" 
d="M513 281v-258q-53 -17 -114.5 -25t-117.5 -8q-60 0 -100 12t-65 33.5t-35.5 51.5t-10.5 67v56q0 47 18.5 81.5t62.5 50.5q-40 20 -54.5 51.5t-14.5 69.5v52q0 36 10.5 66t35.5 51t65 32.5t100 11.5q50 0 100 -4.5t98 -15.5l-11 -100q-46 8 -96.5 12t-95.5 4
q-47 0 -65 -15t-18 -47v-60q0 -30 15.5 -48t53.5 -18h336v-103h-97zM284 91q23 0 53.5 2t59.5 7v181h-113q-45 0 -68 -17t-23 -55v-42q0 -39 18 -57.5t73 -18.5z" />
    <glyph glyph-name="quotesingle" unicode="'" horiz-adv-x="207" 
d="M60 439v247h87v-247h-87z" />
    <glyph glyph-name="parenleft" unicode="(" horiz-adv-x="335" 
d="M225 -154q-69 89 -112 202.5t-43 255.5q0 143 43 255.5t112 202.5l90 -52q-30 -50 -53 -96.5t-38.5 -95t-23 -101t-7.5 -113.5t7.5 -113.5t23 -101t38.5 -95.5t53 -96z" />
    <glyph glyph-name="parenright" unicode=")" horiz-adv-x="335" 
d="M20 -102q30 49 53 96t38.5 95.5t23 101t7.5 113.5t-7.5 113.5t-23 101t-38.5 95t-53 96.5l90 52q69 -90 112 -202.5t43 -255.5q0 -142 -43 -255.5t-112 -202.5z" />
    <glyph glyph-name="asterisk" unicode="*" horiz-adv-x="502" 
d="M194 488h-134v59h136l-74 117l49 32l79 -122l79 122l50 -32l-76 -117h139v-59h-136l73 -113l-51 -32l-78 121l-78 -121l-51 32z" />
    <glyph glyph-name="plus" unicode="+" horiz-adv-x="528" 
d="M60 291h154v155h100v-155h154v-96h-154v-155h-100v155h-154v96z" />
    <glyph glyph-name="comma" unicode="," horiz-adv-x="274" 
d="M75 140h124v-148l-78 -131l-56 31l56 108h-46v140z" />
    <glyph glyph-name="hyphen" unicode="-" horiz-adv-x="372" 
d="M60 331h252v-102h-252v102z" />
    <glyph glyph-name="period" unicode="." horiz-adv-x="274" 
d="M75 140h124v-140h-124v140z" />
    <glyph glyph-name="slash" unicode="/" horiz-adv-x="459" 
d="M165 -117h-110l248 793h111z" />
    <glyph glyph-name="zero" unicode="0" horiz-adv-x="562" 
d="M497 169q0 -38 -11 -70.5t-36 -56.5t-66.5 -38t-102.5 -14t-102.5 14t-66.5 38t-36 56.5t-11 70.5v308q0 37 11 70t36 57t66.5 38t102.5 14t102.5 -14t66.5 -38t36 -57t11 -70v-308zM187 181q0 -22 4 -37.5t14.5 -26t28.5 -15.5t47 -5t47 5t28.5 15.5t14.5 26t4 37.5v284
q0 22 -4 37.5t-14.5 26t-28.5 15.5t-47 5t-47 -5t-28.5 -15.5t-14.5 -26t-4 -37.5v-284z" />
    <glyph glyph-name="one" unicode="1" horiz-adv-x="384" 
d="M61 444l-51 96l184 106h110v-646h-122v511z" />
    <glyph glyph-name="two" unicode="2" horiz-adv-x="501" 
d="M53 105q28 31 46.5 50.5t34 37t32 36.5t42.5 49q35 41 56.5 66.5t33 45t15.5 37t4 41.5v17q0 37 -19 50t-74 13q-33 0 -76 -6t-81 -14l-17 102q34 10 80.5 18t100.5 8q58 0 97.5 -10t64 -29.5t35.5 -49t11 -68.5v-23q0 -35 -2.5 -58.5t-13 -47t-30.5 -51t-55 -70.5
q-21 -26 -36.5 -45t-29 -35t-26 -30.5t-27.5 -31.5h222v-107h-388v105z" />
    <glyph glyph-name="three" unicode="3" horiz-adv-x="492" 
d="M63 112q73 -15 143 -15q33 0 53.5 3.5t31.5 12t15 21.5t4 33v39q0 37 -17 50.5t-55 13.5h-143v109h121q50 0 66 17.5t16 52.5v39q0 36 -19.5 48.5t-72.5 12.5q-37 0 -71.5 -4t-66.5 -10l-13 103q33 8 76 13t86 5q59 0 98 -9.5t62.5 -28.5t33 -46t9.5 -63v-62
q0 -49 -16.5 -76.5t-55.5 -44.5q43 -14 63.5 -42t20.5 -79v-57q0 -38 -10.5 -67t-36 -49.5t-68 -31t-107.5 -10.5q-17 0 -38.5 1.5t-43.5 4t-42.5 6.5t-35.5 9z" />
    <glyph glyph-name="four" unicode="4" horiz-adv-x="565" 
d="M450 142v-142h-120v142h-302v113l259 391h163v-400h85v-104h-85zM330 246v279l-180 -279h180z" />
    <glyph glyph-name="five" unicode="5" horiz-adv-x="502" 
d="M80 646h356v-106h-234v-161q13 0 23.5 -0.5t20.5 -1t21 -1t25 -1.5q44 -2 73.5 -14t47.5 -32t26 -47t8 -60v-61q0 -39 -8.5 -71t-32.5 -54t-66.5 -34t-109.5 -12q-46 0 -90.5 6.5t-79.5 17.5l15 100q37 -8 77 -12.5t76 -4.5q34 0 53.5 4.5t29 13.5t12 23t2.5 34v32
q0 35 -16.5 51.5t-69.5 18.5q-27 1 -48 2t-39 1.5t-35 1t-37 0.5v367z" />
    <glyph glyph-name="six" unicode="6" horiz-adv-x="526" 
d="M182 367q52 18 119 18q91 0 130.5 -39t39.5 -126v-48q0 -39 -10 -72.5t-33.5 -57.5t-63 -38t-98.5 -14q-65 0 -105 13.5t-62.5 38.5t-30.5 60.5t-8 78.5v243q0 66 17.5 110.5t52 71.5t86.5 38.5t120 11.5q28 0 60 -3.5t55 -8.5l-8 -102q-22 5 -50 7t-44 2q-44 0 -76 -4.5
t-52 -18t-29.5 -37.5t-9.5 -62v-62zM282 280q-27 0 -53 -6t-47 -15v-91q0 -42 18 -57.5t66 -15.5t65.5 17.5t17.5 55.5v49q0 36 -17 49.5t-50 13.5z" />
    <glyph glyph-name="seven" unicode="7" horiz-adv-x="460" 
d="M25 646h405v-103l-231 -543h-127l230 539h-277v107z" />
    <glyph glyph-name="eight" unicode="8" horiz-adv-x="546" 
d="M470 453q0 -37 -16 -67t-63 -57q56 -28 75.5 -59t19.5 -72v-42q0 -44 -11.5 -75.5t-36.5 -51.5t-66 -29.5t-99 -9.5q-59 0 -99.5 9.5t-65.5 29.5t-36.5 51.5t-11.5 75.5v42q0 21 4.5 38.5t15.5 33.5t29 30.5t46 28.5q-47 27 -63 57t-16 67v45q0 36 10.5 65.5t34 50
t61 31.5t91.5 11t91.5 -11t61 -31.5t34 -50t10.5 -65.5v-45zM368 185q0 16 -3 27.5t-12.5 22t-28.5 21t-51 22.5q-32 -12 -51 -22.5t-28.5 -21t-12.5 -22t-3 -27.5v-27q0 -37 20.5 -52t74.5 -15t74.5 15t20.5 52v27zM194 453q0 -14 2.5 -24t11 -18.5t24 -17t41.5 -18.5
q26 10 41.5 18.5t24 17t11 18.5t2.5 24v42q0 30 -16 45.5t-63 15.5t-63 -15.5t-16 -45.5v-42z" />
    <glyph glyph-name="nine" unicode="9" horiz-adv-x="521" 
d="M339 279q-53 -18 -119 -18q-91 0 -130.5 39t-39.5 126v48q0 42 10.5 75.5t35 57.5t63.5 36.5t96 12.5q64 0 104.5 -13.5t63 -38.5t30.5 -60.5t8 -78.5v-243q0 -66 -17.5 -110.5t-52 -71.5t-86.5 -38.5t-120 -11.5q-28 0 -60 3.5t-55 8.5l11 102q22 -5 48.5 -7t42.5 -2
q48 0 80.5 6t51.5 20.5t27 37.5t8 58v62zM239 366q27 0 53 6t47 15v91q0 42 -18 57.5t-66 15.5t-65.5 -17.5t-17.5 -55.5v-49q0 -36 17 -49.5t50 -13.5z" />
    <glyph glyph-name="colon" unicode=":" horiz-adv-x="274" 
d="M75 140h124v-140h-124v140zM75 444h124v-140h-124v140z" />
    <glyph glyph-name="semicolon" unicode=";" horiz-adv-x="274" 
d="M75 444h124v-140h-124v140zM75 140h124v-148l-78 -131l-56 31l56 108h-46v140z" />
    <glyph glyph-name="less" unicode="&#x3c;" horiz-adv-x="586" 
d="M50 277l432 220l38 -74l-355 -179l356 -179l-39 -75l-432 221v66z" />
    <glyph glyph-name="equal" unicode="=" horiz-adv-x="539" 
d="M70 386h399v-84h-399v84zM70 198h399v-84h-399v84z" />
    <glyph glyph-name="greater" unicode="&#x3e;" horiz-adv-x="586" 
d="M536 211l-432 -221l-39 75l356 179l-355 179l38 74l432 -220v-66z" />
    <glyph glyph-name="question" unicode="?" horiz-adv-x="491" 
d="M160 311q24 19 44.5 35t47.5 38q22 18 34.5 30t18.5 24.5t7.5 27t1.5 37.5q0 24 -4 40t-15.5 25.5t-31.5 14t-52 4.5t-71 -5t-72 -13l-18 105q38 10 84 16t90 6q65 0 106 -11.5t64.5 -34.5t32.5 -58t9 -82q0 -36 -2 -61.5t-10 -47.5t-24 -41.5t-45 -43.5q-16 -13 -30 -24
t-28.5 -22.5t-30.5 -23.5t-37 -28zM147 140h124v-140h-124v140z" />
    <glyph glyph-name="at" unicode="@" horiz-adv-x="738" 
d="M434 426q-13 5 -27.5 8t-26.5 3q-23 0 -33.5 -9.5t-14.5 -29.5q-4 -23 -8.5 -50t-8.5 -48q-3 -17 3 -24t20 -7t35 6.5t38 18.5zM245 301q3 19 5.5 32t4.5 23.5t3.5 21t4.5 25.5q10 55 39 74.5t81 19.5q15 0 32.5 -2.5t35 -7t33.5 -11t28 -13.5l-37 -207q18 -5 35 -5
q32 0 52 12.5t31.5 33.5t15.5 47.5t4 55.5q0 42 -14 79t-42.5 64t-71 43t-99.5 16q-55 0 -101.5 -20t-80 -55.5t-52.5 -85t-19 -108.5q0 -124 70.5 -196t206.5 -72q38 0 76 6.5t79 22.5l23 -67q-38 -19 -85.5 -28t-91.5 -9q-90 0 -157.5 25.5t-112.5 71t-68 108.5t-23 138
q0 73 24.5 136t69 109t106 72t136.5 26q74 0 131 -22t96 -59.5t59.5 -87t20.5 -105.5q0 -41 -8 -79.5t-28.5 -68.5t-55.5 -48.5t-89 -18.5q-33 0 -61 12t-39 35q-19 -11 -45.5 -18t-52.5 -7q-24 0 -38.5 8t-22.5 21t-9.5 29.5t1.5 33.5z" />
    <glyph glyph-name="A" unicode="A" horiz-adv-x="646" 
d="M446 138h-247l-42 -138h-132l210 666h176l210 -666h-132zM230 247h184l-91 315z" />
    <glyph glyph-name="B" unicode="B" horiz-adv-x="577" 
d="M75 0v666h262q95 0 136 -37t41 -105v-69q0 -42 -18 -66.5t-56 -41.5q46 -10 71.5 -42t25.5 -81v-71q0 -71 -45.5 -112t-136.5 -41h-280zM411 219q0 34 -16 50.5t-54 16.5h-140v-182h129q43 0 62 14t19 51v50zM388 508q0 28 -15.5 41t-50.5 13h-121v-175h120q37 0 52 16.5
t15 45.5v59z" />
    <glyph glyph-name="C" unicode="C" horiz-adv-x="523" 
d="M60 483q0 92 56 142.5t181 50.5q47 0 93 -5.5t88 -16.5l-14 -109q-41 8 -84.5 12.5t-78.5 4.5q-65 0 -90 -24t-25 -77v-256q0 -53 25 -77t90 -24q35 0 78.5 4.5t84.5 12.5l14 -109q-42 -11 -88 -16.5t-93 -5.5q-125 0 -181 50.5t-56 142.5v300z" />
    <glyph glyph-name="D" unicode="D" horiz-adv-x="604" 
d="M323 666q61 0 103.5 -14.5t68.5 -39t37.5 -57t11.5 -68.5v-308q0 -36 -11.5 -68t-37.5 -57t-68.5 -39.5t-103.5 -14.5h-248v666h248zM201 111h109q64 0 86 25t22 73v248q0 48 -22 73t-86 25h-109v-444z" />
    <glyph glyph-name="E" unicode="E" horiz-adv-x="538" 
d="M75 666h408v-111h-282v-161h260v-111h-260v-172h282v-111h-408v666z" />
    <glyph glyph-name="F" unicode="F" horiz-adv-x="522" 
d="M75 0v666h412v-111h-286v-177h264v-111h-264v-267h-126z" />
    <glyph glyph-name="G" unicode="G" horiz-adv-x="584" 
d="M186 206q0 -49 25 -76t91 -27q26 0 51.5 2t51.5 6v202h119v-293q-53 -15 -111.5 -22.5t-111.5 -7.5q-123 0 -182 50.5t-59 150.5v284q0 103 61 152t192 49q41 0 93.5 -5t97.5 -17l-14 -110q-46 10 -92 14t-95 4q-66 0 -91.5 -26.5t-25.5 -77.5v-252z" />
    <glyph glyph-name="H" unicode="H" horiz-adv-x="649" 
d="M448 0v281h-247v-281h-126v666h126v-274h247v274h126v-666h-126z" />
    <glyph glyph-name="I" unicode="I" horiz-adv-x="286" 
d="M206 0h-126v666h126v-666z" />
    <glyph glyph-name="J" unicode="J" horiz-adv-x="271" 
d="M201 666v-677q0 -26 -6 -46.5t-21.5 -42t-42 -47t-66.5 -59.5l-75 85q28 27 45 43.5t26 28.5t11.5 22.5t2.5 26.5v666h126z" />
    <glyph glyph-name="K" unicode="K" horiz-adv-x="612" 
d="M201 0h-126v666h126v-666zM358 337l224 -337h-145l-218 337l206 329h143z" />
    <glyph glyph-name="L" unicode="L" horiz-adv-x="505" 
d="M201 111h274v-111h-400v666h126v-555z" />
    <glyph glyph-name="M" unicode="M" horiz-adv-x="816" 
d="M488 86h-160l-123 345l-11 -431h-129l30 666h141l172 -473l172 473h141l30 -666h-129l-11 431z" />
    <glyph glyph-name="N" unicode="N" horiz-adv-x="694" 
d="M198 505v-505h-123v666h168l253 -506v506h123v-666h-168z" />
    <glyph glyph-name="O" unicode="O" horiz-adv-x="624" 
d="M564 195q0 -42 -13 -79t-42.5 -65t-78 -44.5t-118.5 -16.5q-71 0 -119 16.5t-77.5 44.5t-42.5 65t-13 79v276q0 42 13 79t42.5 65t77.5 44.5t119 16.5q70 0 118.5 -16.5t78 -44.5t42.5 -65t13 -79v-276zM186 202q0 -47 27.5 -74t98.5 -27q70 0 98 27t28 74v262
q0 47 -28 74t-98 27q-71 0 -98.5 -27t-27.5 -74v-262z" />
    <glyph glyph-name="P" unicode="P" horiz-adv-x="576" 
d="M75 666h260q115 0 163 -46t48 -134v-91q0 -87 -50.5 -133t-166.5 -46h-128v-216h-126v666zM420 476q0 42 -20 60.5t-72 18.5h-127v-228h127q53 0 72.5 20t19.5 61v68z" />
    <glyph glyph-name="Q" unicode="Q" horiz-adv-x="624" 
d="M273 -8q-59 4 -100 22t-66 45t-36 62t-11 74v276q0 42 13 79t42.5 65t77.5 44.5t119 16.5q70 0 118.5 -16.5t78 -44.5t42.5 -65t13 -79v-276q0 -34 -8.5 -65.5t-27.5 -57t-50 -44.5t-75 -29l53 -125l-113 -47zM186 202q0 -47 27.5 -74t98.5 -27q70 0 98 27t28 74v262
q0 47 -28 74t-98 27q-71 0 -98.5 -27t-27.5 -74v-262z" />
    <glyph glyph-name="R" unicode="R" horiz-adv-x="650" 
d="M474 0l-153 220h-120v-220h-126v666h273q116 0 164 -46t48 -134v-87q0 -60 -23.5 -101t-76.5 -60l165 -238h-151zM434 476q0 42 -20 60.5t-71 18.5h-142v-226h142q52 0 71.5 19.5t19.5 61.5v66z" />
    <glyph glyph-name="S" unicode="S" horiz-adv-x="540" 
d="M490 181q0 -47 -9 -83t-34.5 -60t-71 -36t-119.5 -12q-29 0 -58.5 3.5t-57.5 9t-52 12.5t-40 15l22 99q47 -14 92.5 -22.5t95.5 -8.5q34 0 55 4t32 13.5t15 25.5t4 40q0 28 -2 44t-14 26.5t-36.5 18t-69.5 17.5q-60 13 -96.5 27.5t-55.5 37t-25 56.5t-6 87q0 45 11 79
t37.5 56.5t69.5 34t106 11.5q44 0 94 -5.5t100 -16.5l-14 -106q-42 9 -88 14.5t-90 5.5q-32 0 -51.5 -3.5t-30.5 -12.5t-14.5 -23.5t-3.5 -36.5q0 -29 2 -45t13.5 -26t35 -17.5t66.5 -17.5q67 -16 105 -31.5t56.5 -37.5t22.5 -54t4 -82z" />
    <glyph glyph-name="T" unicode="T" horiz-adv-x="548" 
d="M211 555h-186v111h498v-111h-186v-555h-126v555z" />
    <glyph glyph-name="U" unicode="U" horiz-adv-x="632" 
d="M562 666v-473q0 -39 -12 -76t-40.5 -65t-76 -45t-117.5 -17t-117.5 17t-76 45t-40.5 65t-12 76v473h126v-463q0 -49 26.5 -75.5t93.5 -26.5t93.5 26.5t26.5 75.5v463h126z" />
    <glyph glyph-name="V" unicode="V" horiz-adv-x="600" 
d="M461 666h131l-199 -666h-186l-199 666h131l161 -555z" />
    <glyph glyph-name="W" unicode="W" horiz-adv-x="944" 
d="M677 150l127 516h125l-165 -666h-170l-122 536l-122 -536h-170l-165 666h125l127 -516l121 516h168z" />
    <glyph glyph-name="X" unicode="X" horiz-adv-x="612" 
d="M587 0h-136l-145 236l-145 -236h-136l209 335l-201 331h135l138 -232l138 232h135l-201 -331z" />
    <glyph glyph-name="Y" unicode="Y" horiz-adv-x="566" 
d="M427 666h134l-215 -473v-193h-126v193l-215 473h134l144 -336z" />
    <glyph glyph-name="Z" unicode="Z" horiz-adv-x="575" 
d="M206 107h309v-107h-450v106l308 453h-296v107h435v-107z" />
    <glyph glyph-name="bracketleft" unicode="[" horiz-adv-x="328" 
d="M85 -126v916h213v-100h-91v-716h91v-100h-213z" />
    <glyph glyph-name="backslash" unicode="\" horiz-adv-x="459" 
d="M45 676h111l248 -793h-110z" />
    <glyph glyph-name="bracketright" unicode="]" horiz-adv-x="328" 
d="M30 -126v100h91v716h-91v100h213v-916h-213z" />
    <glyph glyph-name="asciicircum" unicode="^" horiz-adv-x="475" 
d="M45 416l149 270h85l151 -270l-76 -45l-117 213l-118 -213z" />
    <glyph glyph-name="underscore" unicode="_" horiz-adv-x="444" 
d="M-1 -125v50h446v-50h-446z" />
    <glyph glyph-name="grave" unicode="`" horiz-adv-x="314" 
d="M209 539q-39 22 -73 43t-76 49l48 74q38 -28 74.5 -52t71.5 -46z" />
    <glyph glyph-name="a" unicode="a" horiz-adv-x="491" 
d="M431 0h-100l-9 33q-33 -22 -70.5 -32.5t-74.5 -10.5q-67 0 -97 41t-30 104q0 75 33.5 106t108.5 31h117v51q0 20 -3.5 34t-13.5 22.5t-28.5 12.5t-47.5 4q-33 0 -68 -4t-67 -11l-15 93q35 11 80.5 17t86.5 6q57 0 95.5 -10.5t61 -32t32 -54.5t9.5 -79v-321zM309 184h-90
q-30 0 -40.5 -10t-10.5 -38q0 -26 10 -37.5t39 -11.5q27 0 51 7.5t41 17.5v72z" />
    <glyph glyph-name="b" unicode="b" horiz-adv-x="528" 
d="M483 187q0 -44 -8.5 -80.5t-33 -62.5t-68.5 -40t-114 -14q-37 0 -90 4t-99 13v679l122 17v-235q27 11 65.5 20t78.5 9q79 0 113 -44.5t34 -122.5v-143zM192 98q17 -2 35 -3t38 -1q30 0 48.5 6t29 17t14.5 28t4 38v150q0 29 -14 44.5t-48 15.5q-26 0 -55 -8.5t-52 -19.5
v-267z" />
    <glyph glyph-name="c" unicode="c" horiz-adv-x="419" 
d="M258 -10q-57 0 -97 11t-65 33.5t-36.5 58t-11.5 84.5v133q0 49 11.5 84.5t36.5 58t65 33.5t97 11q26 0 59 -4.5t60 -13.5l-15 -100q-25 7 -54 10t-47 3q-53 0 -72 -18t-19 -63v-135q0 -45 19 -63t72 -18q23 0 49 3t52 10l15 -100q-24 -8 -56.5 -13t-62.5 -5z" />
    <glyph glyph-name="d" unicode="d" horiz-adv-x="533" 
d="M50 325q0 81 38 126.5t123 45.5q32 0 66.5 -4t63.5 -10v203l122 17v-703h-97l-12 41q-32 -23 -70 -37t-84 -14q-74 0 -112 42.5t-38 126.5v166zM341 380q-24 5 -53 9t-55 4q-33 0 -47 -16t-14 -49v-172q0 -30 13 -46t47 -16q30 0 59.5 13t49.5 31v242z" />
    <glyph glyph-name="e" unicode="e" horiz-adv-x="481" 
d="M170 172q0 -45 19.5 -63.5t75.5 -18.5q35 0 72 5.5t77 17.5l19 -92q-42 -16 -88.5 -23.5t-90.5 -7.5q-57 0 -96.5 13t-64 37t-35 59t-10.5 79v129q0 39 9.5 73.5t33 60.5t62 41t97.5 15q58 0 95.5 -16t58.5 -43t29 -62.5t8 -74.5v-104h-271v-25zM170 295h155v24
q0 35 -14.5 56.5t-59.5 21.5t-63 -21.5t-18 -56.5v-24z" />
    <glyph glyph-name="f" unicode="f" horiz-adv-x="363" 
d="M350 598q-17 4 -36 6t-34 2q-36 0 -45.5 -15t-9.5 -43v-61h124l-7 -97h-117v-390h-122v390h-78v97h78v68q0 76 37 113.5t118 37.5q55 0 105 -14z" />
    <glyph glyph-name="g" unicode="g" horiz-adv-x="489" 
d="M236 130h-14.5t-13.5 1q-12 -8 -20.5 -18t-8.5 -21q0 -18 27 -21q20 -2 36.5 -4t32.5 -3.5t33.5 -3.5t38.5 -4q59 -7 81.5 -36.5t22.5 -81.5q0 -39 -9 -66.5t-33 -45t-67 -25.5t-111 -8q-21 0 -45.5 1.5t-49 4.5t-48.5 8t-45 11l15 91q39 -10 80 -15.5t84 -5.5
q36 0 59 1.5t35.5 6t17 12t4.5 19.5q0 23 -9 29.5t-37 9.5q-21 2 -37 4t-31.5 3.5t-32.5 3.5t-40 5q-52 6 -74 26t-22 67q0 30 16.5 50t34.5 33q-66 40 -66 131v46q1 38 12 68t34 51t60 32t90 11q25 0 45 -2.5t38 -7.5h150v-61q-13 -4 -27 -7.5t-27 -7.5q17 -32 17 -76v-46
q0 -74 -47 -116.5t-149 -42.5zM318 331q0 35 -18 51.5t-64 16.5q-45 0 -63 -16.5t-18 -51.5v-37q0 -36 19 -51t62 -15q44 0 63 15.5t19 50.5v37z" />
    <glyph glyph-name="h" unicode="h" 
d="M358 0v340q0 20 -9 29.5t-30 9.5q-23 0 -58.5 -12t-68.5 -29v-338h-122v686l122 17v-253q41 21 90 34t88 13q61 0 85.5 -39t24.5 -105v-353h-122z" />
    <glyph glyph-name="i" unicode="i" horiz-adv-x="262" 
d="M70 0v487h122v-487h-122zM70 556v141h122v-141h-122z" />
    <glyph glyph-name="j" unicode="j" horiz-adv-x="255" 
d="M190 487v-513q0 -23 -5 -41.5t-19 -38.5t-39 -43.5t-64 -57.5l-71 78q26 24 41.5 39t23 26.5t9.5 23t2 30.5v497h122zM68 556v141h122v-141h-122z" />
    <glyph glyph-name="k" unicode="k" horiz-adv-x="508" 
d="M70 0v686l122 17v-703h-122zM484 487l-143 -241l149 -246h-134l-147 246l139 241h136z" />
    <glyph glyph-name="l" unicode="l" horiz-adv-x="262" 
d="M70 0v686l122 17v-703h-122z" />
    <glyph glyph-name="m" unicode="m" horiz-adv-x="833" 
d="M358 0v340q0 20 -9 29.5t-30 9.5q-23 0 -58.5 -12t-68.5 -29v-338h-122v487h93l12 -41q46 23 99 37t96 14q35 0 57.5 -13.5t34.5 -38.5q45 23 98 37.5t98 14.5q61 0 85.5 -39t24.5 -105v-353h-122v340q0 20 -9 29.5t-30 9.5q-11 0 -27 -3.5t-33.5 -9t-35 -13t-31.5 -15.5
v-338h-122z" />
    <glyph glyph-name="n" unicode="n" 
d="M358 0v340q0 20 -9 29.5t-30 9.5q-23 0 -58.5 -12t-68.5 -29v-338h-122v487h93l12 -41q46 23 99 37t96 14q61 0 85.5 -39t24.5 -105v-353h-122z" />
    <glyph glyph-name="o" unicode="o" horiz-adv-x="520" 
d="M472 182q0 -38 -9.5 -72.5t-33.5 -61t-65 -42.5t-104 -16t-104 16t-65 42.5t-33.5 61t-9.5 72.5v123q0 37 9.5 72t33.5 61.5t65 42.5t104 16t104 -16t65 -42.5t33.5 -61.5t9.5 -72v-123zM350 309q0 42 -20.5 63t-69.5 21t-69.5 -21t-20.5 -63v-131q0 -42 20.5 -63
t69.5 -21t69.5 21t20.5 63v131z" />
    <glyph glyph-name="p" unicode="p" horiz-adv-x="533" 
d="M483 162q0 -81 -38 -126.5t-123 -45.5q-32 0 -66.5 4t-63.5 10v-201l-122 -17v701h97l12 -41q32 23 70 37t84 14q74 0 112 -42.5t38 -126.5v-166zM192 107q24 -5 53 -9t55 -4q33 0 47 16t14 49v172q0 30 -13 46t-47 16q-30 0 -59.5 -13t-49.5 -31v-242z" />
    <glyph glyph-name="q" unicode="q" horiz-adv-x="528" 
d="M50 300q0 44 8.5 80.5t33 62.5t68 40t114.5 14q37 0 90 -4t99 -13v-677l-122 -17v233q-27 -11 -65.5 -20t-78.5 -9q-79 0 -113 44.5t-34 122.5v143zM341 389q-17 2 -35 3t-38 1q-30 0 -49 -6t-29.5 -17t-14 -28t-3.5 -38v-150q0 -29 14 -44.5t48 -15.5q26 0 55 8.5
t52 19.5v267z" />
    <glyph glyph-name="r" unicode="r" horiz-adv-x="333" 
d="M321 385q-35 -16 -65.5 -33t-63.5 -38v-314h-122v487h103l8 -54q10 7 25.5 16t32.5 18t35.5 17t34.5 13z" />
    <glyph glyph-name="s" unicode="s" horiz-adv-x="447" 
d="M397 142q0 -35 -7 -63.5t-26 -48t-53.5 -30t-89.5 -10.5q-20 0 -42 2t-44.5 6t-43.5 9t-38 11l17 93q31 -9 69 -15t76 -6q20 0 32.5 2.5t19 8t8.5 15t2 23.5q0 11 -2 20t-10.5 16.5t-25.5 14t-47 13.5q-45 11 -71 23t-40 29t-18 41.5t-4 59.5q0 37 9 63.5t30 43.5
t56 25.5t87 8.5q34 0 74 -4.5t72 -12.5l-12 -97q-28 5 -66.5 9.5t-67.5 4.5q-40 0 -51 -9.5t-11 -32.5q0 -15 1.5 -23.5t8 -14.5t20.5 -10.5t39 -10.5q51 -14 80.5 -25.5t45 -27.5t19.5 -40t4 -61z" />
    <glyph glyph-name="t" unicode="t" horiz-adv-x="355" 
d="M329 9q-10 -4 -23.5 -7.5t-28 -6t-29 -4t-26.5 -1.5q-134 0 -134 129v271h-73v97h73v121l122 17v-138h125l-8 -97h-117v-255q0 -20 10 -31.5t34 -11.5q14 0 29.5 2.5t31.5 7.5z" />
    <glyph glyph-name="u" unicode="u" 
d="M187 487v-340q0 -20 9 -29.5t30 -9.5q23 0 58.5 12t68.5 29v338h122v-487h-93l-12 41q-46 -23 -99 -37t-96 -14q-61 0 -85.5 39t-24.5 105v353h122z" />
    <glyph glyph-name="v" unicode="v" horiz-adv-x="483" 
d="M322 0h-161l-156 487h125l111 -370l112 370h125z" />
    <glyph glyph-name="w" unicode="w" horiz-adv-x="704" 
d="M108 0l-90 487h114l60 -326l97 326h127l96 -326l60 326h114l-90 -487h-141l-103 350l-103 -350h-141z" />
    <glyph glyph-name="x" unicode="x" horiz-adv-x="468" 
d="M12 0l157 245l-154 242h122l97 -148l96 148h122l-154 -242l158 -245h-125l-97 151l-98 -151h-124z" />
    <glyph glyph-name="y" unicode="y" horiz-adv-x="478" 
d="M322 0l-65 -197h-116l61 197h-43l-154 487h125l111 -370l112 370h125z" />
    <glyph glyph-name="z" unicode="z" horiz-adv-x="460" 
d="M58 487h355v-94l-217 -299h224v-94h-365v94l217 299h-214v94z" />
    <glyph glyph-name="braceleft" unicode="{" horiz-adv-x="340" 
d="M45 277v94h20q24 0 33 10.5t9 29.5v232q0 72 30 109.5t100 37.5h83v-98h-51q-20 0 -30 -9t-10 -32v-212q0 -23 -3.5 -43t-12.5 -35.5t-25 -25.5t-41 -11q25 -2 41 -11.5t25 -25t12.5 -35.5t3.5 -43v-212q0 -23 10 -32t30 -9h51v-98h-83q-70 0 -100 37.5t-30 109.5v232
q0 19 -9 29.5t-33 10.5h-20z" />
    <glyph glyph-name="bar" unicode="|" horiz-adv-x="255" 
d="M165 -210h-75v1000h75v-1000z" />
    <glyph glyph-name="braceright" unicode="}" horiz-adv-x="340" 
d="M275 277q-24 0 -33 -10.5t-9 -29.5v-232q0 -72 -30 -109.5t-100 -37.5h-83v98h51q20 0 30 9t10 32v212q0 23 3 43t12 35.5t25 25t42 11.5q-26 1 -42 11t-25 25.5t-12 35.5t-3 43v212q0 23 -10 32t-30 9h-51v98h83q70 0 100 -37.5t30 -109.5v-232q0 -19 9 -29.5t33 -10.5
h20v-94h-20z" />
    <glyph glyph-name="asciitilde" unicode="~" horiz-adv-x="482" 
d="M452 316q-8 -24 -19.5 -46.5t-27 -39.5t-37.5 -27t-51 -10q-23 0 -43.5 10.5t-39.5 22.5t-35 22.5t-30 10.5t-23.5 -5t-16 -14t-12.5 -21.5t-13 -26.5l-69 38q11 28 21.5 51t24 39t33 24.5t48.5 8.5q21 0 41 -10.5t39.5 -23t38.5 -23t36 -10.5q15 0 25.5 6.5t18 16
t13 21.5t9.5 24z" />
    <glyph glyph-name="uni00A0" unicode="&#xa0;" horiz-adv-x="210" 
 />
    <glyph glyph-name="exclamdown" unicode="&#xa1;" horiz-adv-x="284" 
d="M178 273l25 -173v-297h-122v297l25 173h72zM80 487h124v-140h-124v140z" />
    <glyph glyph-name="cent" unicode="&#xa2;" horiz-adv-x="439" 
d="M203 83q-81 11 -114.5 55t-33.5 129v133q0 83 34 127.5t114 55.5v93h84v-90q23 -2 49 -6t48 -11l-15 -100q-25 7 -54 10t-47 3q-53 0 -72 -18t-19 -63v-135q0 -45 19 -63t72 -18q23 0 49 3t52 10l15 -100q-20 -7 -45.5 -11.5t-51.5 -6.5v-90h-84v93z" />
    <glyph glyph-name="sterling" unicode="&#xa3;" horiz-adv-x="542" 
d="M60 374h81q-10 26 -19 56t-9 64q0 46 15 77t42.5 50t66 27t84.5 8q44 0 83.5 -5.5t82.5 -17.5l-15 -101q-16 4 -36 7t-41 5t-41 3.5t-37 1.5q-41 0 -61.5 -12.5t-20.5 -50.5q0 -29 9.5 -56.5t20.5 -55.5h188l-7 -97h-164q1 -6 1 -10.5v-8.5q0 -42 -14.5 -77.5
t-47.5 -73.5h256v-107h-407v107q40 26 65.5 66.5t25.5 85.5v18h-101v97z" />
    <glyph glyph-name="currency" unicode="&#xa4;" horiz-adv-x="563" 
d="M454 267q0 -33 -13 -58l67 -67l-73 -73l-75 75q-35 -11 -78 -11q-24 0 -43.5 3t-36.5 8l-74 -75l-73 73l67 67q-12 25 -12 58v136q0 32 12 58l-67 67l73 73l74 -75q17 5 36.5 8t43.5 3q43 0 78 -11l75 75l73 -73l-67 -67q13 -25 13 -58v-136zM349 388q0 33 -17 44t-50 11
q-34 0 -50.5 -11t-16.5 -44v-106q0 -33 16.5 -44t50.5 -11q33 0 50 11t17 44v106z" />
    <glyph glyph-name="yen" unicode="&#xa5;" horiz-adv-x="558" 
d="M55 364h83l-128 282h134l135 -316l135 316h134l-128 -282h83v-81h-120l-41 -90h161v-78h-161v-115h-126v115h-161v78h161l-41 90h-120v81z" />
    <glyph glyph-name="brokenbar" unicode="&#xa6;" horiz-adv-x="255" 
d="M165 373h-75v417h75v-417zM90 -210v417h75v-417h-75z" />
    <glyph glyph-name="section" unicode="&#xa7;" horiz-adv-x="548" 
d="M169 0q-22 66 -42.5 136t-36.5 140.5t-25.5 140.5t-9.5 135q0 58 33.5 91t111.5 33q43 0 87.5 -8t83.5 -20l-16 -82q-32 8 -72.5 15t-70.5 7q-28 0 -40 -10t-12 -36q0 -50 8.5 -110.5t22.5 -127t33 -136.5t40 -139zM384 489q22 -66 42.5 -136t36.5 -140.5t25.5 -140.5
t9.5 -135q0 -58 -33.5 -91t-111.5 -33q-43 0 -87.5 8t-83.5 20l16 82q32 -8 72.5 -15t70.5 -7q28 0 40 10t12 36q0 49 -8.5 110t-22.5 127.5t-33 136.5t-40 139z" />
    <glyph glyph-name="dieresis" unicode="&#xa8;" horiz-adv-x="410" 
d="M60 659h101v-105h-101v105zM249 659h101v-105h-101v105z" />
    <glyph glyph-name="copyright" unicode="&#xa9;" horiz-adv-x="796" 
d="M55 333q0 71 24.5 133.5t69.5 109t108 73.5t141 27t141 -27t108 -73.5t69.5 -109t24.5 -133.5t-24.5 -133.5t-69.5 -109t-108 -73.5t-141 -27t-141 27t-108 73.5t-69.5 109t-24.5 133.5zM140 333q0 -55 18 -103t52 -83.5t81.5 -56t106.5 -20.5t107 20.5t81.5 56
t51.5 83.5t18 103t-18 103t-51.5 83.5t-81.5 56t-107 20.5t-106.5 -20.5t-81.5 -56t-52 -83.5t-18 -103zM361 283q0 -26 10 -36t47 -10q39 0 81 11l11 -73q-23 -8 -49 -12t-52 -4q-75 0 -106.5 28t-31.5 88v116q0 60 31.5 88t106.5 28q26 0 52 -4t49 -12l-11 -73
q-42 11 -81 11q-37 0 -47 -10t-10 -36v-100z" />
    <glyph glyph-name="ordfeminine" unicode="&#xaa;" horiz-adv-x="385" 
d="M315 382h-63l-5 21q-21 -14 -45 -20.5t-47 -6.5q-42 0 -61 26t-19 66q0 47 21 66.5t69 19.5h73v32q0 26 -10.5 36t-47.5 10q-21 0 -43 -2.5t-42 -6.5l-10 58q22 7 51 11t55 4q72 0 98 -26.5t26 -84.5v-203zM238 498h-56q-20 0 -26.5 -6t-6.5 -24q0 -16 6.5 -23.5
t24.5 -7.5q17 0 32 5t26 11v45z" />
    <glyph glyph-name="guillemotleft" unicode="&#xab;" horiz-adv-x="504" 
d="M162 437l81 -51l-93 -142l93 -142l-81 -51l-127 193zM368 437l81 -51l-93 -142l93 -142l-81 -51l-127 193z" />
    <glyph glyph-name="logicalnot" unicode="&#xac;" horiz-adv-x="543" 
d="M60 343h408v-255h-100v159h-308v96z" />
    <glyph glyph-name="registered" unicode="&#xae;" horiz-adv-x="471" 
d="M55 515q0 38 12.5 71t36 57.5t56.5 38.5t75 14t75.5 -14t57 -38.5t36 -57.5t12.5 -71t-12.5 -71t-36 -57.5t-57 -39t-75.5 -14.5t-75 14.5t-56.5 39t-36 57.5t-12.5 71zM108 515q0 -27 7.5 -51t23.5 -42t40 -29t56 -11t56 11t40 29t24 42t8 51t-8 51t-24 42t-40 28.5
t-56 10.5t-56 -10.5t-40 -28.5t-23.5 -42t-7.5 -51zM237 490h-25v-54h-36v166h68q54 0 54 -47v-18q0 -29 -23 -40l43 -61h-42zM262 552q0 17 -20 17h-30v-46h30q12 0 16 4.5t4 12.5v12z" />
    <glyph glyph-name="macron" unicode="&#xaf;" horiz-adv-x="360" 
d="M55 638h250v-81h-250v81z" />
    <glyph glyph-name="degree" unicode="&#xb0;" horiz-adv-x="357" 
d="M307 529q0 -26 -9 -49t-25.5 -40t-40 -27t-53.5 -10t-54 10t-40.5 27t-25.5 40t-9 49t9 49t25.5 40.5t40.5 27.5t54 10t53.5 -10t40 -27.5t25.5 -40.5t9 -49zM240 529q0 29 -15 48.5t-46 19.5q-32 0 -47 -19.5t-15 -48.5q0 -27 15.5 -47t46.5 -20q30 0 45.5 20t15.5 47z
" />
    <glyph glyph-name="plusminus" unicode="&#xb1;" horiz-adv-x="558" 
d="M483 0h-408v92h408v-92zM75 401h154v155h100v-155h154v-96h-154v-155h-100v155h-154v96z" />
    <glyph glyph-name="twosuperior" unicode="&#xb2;" horiz-adv-x="400" 
d="M72 475q12 13 21.5 23t19.5 21.5t23 25t31 33.5q25 27 38 43t19 26.5t7 17t1 15.5v18q0 22 -9 30t-37 8q-21 0 -51.5 -4.5t-53.5 -10.5l-16 78q24 8 60 14t70 6q72 0 100 -27.5t28 -81.5v-17q0 -15 -1 -27.5t-5.5 -26t-14 -29.5t-27.5 -37q-15 -18 -25.5 -30t-19 -21.5
t-16 -18t-17.5 -19.5h133v-78h-258v69z" />
    <glyph glyph-name="threesuperior" unicode="&#xb3;" horiz-adv-x="396" 
d="M82 481q30 -5 57 -6.5t55 -1.5q29 0 36.5 9.5t7.5 26.5v31q0 20 -10 27.5t-30 7.5h-99v69h94q23 0 30.5 9.5t7.5 23.5v31q0 21 -10.5 29t-42.5 8q-21 0 -47.5 -2.5t-42.5 -4.5l-8 69q20 5 49 8.5t53 3.5q77 0 107 -26t30 -75v-30q0 -27 -8 -44t-37 -32q32 -11 42 -29
t10 -51v-26q0 -25 -6 -45t-21.5 -34t-42 -21.5t-67.5 -7.5q-29 0 -61.5 4t-52.5 10z" />
    <glyph glyph-name="acute" unicode="&#xb4;" horiz-adv-x="314" 
d="M60 607q35 22 71.5 46t74.5 52l48 -74q-42 -28 -76 -49t-74 -43z" />
    <glyph glyph-name="mu" unicode="&#xb5;" 
d="M65 487h122v-340q0 -20 9 -29.5t30 -9.5q23 0 58.5 12t68.5 29v338h122v-487h-93l-12 41q-43 -21 -92 -35t-91 -16v-187h-122v684z" />
    <glyph glyph-name="paragraph" unicode="&#xb6;" horiz-adv-x="526" 
d="M441 666v-677q0 -22 -4.5 -37.5t-20 -35t-45.5 -48t-81 -75.5l-59 67q41 39 64 61t34 35.5t13 23t2 21.5v665h97zM45 447q0 47 17 87t46.5 69.5t69.5 46t87 16.5v-437q-47 0 -87 16.5t-69.5 45.5t-46.5 69t-17 87z" />
    <glyph glyph-name="periodcentered" unicode="&#xb7;" horiz-adv-x="274" 
d="M75 396h124v-140h-124v140z" />
    <glyph glyph-name="cedilla" unicode="&#xb8;" horiz-adv-x="300" 
d="M245 -119q0 -36 -25.5 -58.5t-81.5 -22.5q-17 0 -41.5 4t-41.5 11l10 47q13 -4 31.5 -6.5t33.5 -2.5q30 0 39.5 7.5t9.5 21.5q0 13 -8.5 18.5t-29.5 5.5q-5 0 -14.5 -0.5t-16.5 -1.5l-29 14l21 97h57l-13 -68q6 1 13.5 1.5t14.5 0.5q36 1 53.5 -18.5t17.5 -49.5z" />
    <glyph glyph-name="onesuperior" unicode="&#xb9;" horiz-adv-x="347" 
d="M45 737l135 74h72v-405h-91v301l-83 -41z" />
    <glyph glyph-name="ordmasculine" unicode="&#xba;" horiz-adv-x="387" 
d="M327 497q0 -24 -6 -45.5t-21 -38.5t-41 -27t-66 -10q-39 0 -65 10t-41 27t-21 38.5t-6 45.5v78q0 24 6 45.5t21 38.5t41 27t65 10q40 0 66 -10t41 -27t21 -38.5t6 -45.5v-78zM250 577q0 26 -13 39.5t-44 13.5t-43.5 -13.5t-12.5 -39.5v-82q0 -26 12.5 -39.5t43.5 -13.5
t44 13.5t13 39.5v82z" />
    <glyph glyph-name="guillemotright" unicode="&#xbb;" horiz-adv-x="504" 
d="M469 244l-127 -193l-81 51l93 142l-93 142l81 51zM263 244l-127 -193l-81 51l93 142l-93 142l81 51z" />
    <glyph glyph-name="onequarter" unicode="&#xbc;" horiz-adv-x="858" 
d="M739 81v-81h-87v81h-183v66l146 258h124v-253h59v-71h-59zM652 152v176l-93 -176h93zM292 -40l-70 30l299 696l69 -30zM50 572l135 74h72v-405h-91v301l-83 -41z" />
    <glyph glyph-name="onehalf" unicode="&#xbd;" horiz-adv-x="884" 
d="M292 -40l-70 30l299 696l69 -30zM50 572l135 74h72v-405h-91v301l-83 -41zM546 69q12 13 21.5 23t19.5 21.5t23 25t31 33.5q25 27 38 43t19 26.5t7 17t1 15.5v18q0 22 -9 30t-37 8q-21 0 -51.5 -4.5t-53.5 -10.5l-16 78q24 8 60 14t70 6q72 0 100 -27.5t28 -81.5v-17
q0 -15 -1 -27.5t-5.5 -26t-14 -29.5t-27.5 -37q-15 -18 -25.5 -30t-19 -21.5t-16 -18t-17.5 -19.5h133v-78h-258v69z" />
    <glyph glyph-name="threequarters" unicode="&#xbe;" horiz-adv-x="891" 
d="M82 318q30 -5 57 -6.5t55 -1.5q29 0 36.5 9.5t7.5 26.5v31q0 20 -10 27.5t-30 7.5h-99v69h94q23 0 30.5 9.5t7.5 23.5v31q0 21 -10.5 29t-42.5 8q-21 0 -47.5 -2.5t-42.5 -4.5l-8 69q20 5 49 8.5t53 3.5q77 0 107 -26t30 -75v-30q0 -27 -8 -44t-37 -32q32 -11 42 -29
t10 -51v-26q0 -25 -6 -45t-21.5 -34t-42 -21.5t-67.5 -7.5q-29 0 -61.5 4t-52.5 10zM772 81v-81h-87v81h-183v66l146 258h124v-253h59v-71h-59zM685 152v176l-93 -176h93zM325 -40l-70 30l299 696l69 -30z" />
    <glyph glyph-name="questiondown" unicode="&#xbf;" horiz-adv-x="491" 
d="M331 178q-24 -19 -44.5 -35t-47.5 -38q-22 -18 -34.5 -30t-18.5 -24.5t-7.5 -27.5t-1.5 -37q0 -24 4 -40t15 -25.5t31.5 -14t52.5 -4.5t71 5t72 13l18 -105q-38 -10 -84 -16t-90 -6q-65 0 -106 11.5t-64.5 34.5t-32.5 58t-9 82q0 36 2 61.5t10 47.5t24 41.5t45 43.5
q16 13 30 24t28.5 22.5t30.5 23.5t37 28zM344 347h-124v140h124v-140z" />
    <glyph glyph-name="Agrave" unicode="&#xc0;" horiz-adv-x="646" 
d="M446 138h-247l-42 -138h-132l210 666h176l210 -666h-132zM230 247h184l-91 315zM336 709q-40 21 -71 39.5t-65 43.5l48 74q29 -23 63 -45t69 -44z" />
    <glyph glyph-name="Aacute" unicode="&#xc1;" horiz-adv-x="646" 
d="M446 138h-247l-42 -138h-132l210 666h176l210 -666h-132zM230 247h184l-91 315zM274 777q35 22 69 44t64 45l47 -74q-34 -25 -64.5 -43.5t-71.5 -39.5z" />
    <glyph glyph-name="Acircumflex" unicode="&#xc2;" horiz-adv-x="646" 
d="M446 138h-247l-42 -138h-132l210 666h176l210 -666h-132zM230 247h184l-91 315zM196 765q35 23 63.5 44t63.5 47q34 -26 62.5 -46.5t64.5 -44.5l-34 -56q-29 13 -48.5 23.5t-44.5 25.5q-25 -14 -44.5 -24.5t-47.5 -24.5z" />
    <glyph glyph-name="Atilde" unicode="&#xc3;" horiz-adv-x="646" 
d="M446 138h-247l-42 -138h-132l210 666h176l210 -666h-132zM230 247h184l-91 315zM316 739q-14 9 -24.5 15t-24.5 6q-17 0 -29 -13.5t-22 -27.5l-50 41q17 31 42 54.5t57 23.5q17 0 31 -4.5t32 -15.5t29.5 -16.5t22.5 -5.5q16 0 25 9t16 28l58 -30q-13 -39 -38.5 -61.5
t-60.5 -22.5q-20 0 -34 4.5t-30 15.5z" />
    <glyph glyph-name="Adieresis" unicode="&#xc4;" horiz-adv-x="646" 
d="M446 138h-247l-42 -138h-132l210 666h176l210 -666h-132zM230 247h184l-91 315zM176 823h102v-97h-102v97zM369 823h102v-97h-102v97z" />
    <glyph glyph-name="Aring" unicode="&#xc5;" horiz-adv-x="646" 
d="M446 138h-247l-42 -138h-132l210 666h176l210 -666h-132zM230 247h184l-91 315zM405 782q0 -32 -22 -55t-60 -23t-60 21.5t-22 56.5q0 33 22 56t60 23t60 -23t22 -56zM356 782q0 35 -33 35t-33 -35q0 -15 8.5 -24.5t24.5 -9.5t24.5 9.5t8.5 24.5z" />
    <glyph glyph-name="AE" unicode="&#xc6;" horiz-adv-x="862" 
d="M446 138h-247l-42 -138h-132l210 666h572v-111h-361l51 -161h288v-111h-253l54 -172h221v-111h-318zM230 247h184l-91 315z" />
    <glyph glyph-name="Ccedilla" unicode="&#xc7;" horiz-adv-x="523" 
d="M403 -119q0 -36 -25.5 -58.5t-81.5 -22.5q-17 0 -41.5 4t-41.5 11l10 47q13 -4 31.5 -6.5t33.5 -2.5q30 0 39.5 7.5t9.5 21.5q0 13 -8.5 18.5t-29.5 5.5q-5 0 -14.5 -0.5t-16.5 -1.5l-29 14l16 74q-102 8 -148.5 58t-46.5 133v300q0 92 56 142.5t181 50.5q47 0 93 -5.5
t88 -16.5l-14 -109q-41 8 -84.5 12.5t-78.5 4.5q-65 0 -90 -24t-25 -77v-256q0 -53 25 -77t90 -24q35 0 78.5 4.5t84.5 12.5l14 -109q-38 -10 -80.5 -15.5t-85.5 -6.5l-8 -43q6 1 13.5 1.5t14.5 0.5q36 1 53.5 -18.5t17.5 -49.5z" />
    <glyph glyph-name="Egrave" unicode="&#xc8;" horiz-adv-x="538" 
d="M75 666h408v-111h-282v-161h260v-111h-260v-172h282v-111h-408v666zM299 709q-40 21 -71 39.5t-65 43.5l48 74q29 -23 63 -45t69 -44z" />
    <glyph glyph-name="Eacute" unicode="&#xc9;" horiz-adv-x="538" 
d="M75 666h408v-111h-282v-161h260v-111h-260v-172h282v-111h-408v666zM214 777q35 22 69 44t64 45l47 -74q-34 -25 -64.5 -43.5t-71.5 -39.5z" />
    <glyph glyph-name="Ecircumflex" unicode="&#xca;" horiz-adv-x="538" 
d="M75 666h408v-111h-282v-161h260v-111h-260v-172h282v-111h-408v666zM158 765q35 23 63.5 44t63.5 47q34 -26 62.5 -46.5t64.5 -44.5l-34 -56q-29 13 -48.5 23.5t-44.5 25.5q-25 -14 -44.5 -24.5t-47.5 -24.5z" />
    <glyph glyph-name="Edieresis" unicode="&#xcb;" horiz-adv-x="538" 
d="M75 666h408v-111h-282v-161h260v-111h-260v-172h282v-111h-408v666zM125 823h102v-97h-102v97zM318 823h102v-97h-102v97z" />
    <glyph glyph-name="Igrave" unicode="&#xcc;" horiz-adv-x="286" 
d="M206 0h-126v666h126v-666zM150 709q-40 21 -71 39.5t-65 43.5l48 74q29 -23 63 -45t69 -44z" />
    <glyph glyph-name="Iacute" unicode="&#xcd;" horiz-adv-x="286" 
d="M206 0h-126v666h126v-666zM93 777q35 22 69 44t64 45l47 -74q-34 -25 -64.5 -43.5t-71.5 -39.5z" />
    <glyph glyph-name="Icircumflex" unicode="&#xce;" horiz-adv-x="286" 
d="M206 0h-126v666h126v-666zM17 765q35 23 63.5 44t63.5 47q34 -26 62.5 -46.5t64.5 -44.5l-34 -56q-29 13 -48.5 23.5t-44.5 25.5q-25 -14 -44.5 -24.5t-47.5 -24.5z" />
    <glyph glyph-name="Idieresis" unicode="&#xcf;" horiz-adv-x="286" 
d="M206 0h-126v666h126v-666zM-3 823h102v-97h-102v97zM190 823h102v-97h-102v97z" />
    <glyph glyph-name="Eth" unicode="&#xd0;" horiz-adv-x="638" 
d="M40 387h69v279h248q61 0 103.5 -14.5t68.5 -39t37.5 -57t11.5 -68.5v-308q0 -36 -11.5 -68t-37.5 -57t-68.5 -39.5t-103.5 -14.5h-248v286h-69v101zM235 387h102v-101h-102v-175h109q64 0 86 25t22 73v248q0 48 -22 73t-86 25h-109v-168z" />
    <glyph glyph-name="Ntilde" unicode="&#xd1;" horiz-adv-x="694" 
d="M198 505v-505h-123v666h168l253 -506v506h123v-666h-168zM339 739q-14 9 -24.5 15t-24.5 6q-17 0 -29 -13.5t-22 -27.5l-50 41q17 31 42 54.5t57 23.5q17 0 31 -4.5t32 -15.5t29.5 -16.5t22.5 -5.5q16 0 25 9t16 28l58 -30q-13 -39 -38.5 -61.5t-60.5 -22.5
q-20 0 -34 4.5t-30 15.5z" />
    <glyph glyph-name="Ograve" unicode="&#xd2;" horiz-adv-x="624" 
d="M564 195q0 -42 -13 -79t-42.5 -65t-78 -44.5t-118.5 -16.5q-71 0 -119 16.5t-77.5 44.5t-42.5 65t-13 79v276q0 42 13 79t42.5 65t77.5 44.5t119 16.5q70 0 118.5 -16.5t78 -44.5t42.5 -65t13 -79v-276zM186 202q0 -47 27.5 -74t98.5 -27q70 0 98 27t28 74v262
q0 47 -28 74t-98 27q-71 0 -98.5 -27t-27.5 -74v-262zM312 709q-40 21 -71 39.5t-65 43.5l48 74q29 -23 63 -45t69 -44z" />
    <glyph glyph-name="Oacute" unicode="&#xd3;" horiz-adv-x="624" 
d="M564 195q0 -42 -13 -79t-42.5 -65t-78 -44.5t-118.5 -16.5q-71 0 -119 16.5t-77.5 44.5t-42.5 65t-13 79v276q0 42 13 79t42.5 65t77.5 44.5t119 16.5q70 0 118.5 -16.5t78 -44.5t42.5 -65t13 -79v-276zM186 202q0 -47 27.5 -74t98.5 -27q70 0 98 27t28 74v262
q0 47 -28 74t-98 27q-71 0 -98.5 -27t-27.5 -74v-262zM250 777q35 22 69 44t64 45l47 -74q-34 -25 -64.5 -43.5t-71.5 -39.5z" />
    <glyph glyph-name="Ocircumflex" unicode="&#xd4;" horiz-adv-x="624" 
d="M564 195q0 -42 -13 -79t-42.5 -65t-78 -44.5t-118.5 -16.5q-71 0 -119 16.5t-77.5 44.5t-42.5 65t-13 79v276q0 42 13 79t42.5 65t77.5 44.5t119 16.5q70 0 118.5 -16.5t78 -44.5t42.5 -65t13 -79v-276zM186 202q0 -47 27.5 -74t98.5 -27q70 0 98 27t28 74v262
q0 47 -28 74t-98 27q-71 0 -98.5 -27t-27.5 -74v-262zM185 765q35 23 63.5 44t63.5 47q34 -26 62.5 -46.5t64.5 -44.5l-34 -56q-29 13 -48.5 23.5t-44.5 25.5q-25 -14 -44.5 -24.5t-47.5 -24.5z" />
    <glyph glyph-name="Otilde" unicode="&#xd5;" horiz-adv-x="624" 
d="M564 195q0 -42 -13 -79t-42.5 -65t-78 -44.5t-118.5 -16.5q-71 0 -119 16.5t-77.5 44.5t-42.5 65t-13 79v276q0 42 13 79t42.5 65t77.5 44.5t119 16.5q70 0 118.5 -16.5t78 -44.5t42.5 -65t13 -79v-276zM186 202q0 -47 27.5 -74t98.5 -27q70 0 98 27t28 74v262
q0 47 -28 74t-98 27q-71 0 -98.5 -27t-27.5 -74v-262zM300 739q-14 9 -24.5 15t-24.5 6q-17 0 -29 -13.5t-22 -27.5l-50 41q17 31 42 54.5t57 23.5q17 0 31 -4.5t32 -15.5t29.5 -16.5t22.5 -5.5q16 0 25 9t16 28l58 -30q-13 -39 -38.5 -61.5t-60.5 -22.5q-20 0 -34 4.5
t-30 15.5z" />
    <glyph glyph-name="Odieresis" unicode="&#xd6;" horiz-adv-x="624" 
d="M564 195q0 -42 -13 -79t-42.5 -65t-78 -44.5t-118.5 -16.5q-71 0 -119 16.5t-77.5 44.5t-42.5 65t-13 79v276q0 42 13 79t42.5 65t77.5 44.5t119 16.5q70 0 118.5 -16.5t78 -44.5t42.5 -65t13 -79v-276zM186 202q0 -47 27.5 -74t98.5 -27q70 0 98 27t28 74v262
q0 47 -28 74t-98 27q-71 0 -98.5 -27t-27.5 -74v-262zM164 823h102v-97h-102v97zM357 823h102v-97h-102v97z" />
    <glyph glyph-name="multiply" unicode="&#xd7;" horiz-adv-x="495" 
d="M435 356l-117 -116l117 -117l-71 -71l-117 117l-116 -117l-71 71l117 117l-117 116l71 71l116 -117l117 117z" />
    <glyph glyph-name="Oslash" unicode="&#xd8;" horiz-adv-x="624" 
d="M111 55q-27 28 -39 64t-12 76v276q0 42 13 79t42.5 65t77.5 44.5t119 16.5q48 0 85.5 -8t66.5 -22l48 80l52 -30l-51 -86q27 -28 39 -63.5t12 -75.5v-276q0 -42 -13 -79t-42.5 -65t-78 -44.5t-118.5 -16.5q-49 0 -86.5 8t-65.5 22l-48 -80l-52 30zM438 464v9.5t-1 9.5
l-216 -361q30 -21 91 -21q70 0 98 27t28 74v262zM186 202v-9.5t1 -9.5l216 361q-32 21 -91 21q-71 0 -98.5 -27t-27.5 -74v-262z" />
    <glyph glyph-name="Ugrave" unicode="&#xd9;" horiz-adv-x="632" 
d="M562 666v-473q0 -39 -12 -76t-40.5 -65t-76 -45t-117.5 -17t-117.5 17t-76 45t-40.5 65t-12 76v473h126v-463q0 -49 26.5 -75.5t93.5 -26.5t93.5 26.5t26.5 75.5v463h126zM330 709q-40 21 -71 39.5t-65 43.5l48 74q29 -23 63 -45t69 -44z" />
    <glyph glyph-name="Uacute" unicode="&#xda;" horiz-adv-x="632" 
d="M562 666v-473q0 -39 -12 -76t-40.5 -65t-76 -45t-117.5 -17t-117.5 17t-76 45t-40.5 65t-12 76v473h126v-463q0 -49 26.5 -75.5t93.5 -26.5t93.5 26.5t26.5 75.5v463h126zM246 777q35 22 69 44t64 45l47 -74q-34 -25 -64.5 -43.5t-71.5 -39.5z" />
    <glyph glyph-name="Ucircumflex" unicode="&#xdb;" horiz-adv-x="632" 
d="M562 666v-473q0 -39 -12 -76t-40.5 -65t-76 -45t-117.5 -17t-117.5 17t-76 45t-40.5 65t-12 76v473h126v-463q0 -49 26.5 -75.5t93.5 -26.5t93.5 26.5t26.5 75.5v463h126zM189 765q35 23 63.5 44t63.5 47q34 -26 62.5 -46.5t64.5 -44.5l-34 -56q-29 13 -48.5 23.5
t-44.5 25.5q-25 -14 -44.5 -24.5t-47.5 -24.5z" />
    <glyph glyph-name="Udieresis" unicode="&#xdc;" horiz-adv-x="632" 
d="M562 666v-473q0 -39 -12 -76t-40.5 -65t-76 -45t-117.5 -17t-117.5 17t-76 45t-40.5 65t-12 76v473h126v-463q0 -49 26.5 -75.5t93.5 -26.5t93.5 26.5t26.5 75.5v463h126zM169 823h102v-97h-102v97zM362 823h102v-97h-102v97z" />
    <glyph glyph-name="Yacute" unicode="&#xdd;" horiz-adv-x="566" 
d="M427 666h134l-215 -473v-193h-126v193l-215 473h134l144 -336zM221 777q35 22 69 44t64 45l47 -74q-34 -25 -64.5 -43.5t-71.5 -39.5z" />
    <glyph glyph-name="Thorn" unicode="&#xde;" horiz-adv-x="576" 
d="M75 666h126v-106h134q115 0 163 -46t48 -134v-91q0 -87 -50.5 -133t-166.5 -46h-128v-110h-126v666zM420 370q0 42 -20 60.5t-72 18.5h-127v-228h127q53 0 72.5 20t19.5 61v68z" />
    <glyph glyph-name="germandbls" unicode="&#xdf;" horiz-adv-x="612" 
d="M299 334q0 13 2 23.5t6 22t11 24.5t17 30q14 24 22 39.5t12 27t5 20t1 18.5q0 30 -22.5 47.5t-66.5 17.5q-45 0 -69.5 -20t-24.5 -68v-516h-122v521q0 92 56 138.5t158 46.5q106 0 159.5 -44.5t53.5 -120.5q0 -27 -7.5 -53.5t-31.5 -66.5q-12 -20 -19.5 -33t-11 -21.5
t-5 -14.5t-1.5 -12q0 -5 1.5 -11t8 -14.5t18.5 -20t33 -28.5q30 -26 48 -42t27.5 -30.5t12 -30t2.5 -39.5q0 -34 -7.5 -59t-25.5 -41.5t-48 -25t-75 -8.5q-23 0 -59.5 4.5t-64.5 13.5l14 93q9 -3 22.5 -5t27 -3.5t26.5 -2.5t21 -1q27 0 37 7.5t10 27.5q0 10 -1.5 16.5
t-8.5 14t-21.5 19t-39.5 31.5q-26 21 -41.5 36.5t-24 30t-11.5 29t-3 33.5z" />
    <glyph glyph-name="agrave" unicode="&#xe0;" horiz-adv-x="491" 
d="M431 0h-100l-9 33q-33 -22 -70.5 -32.5t-74.5 -10.5q-67 0 -97 41t-30 104q0 75 33.5 106t108.5 31h117v51q0 20 -3.5 34t-13.5 22.5t-28.5 12.5t-47.5 4q-33 0 -68 -4t-67 -11l-15 93q35 11 80.5 17t86.5 6q57 0 95.5 -10.5t61 -32t32 -54.5t9.5 -79v-321zM309 184h-90
q-30 0 -40.5 -10t-10.5 -38q0 -26 10 -37.5t39 -11.5q27 0 51 7.5t41 17.5v72zM280 539q-39 22 -73 43t-76 49l48 74q38 -28 74.5 -52t71.5 -46z" />
    <glyph glyph-name="aacute" unicode="&#xe1;" horiz-adv-x="491" 
d="M431 0h-100l-9 33q-33 -22 -70.5 -32.5t-74.5 -10.5q-67 0 -97 41t-30 104q0 75 33.5 106t108.5 31h117v51q0 20 -3.5 34t-13.5 22.5t-28.5 12.5t-47.5 4q-33 0 -68 -4t-67 -11l-15 93q35 11 80.5 17t86.5 6q57 0 95.5 -10.5t61 -32t32 -54.5t9.5 -79v-321zM309 184h-90
q-30 0 -40.5 -10t-10.5 -38q0 -26 10 -37.5t39 -11.5q27 0 51 7.5t41 17.5v72zM168 607q35 22 71.5 46t74.5 52l48 -74q-42 -28 -76 -49t-74 -43z" />
    <glyph glyph-name="acircumflex" unicode="&#xe2;" horiz-adv-x="491" 
d="M431 0h-100l-9 33q-33 -22 -70.5 -32.5t-74.5 -10.5q-67 0 -97 41t-30 104q0 75 33.5 106t108.5 31h117v51q0 20 -3.5 34t-13.5 22.5t-28.5 12.5t-47.5 4q-33 0 -68 -4t-67 -11l-15 93q35 11 80.5 17t86.5 6q57 0 95.5 -10.5t61 -32t32 -54.5t9.5 -79v-321zM309 184h-90
q-30 0 -40.5 -10t-10.5 -38q0 -26 10 -37.5t39 -11.5q27 0 51 7.5t41 17.5v72zM113 587q33 24 69 52t71 57q34 -28 69.5 -56t69.5 -53l-38 -54q-17 10 -30 18t-24.5 15.5t-22.5 15t-24 16.5q-13 -9 -24 -16.5t-22.5 -15t-25 -15.5t-29.5 -18z" />
    <glyph glyph-name="atilde" unicode="&#xe3;" horiz-adv-x="491" 
d="M431 0h-100l-9 33q-33 -22 -70.5 -32.5t-74.5 -10.5q-67 0 -97 41t-30 104q0 75 33.5 106t108.5 31h117v51q0 20 -3.5 34t-13.5 22.5t-28.5 12.5t-47.5 4q-33 0 -68 -4t-67 -11l-15 93q35 11 80.5 17t86.5 6q57 0 95.5 -10.5t61 -32t32 -54.5t9.5 -79v-321zM309 184h-90
q-30 0 -40.5 -10t-10.5 -38q0 -26 10 -37.5t39 -11.5q27 0 51 7.5t41 17.5v72zM242 567q-14 10 -24.5 15.5t-24.5 5.5q-17 0 -29 -13.5t-22 -26.5l-50 41q17 30 42 53.5t57 23.5q17 0 31 -4.5t32 -15.5t29.5 -16t22.5 -5q16 0 25 9t16 28l58 -30q-13 -39 -38.5 -61.5
t-60.5 -22.5q-20 0 -34 4.5t-30 14.5z" />
    <glyph glyph-name="adieresis" unicode="&#xe4;" horiz-adv-x="491" 
d="M431 0h-100l-9 33q-33 -22 -70.5 -32.5t-74.5 -10.5q-67 0 -97 41t-30 104q0 75 33.5 106t108.5 31h117v51q0 20 -3.5 34t-13.5 22.5t-28.5 12.5t-47.5 4q-33 0 -68 -4t-67 -11l-15 93q35 11 80.5 17t86.5 6q57 0 95.5 -10.5t61 -32t32 -54.5t9.5 -79v-321zM309 184h-90
q-30 0 -40.5 -10t-10.5 -38q0 -26 10 -37.5t39 -11.5q27 0 51 7.5t41 17.5v72zM108 659h101v-105h-101v105zM297 659h101v-105h-101v105z" />
    <glyph glyph-name="aring" unicode="&#xe5;" horiz-adv-x="491" 
d="M431 0h-100l-9 33q-33 -22 -70.5 -32.5t-74.5 -10.5q-67 0 -97 41t-30 104q0 75 33.5 106t108.5 31h117v51q0 20 -3.5 34t-13.5 22.5t-28.5 12.5t-47.5 4q-33 0 -68 -4t-67 -11l-15 93q35 11 80.5 17t86.5 6q57 0 95.5 -10.5t61 -32t32 -54.5t9.5 -79v-321zM309 184h-90
q-30 0 -40.5 -10t-10.5 -38q0 -26 10 -37.5t39 -11.5q27 0 51 7.5t41 17.5v72zM335 620q0 -35 -22.5 -60.5t-66.5 -25.5q-43 0 -66 24t-23 62q0 35 23 60t66 25q44 0 66.5 -25t22.5 -60zM282 620q0 17 -9.5 27.5t-26.5 10.5t-26.5 -10.5t-9.5 -27.5t9.5 -28t26.5 -11
t26.5 11t9.5 28z" />
    <glyph glyph-name="ae" unicode="&#xe6;" horiz-adv-x="742" 
d="M431 172q0 -45 19.5 -63.5t75.5 -18.5q35 0 72 5.5t77 17.5l19 -92q-42 -16 -88.5 -23.5t-90.5 -7.5q-57 0 -96 12.5t-64 36.5q-33 -21 -76 -35t-91 -14q-73 0 -105.5 41t-32.5 104q0 75 33.5 106t108.5 31h117v51q0 20 -3.5 34t-13.5 22.5t-28.5 12.5t-47.5 4
q-33 0 -68 -4t-67 -11l-15 93q35 11 80.5 17t86.5 6q51 0 83.5 -12.5t61.5 -32.5q25 18 56.5 31.5t76.5 13.5q58 0 95.5 -16t58.5 -43t29 -62.5t8 -74.5v-104h-271v-25zM431 295h155v24q0 35 -14.5 56.5t-59.5 21.5t-63 -21.5t-18 -56.5v-24zM217 87q30 0 55.5 8t42.5 18
q-6 28 -6 65v6h-90q-30 0 -40.5 -10t-10.5 -38q0 -26 10 -37.5t39 -11.5z" />
    <glyph glyph-name="ccedilla" unicode="&#xe7;" horiz-adv-x="419" 
d="M346 -119q0 -36 -25.5 -58.5t-81.5 -22.5q-17 0 -41.5 4t-41.5 11l10 47q13 -4 31.5 -6.5t33.5 -2.5q30 0 39.5 7.5t9.5 21.5q0 13 -8.5 18.5t-29.5 5.5q-5 0 -14.5 -0.5t-16.5 -1.5l-29 14l16 76q-81 10 -115.5 54t-34.5 129v133q0 49 11.5 84.5t36.5 58t65 33.5t97 11
q26 0 59 -4.5t60 -13.5l-15 -100q-25 7 -54 10t-47 3q-53 0 -72 -18t-19 -63v-135q0 -45 19 -63t72 -18q23 0 49 3t52 10l15 -100q-24 -8 -56.5 -13t-62.5 -5h-3l-8 -43q6 1 13.5 1.5t14.5 0.5q36 1 53.5 -18.5t17.5 -49.5z" />
    <glyph glyph-name="egrave" unicode="&#xe8;" horiz-adv-x="481" 
d="M170 172q0 -45 19.5 -63.5t75.5 -18.5q35 0 72 5.5t77 17.5l19 -92q-42 -16 -88.5 -23.5t-90.5 -7.5q-57 0 -96.5 13t-64 37t-35 59t-10.5 79v129q0 39 9.5 73.5t33 60.5t62 41t97.5 15q58 0 95.5 -16t58.5 -43t29 -62.5t8 -74.5v-104h-271v-25zM170 295h155v24
q0 35 -14.5 56.5t-59.5 21.5t-63 -21.5t-18 -56.5v-24zM269 539q-39 22 -73 43t-76 49l48 74q38 -28 74.5 -52t71.5 -46z" />
    <glyph glyph-name="eacute" unicode="&#xe9;" horiz-adv-x="481" 
d="M170 172q0 -45 19.5 -63.5t75.5 -18.5q35 0 72 5.5t77 17.5l19 -92q-42 -16 -88.5 -23.5t-90.5 -7.5q-57 0 -96.5 13t-64 37t-35 59t-10.5 79v129q0 39 9.5 73.5t33 60.5t62 41t97.5 15q58 0 95.5 -16t58.5 -43t29 -62.5t8 -74.5v-104h-271v-25zM170 295h155v24
q0 35 -14.5 56.5t-59.5 21.5t-63 -21.5t-18 -56.5v-24zM165 607q35 22 71.5 46t74.5 52l48 -74q-42 -28 -76 -49t-74 -43z" />
    <glyph glyph-name="ecircumflex" unicode="&#xea;" horiz-adv-x="481" 
d="M170 172q0 -45 19.5 -63.5t75.5 -18.5q35 0 72 5.5t77 17.5l19 -92q-42 -16 -88.5 -23.5t-90.5 -7.5q-57 0 -96.5 13t-64 37t-35 59t-10.5 79v129q0 39 9.5 73.5t33 60.5t62 41t97.5 15q58 0 95.5 -16t58.5 -43t29 -62.5t8 -74.5v-104h-271v-25zM170 295h155v24
q0 35 -14.5 56.5t-59.5 21.5t-63 -21.5t-18 -56.5v-24zM109 587q33 24 69 52t71 57q34 -28 69.5 -56t69.5 -53l-38 -54q-17 10 -30 18t-24.5 15.5t-22.5 15t-24 16.5q-13 -9 -24 -16.5t-22.5 -15t-25 -15.5t-29.5 -18z" />
    <glyph glyph-name="edieresis" unicode="&#xeb;" horiz-adv-x="481" 
d="M170 172q0 -45 19.5 -63.5t75.5 -18.5q35 0 72 5.5t77 17.5l19 -92q-42 -16 -88.5 -23.5t-90.5 -7.5q-57 0 -96.5 13t-64 37t-35 59t-10.5 79v129q0 39 9.5 73.5t33 60.5t62 41t97.5 15q58 0 95.5 -16t58.5 -43t29 -62.5t8 -74.5v-104h-271v-25zM170 295h155v24
q0 35 -14.5 56.5t-59.5 21.5t-63 -21.5t-18 -56.5v-24zM106 659h101v-105h-101v105zM295 659h101v-105h-101v105z" />
    <glyph glyph-name="igrave" unicode="&#xec;" horiz-adv-x="262" 
d="M70 0v487h122v-487h-122zM138 539q-39 22 -73 43t-76 49l48 74q38 -28 74.5 -52t71.5 -46z" />
    <glyph glyph-name="iacute" unicode="&#xed;" horiz-adv-x="262" 
d="M70 0v487h122v-487h-122zM83 607q35 22 71.5 46t74.5 52l48 -74q-42 -28 -76 -49t-74 -43z" />
    <glyph glyph-name="icircumflex" unicode="&#xee;" horiz-adv-x="262" 
d="M70 0v487h122v-487h-122zM-7 587q33 24 69 52t71 57q34 -28 69.5 -56t69.5 -53l-38 -54q-17 10 -30 18t-24.5 15.5t-22.5 15t-24 16.5q-13 -9 -24 -16.5t-22.5 -15t-25 -15.5t-29.5 -18z" />
    <glyph glyph-name="idieresis" unicode="&#xef;" horiz-adv-x="262" 
d="M70 0v487h122v-487h-122zM-13 659h101v-105h-101v105zM176 659h101v-105h-101v105z" />
    <glyph glyph-name="eth" unicode="&#xf0;" horiz-adv-x="504" 
d="M209 553q-24 11 -52.5 19.5t-58.5 16.5l21 96q51 -8 92 -21.5t82 -36.5l58 45l38 -43l-46 -36q25 -21 43.5 -43t31.5 -49.5t19.5 -62.5t6.5 -82v-189q0 -38 -8.5 -70t-30 -56t-59.5 -37.5t-98 -13.5t-98.5 12t-60.5 34t-30.5 52.5t-8.5 68.5v70q0 45 8 79.5t27.5 57.5
t51 34.5t78.5 11.5q26 0 51.5 -5t54.5 -16q-1 48 -15.5 78t-43.5 53l-82 -64l-38 44zM246 94q23 0 37.5 3.5t23 12.5t12 24.5t3.5 39.5v109q-22 12 -44.5 17.5t-44.5 5.5q-32 0 -47.5 -14.5t-15.5 -49.5v-76q0 -21 3 -34.5t11.5 -22t23.5 -12t38 -3.5z" />
    <glyph glyph-name="ntilde" unicode="&#xf1;" 
d="M358 0v340q0 20 -9 29.5t-30 9.5q-23 0 -58.5 -12t-68.5 -29v-338h-122v487h93l12 -41q46 23 99 37t96 14q61 0 85.5 -39t24.5 -105v-353h-122zM267 567q-14 10 -24.5 15.5t-24.5 5.5q-17 0 -29 -13.5t-22 -26.5l-50 41q17 30 42 53.5t57 23.5q17 0 31 -4.5t32 -15.5
t29.5 -16t22.5 -5q16 0 25 9t16 28l58 -30q-13 -39 -38.5 -61.5t-60.5 -22.5q-20 0 -34 4.5t-30 14.5z" />
    <glyph glyph-name="ograve" unicode="&#xf2;" horiz-adv-x="520" 
d="M472 182q0 -38 -9.5 -72.5t-33.5 -61t-65 -42.5t-104 -16t-104 16t-65 42.5t-33.5 61t-9.5 72.5v123q0 37 9.5 72t33.5 61.5t65 42.5t104 16t104 -16t65 -42.5t33.5 -61.5t9.5 -72v-123zM350 309q0 42 -20.5 63t-69.5 21t-69.5 -21t-20.5 -63v-131q0 -42 20.5 -63
t69.5 -21t69.5 21t20.5 63v131zM276 539q-39 22 -73 43t-76 49l48 74q38 -28 74.5 -52t71.5 -46z" />
    <glyph glyph-name="oacute" unicode="&#xf3;" horiz-adv-x="520" 
d="M472 182q0 -38 -9.5 -72.5t-33.5 -61t-65 -42.5t-104 -16t-104 16t-65 42.5t-33.5 61t-9.5 72.5v123q0 37 9.5 72t33.5 61.5t65 42.5t104 16t104 -16t65 -42.5t33.5 -61.5t9.5 -72v-123zM350 309q0 42 -20.5 63t-69.5 21t-69.5 -21t-20.5 -63v-131q0 -42 20.5 -63
t69.5 -21t69.5 21t20.5 63v131zM191 607q35 22 71.5 46t74.5 52l48 -74q-42 -28 -76 -49t-74 -43z" />
    <glyph glyph-name="ocircumflex" unicode="&#xf4;" horiz-adv-x="520" 
d="M472 182q0 -38 -9.5 -72.5t-33.5 -61t-65 -42.5t-104 -16t-104 16t-65 42.5t-33.5 61t-9.5 72.5v123q0 37 9.5 72t33.5 61.5t65 42.5t104 16t104 -16t65 -42.5t33.5 -61.5t9.5 -72v-123zM350 309q0 42 -20.5 63t-69.5 21t-69.5 -21t-20.5 -63v-131q0 -42 20.5 -63
t69.5 -21t69.5 21t20.5 63v131zM121 587q33 24 69 52t71 57q34 -28 69.5 -56t69.5 -53l-38 -54q-17 10 -30 18t-24.5 15.5t-22.5 15t-24 16.5q-13 -9 -24 -16.5t-22.5 -15t-25 -15.5t-29.5 -18z" />
    <glyph glyph-name="otilde" unicode="&#xf5;" horiz-adv-x="520" 
d="M472 182q0 -38 -9.5 -72.5t-33.5 -61t-65 -42.5t-104 -16t-104 16t-65 42.5t-33.5 61t-9.5 72.5v123q0 37 9.5 72t33.5 61.5t65 42.5t104 16t104 -16t65 -42.5t33.5 -61.5t9.5 -72v-123zM350 309q0 42 -20.5 63t-69.5 21t-69.5 -21t-20.5 -63v-131q0 -42 20.5 -63
t69.5 -21t69.5 21t20.5 63v131zM255 567q-14 10 -24.5 15.5t-24.5 5.5q-17 0 -29 -13.5t-22 -26.5l-50 41q17 30 42 53.5t57 23.5q17 0 31 -4.5t32 -15.5t29.5 -16t22.5 -5q16 0 25 9t16 28l58 -30q-13 -39 -38.5 -61.5t-60.5 -22.5q-20 0 -34 4.5t-30 14.5z" />
    <glyph glyph-name="odieresis" unicode="&#xf6;" horiz-adv-x="520" 
d="M472 182q0 -38 -9.5 -72.5t-33.5 -61t-65 -42.5t-104 -16t-104 16t-65 42.5t-33.5 61t-9.5 72.5v123q0 37 9.5 72t33.5 61.5t65 42.5t104 16t104 -16t65 -42.5t33.5 -61.5t9.5 -72v-123zM350 309q0 42 -20.5 63t-69.5 21t-69.5 -21t-20.5 -63v-131q0 -42 20.5 -63
t69.5 -21t69.5 21t20.5 63v131zM115 659h101v-105h-101v105zM304 659h101v-105h-101v105z" />
    <glyph glyph-name="divide" unicode="&#xf7;" horiz-adv-x="542" 
d="M477 203h-412v82h412v-82zM213 132h116v-121h-116v121zM213 476h116v-121h-116v121z" />
    <glyph glyph-name="oslash" unicode="&#xf8;" horiz-adv-x="520" 
d="M94 45q-26 27 -36 62.5t-10 74.5v123q0 37 9.5 72t33.5 61.5t65 42.5t104 16q40 0 70.5 -6.5t53.5 -18.5l44 64l43 -28l-46 -67q26 -27 36.5 -62.5t10.5 -73.5v-123q0 -38 -9.5 -72.5t-33.5 -61t-65 -42.5t-104 -16q-77 0 -125 25l-44 -65l-43 28zM350 309v10t-1 10
l-150 -221q22 -14 61 -14q49 0 69.5 21t20.5 63v131zM170 178v-10t1 -10l150 220q-21 15 -61 15q-49 0 -69.5 -21t-20.5 -63v-131z" />
    <glyph glyph-name="ugrave" unicode="&#xf9;" 
d="M187 487v-340q0 -20 9 -29.5t30 -9.5q23 0 58.5 12t68.5 29v338h122v-487h-93l-12 41q-46 -23 -99 -37t-96 -14q-61 0 -85.5 39t-24.5 105v353h122zM289 539q-39 22 -73 43t-76 49l48 74q38 -28 74.5 -52t71.5 -46z" />
    <glyph glyph-name="uacute" unicode="&#xfa;" 
d="M187 487v-340q0 -20 9 -29.5t30 -9.5q23 0 58.5 12t68.5 29v338h122v-487h-93l-12 41q-46 -23 -99 -37t-96 -14q-61 0 -85.5 39t-24.5 105v353h122zM204 607q35 22 71.5 46t74.5 52l48 -74q-42 -28 -76 -49t-74 -43z" />
    <glyph glyph-name="ucircumflex" unicode="&#xfb;" 
d="M187 487v-340q0 -20 9 -29.5t30 -9.5q23 0 58.5 12t68.5 29v338h122v-487h-93l-12 41q-46 -23 -99 -37t-96 -14q-61 0 -85.5 39t-24.5 105v353h122zM134 587q33 24 69 52t71 57q34 -28 69.5 -56t69.5 -53l-38 -54q-17 10 -30 18t-24.5 15.5t-22.5 15t-24 16.5
q-13 -9 -24 -16.5t-22.5 -15t-25 -15.5t-29.5 -18z" />
    <glyph glyph-name="udieresis" unicode="&#xfc;" 
d="M187 487v-340q0 -20 9 -29.5t30 -9.5q23 0 58.5 12t68.5 29v338h122v-487h-93l-12 41q-46 -23 -99 -37t-96 -14q-61 0 -85.5 39t-24.5 105v353h122zM131 659h101v-105h-101v105zM320 659h101v-105h-101v105z" />
    <glyph glyph-name="yacute" unicode="&#xfd;" horiz-adv-x="478" 
d="M322 0l-65 -197h-116l61 197h-43l-154 487h125l111 -370l112 370h125zM185 607q35 22 71.5 46t74.5 52l48 -74q-42 -28 -76 -49t-74 -43z" />
    <glyph glyph-name="thorn" unicode="&#xfe;" horiz-adv-x="533" 
d="M483 162q0 -81 -38 -126.5t-123 -45.5q-32 0 -66.5 4t-63.5 10v-201l-122 -17v900l122 17v-246q32 22 66.5 31t74.5 9q74 0 112 -42.5t38 -126.5v-166zM192 107q24 -5 53 -9t55 -4q33 0 47 16t14 49v172q0 30 -13 46t-47 16q-30 0 -59.5 -13.5t-49.5 -30.5v-242z" />
    <glyph glyph-name="ydieresis" unicode="&#xff;" horiz-adv-x="478" 
d="M322 0l-65 -197h-116l61 197h-43l-154 487h125l111 -370l112 370h125zM92 659h101v-105h-101v105zM281 659h101v-105h-101v105z" />
    <glyph glyph-name="Amacron" unicode="&#x100;" horiz-adv-x="646" 
d="M446 138h-247l-42 -138h-132l210 666h176l210 -666h-132zM230 247h184l-91 315zM198 813h250v-81h-250v81z" />
    <glyph glyph-name="amacron" unicode="&#x101;" horiz-adv-x="491" 
d="M431 0h-100l-9 33q-33 -22 -70.5 -32.5t-74.5 -10.5q-67 0 -97 41t-30 104q0 75 33.5 106t108.5 31h117v51q0 20 -3.5 34t-13.5 22.5t-28.5 12.5t-47.5 4q-33 0 -68 -4t-67 -11l-15 93q35 11 80.5 17t86.5 6q57 0 95.5 -10.5t61 -32t32 -54.5t9.5 -79v-321zM309 184h-90
q-30 0 -40.5 -10t-10.5 -38q0 -26 10 -37.5t39 -11.5q27 0 51 7.5t41 17.5v72zM127 638h250v-81h-250v81z" />
    <glyph glyph-name="Abreve" unicode="&#x102;" horiz-adv-x="646" 
d="M446 138h-247l-42 -138h-132l210 666h176l210 -666h-132zM230 247h184l-91 315zM461 814q-11 -40 -45 -69.5t-93 -29.5t-93 29.5t-45 69.5l59 32q10 -29 29.5 -46t49.5 -17t49.5 17t30.5 46z" />
    <glyph glyph-name="abreve" unicode="&#x103;" horiz-adv-x="491" 
d="M431 0h-100l-9 33q-33 -22 -70.5 -32.5t-74.5 -10.5q-67 0 -97 41t-30 104q0 75 33.5 106t108.5 31h117v51q0 20 -3.5 34t-13.5 22.5t-28.5 12.5t-47.5 4q-33 0 -68 -4t-67 -11l-15 93q35 11 80.5 17t86.5 6q57 0 95.5 -10.5t61 -32t32 -54.5t9.5 -79v-321zM309 184h-90
q-30 0 -40.5 -10t-10.5 -38q0 -26 10 -37.5t39 -11.5q27 0 51 7.5t41 17.5v72zM400 646q-5 -21 -16.5 -40.5t-30 -35t-43.5 -25t-57 -9.5t-57 9.5t-43.5 25t-30 35t-15.5 40.5l59 31q10 -28 31.5 -48t55.5 -20q35 0 56 20t32 48z" />
    <glyph glyph-name="Aogonek" unicode="&#x104;" horiz-adv-x="646" 
d="M446 138h-247l-42 -138h-132l210 666h176l210 -666h-32q-48 -37 -68 -60.5t-20 -46.5q0 -14 8 -23t29 -9q18 0 31 4l14 -58q-16 -7 -31.5 -10.5t-37.5 -3.5q-48 0 -73.5 21t-25.5 59q0 43 35 72.5t87 54.5h-48zM230 247h184l-91 315z" />
    <glyph glyph-name="aogonek" unicode="&#x105;" horiz-adv-x="491" 
d="M431 0q-48 -37 -68 -60.5t-20 -46.5q0 -14 8 -23t29 -9q18 0 31 4l14 -58q-16 -7 -31.5 -10.5t-37.5 -3.5q-48 0 -73.5 21t-25.5 59q0 23 12 42.5t31.5 35.5t42.5 28.5t46 20.5h-58l-9 33q-33 -22 -70.5 -32.5t-74.5 -10.5q-67 0 -97 41t-30 104q0 75 33.5 106t108.5 31
h117v51q0 20 -3.5 34t-13.5 22.5t-28.5 12.5t-47.5 4q-33 0 -68 -4t-67 -11l-15 93q35 11 80.5 17t86.5 6q57 0 95.5 -10.5t61 -32t32 -54.5t9.5 -79v-321zM309 184h-90q-30 0 -40.5 -10t-10.5 -38q0 -26 10 -37.5t39 -11.5q27 0 51 7.5t41 17.5v72z" />
    <glyph glyph-name="Cacute" unicode="&#x106;" horiz-adv-x="523" 
d="M60 483q0 92 56 142.5t181 50.5q47 0 93 -5.5t88 -16.5l-14 -109q-41 8 -84.5 12.5t-78.5 4.5q-65 0 -90 -24t-25 -77v-256q0 -53 25 -77t90 -24q35 0 78.5 4.5t84.5 12.5l14 -109q-42 -11 -88 -16.5t-93 -5.5q-125 0 -181 50.5t-56 142.5v300zM210 777q35 22 69 44
t64 45l47 -74q-34 -25 -64.5 -43.5t-71.5 -39.5z" />
    <glyph glyph-name="cacute" unicode="&#x107;" horiz-adv-x="419" 
d="M258 -10q-57 0 -97 11t-65 33.5t-36.5 58t-11.5 84.5v133q0 49 11.5 84.5t36.5 58t65 33.5t97 11q26 0 59 -4.5t60 -13.5l-15 -100q-25 7 -54 10t-47 3q-53 0 -72 -18t-19 -63v-135q0 -45 19 -63t72 -18q23 0 49 3t52 10l15 -100q-24 -8 -56.5 -13t-62.5 -5zM146 607
q35 22 71.5 46t74.5 52l48 -74q-42 -28 -76 -49t-74 -43z" />
    <glyph glyph-name="Ccircumflex" unicode="&#x108;" horiz-adv-x="523" 
d="M60 483q0 92 56 142.5t181 50.5q47 0 93 -5.5t88 -16.5l-14 -109q-41 8 -84.5 12.5t-78.5 4.5q-65 0 -90 -24t-25 -77v-256q0 -53 25 -77t90 -24q35 0 78.5 4.5t84.5 12.5l14 -109q-42 -11 -88 -16.5t-93 -5.5q-125 0 -181 50.5t-56 142.5v300zM178 765q35 23 63.5 44
t63.5 47q34 -26 62.5 -46.5t64.5 -44.5l-34 -56q-29 13 -48.5 23.5t-44.5 25.5q-25 -14 -44.5 -24.5t-47.5 -24.5z" />
    <glyph glyph-name="ccircumflex" unicode="&#x109;" horiz-adv-x="419" 
d="M258 -10q-57 0 -97 11t-65 33.5t-36.5 58t-11.5 84.5v133q0 49 11.5 84.5t36.5 58t65 33.5t97 11q26 0 59 -4.5t60 -13.5l-15 -100q-25 7 -54 10t-47 3q-53 0 -72 -18t-19 -63v-135q0 -45 19 -63t72 -18q23 0 49 3t52 10l15 -100q-24 -8 -56.5 -13t-62.5 -5zM96 587
q33 24 69 52t71 57q34 -28 69.5 -56t69.5 -53l-38 -54q-17 10 -30 18t-24.5 15.5t-22.5 15t-24 16.5q-13 -9 -24 -16.5t-22.5 -15t-25 -15.5t-29.5 -18z" />
    <glyph glyph-name="Cdotaccent" unicode="&#x10a;" horiz-adv-x="523" 
d="M60 483q0 92 56 142.5t181 50.5q47 0 93 -5.5t88 -16.5l-14 -109q-41 8 -84.5 12.5t-78.5 4.5q-65 0 -90 -24t-25 -77v-256q0 -53 25 -77t90 -24q35 0 78.5 4.5t84.5 12.5l14 -109q-42 -11 -88 -16.5t-93 -5.5q-125 0 -181 50.5t-56 142.5v300zM238 720v141h122v-141
h-122z" />
    <glyph glyph-name="cdotaccent" unicode="&#x10b;" horiz-adv-x="419" 
d="M258 -10q-57 0 -97 11t-65 33.5t-36.5 58t-11.5 84.5v133q0 49 11.5 84.5t36.5 58t65 33.5t97 11q26 0 59 -4.5t60 -13.5l-15 -100q-25 7 -54 10t-47 3q-53 0 -72 -18t-19 -63v-135q0 -45 19 -63t72 -18q23 0 49 3t52 10l15 -100q-24 -8 -56.5 -13t-62.5 -5zM178 556v141
h122v-141h-122z" />
    <glyph glyph-name="Ccaron" unicode="&#x10c;" horiz-adv-x="523" 
d="M60 483q0 92 56 142.5t181 50.5q47 0 93 -5.5t88 -16.5l-14 -109q-41 8 -84.5 12.5t-78.5 4.5q-65 0 -90 -24t-25 -77v-256q0 -53 25 -77t90 -24q35 0 78.5 4.5t84.5 12.5l14 -109q-42 -11 -88 -16.5t-93 -5.5q-125 0 -181 50.5t-56 142.5v300zM213 856
q28 -14 47.5 -24.5t44.5 -24.5q25 15 44.5 25t48.5 24l34 -56q-36 -24 -64.5 -44.5t-62.5 -46.5q-35 26 -63.5 47t-63.5 44z" />
    <glyph glyph-name="ccaron" unicode="&#x10d;" horiz-adv-x="419" 
d="M258 -10q-57 0 -97 11t-65 33.5t-36.5 58t-11.5 84.5v133q0 49 11.5 84.5t36.5 58t65 33.5t97 11q26 0 59 -4.5t60 -13.5l-15 -100q-25 7 -54 10t-47 3q-53 0 -72 -18t-19 -63v-135q0 -45 19 -63t72 -18q23 0 49 3t52 10l15 -100q-24 -8 -56.5 -13t-62.5 -5zM143 691
q16 -10 29.5 -18t25 -15.5t22.5 -15t24 -16.5q13 9 24 16.5t22.5 15t24.5 15.5t30 18l38 -54q-34 -25 -69.5 -53t-69.5 -56q-35 29 -71 57t-69 52z" />
    <glyph glyph-name="Dcaron" unicode="&#x10e;" horiz-adv-x="604" 
d="M323 666q61 0 103.5 -14.5t68.5 -39t37.5 -57t11.5 -68.5v-308q0 -36 -11.5 -68t-37.5 -57t-68.5 -39.5t-103.5 -14.5h-248v666h248zM201 111h109q64 0 86 25t22 73v248q0 48 -22 73t-86 25h-109v-444zM202 856q28 -14 47.5 -24.5t44.5 -24.5q25 15 44.5 25t48.5 24
l34 -56q-36 -24 -64.5 -44.5t-62.5 -46.5q-35 26 -63.5 47t-63.5 44z" />
    <glyph glyph-name="dcaron" unicode="&#x10f;" horiz-adv-x="650" 
d="M553 686h97v-118l-61 -102l-43 26l43 83h-36v111zM50 325q0 81 38 126.5t123 45.5q32 0 66.5 -4t63.5 -10v203l122 17v-703h-97l-12 41q-32 -23 -70 -37t-84 -14q-74 0 -112 42.5t-38 126.5v166zM341 380q-24 5 -53 9t-55 4q-33 0 -47 -16t-14 -49v-172q0 -30 13 -46
t47 -16q30 0 59.5 13t49.5 31v242z" />
    <glyph glyph-name="Dcroat" unicode="&#x110;" horiz-adv-x="638" 
d="M40 387h69v279h248q61 0 103.5 -14.5t68.5 -39t37.5 -57t11.5 -68.5v-308q0 -36 -11.5 -68t-37.5 -57t-68.5 -39.5t-103.5 -14.5h-248v286h-69v101zM235 387h102v-101h-102v-175h109q64 0 86 25t22 73v248q0 48 -22 73t-86 25h-109v-168z" />
    <glyph glyph-name="dcroat" unicode="&#x111;" horiz-adv-x="532" 
d="M253 611h88v75l122 17v-92h59v-65h-59v-546h-97l-12 41q-32 -23 -70 -37t-84 -14q-74 0 -112 42.5t-38 126.5v166q0 81 38 126.5t123 45.5q32 0 66.5 -4t63.5 -10v63h-88v65zM341 380q-24 5 -53 9t-55 4q-33 0 -47 -16t-14 -49v-172q0 -30 13 -46t47 -16q30 0 59.5 13
t49.5 31v242z" />
    <glyph glyph-name="Emacron" unicode="&#x112;" horiz-adv-x="538" 
d="M75 666h408v-111h-282v-161h260v-111h-260v-172h282v-111h-408v666zM160 813h250v-81h-250v81z" />
    <glyph glyph-name="emacron" unicode="&#x113;" horiz-adv-x="481" 
d="M170 172q0 -45 19.5 -63.5t75.5 -18.5q35 0 72 5.5t77 17.5l19 -92q-42 -16 -88.5 -23.5t-90.5 -7.5q-57 0 -96.5 13t-64 37t-35 59t-10.5 79v129q0 39 9.5 73.5t33 60.5t62 41t97.5 15q58 0 95.5 -16t58.5 -43t29 -62.5t8 -74.5v-104h-271v-25zM170 295h155v24
q0 35 -14.5 56.5t-59.5 21.5t-63 -21.5t-18 -56.5v-24zM123 638h250v-81h-250v81z" />
    <glyph glyph-name="Ebreve" unicode="&#x114;" horiz-adv-x="538" 
d="M75 666h408v-111h-282v-161h260v-111h-260v-172h282v-111h-408v666zM430 814q-11 -40 -45 -69.5t-93 -29.5t-93 29.5t-45 69.5l59 32q10 -29 29.5 -46t49.5 -17t49.5 17t30.5 46z" />
    <glyph glyph-name="ebreve" unicode="&#x115;" horiz-adv-x="481" 
d="M170 172q0 -45 19.5 -63.5t75.5 -18.5q35 0 72 5.5t77 17.5l19 -92q-42 -16 -88.5 -23.5t-90.5 -7.5q-57 0 -96.5 13t-64 37t-35 59t-10.5 79v129q0 39 9.5 73.5t33 60.5t62 41t97.5 15q58 0 95.5 -16t58.5 -43t29 -62.5t8 -74.5v-104h-271v-25zM170 295h155v24
q0 35 -14.5 56.5t-59.5 21.5t-63 -21.5t-18 -56.5v-24zM394 646q-5 -21 -16.5 -40.5t-30 -35t-43.5 -25t-57 -9.5t-57 9.5t-43.5 25t-30 35t-15.5 40.5l59 31q10 -28 31.5 -48t55.5 -20q35 0 56 20t32 48z" />
    <glyph glyph-name="Edotaccent" unicode="&#x116;" horiz-adv-x="538" 
d="M75 666h408v-111h-282v-161h260v-111h-260v-172h282v-111h-408v666zM228 720v141h122v-141h-122z" />
    <glyph glyph-name="edotaccent" unicode="&#x117;" horiz-adv-x="481" 
d="M170 172q0 -45 19.5 -63.5t75.5 -18.5q35 0 72 5.5t77 17.5l19 -92q-42 -16 -88.5 -23.5t-90.5 -7.5q-57 0 -96.5 13t-64 37t-35 59t-10.5 79v129q0 39 9.5 73.5t33 60.5t62 41t97.5 15q58 0 95.5 -16t58.5 -43t29 -62.5t8 -74.5v-104h-271v-25zM170 295h155v24
q0 35 -14.5 56.5t-59.5 21.5t-63 -21.5t-18 -56.5v-24zM187 556v141h122v-141h-122z" />
    <glyph glyph-name="Eogonek" unicode="&#x118;" horiz-adv-x="538" 
d="M75 666h408v-111h-282v-161h260v-111h-260v-172h282v-111h-41q-48 -37 -68 -60.5t-20 -46.5q0 -14 8 -23t29 -9q18 0 31 4l14 -58q-16 -7 -31.5 -10.5t-37.5 -3.5q-48 0 -73.5 21t-25.5 59q0 43 35 72.5t87 54.5h-315v666z" />
    <glyph glyph-name="eogonek" unicode="&#x119;" horiz-adv-x="481" 
d="M391 -193q-16 -7 -31.5 -10.5t-37.5 -3.5q-48 0 -73.5 18t-25.5 56q0 37 33 69t100 64q-26 -5 -52 -7.5t-50 -2.5q-57 0 -96.5 13t-64 37t-35 59t-10.5 79v129q0 39 9.5 73.5t33 60.5t62 41t97.5 15q58 0 95.5 -16t58.5 -43t29 -62.5t8 -74.5v-104h-271v-25
q0 -45 19.5 -63.5t75.5 -18.5q35 0 72 5.5t77 17.5l19 -92q-68 -47 -96 -76.5t-28 -55.5q0 -14 8 -21t29 -7q9 0 15.5 1t15.5 3zM170 295h155v24q0 35 -14.5 56.5t-59.5 21.5t-63 -21.5t-18 -56.5v-24z" />
    <glyph glyph-name="Ecaron" unicode="&#x11a;" horiz-adv-x="538" 
d="M75 666h408v-111h-282v-161h260v-111h-260v-172h282v-111h-408v666zM197 856q28 -14 47.5 -24.5t44.5 -24.5q25 15 44.5 25t48.5 24l34 -56q-36 -24 -64.5 -44.5t-62.5 -46.5q-35 26 -63.5 47t-63.5 44z" />
    <glyph glyph-name="ecaron" unicode="&#x11b;" horiz-adv-x="481" 
d="M170 172q0 -45 19.5 -63.5t75.5 -18.5q35 0 72 5.5t77 17.5l19 -92q-42 -16 -88.5 -23.5t-90.5 -7.5q-57 0 -96.5 13t-64 37t-35 59t-10.5 79v129q0 39 9.5 73.5t33 60.5t62 41t97.5 15q58 0 95.5 -16t58.5 -43t29 -62.5t8 -74.5v-104h-271v-25zM170 295h155v24
q0 35 -14.5 56.5t-59.5 21.5t-63 -21.5t-18 -56.5v-24zM151 691q16 -10 29.5 -18t25 -15.5t22.5 -15t24 -16.5q13 9 24 16.5t22.5 15t24.5 15.5t30 18l38 -54q-34 -25 -69.5 -53t-69.5 -56q-35 29 -71 57t-69 52z" />
    <glyph glyph-name="Gcircumflex" unicode="&#x11c;" horiz-adv-x="584" 
d="M186 206q0 -49 25 -76t91 -27q26 0 51.5 2t51.5 6v202h119v-293q-53 -15 -111.5 -22.5t-111.5 -7.5q-123 0 -182 50.5t-59 150.5v284q0 103 61 152t192 49q41 0 93.5 -5t97.5 -17l-14 -110q-46 10 -92 14t-95 4q-66 0 -91.5 -26.5t-25.5 -77.5v-252zM186 765
q35 23 63.5 44t63.5 47q34 -26 62.5 -46.5t64.5 -44.5l-34 -56q-29 13 -48.5 23.5t-44.5 25.5q-25 -14 -44.5 -24.5t-47.5 -24.5z" />
    <glyph glyph-name="gcircumflex" unicode="&#x11d;" horiz-adv-x="489" 
d="M236 130h-14.5t-13.5 1q-12 -8 -20.5 -18t-8.5 -21q0 -18 27 -21q20 -2 36.5 -4t32.5 -3.5t33.5 -3.5t38.5 -4q59 -7 81.5 -36.5t22.5 -81.5q0 -39 -9 -66.5t-33 -45t-67 -25.5t-111 -8q-21 0 -45.5 1.5t-49 4.5t-48.5 8t-45 11l15 91q39 -10 80 -15.5t84 -5.5
q36 0 59 1.5t35.5 6t17 12t4.5 19.5q0 23 -9 29.5t-37 9.5q-21 2 -37 4t-31.5 3.5t-32.5 3.5t-40 5q-52 6 -74 26t-22 67q0 30 16.5 50t34.5 33q-66 40 -66 131v46q1 38 12 68t34 51t60 32t90 11q25 0 45 -2.5t38 -7.5h150v-61q-13 -4 -27 -7.5t-27 -7.5q17 -32 17 -76v-46
q0 -74 -47 -116.5t-149 -42.5zM318 331q0 35 -18 51.5t-64 16.5q-45 0 -63 -16.5t-18 -51.5v-37q0 -36 19 -51t62 -15q44 0 63 15.5t19 50.5v37zM108 587q33 24 69 52t71 57q34 -28 69.5 -56t69.5 -53l-38 -54q-17 10 -30 18t-24.5 15.5t-22.5 15t-24 16.5q-13 -9 -24 -16.5
t-22.5 -15t-25 -15.5t-29.5 -18z" />
    <glyph glyph-name="Gbreve" unicode="&#x11e;" horiz-adv-x="584" 
d="M186 206q0 -49 25 -76t91 -27q26 0 51.5 2t51.5 6v202h119v-293q-53 -15 -111.5 -22.5t-111.5 -7.5q-123 0 -182 50.5t-59 150.5v284q0 103 61 152t192 49q41 0 93.5 -5t97.5 -17l-14 -110q-46 10 -92 14t-95 4q-66 0 -91.5 -26.5t-25.5 -77.5v-252zM442 814
q-11 -40 -45 -69.5t-93 -29.5t-93 29.5t-45 69.5l59 32q10 -29 29.5 -46t49.5 -17t49.5 17t30.5 46z" />
    <glyph glyph-name="gbreve" unicode="&#x11f;" horiz-adv-x="489" 
d="M236 130h-14.5t-13.5 1q-12 -8 -20.5 -18t-8.5 -21q0 -18 27 -21q20 -2 36.5 -4t32.5 -3.5t33.5 -3.5t38.5 -4q59 -7 81.5 -36.5t22.5 -81.5q0 -39 -9 -66.5t-33 -45t-67 -25.5t-111 -8q-21 0 -45.5 1.5t-49 4.5t-48.5 8t-45 11l15 91q39 -10 80 -15.5t84 -5.5
q36 0 59 1.5t35.5 6t17 12t4.5 19.5q0 23 -9 29.5t-37 9.5q-21 2 -37 4t-31.5 3.5t-32.5 3.5t-40 5q-52 6 -74 26t-22 67q0 30 16.5 50t34.5 33q-66 40 -66 131v46q1 38 12 68t34 51t60 32t90 11q25 0 45 -2.5t38 -7.5h150v-61q-13 -4 -27 -7.5t-27 -7.5q17 -32 17 -76v-46
q0 -74 -47 -116.5t-149 -42.5zM318 331q0 35 -18 51.5t-64 16.5q-45 0 -63 -16.5t-18 -51.5v-37q0 -36 19 -51t62 -15q44 0 63 15.5t19 50.5v37zM399 646q-5 -21 -16.5 -40.5t-30 -35t-43.5 -25t-57 -9.5t-57 9.5t-43.5 25t-30 35t-15.5 40.5l59 31q10 -28 31.5 -48
t55.5 -20q35 0 56 20t32 48z" />
    <glyph glyph-name="Gdotaccent" unicode="&#x120;" horiz-adv-x="584" 
d="M186 206q0 -49 25 -76t91 -27q26 0 51.5 2t51.5 6v202h119v-293q-53 -15 -111.5 -22.5t-111.5 -7.5q-123 0 -182 50.5t-59 150.5v284q0 103 61 152t192 49q41 0 93.5 -5t97.5 -17l-14 -110q-46 10 -92 14t-95 4q-66 0 -91.5 -26.5t-25.5 -77.5v-252zM239 720v141h122
v-141h-122z" />
    <glyph glyph-name="gdotaccent" unicode="&#x121;" horiz-adv-x="489" 
d="M236 130h-14.5t-13.5 1q-12 -8 -20.5 -18t-8.5 -21q0 -18 27 -21q20 -2 36.5 -4t32.5 -3.5t33.5 -3.5t38.5 -4q59 -7 81.5 -36.5t22.5 -81.5q0 -39 -9 -66.5t-33 -45t-67 -25.5t-111 -8q-21 0 -45.5 1.5t-49 4.5t-48.5 8t-45 11l15 91q39 -10 80 -15.5t84 -5.5
q36 0 59 1.5t35.5 6t17 12t4.5 19.5q0 23 -9 29.5t-37 9.5q-21 2 -37 4t-31.5 3.5t-32.5 3.5t-40 5q-52 6 -74 26t-22 67q0 30 16.5 50t34.5 33q-66 40 -66 131v46q1 38 12 68t34 51t60 32t90 11q25 0 45 -2.5t38 -7.5h150v-61q-13 -4 -27 -7.5t-27 -7.5q17 -32 17 -76v-46
q0 -74 -47 -116.5t-149 -42.5zM318 331q0 35 -18 51.5t-64 16.5q-45 0 -63 -16.5t-18 -51.5v-37q0 -36 19 -51t62 -15q44 0 63 15.5t19 50.5v37zM172 556v141h122v-141h-122z" />
    <glyph glyph-name="Gcommaaccent" unicode="&#x122;" horiz-adv-x="584" 
d="M186 206q0 -49 25 -76t91 -27q26 0 51.5 2t51.5 6v202h119v-293q-53 -15 -111.5 -22.5t-111.5 -7.5q-123 0 -182 50.5t-59 150.5v284q0 103 61 152t192 49q41 0 93.5 -5t97.5 -17l-14 -110q-46 10 -92 14t-95 4q-66 0 -91.5 -26.5t-25.5 -77.5v-252zM261 -51h117v-140
l-64 -104l-53 29l43 83h-43v132z" />
    <glyph glyph-name="gcommaaccent" unicode="&#x123;" horiz-adv-x="489" 
d="M285 543h-100v118l61 102l43 -26l-43 -83h39v-111zM236 130h-14.5t-13.5 1q-12 -8 -20.5 -18t-8.5 -21q0 -18 27 -21q20 -2 36.5 -4t32.5 -3.5t33.5 -3.5t38.5 -4q59 -7 81.5 -36.5t22.5 -81.5q0 -39 -9 -66.5t-33 -45t-67 -25.5t-111 -8q-21 0 -45.5 1.5t-49 4.5
t-48.5 8t-45 11l15 91q39 -10 80 -15.5t84 -5.5q36 0 59 1.5t35.5 6t17 12t4.5 19.5q0 23 -9 29.5t-37 9.5q-21 2 -37 4t-31.5 3.5t-32.5 3.5t-40 5q-52 6 -74 26t-22 67q0 30 16.5 50t34.5 33q-66 40 -66 131v46q1 38 12 68t34 51t60 32t90 11q25 0 45 -2.5t38 -7.5h150
v-61q-13 -4 -27 -7.5t-27 -7.5q17 -32 17 -76v-46q0 -74 -47 -116.5t-149 -42.5zM318 331q0 35 -18 51.5t-64 16.5q-45 0 -63 -16.5t-18 -51.5v-37q0 -36 19 -51t62 -15q44 0 63 15.5t19 50.5v37z" />
    <glyph glyph-name="Hcircumflex" unicode="&#x124;" horiz-adv-x="649" 
d="M448 0v281h-247v-281h-126v666h126v-274h247v274h126v-666h-126zM197 765q35 23 63.5 44t63.5 47q34 -26 62.5 -46.5t64.5 -44.5l-34 -56q-29 13 -48.5 23.5t-44.5 25.5q-25 -14 -44.5 -24.5t-47.5 -24.5z" />
    <glyph glyph-name="hcircumflex" unicode="&#x125;" 
d="M358 0v340q0 20 -9 29.5t-30 9.5q-23 0 -58.5 -12t-68.5 -29v-338h-122v686l122 17v-253q41 21 90 34t88 13q61 0 85.5 -39t24.5 -105v-353h-122zM11 795q35 23 63.5 44t63.5 47q34 -26 62.5 -46.5t64.5 -44.5l-34 -56q-29 13 -48.5 23.5t-44.5 25.5q-25 -14 -44.5 -24.5
t-47.5 -24.5z" />
    <glyph glyph-name="Hbar" unicode="&#x126;" horiz-adv-x="659" 
d="M20 567h60v99h126v-99h247v99h126v-99h60v-66h-60v-501h-126v281h-247v-281h-126v501h-60v66zM453 392v109h-247v-109h247z" />
    <glyph glyph-name="hbar" unicode="&#x127;" 
d="M13 611h57v75l122 17v-92h97v-65h-97v-96q41 21 90 34t88 13q61 0 85.5 -39t24.5 -105v-353h-122v340q0 20 -9 29.5t-30 9.5q-23 0 -58.5 -12t-68.5 -29v-338h-122v546h-57v65z" />
    <glyph glyph-name="Itilde" unicode="&#x128;" horiz-adv-x="286" 
d="M206 0h-126v666h126v-666zM142 739q-14 9 -24.5 15t-24.5 6q-17 0 -29 -13.5t-22 -27.5l-50 41q17 31 42 54.5t57 23.5q17 0 31 -4.5t32 -15.5t29.5 -16.5t22.5 -5.5q16 0 25 9t16 28l58 -30q-13 -39 -38.5 -61.5t-60.5 -22.5q-20 0 -34 4.5t-30 15.5z" />
    <glyph glyph-name="itilde" unicode="&#x129;" horiz-adv-x="262" 
d="M70 0v487h122v-487h-122zM131 567q-14 10 -24.5 15.5t-24.5 5.5q-17 0 -29 -13.5t-22 -26.5l-50 41q17 30 42 53.5t57 23.5q17 0 31 -4.5t32 -15.5t29.5 -16t22.5 -5q16 0 25 9t16 28l58 -30q-13 -39 -38.5 -61.5t-60.5 -22.5q-20 0 -34 4.5t-30 14.5z" />
    <glyph glyph-name="Imacron" unicode="&#x12a;" horiz-adv-x="286" 
d="M206 0h-126v666h126v-666zM19 813h250v-81h-250v81z" />
    <glyph glyph-name="imacron" unicode="&#x12b;" horiz-adv-x="262" 
d="M70 0v487h122v-487h-122zM7 638h250v-81h-250v81z" />
    <glyph glyph-name="Ibreve" unicode="&#x12c;" horiz-adv-x="286" 
d="M206 0h-126v666h126v-666zM282 814q-11 -40 -45 -69.5t-93 -29.5t-93 29.5t-45 69.5l59 32q10 -29 29.5 -46t49.5 -17t49.5 17t30.5 46z" />
    <glyph glyph-name="ibreve" unicode="&#x12d;" horiz-adv-x="262" 
d="M70 0v487h122v-487h-122zM279 646q-5 -21 -16.5 -40.5t-30 -35t-43.5 -25t-57 -9.5t-57 9.5t-43.5 25t-30 35t-15.5 40.5l59 31q10 -28 31.5 -48t55.5 -20q35 0 56 20t32 48z" />
    <glyph glyph-name="Iogonek" unicode="&#x12e;" horiz-adv-x="286" 
d="M197 -189q-23 -9 -43.5 -13.5t-46.5 -4.5q-48 0 -75.5 24.5t-27.5 62.5q0 31 19 59.5t57 60.5v666h126v-666h-74q-21 -28 -33.5 -53t-12.5 -51q0 -17 9 -26t33 -9q15 0 26.5 1.5t28.5 6.5z" />
    <glyph glyph-name="iogonek" unicode="&#x12f;" horiz-adv-x="262" 
d="M187 -189q-23 -9 -43.5 -13.5t-46.5 -4.5q-48 0 -75.5 24.5t-27.5 62.5q0 31 19 59.5t57 60.5v487h122v-487h-70q-21 -28 -33.5 -53t-12.5 -51q0 -17 9 -26t33 -9q15 0 26.5 1.5t28.5 6.5zM70 556v141h122v-141h-122z" />
    <glyph glyph-name="Idotaccent" unicode="&#x130;" horiz-adv-x="286" 
d="M206 0h-126v666h126v-666zM82 720v141h122v-141h-122z" />
    <glyph glyph-name="dotlessi" unicode="&#x131;" horiz-adv-x="262" 
d="M70 0v487h122v-487h-122z" />
    <glyph glyph-name="IJ" unicode="&#x132;" horiz-adv-x="557" 
d="M206 0h-126v666h126v-666zM487 666v-677q0 -26 -6 -46.5t-21.5 -42t-42 -47t-66.5 -59.5l-75 85q28 27 45 43.5t26 28.5t11.5 22.5t2.5 26.5v666h126z" />
    <glyph glyph-name="ij" unicode="&#x133;" horiz-adv-x="538" 
d="M70 0v487h122v-487h-122zM70 556v141h122v-141h-122zM452 487v-513q0 -23 -5 -41.5t-19 -38.5t-39 -43.5t-64 -57.5l-71 78q26 24 41.5 39t23 26.5t9.5 23t2 30.5v497h122zM330 556v141h122v-141h-122z" />
    <glyph glyph-name="Jcircumflex" unicode="&#x134;" horiz-adv-x="271" 
d="M201 666v-677q0 -26 -6 -46.5t-21.5 -42t-42 -47t-66.5 -59.5l-75 85q28 27 45 43.5t26 28.5t11.5 22.5t2.5 26.5v666h126zM13 765q35 23 63.5 44t63.5 47q34 -26 62.5 -46.5t64.5 -44.5l-34 -56q-29 13 -48.5 23.5t-44.5 25.5q-25 -14 -44.5 -24.5t-47.5 -24.5z" />
    <glyph glyph-name="jcircumflex" unicode="&#x135;" horiz-adv-x="255" 
d="M190 487v-513q0 -23 -5 -41.5t-19 -38.5t-39 -43.5t-64 -57.5l-71 78q26 24 41.5 39t23 26.5t9.5 23t2 30.5v497h122zM-11 587q33 24 69 52t71 57q34 -28 69.5 -56t69.5 -53l-38 -54q-17 10 -30 18t-24.5 15.5t-22.5 15t-24 16.5q-13 -9 -24 -16.5t-22.5 -15t-25 -15.5
t-29.5 -18z" />
    <glyph glyph-name="Kcommaaccent" unicode="&#x136;" horiz-adv-x="612" 
d="M201 0h-126v666h126v-666zM358 337l224 -337h-145l-218 337l206 329h143zM252 -51h117v-140l-64 -104l-53 29l43 83h-43v132z" />
    <glyph glyph-name="kcommaaccent" unicode="&#x137;" horiz-adv-x="508" 
d="M70 0v686l122 17v-703h-122zM484 487l-143 -241l149 -246h-134l-147 246l139 241h136zM212 -51h117v-140l-64 -104l-53 29l43 83h-43v132z" />
    <glyph glyph-name="kgreenlandic" unicode="&#x138;" horiz-adv-x="508" 
d="M70 0v487h122v-487h-122zM484 487l-143 -241l149 -246h-134l-147 246l139 241h136z" />
    <glyph glyph-name="Lacute" unicode="&#x139;" horiz-adv-x="505" 
d="M201 111h274v-111h-400v666h126v-555zM96 777q35 22 69 44t64 45l47 -74q-34 -25 -64.5 -43.5t-71.5 -39.5z" />
    <glyph glyph-name="lacute" unicode="&#x13a;" horiz-adv-x="262" 
d="M70 0v686l122 17v-703h-122zM70 817q35 22 69 44t64 45l47 -74q-34 -25 -64.5 -43.5t-71.5 -39.5z" />
    <glyph glyph-name="Lcommaaccent" unicode="&#x13b;" horiz-adv-x="505" 
d="M201 111h274v-111h-400v666h126v-555zM227 -51h117v-140l-64 -104l-53 29l43 83h-43v132z" />
    <glyph glyph-name="lcommaaccent" unicode="&#x13c;" horiz-adv-x="262" 
d="M70 0v686l122 17v-703h-122zM73 -51h117v-140l-64 -104l-53 29l43 83h-43v132z" />
    <glyph glyph-name="Lcaron" unicode="&#x13d;" horiz-adv-x="505" 
d="M201 111h274v-111h-400v666h126v-555zM338 686h97v-118l-61 -102l-43 26l43 83h-36v111z" />
    <glyph glyph-name="lcaron" unicode="&#x13e;" horiz-adv-x="377" 
d="M70 0v686l122 17v-703h-122zM280 686h97v-118l-61 -102l-43 26l43 83h-36v111z" />
    <glyph glyph-name="Ldot" unicode="&#x13f;" horiz-adv-x="505" 
d="M201 111h274v-111h-400v666h126v-555zM313 437h124v-140h-124v140z" />
    <glyph glyph-name="ldot" unicode="&#x140;" horiz-adv-x="398" 
d="M264 355h124v-140h-124v140zM70 0v686l122 17v-703h-122z" />
    <glyph glyph-name="Lslash" unicode="&#x141;" horiz-adv-x="543" 
d="M20 308l93 41v317h126v-262l139 60l32 -78l-171 -74v-201h274v-111h-400v257l-61 -26z" />
    <glyph glyph-name="lslash" unicode="&#x142;" horiz-adv-x="327" 
d="M57 240l-32 77l78 34v335l122 17v-299l70 30l32 -78l-102 -44v-312h-122v260l-46 -20v0z" />
    <glyph glyph-name="Nacute" unicode="&#x143;" horiz-adv-x="694" 
d="M198 505v-505h-123v666h168l253 -506v506h123v-666h-168zM288 777q35 22 69 44t64 45l47 -74q-34 -25 -64.5 -43.5t-71.5 -39.5z" />
    <glyph glyph-name="nacute" unicode="&#x144;" 
d="M358 0v340q0 20 -9 29.5t-30 9.5q-23 0 -58.5 -12t-68.5 -29v-338h-122v487h93l12 -41q46 23 99 37t96 14q61 0 85.5 -39t24.5 -105v-353h-122zM195 607q35 22 71.5 46t74.5 52l48 -74q-42 -28 -76 -49t-74 -43z" />
    <glyph glyph-name="Ncommaaccent" unicode="&#x145;" horiz-adv-x="694" 
d="M198 505v-505h-123v666h168l253 -506v506h123v-666h-168zM279 -51h117v-140l-64 -104l-53 29l43 83h-43v132z" />
    <glyph glyph-name="ncommaaccent" unicode="&#x146;" 
d="M358 0v340q0 20 -9 29.5t-30 9.5q-23 0 -58.5 -12t-68.5 -29v-338h-122v487h93l12 -41q46 23 99 37t96 14q61 0 85.5 -39t24.5 -105v-353h-122zM222 -51h117v-140l-64 -104l-53 29l43 83h-43v132z" />
    <glyph glyph-name="Ncaron" unicode="&#x147;" horiz-adv-x="694" 
d="M198 505v-505h-123v666h168l253 -506v506h123v-666h-168zM267 856q28 -14 47.5 -24.5t44.5 -24.5q25 15 44.5 25t48.5 24l34 -56q-36 -24 -64.5 -44.5t-62.5 -46.5q-35 26 -63.5 47t-63.5 44z" />
    <glyph glyph-name="ncaron" unicode="&#x148;" 
d="M358 0v340q0 20 -9 29.5t-30 9.5q-23 0 -58.5 -12t-68.5 -29v-338h-122v487h93l12 -41q46 23 99 37t96 14q61 0 85.5 -39t24.5 -105v-353h-122zM177 691q16 -10 29.5 -18t25 -15.5t22.5 -15t24 -16.5q13 9 24 16.5t22.5 15t24.5 15.5t30 18l38 -54q-34 -25 -69.5 -53
t-69.5 -56q-35 29 -71 57t-69 52z" />
    <glyph glyph-name="Eng" unicode="&#x14a;" horiz-adv-x="694" 
d="M198 505v-505h-123v666h168l253 -506v506h123v-692q0 -22 -6 -38.5t-22.5 -35.5t-44.5 -44t-72 -63l-68 80q29 26 47 42t27.5 27.5t13 22t3.5 25.5v10h-46z" />
    <glyph glyph-name="eng" unicode="&#x14b;" 
d="M358 340q0 20 -9 29.5t-30 9.5q-23 0 -58.5 -12t-68.5 -29v-338h-122v487h93l12 -41q46 23 99 37t96 14q61 0 85.5 -39t24.5 -105v-379q0 -22 -6 -38.5t-22.5 -35.5t-44.5 -44t-72 -63l-68 80q29 26 47 42t27.5 27.5t13 22t3.5 25.5v350v0z" />
    <glyph glyph-name="Omacron" unicode="&#x14c;" horiz-adv-x="624" 
d="M564 195q0 -42 -13 -79t-42.5 -65t-78 -44.5t-118.5 -16.5q-71 0 -119 16.5t-77.5 44.5t-42.5 65t-13 79v276q0 42 13 79t42.5 65t77.5 44.5t119 16.5q70 0 118.5 -16.5t78 -44.5t42.5 -65t13 -79v-276zM186 202q0 -47 27.5 -74t98.5 -27q70 0 98 27t28 74v262
q0 47 -28 74t-98 27q-71 0 -98.5 -27t-27.5 -74v-262zM187 813h250v-81h-250v81z" />
    <glyph glyph-name="omacron" unicode="&#x14d;" horiz-adv-x="520" 
d="M472 182q0 -38 -9.5 -72.5t-33.5 -61t-65 -42.5t-104 -16t-104 16t-65 42.5t-33.5 61t-9.5 72.5v123q0 37 9.5 72t33.5 61.5t65 42.5t104 16t104 -16t65 -42.5t33.5 -61.5t9.5 -72v-123zM350 309q0 42 -20.5 63t-69.5 21t-69.5 -21t-20.5 -63v-131q0 -42 20.5 -63
t69.5 -21t69.5 21t20.5 63v131zM135 638h250v-81h-250v81z" />
    <glyph glyph-name="Obreve" unicode="&#x14e;" horiz-adv-x="624" 
d="M564 195q0 -42 -13 -79t-42.5 -65t-78 -44.5t-118.5 -16.5q-71 0 -119 16.5t-77.5 44.5t-42.5 65t-13 79v276q0 42 13 79t42.5 65t77.5 44.5t119 16.5q70 0 118.5 -16.5t78 -44.5t42.5 -65t13 -79v-276zM186 202q0 -47 27.5 -74t98.5 -27q70 0 98 27t28 74v262
q0 47 -28 74t-98 27q-71 0 -98.5 -27t-27.5 -74v-262zM450 814q-11 -40 -45 -69.5t-93 -29.5t-93 29.5t-45 69.5l59 32q10 -29 29.5 -46t49.5 -17t49.5 17t30.5 46z" />
    <glyph glyph-name="obreve" unicode="&#x14f;" horiz-adv-x="520" 
d="M472 182q0 -38 -9.5 -72.5t-33.5 -61t-65 -42.5t-104 -16t-104 16t-65 42.5t-33.5 61t-9.5 72.5v123q0 37 9.5 72t33.5 61.5t65 42.5t104 16t104 -16t65 -42.5t33.5 -61.5t9.5 -72v-123zM350 309q0 42 -20.5 63t-69.5 21t-69.5 -21t-20.5 -63v-131q0 -42 20.5 -63
t69.5 -21t69.5 21t20.5 63v131zM407 646q-5 -21 -16.5 -40.5t-30 -35t-43.5 -25t-57 -9.5t-57 9.5t-43.5 25t-30 35t-15.5 40.5l59 31q10 -28 31.5 -48t55.5 -20q35 0 56 20t32 48z" />
    <glyph glyph-name="Ohungarumlaut" unicode="&#x150;" horiz-adv-x="624" 
d="M564 195q0 -42 -13 -79t-42.5 -65t-78 -44.5t-118.5 -16.5q-71 0 -119 16.5t-77.5 44.5t-42.5 65t-13 79v276q0 42 13 79t42.5 65t77.5 44.5t119 16.5q70 0 118.5 -16.5t78 -44.5t42.5 -65t13 -79v-276zM186 202q0 -47 27.5 -74t98.5 -27q70 0 98 27t28 74v262
q0 47 -28 74t-98 27q-71 0 -98.5 -27t-27.5 -74v-262zM175 757q26 23 53 50t52 53l61 -63q-25 -26 -52.5 -51t-56.5 -46zM347 757q26 23 53 50t52 53l61 -63q-25 -26 -52.5 -51t-56.5 -46z" />
    <glyph glyph-name="ohungarumlaut" unicode="&#x151;" horiz-adv-x="527" 
d="M472 182q0 -38 -9.5 -72.5t-33.5 -61t-65 -42.5t-104 -16t-104 16t-65 42.5t-33.5 61t-9.5 72.5v123q0 37 9.5 72t33.5 61.5t65 42.5t104 16t104 -16t65 -42.5t33.5 -61.5t9.5 -72v-123zM350 309q0 42 -20.5 63t-69.5 21t-69.5 -21t-20.5 -63v-131q0 -42 20.5 -63
t69.5 -21t69.5 21t20.5 63v131zM115 587q31 27 58.5 54.5t59.5 62.5l61 -64q-35 -35 -62 -59t-61 -51zM295 587q31 27 58.5 54.5t59.5 62.5l61 -64q-35 -35 -62 -59t-61 -51z" />
    <glyph glyph-name="OE" unicode="&#x152;" horiz-adv-x="896" 
d="M312 0q-71 0 -119 16.5t-77.5 44.5t-42.5 65t-13 79v256q0 42 13 79t42.5 65t77.5 44.5t119 16.5h529v-111h-282v-161h260v-111h-260v-172h282v-111h-529zM312 555q-71 0 -98.5 -27t-27.5 -74v-242q0 -47 27.5 -74t98.5 -27h121v444h-121z" />
    <glyph glyph-name="oe" unicode="&#x153;" horiz-adv-x="783" 
d="M472 172q0 -45 19.5 -63.5t75.5 -18.5q35 0 72 5.5t77 17.5l19 -92q-42 -16 -88.5 -23.5t-90.5 -7.5q-51 0 -87.5 13t-61.5 34q-26 -22 -61 -34.5t-86 -12.5q-63 0 -104 16t-65 42.5t-33.5 61t-9.5 72.5v123q0 37 9.5 72t33.5 61.5t65 42.5t104 16q49 0 83 -13t66 -36
q30 25 64.5 37t78.5 12q58 0 95.5 -16t58.5 -43t29 -62.5t8 -74.5v-104h-271v-25zM350 309q0 42 -20.5 63t-69.5 21t-69.5 -21t-20.5 -63v-131q0 -42 20.5 -63t69.5 -21q47 0 67.5 19t22.5 57v139zM472 295h155v24q0 35 -14.5 56.5t-59.5 21.5t-63 -21.5t-18 -56.5v-24z" />
    <glyph glyph-name="Racute" unicode="&#x154;" horiz-adv-x="650" 
d="M474 0l-153 220h-120v-220h-126v666h273q116 0 164 -46t48 -134v-87q0 -60 -23.5 -101t-76.5 -60l165 -238h-151zM434 476q0 42 -20 60.5t-71 18.5h-142v-226h142q52 0 71.5 19.5t19.5 61.5v66zM235 777q35 22 69 44t64 45l47 -74q-34 -25 -64.5 -43.5t-71.5 -39.5z" />
    <glyph glyph-name="racute" unicode="&#x155;" horiz-adv-x="333" 
d="M321 385q-35 -16 -65.5 -33t-63.5 -38v-314h-122v487h103l8 -54q10 7 25.5 16t32.5 18t35.5 17t34.5 13zM92 607q35 22 71.5 46t74.5 52l48 -74q-42 -28 -76 -49t-74 -43z" />
    <glyph glyph-name="Rcommaaccent" unicode="&#x156;" horiz-adv-x="650" 
d="M474 0l-153 220h-120v-220h-126v666h273q116 0 164 -46t48 -134v-87q0 -60 -23.5 -101t-76.5 -60l165 -238h-151zM434 476q0 42 -20 60.5t-71 18.5h-142v-226h142q52 0 71.5 19.5t19.5 61.5v66zM276 -51h117v-140l-64 -104l-53 29l43 83h-43v132z" />
    <glyph glyph-name="rcommaaccent" unicode="&#x157;" horiz-adv-x="333" 
d="M321 385q-35 -16 -65.5 -33t-63.5 -38v-314h-122v487h103l8 -54q10 7 25.5 16t32.5 18t35.5 17t34.5 13zM73 -51h117v-140l-64 -104l-53 29l43 83h-43v132z" />
    <glyph glyph-name="Rcaron" unicode="&#x158;" horiz-adv-x="650" 
d="M474 0l-153 220h-120v-220h-126v666h273q116 0 164 -46t48 -134v-87q0 -60 -23.5 -101t-76.5 -60l165 -238h-151zM434 476q0 42 -20 60.5t-71 18.5h-142v-226h142q52 0 71.5 19.5t19.5 61.5v66zM216 856q28 -14 47.5 -24.5t44.5 -24.5q25 15 44.5 25t48.5 24l34 -56
q-36 -24 -64.5 -44.5t-62.5 -46.5q-35 26 -63.5 47t-63.5 44z" />
    <glyph glyph-name="rcaron" unicode="&#x159;" horiz-adv-x="333" 
d="M321 385q-35 -16 -65.5 -33t-63.5 -38v-314h-122v487h103l8 -54q10 7 25.5 16t32.5 18t35.5 17t34.5 13zM88 691q16 -10 29.5 -18t25 -15.5t22.5 -15t24 -16.5q13 9 24 16.5t22.5 15t24.5 15.5t30 18l38 -54q-34 -25 -69.5 -53t-69.5 -56q-35 29 -71 57t-69 52z" />
    <glyph glyph-name="Sacute" unicode="&#x15a;" horiz-adv-x="540" 
d="M490 181q0 -47 -9 -83t-34.5 -60t-71 -36t-119.5 -12q-29 0 -58.5 3.5t-57.5 9t-52 12.5t-40 15l22 99q47 -14 92.5 -22.5t95.5 -8.5q34 0 55 4t32 13.5t15 25.5t4 40q0 28 -2 44t-14 26.5t-36.5 18t-69.5 17.5q-60 13 -96.5 27.5t-55.5 37t-25 56.5t-6 87q0 45 11 79
t37.5 56.5t69.5 34t106 11.5q44 0 94 -5.5t100 -16.5l-14 -106q-42 9 -88 14.5t-90 5.5q-32 0 -51.5 -3.5t-30.5 -12.5t-14.5 -23.5t-3.5 -36.5q0 -29 2 -45t13.5 -26t35 -17.5t66.5 -17.5q67 -16 105 -31.5t56.5 -37.5t22.5 -54t4 -82zM206 777q35 22 69 44t64 45l47 -74
q-34 -25 -64.5 -43.5t-71.5 -39.5z" />
    <glyph glyph-name="sacute" unicode="&#x15b;" horiz-adv-x="447" 
d="M397 142q0 -35 -7 -63.5t-26 -48t-53.5 -30t-89.5 -10.5q-20 0 -42 2t-44.5 6t-43.5 9t-38 11l17 93q31 -9 69 -15t76 -6q20 0 32.5 2.5t19 8t8.5 15t2 23.5q0 11 -2 20t-10.5 16.5t-25.5 14t-47 13.5q-45 11 -71 23t-40 29t-18 41.5t-4 59.5q0 37 9 63.5t30 43.5
t56 25.5t87 8.5q34 0 74 -4.5t72 -12.5l-12 -97q-28 5 -66.5 9.5t-67.5 4.5q-40 0 -51 -9.5t-11 -32.5q0 -15 1.5 -23.5t8 -14.5t20.5 -10.5t39 -10.5q51 -14 80.5 -25.5t45 -27.5t19.5 -40t4 -61zM154 607q35 22 71.5 46t74.5 52l48 -74q-42 -28 -76 -49t-74 -43z" />
    <glyph glyph-name="Scircumflex" unicode="&#x15c;" horiz-adv-x="540" 
d="M490 181q0 -47 -9 -83t-34.5 -60t-71 -36t-119.5 -12q-29 0 -58.5 3.5t-57.5 9t-52 12.5t-40 15l22 99q47 -14 92.5 -22.5t95.5 -8.5q34 0 55 4t32 13.5t15 25.5t4 40q0 28 -2 44t-14 26.5t-36.5 18t-69.5 17.5q-60 13 -96.5 27.5t-55.5 37t-25 56.5t-6 87q0 45 11 79
t37.5 56.5t69.5 34t106 11.5q44 0 94 -5.5t100 -16.5l-14 -106q-42 9 -88 14.5t-90 5.5q-32 0 -51.5 -3.5t-30.5 -12.5t-14.5 -23.5t-3.5 -36.5q0 -29 2 -45t13.5 -26t35 -17.5t66.5 -17.5q67 -16 105 -31.5t56.5 -37.5t22.5 -54t4 -82zM161 765q35 23 63.5 44t63.5 47
q34 -26 62.5 -46.5t64.5 -44.5l-34 -56q-29 13 -48.5 23.5t-44.5 25.5q-25 -14 -44.5 -24.5t-47.5 -24.5z" />
    <glyph glyph-name="scircumflex" unicode="&#x15d;" horiz-adv-x="447" 
d="M397 142q0 -35 -7 -63.5t-26 -48t-53.5 -30t-89.5 -10.5q-20 0 -42 2t-44.5 6t-43.5 9t-38 11l17 93q31 -9 69 -15t76 -6q20 0 32.5 2.5t19 8t8.5 15t2 23.5q0 11 -2 20t-10.5 16.5t-25.5 14t-47 13.5q-45 11 -71 23t-40 29t-18 41.5t-4 59.5q0 37 9 63.5t30 43.5
t56 25.5t87 8.5q34 0 74 -4.5t72 -12.5l-12 -97q-28 5 -66.5 9.5t-67.5 4.5q-40 0 -51 -9.5t-11 -32.5q0 -15 1.5 -23.5t8 -14.5t20.5 -10.5t39 -10.5q51 -14 80.5 -25.5t45 -27.5t19.5 -40t4 -61zM101 587q33 24 69 52t71 57q34 -28 69.5 -56t69.5 -53l-38 -54
q-17 10 -30 18t-24.5 15.5t-22.5 15t-24 16.5q-13 -9 -24 -16.5t-22.5 -15t-25 -15.5t-29.5 -18z" />
    <glyph glyph-name="Scedilla" unicode="&#x15e;" horiz-adv-x="540" 
d="M382 -119q0 -36 -25.5 -58.5t-81.5 -22.5q-17 0 -41.5 4t-41.5 11l10 47q13 -4 31.5 -6.5t33.5 -2.5q30 0 39.5 7.5t9.5 21.5q0 13 -8.5 18.5t-29.5 5.5q-5 0 -14.5 -0.5t-16.5 -1.5l-29 14l15 73q-26 1 -53 4.5t-51.5 9t-45 12t-35.5 13.5l22 99q47 -14 92.5 -22.5
t95.5 -8.5q34 0 55 4t32 13.5t15 25.5t4 40q0 28 -2 44t-14 26.5t-36.5 18t-69.5 17.5q-60 13 -96.5 27.5t-55.5 37t-25 56.5t-6 87q0 45 11 79t37.5 56.5t69.5 34t106 11.5q44 0 94 -5.5t100 -16.5l-14 -106q-42 9 -88 14.5t-90 5.5q-32 0 -51.5 -3.5t-30.5 -12.5
t-14.5 -23.5t-3.5 -36.5q0 -29 2 -45t13.5 -26t35 -17.5t66.5 -17.5q67 -16 105 -31.5t56.5 -37.5t22.5 -54t4 -82q0 -44 -8 -78t-29.5 -58t-60.5 -37.5t-101 -16.5l-8 -44q6 1 13.5 1.5t14.5 0.5q36 1 53.5 -18.5t17.5 -49.5z" />
    <glyph glyph-name="Scedilla" unicode="&#xf6c1;" horiz-adv-x="540" 
d="M382 -119q0 -36 -25.5 -58.5t-81.5 -22.5q-17 0 -41.5 4t-41.5 11l10 47q13 -4 31.5 -6.5t33.5 -2.5q30 0 39.5 7.5t9.5 21.5q0 13 -8.5 18.5t-29.5 5.5q-5 0 -14.5 -0.5t-16.5 -1.5l-29 14l15 73q-26 1 -53 4.5t-51.5 9t-45 12t-35.5 13.5l22 99q47 -14 92.5 -22.5
t95.5 -8.5q34 0 55 4t32 13.5t15 25.5t4 40q0 28 -2 44t-14 26.5t-36.5 18t-69.5 17.5q-60 13 -96.5 27.5t-55.5 37t-25 56.5t-6 87q0 45 11 79t37.5 56.5t69.5 34t106 11.5q44 0 94 -5.5t100 -16.5l-14 -106q-42 9 -88 14.5t-90 5.5q-32 0 -51.5 -3.5t-30.5 -12.5
t-14.5 -23.5t-3.5 -36.5q0 -29 2 -45t13.5 -26t35 -17.5t66.5 -17.5q67 -16 105 -31.5t56.5 -37.5t22.5 -54t4 -82q0 -44 -8 -78t-29.5 -58t-60.5 -37.5t-101 -16.5l-8 -44q6 1 13.5 1.5t14.5 0.5q36 1 53.5 -18.5t17.5 -49.5z" />
    <glyph glyph-name="scedilla" unicode="&#x15f;" horiz-adv-x="447" 
d="M397 142q0 -34 -6.5 -61t-23.5 -46.5t-47.5 -30.5t-79.5 -13l-8 -44q6 1 13.5 1.5t14.5 0.5q36 1 53.5 -18.5t17.5 -49.5q0 -36 -25.5 -58.5t-81.5 -22.5q-17 0 -41.5 4t-41.5 11l10 47q13 -4 31.5 -6.5t33.5 -2.5q30 0 39.5 7.5t9.5 21.5q0 13 -8.5 18.5t-29.5 5.5
q-5 0 -14.5 -0.5t-16.5 -1.5l-29 14l16 74q-34 3 -69 9.5t-61 16.5l17 93q31 -9 69 -15t76 -6q20 0 32.5 2.5t19 8t8.5 15t2 23.5q0 11 -2 20t-10.5 16.5t-25.5 14t-47 13.5q-45 11 -71 23t-40 29t-18 41.5t-4 59.5q0 37 9 63.5t30 43.5t56 25.5t87 8.5q34 0 74 -4.5
t72 -12.5l-12 -97q-28 5 -66.5 9.5t-67.5 4.5q-40 0 -51 -9.5t-11 -32.5q0 -15 1.5 -23.5t8 -14.5t20.5 -10.5t39 -10.5q51 -14 80.5 -25.5t45 -27.5t19.5 -40t4 -61z" />
    <glyph glyph-name="scedilla" unicode="&#xf6c2;" horiz-adv-x="447" 
d="M397 142q0 -34 -6.5 -61t-23.5 -46.5t-47.5 -30.5t-79.5 -13l-8 -44q6 1 13.5 1.5t14.5 0.5q36 1 53.5 -18.5t17.5 -49.5q0 -36 -25.5 -58.5t-81.5 -22.5q-17 0 -41.5 4t-41.5 11l10 47q13 -4 31.5 -6.5t33.5 -2.5q30 0 39.5 7.5t9.5 21.5q0 13 -8.5 18.5t-29.5 5.5
q-5 0 -14.5 -0.5t-16.5 -1.5l-29 14l16 74q-34 3 -69 9.5t-61 16.5l17 93q31 -9 69 -15t76 -6q20 0 32.5 2.5t19 8t8.5 15t2 23.5q0 11 -2 20t-10.5 16.5t-25.5 14t-47 13.5q-45 11 -71 23t-40 29t-18 41.5t-4 59.5q0 37 9 63.5t30 43.5t56 25.5t87 8.5q34 0 74 -4.5
t72 -12.5l-12 -97q-28 5 -66.5 9.5t-67.5 4.5q-40 0 -51 -9.5t-11 -32.5q0 -15 1.5 -23.5t8 -14.5t20.5 -10.5t39 -10.5q51 -14 80.5 -25.5t45 -27.5t19.5 -40t4 -61z" />
    <glyph glyph-name="Scaron" unicode="&#x160;" horiz-adv-x="540" 
d="M490 181q0 -47 -9 -83t-34.5 -60t-71 -36t-119.5 -12q-29 0 -58.5 3.5t-57.5 9t-52 12.5t-40 15l22 99q47 -14 92.5 -22.5t95.5 -8.5q34 0 55 4t32 13.5t15 25.5t4 40q0 28 -2 44t-14 26.5t-36.5 18t-69.5 17.5q-60 13 -96.5 27.5t-55.5 37t-25 56.5t-6 87q0 45 11 79
t37.5 56.5t69.5 34t106 11.5q44 0 94 -5.5t100 -16.5l-14 -106q-42 9 -88 14.5t-90 5.5q-32 0 -51.5 -3.5t-30.5 -12.5t-14.5 -23.5t-3.5 -36.5q0 -29 2 -45t13.5 -26t35 -17.5t66.5 -17.5q67 -16 105 -31.5t56.5 -37.5t22.5 -54t4 -82zM186 856q28 -14 47.5 -24.5
t44.5 -24.5q25 15 44.5 25t48.5 24l34 -56q-36 -24 -64.5 -44.5t-62.5 -46.5q-35 26 -63.5 47t-63.5 44z" />
    <glyph glyph-name="scaron" unicode="&#x161;" horiz-adv-x="447" 
d="M397 142q0 -35 -7 -63.5t-26 -48t-53.5 -30t-89.5 -10.5q-20 0 -42 2t-44.5 6t-43.5 9t-38 11l17 93q31 -9 69 -15t76 -6q20 0 32.5 2.5t19 8t8.5 15t2 23.5q0 11 -2 20t-10.5 16.5t-25.5 14t-47 13.5q-45 11 -71 23t-40 29t-18 41.5t-4 59.5q0 37 9 63.5t30 43.5
t56 25.5t87 8.5q34 0 74 -4.5t72 -12.5l-12 -97q-28 5 -66.5 9.5t-67.5 4.5q-40 0 -51 -9.5t-11 -32.5q0 -15 1.5 -23.5t8 -14.5t20.5 -10.5t39 -10.5q51 -14 80.5 -25.5t45 -27.5t19.5 -40t4 -61zM130 691q16 -10 29.5 -18t25 -15.5t22.5 -15t24 -16.5q13 9 24 16.5
t22.5 15t24.5 15.5t30 18l38 -54q-34 -25 -69.5 -53t-69.5 -56q-35 29 -71 57t-69 52z" />
    <glyph glyph-name="Tcommaaccent" unicode="&#x162;" horiz-adv-x="548" 
d="M211 555h-186v111h498v-111h-186v-555h-126v555zM214 -51h117v-140l-64 -104l-53 29l43 83h-43v132z" />
    <glyph glyph-name="Tcommaaccent" unicode="&#x21a;" horiz-adv-x="548" 
d="M211 555h-186v111h498v-111h-186v-555h-126v555zM214 -51h117v-140l-64 -104l-53 29l43 83h-43v132z" />
    <glyph glyph-name="tcommaaccent" unicode="&#x163;" horiz-adv-x="355" 
d="M329 9q-10 -4 -23.5 -7.5t-28 -6t-29 -4t-26.5 -1.5q-134 0 -134 129v271h-73v97h73v121l122 17v-138h125l-8 -97h-117v-255q0 -20 10 -31.5t34 -11.5q14 0 29.5 2.5t31.5 7.5zM158 -51h117v-140l-64 -104l-53 29l43 83h-43v132z" />
    <glyph glyph-name="tcommaaccent" unicode="&#x21b;" horiz-adv-x="355" 
d="M329 9q-10 -4 -23.5 -7.5t-28 -6t-29 -4t-26.5 -1.5q-134 0 -134 129v271h-73v97h73v121l122 17v-138h125l-8 -97h-117v-255q0 -20 10 -31.5t34 -11.5q14 0 29.5 2.5t31.5 7.5zM158 -51h117v-140l-64 -104l-53 29l43 83h-43v132z" />
    <glyph glyph-name="Tcaron" unicode="&#x164;" horiz-adv-x="548" 
d="M211 555h-186v111h498v-111h-186v-555h-126v555zM182 856q28 -14 47.5 -24.5t44.5 -24.5q25 15 44.5 25t48.5 24l34 -56q-36 -24 -64.5 -44.5t-62.5 -46.5q-35 26 -63.5 47t-63.5 44z" />
    <glyph glyph-name="tcaron" unicode="&#x165;" horiz-adv-x="372" 
d="M329 9q-10 -4 -23.5 -7.5t-28 -6t-29 -4t-26.5 -1.5q-134 0 -134 129v271h-73v97h73v121l122 17v-138h125l-8 -97h-117v-255q0 -20 10 -31.5t34 -11.5q14 0 29.5 2.5t31.5 7.5zM280 696h97v-99l-44 -75l-43 26l32 56h-42v92z" />
    <glyph glyph-name="Tbar" unicode="&#x166;" horiz-adv-x="548" 
d="M75 359h136v196h-186v111h498v-111h-186v-196h136v-70h-136v-289h-126v289h-136v70z" />
    <glyph glyph-name="tbar" unicode="&#x167;" horiz-adv-x="355" 
d="M15 285h73v105h-73v97h73v121l122 17v-138h125l-8 -97h-117v-105h109v-67h-109v-83q0 -20 10 -31.5t34 -11.5q14 0 29.5 2.5t31.5 7.5l14 -93q-10 -4 -23.5 -7.5t-28 -6t-29 -4t-26.5 -1.5q-134 0 -134 129v99h-73v67z" />
    <glyph glyph-name="Utilde" unicode="&#x168;" horiz-adv-x="632" 
d="M562 666v-473q0 -39 -12 -76t-40.5 -65t-76 -45t-117.5 -17t-117.5 17t-76 45t-40.5 65t-12 76v473h126v-463q0 -49 26.5 -75.5t93.5 -26.5t93.5 26.5t26.5 75.5v463h126zM317 739q-14 9 -24.5 15t-24.5 6q-17 0 -29 -13.5t-22 -27.5l-50 41q17 31 42 54.5t57 23.5
q17 0 31 -4.5t32 -15.5t29.5 -16.5t22.5 -5.5q16 0 25 9t16 28l58 -30q-13 -39 -38.5 -61.5t-60.5 -22.5q-20 0 -34 4.5t-30 15.5z" />
    <glyph glyph-name="utilde" unicode="&#x169;" 
d="M187 487v-340q0 -20 9 -29.5t30 -9.5q23 0 58.5 12t68.5 29v338h122v-487h-93l-12 41q-46 -23 -99 -37t-96 -14q-61 0 -85.5 39t-24.5 105v353h122zM278 567q-14 10 -24.5 15.5t-24.5 5.5q-17 0 -29 -13.5t-22 -26.5l-50 41q17 30 42 53.5t57 23.5q17 0 31 -4.5t32 -15.5
t29.5 -16t22.5 -5q16 0 25 9t16 28l58 -30q-13 -39 -38.5 -61.5t-60.5 -22.5q-20 0 -34 4.5t-30 14.5z" />
    <glyph glyph-name="Umacron" unicode="&#x16a;" horiz-adv-x="632" 
d="M562 666v-473q0 -39 -12 -76t-40.5 -65t-76 -45t-117.5 -17t-117.5 17t-76 45t-40.5 65t-12 76v473h126v-463q0 -49 26.5 -75.5t93.5 -26.5t93.5 26.5t26.5 75.5v463h126zM191 813h250v-81h-250v81z" />
    <glyph glyph-name="umacron" unicode="&#x16b;" 
d="M187 487v-340q0 -20 9 -29.5t30 -9.5q23 0 58.5 12t68.5 29v338h122v-487h-93l-12 41q-46 -23 -99 -37t-96 -14q-61 0 -85.5 39t-24.5 105v353h122zM153 638h250v-81h-250v81z" />
    <glyph glyph-name="Ubreve" unicode="&#x16c;" horiz-adv-x="632" 
d="M562 666v-473q0 -39 -12 -76t-40.5 -65t-76 -45t-117.5 -17t-117.5 17t-76 45t-40.5 65t-12 76v473h126v-463q0 -49 26.5 -75.5t93.5 -26.5t93.5 26.5t26.5 75.5v463h126zM453 814q-11 -40 -45 -69.5t-93 -29.5t-93 29.5t-45 69.5l59 32q10 -29 29.5 -46t49.5 -17
t49.5 17t30.5 46z" />
    <glyph glyph-name="ubreve" unicode="&#x16d;" 
d="M187 487v-340q0 -20 9 -29.5t30 -9.5q23 0 58.5 12t68.5 29v338h122v-487h-93l-12 41q-46 -23 -99 -37t-96 -14q-61 0 -85.5 39t-24.5 105v353h122zM427 646q-5 -21 -16.5 -40.5t-30 -35t-43.5 -25t-57 -9.5t-57 9.5t-43.5 25t-30 35t-15.5 40.5l59 31q10 -28 31.5 -48
t55.5 -20q35 0 56 20t32 48z" />
    <glyph glyph-name="Uring" unicode="&#x16e;" horiz-adv-x="632" 
d="M562 666v-473q0 -39 -12 -76t-40.5 -65t-76 -45t-117.5 -17t-117.5 17t-76 45t-40.5 65t-12 76v473h126v-463q0 -49 26.5 -75.5t93.5 -26.5t93.5 26.5t26.5 75.5v463h126zM397 782q0 -32 -22 -55t-60 -23t-60 21.5t-22 56.5q0 33 22 56t60 23t60 -23t22 -56zM348 782
q0 35 -33 35t-33 -35q0 -15 8.5 -24.5t24.5 -9.5t24.5 9.5t8.5 24.5z" />
    <glyph glyph-name="uring" unicode="&#x16f;" 
d="M187 487v-340q0 -20 9 -29.5t30 -9.5q23 0 58.5 12t68.5 29v338h122v-487h-93l-12 41q-46 -23 -99 -37t-96 -14q-61 0 -85.5 39t-24.5 105v353h122zM364 615q0 -35 -22.5 -60.5t-66.5 -25.5q-43 0 -66 24t-23 62q0 35 23 60t66 25q44 0 66.5 -25t22.5 -60zM311 615
q0 17 -9.5 27.5t-26.5 10.5t-26.5 -10.5t-9.5 -27.5t9.5 -28t26.5 -11t26.5 11t9.5 28z" />
    <glyph glyph-name="Uhungarumlaut" unicode="&#x170;" horiz-adv-x="632" 
d="M562 666v-473q0 -39 -12 -76t-40.5 -65t-76 -45t-117.5 -17t-117.5 17t-76 45t-40.5 65t-12 76v473h126v-463q0 -49 26.5 -75.5t93.5 -26.5t93.5 26.5t26.5 75.5v463h126zM174 757q26 23 53 50t52 53l61 -63q-25 -26 -52.5 -51t-56.5 -46zM346 757q26 23 53 50t52 53
l61 -63q-25 -26 -52.5 -51t-56.5 -46z" />
    <glyph glyph-name="uhungarumlaut" unicode="&#x171;" 
d="M187 487v-340q0 -20 9 -29.5t30 -9.5q23 0 58.5 12t68.5 29v338h122v-487h-93l-12 41q-46 -23 -99 -37t-96 -14q-61 0 -85.5 39t-24.5 105v353h122zM126 587q31 27 58.5 54.5t59.5 62.5l61 -64q-35 -35 -62 -59t-61 -51zM306 587q31 27 58.5 54.5t59.5 62.5l61 -64
q-35 -35 -62 -59t-61 -51z" />
    <glyph glyph-name="Uogonek" unicode="&#x172;" horiz-adv-x="632" 
d="M408 -193q-16 -7 -31.5 -10.5t-37.5 -3.5q-48 0 -73.5 21t-25.5 59t28 67.5t72 50.5q-6 -1 -12 -1h-12q-70 0 -117.5 17t-76 45t-40.5 65t-12 76v473h126v-463q0 -49 26.5 -75.5t93.5 -26.5t93.5 26.5t26.5 75.5v463h126v-473q0 -29 -6.5 -56.5t-21 -51.5t-37.5 -43.5
t-57 -32.5q-63 -34 -88.5 -62t-25.5 -54q0 -14 8 -23t29 -9q18 0 31 4z" />
    <glyph glyph-name="uogonek" unicode="&#x173;" 
d="M469 -193q-16 -7 -31.5 -10.5t-37.5 -3.5q-48 0 -73.5 21t-25.5 59q0 40 33.5 71t88.5 56h-41l-12 41q-46 -23 -99 -37t-96 -14q-61 0 -85.5 39t-24.5 105v353h122v-340q0 -20 9 -29.5t30 -9.5q23 0 58.5 12t68.5 29v338h122v-487q-48 -37 -68 -60.5t-20 -46.5
q0 -14 8 -23t29 -9q18 0 31 4z" />
    <glyph glyph-name="Wcircumflex" unicode="&#x174;" horiz-adv-x="944" 
d="M677 150l127 516h125l-165 -666h-170l-122 536l-122 -536h-170l-165 666h125l127 -516l121 516h168zM345 765q35 23 63.5 44t63.5 47q34 -26 62.5 -46.5t64.5 -44.5l-34 -56q-29 13 -48.5 23.5t-44.5 25.5q-25 -14 -44.5 -24.5t-47.5 -24.5z" />
    <glyph glyph-name="wcircumflex" unicode="&#x175;" horiz-adv-x="704" 
d="M108 0l-90 487h114l60 -326l97 326h127l96 -326l60 326h114l-90 -487h-141l-103 350l-103 -350h-141zM213 587q33 24 69 52t71 57q34 -28 69.5 -56t69.5 -53l-38 -54q-17 10 -30 18t-24.5 15.5t-22.5 15t-24 16.5q-13 -9 -24 -16.5t-22.5 -15t-25 -15.5t-29.5 -18z" />
    <glyph glyph-name="Ycircumflex" unicode="&#x176;" horiz-adv-x="566" 
d="M427 666h134l-215 -473v-193h-126v193l-215 473h134l144 -336zM156 765q35 23 63.5 44t63.5 47q34 -26 62.5 -46.5t64.5 -44.5l-34 -56q-29 13 -48.5 23.5t-44.5 25.5q-25 -14 -44.5 -24.5t-47.5 -24.5z" />
    <glyph glyph-name="ycircumflex" unicode="&#x177;" horiz-adv-x="478" 
d="M322 0l-65 -197h-116l61 197h-43l-154 487h125l111 -370l112 370h125zM103 587q33 24 69 52t71 57q34 -28 69.5 -56t69.5 -53l-38 -54q-17 10 -30 18t-24.5 15.5t-22.5 15t-24 16.5q-13 -9 -24 -16.5t-22.5 -15t-25 -15.5t-29.5 -18z" />
    <glyph glyph-name="Ydieresis" unicode="&#x178;" horiz-adv-x="566" 
d="M427 666h134l-215 -473v-193h-126v193l-215 473h134l144 -336zM129 823h102v-97h-102v97zM322 823h102v-97h-102v97z" />
    <glyph glyph-name="Zacute" unicode="&#x179;" horiz-adv-x="575" 
d="M206 107h309v-107h-450v106l308 453h-296v107h435v-107zM223 777q35 22 69 44t64 45l47 -74q-34 -25 -64.5 -43.5t-71.5 -39.5z" />
    <glyph glyph-name="zacute" unicode="&#x17a;" horiz-adv-x="460" 
d="M58 487h355v-94l-217 -299h224v-94h-365v94l217 299h-214v94zM164 607q35 22 71.5 46t74.5 52l48 -74q-42 -28 -76 -49t-74 -43z" />
    <glyph glyph-name="Zdotaccent" unicode="&#x17b;" horiz-adv-x="575" 
d="M206 107h309v-107h-450v106l308 453h-296v107h435v-107zM236 720v141h122v-141h-122z" />
    <glyph glyph-name="zdotaccent" unicode="&#x17c;" horiz-adv-x="460" 
d="M58 487h355v-94l-217 -299h224v-94h-365v94l217 299h-214v94zM185 556v141h122v-141h-122z" />
    <glyph glyph-name="Zcaron" unicode="&#x17d;" horiz-adv-x="575" 
d="M206 107h309v-107h-450v106l308 453h-296v107h435v-107zM206 856q28 -14 47.5 -24.5t44.5 -24.5q25 15 44.5 25t48.5 24l34 -56q-36 -24 -64.5 -44.5t-62.5 -46.5q-35 26 -63.5 47t-63.5 44z" />
    <glyph glyph-name="zcaron" unicode="&#x17e;" horiz-adv-x="460" 
d="M58 487h355v-94l-217 -299h224v-94h-365v94l217 299h-214v94zM142 691q16 -10 29.5 -18t25 -15.5t22.5 -15t24 -16.5q13 9 24 16.5t22.5 15t24.5 15.5t30 18l38 -54q-34 -25 -69.5 -53t-69.5 -56q-35 29 -71 57t-69 52z" />
    <glyph glyph-name="florin" unicode="&#x192;" horiz-adv-x="488" 
d="M78 326l8 101h82l11 130q8 79 48 112t121 33q28 0 53 -3.5t52 -10.5l-13 -96q-17 3 -40 5.5t-40 2.5q-36 0 -46.5 -14.5t-12.5 -43.5l-10 -115h126l-13 -101h-122l-33 -381q-6 -72 -42.5 -107t-119.5 -35q-17 0 -39.5 3t-41.5 8l16 97q12 -3 25.5 -4.5t25.5 -1.5
q30 0 41 11t13 37l33 373h-82z" />
    <glyph glyph-name="Aringacute" unicode="&#x1fa;" horiz-adv-x="646" 
d="M446 138h-247l-42 -138h-132l210 666h176l210 -666h-132zM230 247h184l-91 315zM405 772q0 -32 -22 -55t-60 -23t-60 21.5t-22 56.5q0 33 22 56t60 23t60 -23t22 -56zM356 772q0 35 -33 35t-33 -35q0 -15 8.5 -24.5t24.5 -9.5t24.5 9.5t8.5 24.5zM288 932
q34 20 59.5 36.5t55.5 39.5l42 -67q-32 -23 -59.5 -38.5t-58.5 -31.5z" />
    <glyph glyph-name="aringacute" unicode="&#x1fb;" horiz-adv-x="491" 
d="M336 612q0 -32 -22 -55t-60 -23t-60 21.5t-22 56.5q0 33 22 56t60 23t60 -23t22 -56zM287 612q0 35 -33 35t-33 -35q0 -15 8.5 -24.5t24.5 -9.5t24.5 9.5t8.5 24.5zM214 772q34 20 59.5 36.5t55.5 39.5l42 -67q-32 -23 -59.5 -38.5t-58.5 -31.5zM431 0h-100l-9 33
q-33 -22 -70.5 -32.5t-74.5 -10.5q-67 0 -97 41t-30 104q0 75 33.5 106t108.5 31h117v51q0 20 -3.5 34t-13.5 22.5t-28.5 12.5t-47.5 4q-33 0 -68 -4t-67 -11l-15 93q35 11 80.5 17t86.5 6q57 0 95.5 -10.5t61 -32t32 -54.5t9.5 -79v-321zM309 184h-90q-30 0 -40.5 -10
t-10.5 -38q0 -26 10 -37.5t39 -11.5q27 0 51 7.5t41 17.5v72z" />
    <glyph glyph-name="AEacute" unicode="&#x1fc;" horiz-adv-x="862" 
d="M446 138h-247l-42 -138h-132l210 666h572v-111h-361l51 -161h288v-111h-253l54 -172h221v-111h-318zM230 247h184l-91 315zM305 777q35 22 69 44t64 45l47 -74q-34 -25 -64.5 -43.5t-71.5 -39.5z" />
    <glyph glyph-name="aeacute" unicode="&#x1fd;" horiz-adv-x="742" 
d="M431 172q0 -45 19.5 -63.5t75.5 -18.5q35 0 72 5.5t77 17.5l19 -92q-42 -16 -88.5 -23.5t-90.5 -7.5q-57 0 -96 12.5t-64 36.5q-33 -21 -76 -35t-91 -14q-73 0 -105.5 41t-32.5 104q0 75 33.5 106t108.5 31h117v51q0 20 -3.5 34t-13.5 22.5t-28.5 12.5t-47.5 4
q-33 0 -68 -4t-67 -11l-15 93q35 11 80.5 17t86.5 6q51 0 83.5 -12.5t61.5 -32.5q25 18 56.5 31.5t76.5 13.5q58 0 95.5 -16t58.5 -43t29 -62.5t8 -74.5v-104h-271v-25zM431 295h155v24q0 35 -14.5 56.5t-59.5 21.5t-63 -21.5t-18 -56.5v-24zM217 87q30 0 55.5 8t42.5 18
q-6 28 -6 65v6h-90q-30 0 -40.5 -10t-10.5 -38q0 -26 10 -37.5t39 -11.5zM328 607q35 22 71.5 46t74.5 52l48 -74q-42 -28 -76 -49t-74 -43z" />
    <glyph glyph-name="Oslashacute" unicode="&#x1fe;" horiz-adv-x="624" 
d="M111 55q-27 28 -39 64t-12 76v276q0 42 13 79t42.5 65t77.5 44.5t119 16.5q48 0 85.5 -8t66.5 -22l48 80l52 -30l-51 -86q27 -28 39 -63.5t12 -75.5v-276q0 -42 -13 -79t-42.5 -65t-78 -44.5t-118.5 -16.5q-49 0 -86.5 8t-65.5 22l-48 -80l-52 30zM438 464v9.5t-1 9.5
l-216 -361q30 -21 91 -21q70 0 98 27t28 74v262zM186 202v-9.5t1 -9.5l216 361q-32 21 -91 21q-71 0 -98.5 -27t-27.5 -74v-262zM250 777q35 22 69 44t64 45l47 -74q-34 -25 -64.5 -43.5t-71.5 -39.5z" />
    <glyph glyph-name="oslashacute" unicode="&#x1ff;" horiz-adv-x="520" 
d="M94 45q-26 27 -36 62.5t-10 74.5v123q0 37 9.5 72t33.5 61.5t65 42.5t104 16q40 0 70.5 -6.5t53.5 -18.5l44 64l43 -28l-46 -67q26 -27 36.5 -62.5t10.5 -73.5v-123q0 -38 -9.5 -72.5t-33.5 -61t-65 -42.5t-104 -16q-77 0 -125 25l-44 -65l-43 28zM350 309v10t-1 10
l-150 -221q22 -14 61 -14q49 0 69.5 21t20.5 63v131zM170 178v-10t1 -10l150 220q-21 15 -61 15q-49 0 -69.5 -21t-20.5 -63v-131zM190 607q35 22 71.5 46t74.5 52l48 -74q-42 -28 -76 -49t-74 -43z" />
    <glyph glyph-name="Scommaaccent" unicode="&#x218;" horiz-adv-x="540" 
d="M490 181q0 -47 -9 -83t-34.5 -60t-71 -36t-119.5 -12q-29 0 -58.5 3.5t-57.5 9t-52 12.5t-40 15l22 99q47 -14 92.5 -22.5t95.5 -8.5q34 0 55 4t32 13.5t15 25.5t4 40q0 28 -2 44t-14 26.5t-36.5 18t-69.5 17.5q-60 13 -96.5 27.5t-55.5 37t-25 56.5t-6 87q0 45 11 79
t37.5 56.5t69.5 34t106 11.5q44 0 94 -5.5t100 -16.5l-14 -106q-42 9 -88 14.5t-90 5.5q-32 0 -51.5 -3.5t-30.5 -12.5t-14.5 -23.5t-3.5 -36.5q0 -29 2 -45t13.5 -26t35 -17.5t66.5 -17.5q67 -16 105 -31.5t56.5 -37.5t22.5 -54t4 -82zM215 -51h117v-140l-64 -104l-53 29
l43 83h-43v132z" />
    <glyph glyph-name="scommaaccent" unicode="&#x219;" horiz-adv-x="447" 
d="M397 142q0 -35 -7 -63.5t-26 -48t-53.5 -30t-89.5 -10.5q-20 0 -42 2t-44.5 6t-43.5 9t-38 11l17 93q31 -9 69 -15t76 -6q20 0 32.5 2.5t19 8t8.5 15t2 23.5q0 11 -2 20t-10.5 16.5t-25.5 14t-47 13.5q-45 11 -71 23t-40 29t-18 41.5t-4 59.5q0 37 9 63.5t30 43.5
t56 25.5t87 8.5q34 0 74 -4.5t72 -12.5l-12 -97q-28 5 -66.5 9.5t-67.5 4.5q-40 0 -51 -9.5t-11 -32.5q0 -15 1.5 -23.5t8 -14.5t20.5 -10.5t39 -10.5q51 -14 80.5 -25.5t45 -27.5t19.5 -40t4 -61zM178 -51h117v-140l-64 -104l-53 29l43 83h-43v132z" />
    <glyph glyph-name="circumflex" unicode="&#x2c6;" horiz-adv-x="389" 
d="M55 587q33 24 69 52t71 57q34 -28 69.5 -56t69.5 -53l-38 -54q-17 10 -30 18t-24.5 15.5t-22.5 15t-24 16.5q-13 -9 -24 -16.5t-22.5 -15t-25 -15.5t-29.5 -18z" />
    <glyph glyph-name="caron" unicode="&#x2c7;" horiz-adv-x="389" 
d="M94 691q16 -10 29.5 -18t25 -15.5t22.5 -15t24 -16.5q13 9 24 16.5t22.5 15t24.5 15.5t30 18l38 -54q-34 -25 -69.5 -53t-69.5 -56q-35 29 -71 57t-69 52z" />
    <glyph glyph-name="breve" unicode="&#x2d8;" horiz-adv-x="403" 
d="M348 646q-5 -21 -16.5 -40.5t-30 -35t-43.5 -25t-57 -9.5t-57 9.5t-43.5 25t-30 35t-15.5 40.5l59 31q10 -28 31.5 -48t55.5 -20q35 0 56 20t32 48z" />
    <glyph glyph-name="dotaccent" unicode="&#x2d9;" horiz-adv-x="232" 
d="M55 556v141h122v-141h-122z" />
    <glyph glyph-name="ring" unicode="&#x2da;" horiz-adv-x="288" 
d="M233 615q0 -35 -22.5 -60.5t-66.5 -25.5q-43 0 -66 24t-23 62q0 35 23 60t66 25q44 0 66.5 -25t22.5 -60zM180 615q0 17 -9.5 27.5t-26.5 10.5t-26.5 -10.5t-9.5 -27.5t9.5 -28t26.5 -11t26.5 11t9.5 28z" />
    <glyph glyph-name="ogonek" unicode="&#x2db;" horiz-adv-x="284" 
d="M223 -193q-16 -7 -31.5 -10.5t-37.5 -3.5q-48 0 -73.5 21t-25.5 59q0 43 35 72.5t87 54.5h52q-48 -37 -68 -60.5t-20 -46.5q0 -14 8 -23t29 -9q18 0 31 4z" />
    <glyph glyph-name="tilde" unicode="&#x2dc;" horiz-adv-x="423" 
d="M205 567q-14 10 -24.5 15.5t-24.5 5.5q-17 0 -29 -13.5t-22 -26.5l-50 41q17 30 42 53.5t57 23.5q17 0 31 -4.5t32 -15.5t29.5 -16t22.5 -5q16 0 25 9t16 28l58 -30q-13 -39 -38.5 -61.5t-60.5 -22.5q-20 0 -34 4.5t-30 14.5z" />
    <glyph glyph-name="hungarumlaut" unicode="&#x2dd;" horiz-adv-x="469" 
d="M55 587q31 27 58.5 54.5t59.5 62.5l61 -64q-35 -35 -62 -59t-61 -51zM235 587q31 27 58.5 54.5t59.5 62.5l61 -64q-35 -35 -62 -59t-61 -51z" />
    <glyph glyph-name="uni03A9" unicode="&#x3a9;" horiz-adv-x="708" 
d="M606 198q0 -38 -11 -64t-33 -50h86v-84h-233v84q31 16 47.5 39.5t16.5 71.5v273q0 47 -31 72t-94 25t-94 -25t-31 -72v-273q0 -48 16.5 -71.5t47.5 -39.5v-84h-233v84h86q-22 24 -33 50t-11 64v277q0 39 14 75t44 64t78 45t116 17t116 -17t78 -45t44 -64t14 -75v-277z
" />
    <glyph glyph-name="pi" unicode="&#x3c0;" horiz-adv-x="672" 
d="M516 385v-266q0 -19 7.5 -26t27.5 -7q25 0 54 9l17 -88q-20 -8 -44 -12.5t-49 -4.5q-69 0 -101 32.5t-32 89.5v273h-138v-385h-118v385h-105v102h583v-102h-102z" />
    <glyph glyph-name="Wgrave" unicode="&#x1e80;" horiz-adv-x="944" 
d="M677 150l127 516h125l-165 -666h-170l-122 536l-122 -536h-170l-165 666h125l127 -516l121 516h168zM481 709q-40 21 -71 39.5t-65 43.5l48 74q29 -23 63 -45t69 -44z" />
    <glyph glyph-name="wgrave" unicode="&#x1e81;" horiz-adv-x="704" 
d="M108 0l-90 487h114l60 -326l97 326h127l96 -326l60 326h114l-90 -487h-141l-103 350l-103 -350h-141zM357 539q-39 22 -73 43t-76 49l48 74q38 -28 74.5 -52t71.5 -46z" />
    <glyph glyph-name="Wacute" unicode="&#x1e82;" horiz-adv-x="944" 
d="M677 150l127 516h125l-165 -666h-170l-122 536l-122 -536h-170l-165 666h125l127 -516l121 516h168zM424 777q35 22 69 44t64 45l47 -74q-34 -25 -64.5 -43.5t-71.5 -39.5z" />
    <glyph glyph-name="wacute" unicode="&#x1e83;" horiz-adv-x="704" 
d="M108 0l-90 487h114l60 -326l97 326h127l96 -326l60 326h114l-90 -487h-141l-103 350l-103 -350h-141zM306 607q35 22 71.5 46t74.5 52l48 -74q-42 -28 -76 -49t-74 -43z" />
    <glyph glyph-name="Wdieresis" unicode="&#x1e84;" horiz-adv-x="944" 
d="M677 150l127 516h125l-165 -666h-170l-122 536l-122 -536h-170l-165 666h125l127 -516l121 516h168zM325 823h102v-97h-102v97zM518 823h102v-97h-102v97z" />
    <glyph glyph-name="wdieresis" unicode="&#x1e85;" horiz-adv-x="704" 
d="M108 0l-90 487h114l60 -326l97 326h127l96 -326l60 326h114l-90 -487h-141l-103 350l-103 -350h-141zM206 659h101v-105h-101v105zM395 659h101v-105h-101v105z" />
    <glyph glyph-name="Ygrave" unicode="&#x1ef2;" horiz-adv-x="566" 
d="M427 666h134l-215 -473v-193h-126v193l-215 473h134l144 -336zM294 709q-40 21 -71 39.5t-65 43.5l48 74q29 -23 63 -45t69 -44z" />
    <glyph glyph-name="ygrave" unicode="&#x1ef3;" horiz-adv-x="478" 
d="M322 0l-65 -197h-116l61 197h-43l-154 487h125l111 -370l112 370h125zM263 539q-39 22 -73 43t-76 49l48 74q38 -28 74.5 -52t71.5 -46z" />
    <glyph glyph-name="endash" unicode="&#x2013;" horiz-adv-x="500" 
d="M65 331h370v-102h-370v102z" />
    <glyph glyph-name="emdash" unicode="&#x2014;" horiz-adv-x="645" 
d="M65 331h515v-102h-515v102z" />
    <glyph glyph-name="quoteleft" unicode="&#x2018;" horiz-adv-x="274" 
d="M199 424h-124v148l78 131l56 -31l-56 -108h46v-140z" />
    <glyph glyph-name="quoteright" unicode="&#x2019;" horiz-adv-x="264" 
d="M75 686h124v-148l-78 -131l-56 31l56 108h-46v140z" />
    <glyph glyph-name="quotesinglbase" unicode="&#x201a;" horiz-adv-x="274" 
d="M75 140h124v-148l-78 -131l-56 31l56 108h-46v140z" />
    <glyph glyph-name="quotedblleft" unicode="&#x201c;" horiz-adv-x="474" 
d="M199 424h-124v148l78 131l56 -31l-56 -108h46v-140zM399 424h-124v148l78 131l56 -31l-56 -108h46v-140z" />
    <glyph glyph-name="quotedblright" unicode="&#x201d;" horiz-adv-x="474" 
d="M275 686h124v-148l-78 -131l-56 31l56 108h-46v140zM75 686h124v-148l-78 -131l-56 31l56 108h-46v140z" />
    <glyph glyph-name="quotedblbase" unicode="&#x201e;" horiz-adv-x="474" 
d="M275 140h124v-148l-78 -131l-56 31l56 108h-46v140zM75 140h124v-148l-78 -131l-56 31l56 108h-46v140z" />
    <glyph glyph-name="dagger" unicode="&#x2020;" horiz-adv-x="485" 
d="M50 497h146v169h93v-169h146v-85h-146v-482h-93v482h-146v85z" />
    <glyph glyph-name="daggerdbl" unicode="&#x2021;" horiz-adv-x="485" 
d="M50 184h146v228h-146v85h146v169h93v-169h146v-85h-146v-228h146v-85h-146v-169h-93v169h-146v85z" />
    <glyph glyph-name="bullet" unicode="&#x2022;" horiz-adv-x="369" 
d="M55 323q0 27 10 50.5t27.5 41.5t41 28t50.5 10t50.5 -10t41.5 -28t28 -41.5t10 -50.5t-10 -50.5t-28 -41t-41.5 -27.5t-50.5 -10t-50.5 10t-41 27.5t-27.5 41t-10 50.5z" />
    <glyph glyph-name="ellipsis" unicode="&#x2026;" horiz-adv-x="822" 
d="M75 140h124v-140h-124v140zM349 140h124v-140h-124v140zM623 140h124v-140h-124v140z" />
    <glyph glyph-name="perthousand" unicode="&#x2030;" horiz-adv-x="1258" 
d="M338 -10l-77 31l269 655l77 -31zM362 454q0 -31 -7.5 -57t-25.5 -45t-48 -29.5t-75 -10.5t-75 10.5t-48 29.5t-25.5 45t-7.5 57v80q0 31 7.5 57t25.5 45t48 29.5t75 10.5t75 -10.5t48 -29.5t25.5 -45t7.5 -57v-80zM266 541q0 27 -12.5 39.5t-47.5 12.5t-47.5 -12.5
t-12.5 -39.5v-94q0 -27 12.5 -39.5t47.5 -12.5t47.5 12.5t12.5 39.5v94zM822 132q0 -31 -7.5 -57t-25.5 -45t-48 -29.5t-75 -10.5t-75 10.5t-48 29.5t-25.5 45t-7.5 57v80q0 31 7.5 57t25.5 45t48 29.5t75 10.5t75 -10.5t48 -29.5t25.5 -45t7.5 -57v-80zM726 219
q0 27 -12.5 39.5t-47.5 12.5t-47.5 -12.5t-12.5 -39.5v-94q0 -27 12.5 -39.5t47.5 -12.5t47.5 12.5t12.5 39.5v94zM1203 132q0 -31 -7.5 -57t-25.5 -45t-48 -29.5t-75 -10.5t-75 10.5t-48 29.5t-25.5 45t-7.5 57v80q0 31 7.5 57t25.5 45t48 29.5t75 10.5t75 -10.5t48 -29.5
t25.5 -45t7.5 -57v-80zM1107 219q0 27 -12.5 39.5t-47.5 12.5t-47.5 -12.5t-12.5 -39.5v-94q0 -27 12.5 -39.5t47.5 -12.5t47.5 12.5t12.5 39.5v94z" />
    <glyph glyph-name="guilsinglleft" unicode="&#x2039;" horiz-adv-x="298" 
d="M162 437l81 -51l-93 -142l93 -142l-81 -51l-127 193z" />
    <glyph glyph-name="guilsinglright" unicode="&#x203a;" horiz-adv-x="298" 
d="M263 244l-127 -193l-81 51l93 142l-93 142l81 51z" />
    <glyph glyph-name="fraction" unicode="&#x2044;" horiz-adv-x="368" 
d="M70 -40l-70 30l299 696l69 -30z" />
    <glyph glyph-name="Euro" unicode="&#x20ac;" horiz-adv-x="538" 
d="M103 217h-73v68h73v82h-73v68h73v33q0 92 56 140t181 48q38 0 74.5 -4t78.5 -15l-14 -104q-41 8 -73.5 11t-61.5 3q-35 0 -57.5 -6t-35 -18t-17.5 -31t-5 -46v-11h201v-68h-201v-82h201v-68h-201v-17q0 -27 5 -46t17.5 -31t35 -18t57.5 -6q29 0 61.5 3t73.5 11l14 -104
q-42 -11 -78.5 -15t-74.5 -4q-125 0 -181 48t-56 140v39z" />
    <glyph glyph-name="uni2113" unicode="&#x2113;" horiz-adv-x="516" 
d="M304 -10q-56 0 -92.5 13.5t-58.5 36.5t-31.5 54.5t-12.5 66.5q-17 -10 -32 -17.5t-30 -15.5l-47 82q28 16 52.5 30.5t54.5 32.5v242q0 91 42.5 141t140.5 50q83 0 127 -44t44 -111q0 -99 -58 -173.5t-175 -146.5v-62q0 -43 20 -60.5t63 -17.5q32 0 63 8t71 28l31 -89
q-36 -20 -81 -34t-91 -14zM228 349q54 42 86 88t32 111q0 29 -15 44t-41 15q-62 0 -62 -71v-187z" />
    <glyph glyph-name="uni2116" unicode="&#x2116;" horiz-adv-x="990" 
d="M193 477v-477h-118v666h149l211 -493v493h117v-666h-149zM652 245h298v-74h-298v74zM960 439q0 -31 -8.5 -57t-27.5 -45t-49.5 -29.5t-73.5 -10.5q-44 0 -74 10.5t-48.5 29.5t-27 45t-8.5 57v95q0 31 8.5 57t27 45t48.5 29.5t74 10.5q43 0 73.5 -10.5t49.5 -29.5
t27.5 -45t8.5 -57v-95zM866 536q0 29 -14.5 45t-50.5 16t-50.5 -16t-14.5 -45v-99q0 -29 14.5 -45t50.5 -16t50.5 16t14.5 45v99z" />
    <glyph glyph-name="trademark" unicode="&#x2122;" horiz-adv-x="501" 
d="M401 580l-36 -93h-44l-35 92l-3 -117h-42l7 204h46l49 -131l50 131h45l8 -204h-43zM106 626h-56v40h156v-40h-56v-164h-44v164z" />
    <glyph glyph-name="estimated" unicode="&#x212e;" horiz-adv-x="794" 
d="M182 301v-201q41 -35 95 -55.5t120 -20.5q90 0 157.5 32t133.5 98l24 -24q-29 -30 -61.5 -55.5t-71 -44.5t-83.5 -29.5t-99 -10.5q-76 0 -141 26.5t-113 72t-75.5 106t-27.5 128.5q0 69 28.5 129.5t77 105.5t113.5 71.5t138 26.5t137.5 -26.5t113.5 -71.5t77.5 -105.5
t28.5 -129.5v-22h-572zM397 622q-63 0 -118 -21.5t-97 -58.5v-209h430v209q-42 37 -97 58.5t-118 21.5z" />
    <glyph glyph-name="partialdiff" unicode="&#x2202;" horiz-adv-x="583" 
d="M401 433q2 16 3.5 29.5t1.5 25.5q0 53 -27 77t-95 24q-33 0 -66 -6.5t-68 -18.5l-26 94q42 20 88.5 29t90.5 9q60 0 103 -13.5t70 -39.5t39.5 -63.5t12.5 -84.5q0 -20 -1.5 -40.5t-6.5 -46.5l-42 -238q-8 -43 -21 -76.5t-40 -56.5t-70.5 -35t-110.5 -12q-51 0 -86 10.5
t-57.5 29t-32.5 44.5t-10 56q0 10 1 20t3 20l14 77q7 40 18.5 73t34 57t61 37t100.5 13q29 0 59 -5t55 -18zM286 323q-25 0 -41.5 -3.5t-27 -12t-16.5 -22t-10 -33.5l-15 -85q-3 -15 -3 -26q0 -26 18 -36.5t63 -10.5q25 0 42.5 3.5t29 11.5t18 22.5t10.5 35.5l23 133
q-15 10 -40 16.5t-51 6.5z" />
    <glyph glyph-name="Delta" unicode="&#x2206;" horiz-adv-x="732" 
d="M677 0h-622l249 666h124zM215 106h301l-150 419z" />
    <glyph glyph-name="product" unicode="&#x220f;" horiz-adv-x="788" 
d="M623 553v-653h-122v653h-214v-653h-122v653h-125v113h708v-113h-125z" />
    <glyph glyph-name="summation" unicode="&#x2211;" horiz-adv-x="543" 
d="M65 13l208 274l-208 266v113h413v-113h-259l204 -264l-204 -276h259v-113h-413v113z" />
    <glyph glyph-name="minus" unicode="&#x2212;" horiz-adv-x="402" 
d="M60 331h282v-102h-282v102z" />
    <glyph glyph-name="radical" unicode="&#x221a;" horiz-adv-x="680" 
d="M199 0l-154 464l106 33l113 -357l164 590h242v-99h-152l-183 -631h-136z" />
    <glyph glyph-name="infinity" unicode="&#x221e;" horiz-adv-x="889" 
d="M849 279q0 -44 -14.5 -77.5t-40.5 -56t-62 -34t-78 -11.5q-33 0 -61.5 9.5t-54 25t-48.5 36t-46 42.5q-23 -22 -46 -42.5t-48.5 -36t-54 -25t-61.5 -9.5q-42 0 -77.5 11.5t-61.5 34t-40.5 56t-14.5 77.5t14 78t39.5 57t61.5 34.5t79 11.5q33 0 61.5 -9t54 -25t48.5 -36.5
t46 -42.5q23 22 46 42.5t48.5 36.5t54 25t61.5 9q43 0 79 -11.5t62 -34.5t40 -57t14 -78zM148 279q0 -40 24 -60t62 -20q40 0 72.5 23.5t65.5 57.5q-32 33 -65 57t-73 24q-33 0 -59.5 -20.5t-26.5 -61.5zM741 279q0 41 -27 61.5t-60 20.5q-40 0 -73 -24t-65 -57
q33 -34 65.5 -57.5t72.5 -23.5q38 0 62.5 20t24.5 60z" />
    <glyph glyph-name="integral" unicode="&#x222b;" horiz-adv-x="382" 
d="M236 -73q0 -69 -32.5 -101.5t-93.5 -32.5q-26 0 -49 5t-41 13l19 87q9 -3 19.5 -5.5t21.5 -2.5q22 0 28 9t6 26v618q0 69 32 101t93 32q29 0 55 -5.5t48 -14.5l-21 -94q-28 10 -53 10q-32 0 -32 -35v-610v0z" />
    <glyph glyph-name="approxequal" unicode="&#x2248;" horiz-adv-x="551" 
d="M191 230q32 0 56 -9t44 -20t38.5 -20t39.5 -9q23 0 40.5 9t34.5 26l47 -71q-21 -23 -53 -41.5t-74 -18.5q-26 0 -46.5 9t-39 19.5t-38.5 19.5t-46 9t-48.5 -11.5t-41.5 -26.5l-44 74q10 10 24.5 21t32 20t36.5 14.5t38 5.5zM191 412q32 0 56 -9t44 -20t38.5 -20t39.5 -9
q23 0 40.5 9t34.5 26l47 -71q-21 -23 -53 -41.5t-74 -18.5q-26 0 -46.5 9t-39 19.5t-38.5 19.5t-46 9t-48.5 -11.5t-41.5 -26.5l-44 74q10 10 24.5 21t32 20t36.5 14.5t38 5.5z" />
    <glyph glyph-name="notequal" unicode="&#x2260;" horiz-adv-x="539" 
d="M70 386h225l69 133l71 -37l-50 -96h84v-84h-128l-54 -104h182v-84h-226l-66 -128l-71 37l47 91h-83v84h127l54 104h-181v84z" />
    <glyph glyph-name="lessequal" unicode="&#x2264;" horiz-adv-x="535" 
d="M60 85h410v-85h-410v85zM185 343l262 -135l-38 -73l-333 174v67l333 171l38 -73z" />
    <glyph glyph-name="greaterequal" unicode="&#x2265;" horiz-adv-x="535" 
d="M475 0h-410v85h410v-85zM88 474l38 73l333 -171v-67l-333 -174l-38 73l262 135z" />
    <glyph glyph-name="lozenge" unicode="&#x25ca;" horiz-adv-x="583" 
d="M254 666h75l219 -332l-219 -334h-75l-219 334zM136 334l155 -234l156 234l-156 232z" />
    <glyph glyph-name="apple" unicode="&#xf8ff;" horiz-adv-x="876" 
d="M453 333v-333h-333v666h666v-333h-333z" />
    <glyph glyph-name="f_f" unicode="&#xfb00;" horiz-adv-x="726" 
d="M713 598q-17 4 -36 6t-34 2q-36 0 -45.5 -15t-9.5 -43v-61h124l-7 -97h-117v-390h-122v390h-241v-390h-122v390h-78v97h78v68q0 76 37 113.5t118 37.5q29 0 59 -4t61 -12l-14 -94q-23 5 -46 7.5t-38 2.5q-36 0 -45.5 -15t-9.5 -43v-61h241v68q0 76 37 113.5t118 37.5
q55 0 105 -14z" />
    <glyph glyph-name="fi" unicode="&#xfb01;" horiz-adv-x="625" 
d="M433 0v390h-208v-390h-122v390h-78v97h78v68q0 76 37 113.5t118 37.5q29 0 50.5 -3.5t45.5 -9.5l-13 -94q-29 7 -61 7q-36 0 -45.5 -15t-9.5 -43v-61h330v-487h-122zM433 556v141h122v-141h-122z" />
    <glyph glyph-name="fl" unicode="&#xfb02;" horiz-adv-x="625" 
d="M341 599q-15 3 -32 5t-29 2q-36 0 -45.5 -15t-9.5 -43v-61h124l-7 -97h-117v-390h-122v390h-78v97h78v68q0 76 37 113.5t118 37.5q23 0 48 -3t48 -10zM433 0v686l122 17v-703h-122z" />
    <glyph glyph-name="f_f_i" unicode="&#xfb03;" horiz-adv-x="988" 
d="M796 0v390h-208v-390h-122v390h-241v-390h-122v390h-78v97h78v68q0 76 37 113.5t118 37.5q65 0 126 -16l-14 -94q-24 5 -47.5 7.5t-42.5 2.5q-36 0 -45.5 -15t-9.5 -43v-61h241v68q0 76 37 113.5t118 37.5q21 0 43.5 -2.5t48.5 -9.5l-13 -94q-15 3 -30 4.5t-27 1.5
q-36 0 -45.5 -15t-9.5 -43v-61h330v-487h-122zM796 556v141h122v-141h-122z" />
    <glyph glyph-name="f_f_l" unicode="&#xfb04;" horiz-adv-x="988" 
d="M704 599q-15 3 -32 5t-29 2q-36 0 -45.5 -15t-9.5 -43v-61h124l-7 -97h-117v-390h-122v390h-241v-390h-122v390h-78v97h78v68q0 76 37 113.5t118 37.5q29 0 59 -4t61 -12l-14 -94q-23 5 -46 7.5t-38 2.5q-36 0 -45.5 -15t-9.5 -43v-61h241v68q0 76 37 113.5t118 37.5
q23 0 48 -3t48 -10zM796 0v686l122 17v-703h-122z" />
    <glyph glyph-name="Acute" horiz-adv-x="300" 
d="M60 777q35 22 69 44t64 45l47 -74q-34 -25 -64.5 -43.5t-71.5 -39.5z" />
    <glyph glyph-name="Breve" horiz-adv-x="386" 
d="M331 814q-11 -40 -45 -69.5t-93 -29.5t-93 29.5t-45 69.5l59 32q10 -29 29.5 -46t49.5 -17t49.5 17t30.5 46z" />
    <glyph glyph-name="Caron" horiz-adv-x="364" 
d="M90 856q28 -14 47.5 -24.5t44.5 -24.5q25 15 44.5 25t48.5 24l34 -56q-36 -24 -64.5 -44.5t-62.5 -46.5q-35 26 -63.5 47t-63.5 44z" />
    <glyph glyph-name="Cedilla" horiz-adv-x="300" 
d="M245 -119q0 -36 -25.5 -58.5t-81.5 -22.5q-17 0 -41.5 4t-41.5 11l10 47q13 -4 31.5 -6.5t33.5 -2.5q30 0 39.5 7.5t9.5 21.5q0 13 -8.5 18.5t-29.5 5.5q-5 0 -14.5 -0.5t-16.5 -1.5l-29 14l21 97h57l-13 -68q6 1 13.5 1.5t14.5 0.5q36 1 53.5 -18.5t17.5 -49.5z" />
    <glyph glyph-name="Circumflex" horiz-adv-x="364" 
d="M55 765q35 23 63.5 44t63.5 47q34 -26 62.5 -46.5t64.5 -44.5l-34 -56q-29 13 -48.5 23.5t-44.5 25.5q-25 -14 -44.5 -24.5t-47.5 -24.5z" />
    <glyph glyph-name="commaaccent" horiz-adv-x="327" 
d="M110 -51h117v-140l-64 -104l-53 29l43 83h-43v132z" />
    <glyph glyph-name="Dieresis" horiz-adv-x="415" 
d="M60 823h102v-97h-102v97zM253 823h102v-97h-102v97z" />
    <glyph glyph-name="Dotaccent" horiz-adv-x="232" 
d="M55 720v141h122v-141h-122z" />
    <glyph glyph-name="Grave" horiz-adv-x="300" 
d="M196 709q-40 21 -71 39.5t-65 43.5l48 74q29 -23 63 -45t69 -44z" />
    <glyph glyph-name="Hungarumlaut" horiz-adv-x="448" 
d="M55 757q26 23 53 50t52 53l61 -63q-25 -26 -52.5 -51t-56.5 -46zM227 757q26 23 53 50t52 53l61 -63q-25 -26 -52.5 -51t-56.5 -46z" />
    <glyph glyph-name="Macron" horiz-adv-x="360" 
d="M55 813h250v-81h-250v81z" />
    <glyph glyph-name="Ogonek" horiz-adv-x="284" 
d="M223 -193q-16 -7 -31.5 -10.5t-37.5 -3.5q-48 0 -73.5 21t-25.5 59q0 43 35 72.5t87 54.5h52q-48 -37 -68 -60.5t-20 -46.5q0 -14 8 -23t29 -9q18 0 31 4z" />
    <glyph glyph-name="Ring" horiz-adv-x="274" 
d="M219 782q0 -32 -22 -55t-60 -23t-60 21.5t-22 56.5q0 33 22 56t60 23t60 -23t22 -56zM170 782q0 35 -33 35t-33 -35q0 -15 8.5 -24.5t24.5 -9.5t24.5 9.5t8.5 24.5z" />
    <glyph glyph-name="Tilde" horiz-adv-x="423" 
d="M205 739q-14 9 -24.5 15t-24.5 6q-17 0 -29 -13.5t-22 -27.5l-50 41q17 31 42 54.5t57 23.5q17 0 31 -4.5t32 -15.5t29.5 -16.5t22.5 -5.5q16 0 25 9t16 28l58 -30q-13 -39 -38.5 -61.5t-60.5 -22.5q-20 0 -34 4.5t-30 15.5z" />
    <glyph glyph-name="f_j" horiz-adv-x="620" 
d="M555 487v-513q0 -23 -5 -41.5t-19 -38.5t-39 -43.5t-64 -57.5l-71 78q26 24 41.5 39t23 26.5t9.5 23t2 30.5v400h-208v-390h-122v390h-78v97h78v68q0 76 37 113.5t118 37.5q29 0 50.5 -3.5t45.5 -9.5l-13 -94q-29 7 -61 7q-36 0 -45.5 -15t-9.5 -43v-61h330zM433 556v141
h122v-141h-122z" />
    <glyph glyph-name="f_f_j" horiz-adv-x="983" 
d="M918 487v-513q0 -23 -5 -41.5t-19 -38.5t-39 -43.5t-64 -57.5l-71 78q26 24 41.5 39t23 26.5t9.5 23t2 30.5v400h-208v-390h-122v390h-241v-390h-122v390h-78v97h78v68q0 76 37 113.5t118 37.5q65 0 126 -16l-14 -94q-24 5 -47.5 7.5t-42.5 2.5q-36 0 -45.5 -15t-9.5 -43
v-61h241v68q0 76 37 113.5t118 37.5q21 0 43.5 -2.5t48.5 -9.5l-13 -94q-15 3 -30 4.5t-27 1.5q-36 0 -45.5 -15t-9.5 -43v-61h330zM796 556v141h122v-141h-122z" />
    <glyph glyph-name="ampersand.salt" horiz-adv-x="677" 
d="M288 286h179q57 0 92 10t64 31l44 -79q-52 -48 -147 -55v-21q0 -42 -10.5 -75.5t-37 -57t-71.5 -36.5t-113 -13q-61 0 -104 11t-70.5 34.5t-40.5 59.5t-13 87v129q0 99 56.5 142.5t175.5 43.5q33 0 76 -3.5t77 -11.5l-9 -101q-37 5 -76 8t-68 3q-61 0 -85.5 -17.5
t-24.5 -62.5v-139q0 -48 24 -65.5t82 -17.5q38 0 62 4.5t37.5 13.5t18.5 24t5 36v22h-123v96z" />
    <glyph glyph-name="g.salt" horiz-adv-x="528" 
d="M341 34q-27 -11 -65.5 -20t-78.5 -9q-79 0 -113 44.5t-34 122.5v128q0 44 8.5 80.5t33 62.5t68 40t114.5 14q37 0 90 -4t99 -13v-515q0 -37 -11.5 -68.5t-36.5 -54.5t-64 -36t-94 -13q-20 0 -43 2t-47 5t-46.5 8t-41.5 11l17 97q39 -10 74.5 -14.5t80.5 -4.5
q49 0 69.5 16.5t20.5 54.5v66zM341 389q-17 2 -35 3t-38 1q-30 0 -49 -6t-29.5 -17t-14 -28t-3.5 -38v-135q0 -29 14 -44.5t48 -15.5q26 0 55 8.5t52 19.5v252z" />
    <glyph glyph-name="gcircumflex.salt" horiz-adv-x="528" 
d="M136 587q33 24 69 52t71 57q34 -28 69.5 -56t69.5 -53l-38 -54q-17 10 -30 18t-24.5 15.5t-22.5 15t-24 16.5q-13 -9 -24 -16.5t-22.5 -15t-25 -15.5t-29.5 -18zM341 34q-27 -11 -65.5 -20t-78.5 -9q-79 0 -113 44.5t-34 122.5v128q0 44 8.5 80.5t33 62.5t68 40t114.5 14
q37 0 90 -4t99 -13v-515q0 -37 -11.5 -68.5t-36.5 -54.5t-64 -36t-94 -13q-20 0 -43 2t-47 5t-46.5 8t-41.5 11l17 97q39 -10 74.5 -14.5t80.5 -4.5q49 0 69.5 16.5t20.5 54.5v66zM341 389q-17 2 -35 3t-38 1q-30 0 -49 -6t-29.5 -17t-14 -28t-3.5 -38v-135q0 -29 14 -44.5
t48 -15.5q26 0 55 8.5t52 19.5v252z" />
    <glyph glyph-name="gbreve.salt" horiz-adv-x="528" 
d="M418 646q-5 -21 -16.5 -40.5t-30 -35t-43.5 -25t-57 -9.5t-57 9.5t-43.5 25t-30 35t-15.5 40.5l59 31q10 -28 31.5 -48t55.5 -20q35 0 56 20t32 48zM341 34q-27 -11 -65.5 -20t-78.5 -9q-79 0 -113 44.5t-34 122.5v128q0 44 8.5 80.5t33 62.5t68 40t114.5 14q37 0 90 -4
t99 -13v-515q0 -37 -11.5 -68.5t-36.5 -54.5t-64 -36t-94 -13q-20 0 -43 2t-47 5t-46.5 8t-41.5 11l17 97q39 -10 74.5 -14.5t80.5 -4.5q49 0 69.5 16.5t20.5 54.5v66zM341 389q-17 2 -35 3t-38 1q-30 0 -49 -6t-29.5 -17t-14 -28t-3.5 -38v-135q0 -29 14 -44.5t48 -15.5
q26 0 55 8.5t52 19.5v252z" />
    <glyph glyph-name="gdotaccent.salt" horiz-adv-x="528" 
d="M216 556v141h122v-141h-122zM341 34q-27 -11 -65.5 -20t-78.5 -9q-79 0 -113 44.5t-34 122.5v128q0 44 8.5 80.5t33 62.5t68 40t114.5 14q37 0 90 -4t99 -13v-515q0 -37 -11.5 -68.5t-36.5 -54.5t-64 -36t-94 -13q-20 0 -43 2t-47 5t-46.5 8t-41.5 11l17 97
q39 -10 74.5 -14.5t80.5 -4.5q49 0 69.5 16.5t20.5 54.5v66zM341 389q-17 2 -35 3t-38 1q-30 0 -49 -6t-29.5 -17t-14 -28t-3.5 -38v-135q0 -29 14 -44.5t48 -15.5q26 0 55 8.5t52 19.5v252z" />
    <glyph glyph-name="gcommaaccent.salt" horiz-adv-x="528" 
d="M314 543h-100v118l61 102l43 -26l-43 -83h39v-111zM341 34q-27 -11 -65.5 -20t-78.5 -9q-79 0 -113 44.5t-34 122.5v128q0 44 8.5 80.5t33 62.5t68 40t114.5 14q37 0 90 -4t99 -13v-515q0 -37 -11.5 -68.5t-36.5 -54.5t-64 -36t-94 -13q-20 0 -43 2t-47 5t-46.5 8
t-41.5 11l17 97q39 -10 74.5 -14.5t80.5 -4.5q49 0 69.5 16.5t20.5 54.5v66zM341 389q-17 2 -35 3t-38 1q-30 0 -49 -6t-29.5 -17t-14 -28t-3.5 -38v-135q0 -29 14 -44.5t48 -15.5q26 0 55 8.5t52 19.5v252z" />
    </font>
</defs>
</svg>
