<?xml version="1.0" encoding="utf-8"?>
<!-- Generator: Adobe Illustrator 19.2.1, SVG Export Plug-In . SVG Version: 6.00 Build 0)  -->
<svg version="1.1" xmlns="http://www.w3.org/2000/svg" xmlns:xlink="http://www.w3.org/1999/xlink" x="0px" y="0px"
	 viewBox="0 0 156 40" style="enable-background:new 0 0 156 40;" xml:space="preserve">
<style type="text/css">
	.st0{display:none;}
	.st1{display:inline;}
	.st2{fill:#006EC7;}
	.st3{fill:#887D75;}
	.st4{fill:#FFFFFF;}
</style>
<g id="Ebene_1" class="st0">
	<g class="st1">
		<path class="st2" d="M10,22.6c-0.8,0.5-2.1,1.1-3.2,1.2C5,23.9,5,22.1,5,20.9c0-1.3,0.6-1.7,2-1.7h3V22.6z M14.1,15.4
			c0-4.1-1.6-6-6.8-6c-1.9,0-4.1,0.3-5.7,0.8l0.5,3.2c1.5-0.3,3.2-0.5,4.6-0.5c2.7,0,3.2,0.5,3.2,2.4v0.9H5.6C2.3,16.2,1,18.6,1,22
			c0,2.9,1.3,4.9,4.3,4.9c1.7,0,3.4-0.5,4.9-1.5l0.3,1.3h3.3V15.4H14.1z"/>
		<path class="st2" d="M27.5,21.7c-0.9,0.8-2.4,1.5-3.7,1.5c-1.6,0-2.1-0.8-2.1-2.2v-5.9c0-1.5,0.6-2.1,2.1-2.1
			c1.2,0,2.7,0.2,3.7,0.5V21.7z M17.4,20.9c0,3.8,1.8,5.8,5.2,5.8c2.1,0,3.8-0.7,5.3-1.8l0.5,1.6h3.3v-24l-4.2,0.6v6.8
			c-1.3-0.3-3.1-0.5-4.5-0.5c-3.9,0-5.6,2.1-5.6,5.8C17.4,15.2,17.4,20.9,17.4,20.9z"/>
		<path class="st2" d="M90.3,15.8v4.5c0,1.9-0.9,2.9-3.1,2.9c-2.3,0-3.1-1-3.1-2.9v-4.5c0-1.9,0.9-2.9,3.1-2.9S90.3,13.9,90.3,15.8
			 M94.5,20.2V16c0-3.4-1.6-6.6-7.3-6.6S80,12.5,80,16v4.2c0,3.4,1.6,6.6,7.3,6.6C93,26.7,94.5,23.5,94.5,20.2"/>
		<path class="st2" d="M62.8,21.3c-0.2-3.4-0.6-4-5.3-5c-2.3-0.5-2.4-0.6-2.5-1.9c0-1,0.2-1.5,2.1-1.6c1.3-0.1,3.3,0.1,4.6,0.3
			L62,9.7c-1.5-0.3-3.4-0.4-5-0.4c-4.7,0.2-6.1,1.8-6,5.1c0.2,3.3,0.7,4.2,4.8,5c2.8,0.5,3,1,3.1,2.1c0.1,1.3-0.2,1.7-2.1,1.8
			c-1.7,0.1-3.5-0.1-5-0.5l-0.4,3.3c1.6,0.5,4,0.8,5.8,0.7C62.1,26.5,63,24.4,62.8,21.3"/>
		<path class="st2" d="M77.5,21.3c-0.2-3.4-0.6-4-5.3-5c-2.3-0.5-2.4-0.6-2.5-1.9c0-1,0.2-1.5,2.1-1.6c1.3-0.1,3.3,0.1,4.6,0.3
			l0.3-3.3c-1.5-0.3-3.4-0.4-5-0.4c-4.7,0.2-6.1,1.8-6,5.1c0.2,3.3,0.7,4.2,4.8,5c2.8,0.5,3,1,3.1,2.1c0.1,1.3-0.2,1.7-2.1,1.8
			c-1.7,0.1-3.5-0.1-5-0.5l-0.4,3.3c1.6,0.5,4,0.8,5.8,0.7C76.7,26.5,77.6,24.4,77.5,21.3"/>
		<path class="st2" d="M39.2,15.5c0-1.6,0.7-2.7,2.8-2.7s2.6,1.1,2.6,2.7v0.8h-5.3C39.2,16.3,39.2,15.5,39.2,15.5z M39.2,20.5v-0.9
			h9.3v-3.5c0-3.6-1.2-6.7-6.5-6.7s-6.9,3-6.9,6.5v4.4c0,4,1.8,6.4,7.1,6.4c2,0,3.6-0.2,5.5-0.9l0.5-3.2c-2.3,0.6-3.9,1-5.5,0.8
			C40,23.2,39.2,22.6,39.2,20.5"/>
		<polygon class="st3" points="103.9,0 103.9,29 93.6,39 95.8,39 105.4,29.6 105.4,0 		"/>
		<g id="claim">
			<path class="st3" d="M117,26.1l-0.2-0.3c-0.2,0.2-0.4,0.3-0.7,0.3c-0.2,0-0.7-0.1-0.6-0.7v-2.1h1.4v-0.4h-1.4v-0.8h-0.3
				c-0.2,0.3-0.5,0.7-0.9,0.9v0.3h0.5v2.4c0,0.7,0.5,0.9,1.1,0.9C116.4,26.6,116.9,26.3,117,26.1"/>
			<path class="st3" d="M119.7,24.2H118c0-0.5,0.3-1.1,0.9-1.1S119.7,23.7,119.7,24.2 M120.4,24.5L120.4,24.5c0-1.1-0.6-1.8-1.5-1.8
				c-1,0-1.7,0.8-1.7,2c0,1.1,0.6,2,1.7,2c1,0,1.4-0.6,1.5-0.7l-0.2-0.3c0,0-0.3,0.4-1,0.4c-0.5,0-1.3-0.3-1.3-1.5L120.4,24.5z"/>
			<path class="st3" d="M124.1,25.9l-0.2-0.3c-0.3,0.3-0.6,0.4-1,0.4c-0.7,0-1.3-0.6-1.3-1.6c0-0.9,0.4-1.3,0.9-1.3s0.9,0.3,1.1,0.5
				l0.5-0.5c-0.2-0.2-0.6-0.5-1.2-0.5c-0.8,0-1.9,0.7-1.9,2s0.8,2,1.7,2C123.3,26.6,123.9,26.3,124.1,25.9"/>
			<path class="st3" d="M128.8,26.6v-0.3c-0.3,0-0.6,0-0.6-0.5V24c0-1.1-0.9-1.2-1.2-1.2c-0.8,0-1.2,0.5-1.3,0.6v-2.9h-0.3
				c-0.3,0.1-0.8,0.2-1.1,0.2V21c0.3,0.1,0.4,0.1,0.7,0.2v4.6c0,0.5-0.3,0.5-0.6,0.5v0.2c0.2,0,0.5,0,1,0c0.4,0,0.7,0,1,0v-0.3
				c-0.3,0-0.6,0-0.6-0.5v-2.2c0.1-0.2,0.5-0.4,0.9-0.4c0.5,0,0.9,0.3,0.9,0.8v1.7c0,0.5-0.3,0.5-0.6,0.5v0.4c0.2,0,0.5,0,1,0
				C128.3,26.5,128.6,26.6,128.8,26.6"/>
			<path class="st3" d="M133.6,26.6v-0.3c-0.3,0-0.6,0-0.6-0.5V24c0-1.1-0.9-1.2-1.2-1.2c-0.8,0-1.2,0.5-1.3,0.6v-0.6h-0.3
				c-0.3,0.1-0.8,0.2-1.1,0.2v0.3c0.3,0.1,0.4,0.1,0.7,0.2v2.4c0,0.5-0.3,0.5-0.6,0.5v0.2c0.2,0,0.5,0,1,0c0.4,0,0.7,0,1,0v-0.3
				c-0.3,0-0.6,0-0.6-0.5v-2.2c0.1-0.2,0.5-0.4,0.9-0.4c0.5,0,0.9,0.3,0.9,0.8v1.7c0,0.5-0.3,0.5-0.6,0.5v0.4c0.2,0,0.5,0,1,0
				C133.1,26.5,133.4,26.6,133.6,26.6"/>
			<path class="st3" d="M137.3,24.6c0,0.7-0.2,1.6-1.1,1.6c-0.9,0-1.2-0.8-1.2-1.6c0-0.7,0.2-1.6,1.2-1.6
				C137,23,137.3,23.9,137.3,24.6 M138.1,24.6c0-1.2-0.7-2-1.9-2c-1,0-2,0.8-2,2c0,1.3,0.8,2,1.9,2
				C137.1,26.6,138.1,25.9,138.1,24.6"/>
			<path class="st3" d="M140.5,26.6v-0.3c-0.3,0-0.6,0-0.6-0.5v-5.3h-0.3c-0.3,0.1-0.8,0.2-1.1,0.2V21c0.3,0.1,0.4,0.1,0.7,0.2v4.6
				c0,0.5-0.3,0.5-0.6,0.5v0.3c0.2,0,0.5,0,1,0C140,26.5,140.3,26.6,140.5,26.6"/>
			<path class="st3" d="M144.2,24.6c0,0.7-0.2,1.6-1.1,1.6s-1.2-0.8-1.2-1.6c0-0.7,0.2-1.6,1.2-1.6C144,23,144.2,23.9,144.2,24.6
				 M145,24.6c0-1.2-0.7-2-1.9-2c-1,0-2,0.8-2,2c0,1.3,0.8,2,1.9,2S145,25.9,145,24.6"/>
			<path class="st3" d="M148.6,27.2c0,0.4-0.5,0.8-1.2,0.8s-1.3-0.3-1.3-0.8c0-0.3,0.3-0.6,0.5-0.6c0.4,0,0.6,0.1,0.9,0.1
				C148.1,26.8,148.6,26.8,148.6,27.2 M148.2,24c0,0.5-0.3,1-0.9,1c-0.5,0-0.9-0.4-0.9-1c0-0.5,0.3-1,0.9-1
				C147.8,23,148.2,23.4,148.2,24 M149.3,23.3v-0.4h-1.1c-0.2-0.1-0.4-0.2-0.9-0.2c-0.9,0-1.6,0.6-1.6,1.4s0.6,1.1,0.8,1.2
				c-0.2,0.1-0.7,0.4-0.7,0.7s0.3,0.5,0.5,0.5c-0.3,0.1-0.8,0.5-0.8,1s0.7,1,1.7,1c1.2,0,2-0.9,2-1.6s-0.8-0.8-1.5-0.8
				c-0.7-0.1-1.3-0.1-1.3-0.4c0-0.2,0.2-0.4,0.4-0.4c0,0,0.1,0.1,0.5,0.1c0.8,0,1.6-0.5,1.6-1.4c0-0.4-0.2-0.6-0.2-0.8L149.3,23.3
				L149.3,23.3z"/>
			<path class="st3" d="M153.8,23.2v-0.3c-0.2,0-0.4,0-0.8,0c-0.4,0-0.6,0-0.8,0v0.3c0.3,0,0.5,0.1,0.5,0.4c0,0.1,0,0.2-0.1,0.2
				l-0.8,2.1l-0.9-2.2c-0.1-0.3,0-0.4,0.5-0.4V23c-0.2,0-0.5,0-1,0c-0.4,0-0.7,0-1,0v0.3c0.3,0,0.4,0,0.5,0.3l1.3,3.2h0.2l-0.2,0.5
				c-0.3,0.7-0.5,0.9-0.9,0.8c-0.2,0-0.4-0.1-0.5-0.2l-0.4,0.5c0.2,0.2,0.5,0.3,0.8,0.3c0.4,0,0.6-0.2,0.8-0.4
				c0.2-0.3,0.4-0.6,0.6-1l1.3-3.3C153.3,23.3,153.5,23.2,153.8,23.2"/>
			<path class="st3" d="M155,26.2c0-0.2-0.1-0.5-0.5-0.5s-0.5,0.2-0.5,0.5c0,0.2,0.1,0.5,0.5,0.5C154.9,26.6,155,26.4,155,26.2"/>
			<path class="st3" d="M117.5,15.7c0,1.1-0.5,1.5-1.2,1.5c-0.6,0-0.9-0.3-0.9-0.3v-2.4c0.1-0.1,0.3-0.3,0.9-0.3
				C117,14.2,117.5,14.8,117.5,15.7 M118.3,15.5c0-0.9-0.5-1.8-1.6-1.8c-0.8,0-1.1,0.4-1.2,0.5v-0.5h-0.3c-0.3,0.1-0.8,0.2-1.1,0.2
				v0.3c0.3,0.1,0.4,0.1,0.7,0.2v4.2c0,0.5-0.3,0.5-0.6,0.5v0.3c0.2,0,0.6,0,1,0s0.7,0,1,0v-0.3c-0.3,0-0.7,0-0.7-0.5v-1.2
				c0,0,0.2,0.2,0.9,0.2C117.3,17.6,118.3,16.8,118.3,15.5"/>
			<path class="st3" d="M121.4,15.2h-1.8c0-0.5,0.3-1.1,0.9-1.1C121.2,14.1,121.4,14.7,121.4,15.2 M122.1,15.6L122.1,15.6
				c0-1.1-0.6-1.8-1.5-1.8c-1,0-1.7,0.8-1.7,2c0,1.1,0.6,2,1.7,2c1,0,1.4-0.6,1.5-0.7l-0.2-0.3c0,0-0.3,0.4-1,0.4
				c-0.5,0-1.3-0.3-1.3-1.5L122.1,15.6z"/>
			<path class="st3" d="M125.9,15.7c0,0.7-0.2,1.6-1.1,1.6s-1.2-0.8-1.2-1.6c0-0.7,0.2-1.6,1.2-1.6C125.6,14.1,125.9,15,125.9,15.7
				 M126.5,15.7c0-1.2-0.7-2-1.9-2c-1,0-2,0.8-2,2s0.8,2,1.9,2C125.7,17.6,126.5,16.8,126.5,15.7"/>
			<path class="st3" d="M130.6,15.7c0,1.1-0.5,1.5-1.2,1.5c-0.6,0-0.9-0.3-0.9-0.3v-2.4c0.1-0.1,0.3-0.3,0.9-0.3
				C130.1,14.2,130.6,14.8,130.6,15.7 M131.3,15.5c0-0.9-0.5-1.8-1.6-1.8c-0.8,0-1.1,0.4-1.2,0.5v-0.5h-0.3
				c-0.3,0.1-0.8,0.2-1.1,0.2v0.3c0.3,0.1,0.4,0.1,0.7,0.2v4.2c0,0.5-0.3,0.5-0.6,0.5v0.3c0.2,0,0.6,0,1,0c0.4,0,0.7,0,1,0v-0.3
				c-0.3,0-0.7,0-0.7-0.5v-1.2c0,0,0.2,0.2,0.9,0.2C130.3,17.6,131.3,16.8,131.3,15.5"/>
			<path class="st3" d="M133.8,17.5v-0.3c-0.3,0-0.6,0-0.6-0.5v-5.3h-0.3c-0.3,0.1-0.8,0.2-1.1,0.2v0.3c0.3,0.1,0.4,0.1,0.7,0.2v4.6
				c0,0.5-0.3,0.5-0.6,0.5v0.3c0.2,0,0.5,0,1,0C133.2,17.5,133.5,17.5,133.8,17.5"/>
			<path class="st3" d="M136.9,15.2h-1.8c0-0.5,0.3-1.1,0.9-1.1C136.6,14.1,136.9,14.7,136.9,15.2 M137.6,15.6L137.6,15.6
				c0-1.1-0.6-1.8-1.5-1.8c-1,0-1.7,0.8-1.7,2c0,1.1,0.6,2,1.7,2c1,0,1.4-0.6,1.5-0.7l-0.2-0.3c0,0-0.3,0.4-1,0.4
				c-0.5,0-1.3-0.3-1.3-1.5L137.6,15.6z"/>
			<path class="st3" d="M139.2,17.1c0-0.2-0.1-0.5-0.5-0.5s-0.5,0.2-0.5,0.5c0,0.2,0.1,0.5,0.5,0.5C139,17.6,139.2,17.4,139.2,17.1"
				/>
			<path class="st3" d="M117.5,7.6c0,0.9-0.5,1.5-1.2,1.5c-0.5,0-0.7-0.1-0.8-0.3V6.3c0.1-0.1,0.3-0.3,0.8-0.3
				C117.1,6,117.5,6.7,117.5,7.6 M118.2,7.3c0-1-0.6-1.8-1.6-1.8c-0.7,0-1,0.3-1.2,0.4V3.2h-0.3c-0.3,0.1-0.8,0.2-1.1,0.2v0.3
				c0.3,0.1,0.4,0.1,0.7,0.2V9c0.3,0.2,0.7,0.4,1.3,0.4C117.5,9.5,118.2,8.3,118.2,7.3"/>
			<path class="st3" d="M123.1,9.2V8.9c-0.3-0.1-0.4-0.1-0.7-0.1V5.5h-0.3c-0.3,0.1-0.8,0.2-1.1,0.2V6c0.3,0.1,0.4,0.1,0.7,0.2v2.4
				c-0.2,0.2-0.5,0.4-0.9,0.4c-0.6,0-0.9-0.3-0.9-0.9V5.6h-0.3c-0.2,0.1-0.7,0.2-1.1,0.2v0.3c0.3,0.1,0.3,0.1,0.7,0.2v1.9
				c0,0.9,0.5,1.4,1.2,1.4c0.8,0,1.3-0.4,1.3-0.6v0.6h0.3C122.4,9.4,122.8,9.2,123.1,9.2"/>
			<path class="st3" d="M126.2,8.2c0-1.2-2.1-0.9-2.1-1.8c0-0.4,0.2-0.6,0.7-0.6c0.7,0,0.8,0.4,0.8,0.8h0.3c0,0,0-0.3,0-0.5
				s0-0.5,0-0.5c-0.4,0-0.6-0.1-1.1-0.1s-1.3,0.3-1.3,1.2c0,1.3,2,0.8,2,1.8c0,0.3-0.2,0.6-0.8,0.6c-0.9,0-1-0.6-1-0.9h-0.3
				c0,0,0,0.3,0,0.5s0,0.5,0,0.5c0.4,0,0.6,0.2,1.2,0.2C125.5,9.5,126.2,9,126.2,8.2"/>
			<path class="st3" d="M128.7,9.4V9.1c-0.3,0-0.6,0-0.6-0.5V5.5h-0.3c-0.3,0.1-0.8,0.2-1.1,0.2V6c0.3,0.1,0.4,0.1,0.7,0.2v2.4
				c0,0.5-0.3,0.5-0.6,0.5v0.3c0.2,0,0.5,0,1,0C128.1,9.4,128.5,9.4,128.7,9.4 M128.2,4.1c0-0.2-0.1-0.5-0.5-0.5
				c-0.4,0-0.5,0.2-0.5,0.5c0,0.2,0.1,0.5,0.5,0.5C128,4.6,128.2,4.4,128.2,4.1"/>
			<path class="st3" d="M133.5,9.4V9.1c-0.3,0-0.6,0-0.6-0.5V6.8c0-1.1-0.9-1.2-1.2-1.2c-0.8,0-1.2,0.5-1.3,0.6V5.6h-0.3
				c-0.3,0.1-0.8,0.2-1.1,0.2v0.3c0.3,0.1,0.4,0.1,0.7,0.2v2.4c0,0.5-0.3,0.5-0.6,0.5v0.3c0.2,0,0.5,0,1,0c0.4,0,0.7,0,1,0V9.2
				c-0.3,0-0.6,0-0.6-0.5V6.6c0.1-0.2,0.5-0.4,0.9-0.4c0.5,0,0.9,0.3,0.9,0.8v1.7c0,0.5-0.3,0.5-0.6,0.5v0.3c0.2,0,0.5,0,1,0
				C133,9.4,133.3,9.4,133.5,9.4"/>
			<path class="st3" d="M136.6,7h-1.8c0-0.5,0.3-1.1,0.9-1.1C136.3,5.9,136.6,6.5,136.6,7 M137.3,7.4L137.3,7.4
				c0-1.1-0.6-1.8-1.5-1.8c-1,0-1.7,0.8-1.7,2c0,1.1,0.6,2,1.7,2c1,0,1.4-0.6,1.5-0.7l-0.2-0.3c0,0-0.3,0.4-1,0.4
				c-0.5,0-1.3-0.3-1.3-1.5L137.3,7.4z"/>
			<path class="st3" d="M140.6,8.2c0-1.2-2.1-0.9-2.1-1.8c0-0.4,0.2-0.6,0.7-0.6c0.7,0,0.8,0.4,0.8,0.8h0.3c0,0,0-0.3,0-0.5
				s0-0.5,0-0.5c-0.4,0-0.6-0.1-1.1-0.1S138,5.8,138,6.7c0,1.3,2,0.8,2,1.8c0,0.3-0.2,0.6-0.8,0.6c-0.9,0-1-0.6-1-0.9h-0.3
				c0,0,0,0.3,0,0.5s0,0.5,0,0.5c0.4,0,0.6,0.2,1.2,0.2C139.8,9.5,140.6,9,140.6,8.2"/>
			<path class="st3" d="M143.9,8.2c0-1.2-2.1-0.9-2.1-1.8c0-0.4,0.2-0.6,0.7-0.6c0.7,0,0.8,0.4,0.8,0.8h0.3c0,0,0-0.3,0-0.5
				s0-0.5,0-0.5c-0.4,0-0.6-0.1-1.1-0.1s-1.3,0.3-1.3,1.2c0,1.3,2,0.8,2,1.8c0,0.3-0.2,0.6-0.8,0.6c-0.9,0-1-0.6-1-0.9h-0.3
				c0,0,0,0.3,0,0.5s0,0.5,0,0.5c0.4,0,0.6,0.2,1.2,0.2C143.2,9.5,143.9,9,143.9,8.2"/>
			<path class="st3" d="M145.6,9c0-0.2-0.1-0.5-0.5-0.5s-0.5,0.2-0.5,0.5c0,0.2,0.1,0.5,0.5,0.5C145.4,9.5,145.6,9.2,145.6,9"/>
		</g>
	</g>
</g>
<g id="Ebene_2">
	<g>
		<path class="st4" d="M10,22.5c-0.8,0.5-2.1,1.1-3.2,1.2c-1.8,0.1-1.8-1.7-1.8-2.9c0-1.3,0.6-1.7,2-1.7H10C10,19.2,10,22.5,10,22.5
			z M14.1,15.4c0-4.1-1.6-6-6.8-6c-1.9,0-4.1,0.3-5.7,0.8l0.5,3.2c1.5-0.3,3.2-0.5,4.6-0.5c2.7,0,3.2,0.5,3.2,2.4V16H5.6
			C2.3,16,1,18.4,1,21.9c0,2.9,1.3,4.9,4.3,4.9c1.7,0,3.4-0.5,4.9-1.5l0.3,1.3h3.3V15.4H14.1z"/>
		<path class="st4" d="M27.5,21.7c-0.9,0.8-2.4,1.5-3.7,1.5c-1.6,0-2.1-0.8-2.1-2.2v-5.9c0-1.5,0.6-2.1,2.1-2.1
			c1.2,0,2.7,0.2,3.7,0.5V21.7z M17.4,20.9c0,3.8,1.8,5.8,5.2,5.8c2.1,0,3.8-0.7,5.3-1.8l0.5,1.6h3.3v-24l-4.2,0.6v6.8
			c-1.3-0.3-3.1-0.5-4.5-0.5c-3.9,0-5.6,2.1-5.6,5.8C17.4,15.2,17.4,20.9,17.4,20.9z"/>
		<path class="st4" d="M90.3,15.8v4.5c0,1.9-0.9,2.9-3.1,2.9c-2.3,0-3.1-1-3.1-2.9v-4.5c0-1.9,0.9-2.9,3.1-2.9S90.3,13.9,90.3,15.8
			 M94.5,20.2V16c0-3.4-1.6-6.6-7.3-6.6S80,12.5,80,16v4.2c0,3.4,1.6,6.6,7.3,6.6C93,26.7,94.5,23.5,94.5,20.2"/>
		<path class="st4" d="M62.8,21.3c-0.2-3.4-0.6-4-5.3-5c-2.3-0.5-2.4-0.6-2.5-1.9c0-1,0.2-1.5,2.1-1.6c1.3-0.1,3.3,0.1,4.6,0.3
			L62,9.7c-1.5-0.3-3.4-0.4-5-0.4c-4.7,0.2-6.1,1.8-6,5.1c0.2,3.2,0.7,4.2,4.8,5c2.8,0.5,3,1,3.1,2.1c0.1,1.3-0.2,1.7-2.1,1.8
			c-1.7,0.1-3.5-0.1-5-0.5l-0.4,3.2c1.6,0.5,4,0.8,5.8,0.7C62.1,26.5,63,24.4,62.8,21.3"/>
		<path class="st4" d="M77.5,21.3c-0.2-3.4-0.6-4-5.3-5c-2.3-0.5-2.4-0.6-2.5-1.9c0-1,0.2-1.5,2.1-1.6c1.3-0.1,3.3,0.1,4.6,0.3
			l0.3-3.3c-1.5-0.3-3.4-0.4-5-0.4c-4.7,0.2-6.1,1.8-6,5.1c0.2,3.2,0.7,4.2,4.8,5c2.8,0.5,3,1,3.1,2.1c0.1,1.3-0.2,1.7-2.1,1.8
			c-1.7,0.1-3.5-0.1-5-0.5l-0.4,3.2c1.6,0.5,4,0.8,5.8,0.7C76.7,26.5,77.6,24.4,77.5,21.3"/>
		<path class="st4" d="M39.2,15.5c0-1.6,0.7-2.7,2.8-2.7c2.1,0,2.6,1.1,2.6,2.7v0.8h-5.3C39.2,16.2,39.2,15.5,39.2,15.5z M39.2,20.5
			v-0.9h9.3V16c0-3.6-1.2-6.7-6.5-6.7s-6.9,3-6.9,6.5v4.4c0,4,1.8,6.4,7.1,6.4c2,0,3.6-0.2,5.5-0.9l0.5-3.2c-2.3,0.6-3.9,1-5.5,0.8
			C40,23.2,39.2,22.5,39.2,20.5"/>
		<polygon class="st4" points="103.9,0 103.9,28.9 93.6,39 95.8,39 105.4,29.6 105.4,0 		"/>
		<g id="claim_1_">
			<path class="st4" d="M117,26.1l-0.2-0.3c-0.2,0.2-0.4,0.3-0.7,0.3c-0.2,0-0.7-0.1-0.6-0.7v-2.1h1.4v-0.4h-1.4v-0.8h-0.3
				c-0.2,0.3-0.5,0.7-0.9,0.9v0.3h0.5v2.4c0,0.7,0.5,0.9,1.1,0.9C116.4,26.6,116.9,26.3,117,26.1"/>
			<path class="st4" d="M119.7,24.2H118c0-0.5,0.3-1.1,0.9-1.1C119.5,23.1,119.7,23.7,119.7,24.2 M120.4,24.5L120.4,24.5
				c0-1.1-0.6-1.8-1.5-1.8c-1,0-1.7,0.8-1.7,2c0,1.1,0.6,2,1.7,2c1,0,1.4-0.6,1.5-0.7l-0.2-0.3c0,0-0.3,0.4-1,0.4
				c-0.5,0-1.3-0.3-1.3-1.5L120.4,24.5z"/>
			<path class="st4" d="M124.1,25.9l-0.2-0.3c-0.3,0.3-0.6,0.4-1,0.4c-0.7,0-1.3-0.6-1.3-1.6c0-0.9,0.4-1.3,0.9-1.3s0.9,0.3,1.1,0.5
				l0.5-0.5c-0.2-0.2-0.6-0.5-1.2-0.5c-0.8,0-1.9,0.7-1.9,2s0.8,2,1.7,2C123.3,26.6,123.9,26.3,124.1,25.9"/>
			<path class="st4" d="M128.8,26.6v-0.3c-0.3,0-0.6,0-0.6-0.5V24c0-1.1-0.9-1.2-1.2-1.2c-0.8,0-1.2,0.5-1.3,0.6v-2.9h-0.3
				c-0.3,0.1-0.8,0.2-1.1,0.2v0.3c0.3,0.1,0.4,0.1,0.7,0.2v4.6c0,0.5-0.3,0.5-0.6,0.5v0.2c0.2,0,0.5,0,1,0c0.4,0,0.7,0,1,0v-0.3
				c-0.3,0-0.6,0-0.6-0.5v-2.2c0.1-0.2,0.5-0.4,0.9-0.4c0.5,0,0.9,0.3,0.9,0.8v1.7c0,0.5-0.3,0.5-0.6,0.5v0.4c0.2,0,0.5,0,1,0
				C128.3,26.5,128.6,26.6,128.8,26.6"/>
			<path class="st4" d="M133.6,26.6v-0.3c-0.3,0-0.6,0-0.6-0.5V24c0-1.1-0.9-1.2-1.2-1.2c-0.8,0-1.2,0.5-1.3,0.6v-0.6h-0.3
				c-0.3,0.1-0.8,0.2-1.1,0.2v0.3c0.3,0.1,0.4,0.1,0.7,0.2v2.4c0,0.5-0.3,0.5-0.6,0.5v0.2c0.2,0,0.5,0,1,0c0.4,0,0.7,0,1,0v-0.3
				c-0.3,0-0.6,0-0.6-0.5v-2.2c0.1-0.2,0.5-0.4,0.9-0.4c0.5,0,0.9,0.3,0.9,0.8v1.7c0,0.5-0.3,0.5-0.6,0.5v0.4c0.2,0,0.5,0,1,0
				C133.1,26.5,133.4,26.6,133.6,26.6"/>
			<path class="st4" d="M137.3,24.6c0,0.7-0.2,1.6-1.1,1.6c-0.9,0-1.2-0.8-1.2-1.6c0-0.7,0.2-1.6,1.2-1.6
				C137,23,137.3,23.9,137.3,24.6 M138.1,24.6c0-1.2-0.7-2-1.9-2c-1,0-2,0.8-2,2c0,1.3,0.8,2,1.9,2
				C137.1,26.6,138.1,25.9,138.1,24.6"/>
			<path class="st4" d="M140.5,26.6v-0.3c-0.3,0-0.6,0-0.6-0.5v-5.3h-0.3c-0.3,0.1-0.8,0.2-1.1,0.2V21c0.3,0.1,0.4,0.1,0.7,0.2v4.6
				c0,0.5-0.3,0.5-0.6,0.5v0.3c0.2,0,0.5,0,1,0C140,26.5,140.3,26.6,140.5,26.6"/>
			<path class="st4" d="M144.2,24.6c0,0.7-0.2,1.6-1.1,1.6s-1.2-0.8-1.2-1.6c0-0.7,0.2-1.6,1.2-1.6C144,23,144.2,23.9,144.2,24.6
				 M145,24.6c0-1.2-0.7-2-1.9-2c-1,0-2,0.8-2,2c0,1.3,0.8,2,1.9,2S145,25.9,145,24.6"/>
			<path class="st4" d="M148.6,27.2c0,0.4-0.5,0.8-1.2,0.8s-1.3-0.3-1.3-0.8c0-0.3,0.3-0.6,0.5-0.6c0.4,0,0.6,0.1,0.9,0.1
				C148.1,26.8,148.6,26.8,148.6,27.2 M148.2,24c0,0.5-0.3,1-0.9,1c-0.5,0-0.9-0.4-0.9-1c0-0.5,0.3-1,0.9-1
				C147.8,23,148.2,23.4,148.2,24 M149.3,23.3v-0.4h-1.1c-0.2-0.1-0.4-0.2-0.9-0.2c-0.9,0-1.6,0.6-1.6,1.4c0,0.8,0.6,1.1,0.8,1.2
				c-0.2,0.1-0.7,0.4-0.7,0.7c0,0.3,0.3,0.5,0.5,0.5c-0.3,0.1-0.8,0.5-0.8,1s0.7,1,1.7,1c1.2,0,2-0.9,2-1.6c0-0.7-0.8-0.8-1.5-0.8
				c-0.7-0.1-1.3-0.1-1.3-0.4c0-0.2,0.2-0.4,0.4-0.4c0,0,0.1,0.1,0.5,0.1c0.8,0,1.6-0.5,1.6-1.4c0-0.4-0.2-0.6-0.2-0.8L149.3,23.3
				L149.3,23.3z"/>
			<path class="st4" d="M153.8,23.2v-0.3c-0.2,0-0.4,0-0.8,0c-0.4,0-0.6,0-0.8,0v0.3c0.3,0,0.5,0.1,0.5,0.4c0,0.1,0,0.2-0.1,0.2
				l-0.8,2.1l-0.9-2.2c-0.1-0.3,0-0.4,0.5-0.4V23c-0.2,0-0.5,0-1,0c-0.4,0-0.7,0-1,0v0.3c0.3,0,0.4,0,0.5,0.3l1.3,3.2h0.2l-0.2,0.5
				c-0.3,0.7-0.5,0.9-0.9,0.8c-0.2,0-0.4-0.1-0.5-0.2l-0.4,0.5c0.2,0.2,0.5,0.3,0.8,0.3c0.4,0,0.6-0.2,0.8-0.4
				c0.2-0.3,0.4-0.6,0.6-1l1.3-3.2C153.3,23.3,153.5,23.2,153.8,23.2"/>
			<path class="st4" d="M155,26.2c0-0.2-0.1-0.5-0.5-0.5s-0.5,0.2-0.5,0.5c0,0.2,0.1,0.5,0.5,0.5C154.9,26.6,155,26.4,155,26.2"/>
			<path class="st4" d="M117.5,15.7c0,1.1-0.5,1.5-1.2,1.5c-0.6,0-0.9-0.3-0.9-0.3v-2.4c0.1-0.1,0.3-0.3,0.9-0.3
				C117,14.2,117.5,14.8,117.5,15.7 M118.3,15.5c0-0.9-0.5-1.8-1.6-1.8c-0.8,0-1.1,0.4-1.2,0.5v-0.5h-0.3c-0.3,0.1-0.8,0.2-1.1,0.2
				v0.3c0.3,0.1,0.4,0.1,0.7,0.2v4.2c0,0.5-0.3,0.5-0.6,0.5v0.3c0.2,0,0.6,0,1,0c0.4,0,0.7,0,1,0v-0.3c-0.3,0-0.7,0-0.7-0.5v-1.2
				c0,0,0.2,0.2,0.9,0.2C117.3,17.6,118.3,16.8,118.3,15.5"/>
			<path class="st4" d="M121.4,15.2h-1.8c0-0.5,0.3-1.1,0.9-1.1C121.2,14.1,121.4,14.7,121.4,15.2 M122.1,15.6L122.1,15.6
				c0-1.1-0.6-1.8-1.5-1.8c-1,0-1.7,0.8-1.7,2c0,1.1,0.6,2,1.7,2c1,0,1.4-0.6,1.5-0.7l-0.2-0.3c0,0-0.3,0.4-1,0.4
				c-0.5,0-1.3-0.3-1.3-1.5L122.1,15.6z"/>
			<path class="st4" d="M125.9,15.7c0,0.7-0.2,1.6-1.1,1.6c-0.9,0-1.2-0.8-1.2-1.6c0-0.7,0.2-1.6,1.2-1.6
				C125.6,14.1,125.9,15,125.9,15.7 M126.5,15.7c0-1.2-0.7-2-1.9-2c-1,0-2,0.8-2,2s0.8,2,1.9,2C125.7,17.6,126.5,16.8,126.5,15.7"/>
			<path class="st4" d="M130.6,15.7c0,1.1-0.5,1.5-1.2,1.5c-0.6,0-0.9-0.3-0.9-0.3v-2.4c0.1-0.1,0.3-0.3,0.9-0.3
				C130.1,14.2,130.6,14.8,130.6,15.7 M131.3,15.5c0-0.9-0.5-1.8-1.6-1.8c-0.8,0-1.1,0.4-1.2,0.5v-0.5h-0.3
				c-0.3,0.1-0.8,0.2-1.1,0.2v0.3c0.3,0.1,0.4,0.1,0.7,0.2v4.2c0,0.5-0.3,0.5-0.6,0.5v0.3c0.2,0,0.6,0,1,0c0.4,0,0.7,0,1,0v-0.3
				c-0.3,0-0.7,0-0.7-0.5v-1.2c0,0,0.2,0.2,0.9,0.2C130.3,17.6,131.3,16.8,131.3,15.5"/>
			<path class="st4" d="M133.8,17.5v-0.3c-0.3,0-0.6,0-0.6-0.5v-5.3h-0.3c-0.3,0.1-0.8,0.2-1.1,0.2v0.3c0.3,0.1,0.4,0.1,0.7,0.2v4.6
				c0,0.5-0.3,0.5-0.6,0.5v0.3c0.2,0,0.5,0,1,0C133.2,17.5,133.5,17.5,133.8,17.5"/>
			<path class="st4" d="M136.9,15.2h-1.8c0-0.5,0.3-1.1,0.9-1.1C136.6,14.1,136.9,14.7,136.9,15.2 M137.6,15.6L137.6,15.6
				c0-1.1-0.6-1.8-1.5-1.8c-1,0-1.7,0.8-1.7,2c0,1.1,0.6,2,1.7,2c1,0,1.4-0.6,1.5-0.7l-0.2-0.3c0,0-0.3,0.4-1,0.4
				c-0.5,0-1.3-0.3-1.3-1.5L137.6,15.6z"/>
			<path class="st4" d="M139.2,17.1c0-0.2-0.1-0.5-0.5-0.5c-0.4,0-0.5,0.2-0.5,0.5c0,0.2,0.1,0.5,0.5,0.5
				C139,17.6,139.2,17.4,139.2,17.1"/>
			<path class="st4" d="M117.5,7.6c0,0.9-0.5,1.5-1.2,1.5c-0.5,0-0.7-0.1-0.8-0.3V6.3c0.1-0.1,0.3-0.3,0.8-0.3
				C117.1,6,117.5,6.7,117.5,7.6 M118.2,7.3c0-1-0.6-1.8-1.6-1.8c-0.7,0-1,0.3-1.2,0.4V3.2h-0.3c-0.3,0.1-0.8,0.2-1.1,0.2v0.3
				c0.3,0.1,0.4,0.1,0.7,0.2V9c0.3,0.2,0.7,0.4,1.3,0.4C117.5,9.5,118.2,8.3,118.2,7.3"/>
			<path class="st4" d="M123.1,9.2V8.9c-0.3-0.1-0.4-0.1-0.7-0.1V5.5h-0.3c-0.3,0.1-0.8,0.2-1.1,0.2V6c0.3,0.1,0.4,0.1,0.7,0.2v2.4
				c-0.2,0.2-0.5,0.4-0.9,0.4c-0.6,0-0.9-0.3-0.9-0.9V5.6h-0.3c-0.2,0.1-0.7,0.2-1.1,0.2v0.3c0.3,0.1,0.3,0.1,0.7,0.2v1.9
				c0,0.9,0.5,1.4,1.2,1.4c0.8,0,1.3-0.4,1.3-0.6v0.6h0.3C122.4,9.4,122.8,9.2,123.1,9.2"/>
			<path class="st4" d="M126.2,8.2c0-1.2-2.1-0.9-2.1-1.8c0-0.4,0.2-0.6,0.7-0.6c0.7,0,0.8,0.4,0.8,0.8h0.3c0,0,0-0.3,0-0.5
				c0-0.2,0-0.5,0-0.5c-0.4,0-0.6-0.1-1.1-0.1s-1.3,0.3-1.3,1.2c0,1.3,2,0.8,2,1.8c0,0.3-0.2,0.6-0.8,0.6c-0.9,0-1-0.6-1-0.9h-0.3
				c0,0,0,0.3,0,0.5s0,0.5,0,0.5c0.4,0,0.6,0.2,1.2,0.2C125.5,9.5,126.2,9,126.2,8.2"/>
			<path class="st4" d="M128.7,9.4V9.1c-0.3,0-0.6,0-0.6-0.5V5.5h-0.3c-0.3,0.1-0.8,0.2-1.1,0.2V6c0.3,0.1,0.4,0.1,0.7,0.2v2.4
				c0,0.5-0.3,0.5-0.6,0.5v0.3c0.2,0,0.5,0,1,0C128.1,9.4,128.5,9.4,128.7,9.4 M128.2,4.1c0-0.2-0.1-0.5-0.5-0.5
				c-0.4,0-0.5,0.2-0.5,0.5c0,0.2,0.1,0.5,0.5,0.5C128,4.6,128.2,4.4,128.2,4.1"/>
			<path class="st4" d="M133.5,9.4V9.1c-0.3,0-0.6,0-0.6-0.5V6.8c0-1.1-0.9-1.2-1.2-1.2c-0.8,0-1.2,0.5-1.3,0.6V5.6h-0.3
				c-0.3,0.1-0.8,0.2-1.1,0.2v0.3c0.3,0.1,0.4,0.1,0.7,0.2v2.4c0,0.5-0.3,0.5-0.6,0.5v0.3c0.2,0,0.5,0,1,0c0.4,0,0.7,0,1,0V9.2
				c-0.3,0-0.6,0-0.6-0.5V6.6c0.1-0.2,0.5-0.4,0.9-0.4c0.5,0,0.9,0.3,0.9,0.8v1.7c0,0.5-0.3,0.5-0.6,0.5v0.3c0.2,0,0.5,0,1,0
				C133,9.4,133.3,9.4,133.5,9.4"/>
			<path class="st4" d="M136.6,7h-1.8c0-0.5,0.3-1.1,0.9-1.1C136.3,5.9,136.6,6.5,136.6,7 M137.3,7.4L137.3,7.4
				c0-1.1-0.6-1.8-1.5-1.8c-1,0-1.7,0.8-1.7,2c0,1.1,0.6,2,1.7,2c1,0,1.4-0.6,1.5-0.7l-0.2-0.3c0,0-0.3,0.4-1,0.4
				c-0.5,0-1.3-0.3-1.3-1.5L137.3,7.4z"/>
			<path class="st4" d="M140.6,8.2c0-1.2-2.1-0.9-2.1-1.8c0-0.4,0.2-0.6,0.7-0.6c0.7,0,0.8,0.4,0.8,0.8h0.3c0,0,0-0.3,0-0.5
				c0-0.2,0-0.5,0-0.5c-0.4,0-0.6-0.1-1.1-0.1S138,5.8,138,6.7c0,1.3,2,0.8,2,1.8c0,0.3-0.2,0.6-0.8,0.6c-0.9,0-1-0.6-1-0.9h-0.3
				c0,0,0,0.3,0,0.5s0,0.5,0,0.5c0.4,0,0.6,0.2,1.2,0.2C139.8,9.5,140.6,9,140.6,8.2"/>
			<path class="st4" d="M143.9,8.2c0-1.2-2.1-0.9-2.1-1.8c0-0.4,0.2-0.6,0.7-0.6c0.7,0,0.8,0.4,0.8,0.8h0.3c0,0,0-0.3,0-0.5
				c0-0.2,0-0.5,0-0.5c-0.4,0-0.6-0.1-1.1-0.1s-1.3,0.3-1.3,1.2c0,1.3,2,0.8,2,1.8c0,0.3-0.2,0.6-0.8,0.6c-0.9,0-1-0.6-1-0.9h-0.3
				c0,0,0,0.3,0,0.5s0,0.5,0,0.5c0.4,0,0.6,0.2,1.2,0.2C143.2,9.5,143.9,9,143.9,8.2"/>
			<path class="st4" d="M145.6,9c0-0.2-0.1-0.5-0.5-0.5c-0.4,0-0.5,0.2-0.5,0.5c0,0.2,0.1,0.5,0.5,0.5C145.4,9.5,145.6,9.2,145.6,9"
				/>
		</g>
	</g>
</g>
</svg>
