<?xml version="1.0" encoding="utf-8"?>
<!-- Generator: Adobe Illustrator 19.2.1, SVG Export Plug-In . SVG Version: 6.00 Build 0)  -->
<svg version="1.1" id="Ebene_1" xmlns="http://www.w3.org/2000/svg" xmlns:xlink="http://www.w3.org/1999/xlink" x="0px" y="0px"
	 viewBox="0 0 106 40" style="enable-background:new 0 0 106 40;" xml:space="preserve">
<style type="text/css">
	.st0{fill:#006EC7;}
	.st1{fill:#887D75;}
</style>
<path class="st0" d="M10,22.6c-0.8,0.4-2,1-3.1,1.1c-1.7,0.1-1.7-1.6-1.7-2.7c0-1.2,0.6-1.6,1.9-1.6h3v3.2H10z M14,15.7
	c0-4-1.5-5.8-6.5-5.8c-1.8,0-4,0.3-5.5,0.8l0.5,3.1c1.4-0.3,3-0.5,4.4-0.5c2.6,0,3.1,0.4,3.1,2.2v0.8H6c-3.2,0-4.5,2.3-4.5,5.5
	c0,2.8,1.2,4.8,4.2,4.8c1.6,0,3.3-0.5,4.8-1.4l0.3,1.2H14V15.7z"/>
<path class="st0" d="M26.8,21.7c-0.9,0.8-2.3,1.5-3.6,1.5c-1.5,0-2-0.7-2-2.1v-5.7c0-1.5,0.6-2,2-2c1.2,0,2.5,0.2,3.6,0.4V21.7z
	 M17.1,21c0,3.7,1.7,5.6,5,5.6c2,0,3.7-0.7,5.1-1.7l0.4,1.5h3.2V3.3l-4,0.6v6.6c-1.3-0.3-2.9-0.5-4.3-0.5c-3.7,0-5.3,1.9-5.3,5.5V21
	H17.1z"/>
<path class="st0" d="M87,16.1v4.3c0,1.8-0.8,2.8-3,2.8c-2.1,0-3-1-3-2.8v-4.3c0-1.8,0.8-2.8,3-2.8C86.2,13.4,87,14.3,87,16.1
	 M91,20.3v-4c0-3.3-1.5-6.3-7-6.3s-7,3-7,6.3v4c0,3.3,1.5,6.3,7,6.3C89.5,26.6,91,23.6,91,20.3"/>
<path class="st0" d="M60.7,21.4c-0.2-3.3-0.6-3.8-5.1-4.8c-2.2-0.5-2.3-0.5-2.3-1.8c0-1,0.2-1.4,2-1.5c1.2-0.1,3.2,0.1,4.4,0.3
	l0.2-3.2C58.4,10,56.5,9.9,55,10c-4.5,0.2-5.9,1.7-5.7,4.9c0.1,3.1,0.6,4,4.6,4.8c2.6,0.5,2.8,1,2.9,2c0.1,1.2-0.2,1.6-2,1.7
	c-1.6,0.1-3.4-0.1-4.8-0.5L49.6,26c1.5,0.5,3.8,0.7,5.5,0.7C60,26.4,60.8,24.4,60.7,21.4"/>
<path class="st0" d="M74.7,21.4c-0.2-3.3-0.6-3.8-5.1-4.8c-2.2-0.5-2.3-0.5-2.3-1.8c0-1,0.2-1.4,2-1.5c1.2-0.1,3.2,0.1,4.4,0.3
	l0.2-3.2C72.4,10,70.5,9.9,69,10c-4.5,0.2-5.9,1.7-5.7,4.9c0.1,3.1,0.6,4,4.6,4.8c2.6,0.5,2.8,1,2.9,2c0.1,1.2-0.2,1.6-2,1.7
	c-1.6,0.1-3.4-0.1-4.8-0.5L63.6,26c1.5,0.5,3.8,0.7,5.5,0.7C74,26.4,74.8,24.4,74.7,21.4"/>
<path class="st0" d="M38,15.8c0-1.5,0.7-2.6,2.7-2.6s2.4,1.1,2.4,2.6v0.8H38V15.8z M38,20.6v-0.8h8.9v-3.4c0-3.4-1.1-6.4-6.3-6.4
	c-5.1,0-6.6,2.9-6.6,6.2v4.2c0,3.8,1.7,6.2,6.8,6.2c1.9,0,3.5-0.2,5.3-0.9l0.4-3c-2.1,0.6-3.7,0.9-5.3,0.7
	C38.7,23.3,38,22.6,38,20.6"/>
<polygon class="st1" points="99.9,1 99.9,28.7 90.1,38.3 92.3,38.3 101.4,29.4 101.4,1 "/>
</svg>
